<?xml version="1.0" encoding="utf-8"?>
<!-- Generator: Adobe Illustrator 27.1.1, SVG Export Plug-In . SVG Version: 6.00 Build 0)  -->
<svg version="1.1" id="Camada_1" xmlns="http://www.w3.org/2000/svg" xmlns:xlink="http://www.w3.org/1999/xlink" x="0px" y="0px"
	 viewBox="0 0 341 210.75" style="enable-background:new 0 0 341 210.75;" xml:space="preserve">
<style type="text/css">
	.st0{fill:#4493CD;}
	.st1{fill:#BDA93B;}
	.st2{fill:#C45791;}
	.st3{fill:#FFFFFF;}
	.st4{fill:#CFB632;}
	.st5{fill:#BFDFF7;}
	.st6{fill:#262626;}
	.st7{fill:#E5CF5F;}
	.st8{fill:#F1A5C9;}
	.st9{fill:#C8E6FA;}
	.st10{fill:#3E3E3E;}
	.st11{fill-rule:evenodd;clip-rule:evenodd;fill:#FAFAFA;}
	.st12{fill-rule:evenodd;clip-rule:evenodd;fill:#FFFFFF;}
	.st13{fill:#010202;}
	.st14{fill:#CCC8C9;}
	.st15{fill:#D9D9D9;}
	.st16{fill:none;stroke:#010202;}
	.st17{fill-rule:evenodd;clip-rule:evenodd;fill:#262626;}
</style>
<g>
	<rect x="170.34" y="164.57" class="st6" width="170.34" height="45.99"/>
	<rect y="83.66" class="st9" width="326.2" height="80.91"/>
	<rect x="23.85" y="0.19" class="st7" width="257.21" height="83.47"/>
	<path class="st6" d="M50.9,110.42H38.85v-3.76h28.44v3.76H55.31v35.41H50.9V110.42z"/>
	<path class="st6" d="M101.94,145.83l-9.72-16.93h-7.39v16.93h-4.41v-39.17H92.4c8.98,0,13.47,3.62,13.47,10.85
		c0,2.98-0.81,5.41-2.44,7.27c-1.59,1.87-3.82,3.1-6.68,3.7l10.19,17.35H101.94z M84.83,125.33h6.86c3.18,0,5.6-0.66,7.27-1.97
		c1.67-1.31,2.5-3.26,2.5-5.84c0-2.58-0.81-4.43-2.44-5.54c-1.63-1.15-4.07-1.73-7.33-1.73h-6.86V125.33z"/>
	<path class="st6" d="M119.98,106.67h22.24v3.76h-17.83v12.94h15.02v3.7h-15.02v15.02h18.42v3.76h-22.83V106.67z"/>
	<path class="st6" d="M157.2,106.67h4.41v39.17h-4.41V106.67z"/>
	<path class="st6" d="M178.48,106.67h4.53l14.78,25.4l4.29,8.05h0.24l-0.18-2.62c-0.04-0.64-0.12-1.97-0.24-3.99
		c-0.12-2.07-0.18-3.93-0.18-5.6v-21.22h4.17v39.17h-4.53l-14.79-25.4l-4.29-8.05h-0.24l0.18,2.86c0.28,3.46,0.42,6.5,0.42,9.12
		v21.46h-4.17V106.67z"/>
	<path class="st6" d="M240.63,133.49h-14.61l-3.99,12.34h-4.47l13.41-39.17h4.89l13.35,39.17h-4.65L240.63,133.49z M239.5,129.98
		l-2.03-6.32c-1.59-4.97-2.94-9.4-4.05-13.3h-0.24c-1.31,4.81-2.64,9.24-3.99,13.3l-2.03,6.32H239.5z"/>
	<path class="st6" d="M282.43,145.83l-9.72-16.93h-7.39v16.93h-4.41v-39.17h11.98c8.98,0,13.47,3.62,13.47,10.85
		c0,2.98-0.82,5.41-2.44,7.27c-1.59,1.87-3.82,3.1-6.68,3.7l10.2,17.35H282.43z M265.32,125.33h6.86c3.18,0,5.6-0.66,7.27-1.97
		c1.67-1.31,2.5-3.26,2.5-5.84c0-2.58-0.81-4.43-2.44-5.54c-1.63-1.15-4.07-1.73-7.33-1.73h-6.86V125.33z"/>
	<path class="st3" d="M194,178.55h1.33l-6.84,21.49h-1.33L194,178.55z"/>
	<path class="st3" d="M205.15,178.55h1.33l-6.84,21.49h-1.33L205.15,178.55z"/>
	<path class="st3" d="M216.31,178.55h1.33l-6.84,21.49h-1.33L216.31,178.55z"/>
	<path class="st3" d="M230.06,179.86h9.21v1.56h-7.38v5.36h6.22v1.53h-6.22v6.22h7.63v1.56h-9.46V179.86z"/>
	<path class="st3" d="M248.89,181.41h-4.99v-1.56h11.78v1.56h-4.96v14.67h-1.83V181.41z"/>
	<path class="st3" d="M267.52,190.97h-6.05l-1.66,5.11h-1.85l5.56-16.23h2.03l5.53,16.23h-1.93L267.52,190.97z M267.05,189.52
		l-0.84-2.62c-0.66-2.06-1.22-3.89-1.68-5.51h-0.1c-0.54,1.99-1.1,3.83-1.66,5.51l-0.84,2.62H267.05z"/>
	<path class="st3" d="M275.92,179.86h4.49c1.93,0,3.41,0.37,4.45,1.11c1.05,0.72,1.58,1.93,1.58,3.61c0,1.63-0.53,2.86-1.58,3.7
		c-1.05,0.82-2.5,1.23-4.35,1.23h-2.77v6.57h-1.83V179.86z M280.24,188.01c1.5,0,2.6-0.27,3.31-0.82c0.71-0.56,1.06-1.43,1.06-2.62
		c0-1.19-0.36-2.02-1.09-2.49c-0.72-0.49-1.85-0.74-3.38-0.74h-2.4v6.67H280.24z"/>
	<path class="st3" d="M298.41,190.97h-6.05l-1.66,5.11h-1.85l5.56-16.23h2.03l5.53,16.23h-1.93L298.41,190.97z M297.94,189.52
		l-0.84-2.62c-0.66-2.06-1.22-3.89-1.68-5.51h-0.1c-0.54,1.99-1.09,3.83-1.65,5.51l-0.84,2.62H297.94z"/>
	<path class="st3" d="M312.94,195.02c1.86-1.88,3.3-3.38,4.32-4.52c1.02-1.14,1.8-2.18,2.35-3.14c0.56-0.96,0.84-1.85,0.84-2.69
		c0-0.95-0.26-1.72-0.79-2.3c-0.53-0.58-1.3-0.86-2.32-0.86c-0.63,0-1.23,0.17-1.83,0.52c-0.58,0.35-1.11,0.82-1.61,1.41l-1.06-1.04
		c0.69-0.76,1.42-1.34,2.17-1.75c0.76-0.41,1.61-0.62,2.54-0.62c1.43,0,2.57,0.42,3.41,1.26c0.84,0.82,1.26,1.93,1.26,3.31
		c0,0.95-0.27,1.94-0.82,2.94c-0.53,1-1.23,2.02-2.1,3.04c-0.87,1.02-2.12,2.38-3.73,4.08l0.59-0.03c0.92-0.07,1.6-0.1,2.05-0.1
		h4.77v1.56h-10.05V195.02z"/>
	<path class="st6" d="M85.54,71c-0.72,0.36-1.67,0.64-2.86,0.83c-1.15,0.24-2.42,0.36-3.82,0.36c-3.9,0-7.25-0.93-10.08-2.8
		c-2.82-1.87-4.93-4.37-6.32-7.51c-4.21-0.83-7.57-3-10.08-6.5c-2.46-3.54-3.7-8.03-3.7-13.47c0-4.17,0.74-7.75,2.21-10.73
		c1.47-3.02,3.52-5.33,6.14-6.92c2.66-1.59,5.72-2.38,9.18-2.38c3.46,0,6.5,0.79,9.12,2.38c2.66,1.59,4.71,3.9,6.14,6.92
		c1.47,3.02,2.21,6.6,2.21,10.73c0,5.21-1.13,9.54-3.4,13c-2.23,3.42-5.29,5.66-9.18,6.74c0.83,1.35,2.03,2.34,3.58,2.98
		c1.55,0.68,3.26,1.01,5.13,1.01c1.47,0,2.9-0.22,4.29-0.66L85.54,71z M57.1,41.9c0,4.25,0.81,7.59,2.44,10.02
		c1.63,2.42,3.86,3.64,6.68,3.64c2.78,0,4.99-1.21,6.62-3.64c1.67-2.42,2.5-5.76,2.5-10.02c0-4.01-0.83-7.17-2.5-9.48
		c-1.63-2.31-3.84-3.46-6.62-3.46c-2.82,0-5.05,1.15-6.68,3.46C57.91,34.69,57.1,37.85,57.1,41.9z"/>
	<path class="st6" d="M112.23,62.23c-4.97,0-8.76-1.49-11.39-4.47c-2.58-2.98-3.88-7.63-3.88-13.95V22.59h8.17v22
		c0,3.78,0.6,6.48,1.79,8.11c1.19,1.63,2.96,2.44,5.31,2.44c2.38,0,4.19-0.81,5.43-2.44c1.23-1.63,1.85-4.33,1.85-8.11v-22h7.87
		v21.22c0,6.32-1.29,10.97-3.87,13.95C120.95,60.74,117.19,62.23,112.23,62.23z"/>
	<path class="st6" d="M142.58,22.59h24.09v6.86h-15.92v8.53h13.53v6.86h-13.53v9.84h16.51v6.86h-24.68V22.59z"/>
	<path class="st6" d="M202.13,61.52l-7.75-14.43h-5.19v14.43h-8.17V22.59h13.71c4.53,0,8.13,0.93,10.79,2.8
		c2.66,1.83,3.99,4.87,3.99,9.12c0,2.78-0.64,5.13-1.91,7.03c-1.27,1.87-3.04,3.26-5.31,4.17l9,15.8H202.13z M189.2,40.59h4.83
		c2.46,0,4.33-0.5,5.6-1.49c1.27-1.03,1.91-2.56,1.91-4.59c0-1.95-0.62-3.34-1.85-4.17c-1.23-0.83-3.12-1.25-5.66-1.25h-4.83V40.59z
		"/>
	<path class="st6" d="M238.77,62.23c-3.46,0-6.52-0.81-9.18-2.44c-2.62-1.63-4.67-3.97-6.14-7.04c-1.47-3.1-2.21-6.72-2.21-10.85
		c0-4.17,0.74-7.75,2.21-10.73c1.47-3.02,3.52-5.33,6.14-6.92c2.66-1.59,5.72-2.38,9.18-2.38c3.46,0,6.5,0.79,9.12,2.38
		c2.66,1.59,4.71,3.9,6.14,6.92c1.47,3.02,2.21,6.6,2.21,10.73s-0.74,7.75-2.21,10.85c-1.43,3.06-3.48,5.41-6.14,7.04
		C245.26,61.42,242.22,62.23,238.77,62.23z M238.77,55.14c2.78,0,4.99-1.19,6.62-3.58c1.67-2.38,2.5-5.6,2.5-9.66
		c0-4.01-0.83-7.17-2.5-9.48c-1.63-2.31-3.83-3.46-6.62-3.46c-2.82,0-5.05,1.15-6.68,3.46c-1.63,2.27-2.44,5.43-2.44,9.48
		s0.81,7.27,2.44,9.66C233.76,53.95,235.98,55.14,238.77,55.14z"/>
</g>
</svg>
