<?xml version="1.0" encoding="utf-8"?>
<!-- Generator: Adobe Illustrator 27.1.1, SVG Export Plug-In . SVG Version: 6.00 Build 0)  -->
<svg version="1.1" id="Camada_1" xmlns="http://www.w3.org/2000/svg" xmlns:xlink="http://www.w3.org/1999/xlink" x="0px" y="0px"
	 viewBox="0 0 230.9 295.48" style="enable-background:new 0 0 230.9 295.48;" xml:space="preserve">
<style type="text/css">
	.st0{fill:#4493CD;}
	.st1{fill:#BDA93B;}
	.st2{fill:#C45791;}
	.st3{fill:#FFFFFF;}
	.st4{fill:#CFB632;}
	.st5{fill:#BFDFF7;}
	.st6{fill:#262626;}
	.st7{fill:#E5CF5F;}
	.st8{fill:#F1A5C9;}
	.st9{fill:#C8E6FA;}
	.st10{fill:#3E3E3E;}
	.st11{fill-rule:evenodd;clip-rule:evenodd;fill:#FAFAFA;}
	.st12{fill-rule:evenodd;clip-rule:evenodd;fill:#FFFFFF;}
	.st13{fill:#010202;}
	.st14{fill:#CCC8C9;}
	.st15{fill-rule:evenodd;clip-rule:evenodd;fill:#262626;}
	.st16{fill:#D9D9D9;}
	.st17{fill:none;stroke:#010202;}
</style>
<path class="st16" d="M15.28,93.1c0-2.21,1.79-4,4-4h22c2.21,0,4,1.79,4,4v22c0,2.21-1.79,4-4,4h-22c-2.21,0-4-1.79-4-4V93.1z"/>
<path class="st13" d="M71.25,97.68l-3.99,11.42h-1.98l-3.99-11.42h1.92l2.41,7.16c0.07,0.21,0.15,0.46,0.23,0.76
	c0.09,0.3,0.17,0.6,0.24,0.9c0.08,0.3,0.14,0.57,0.18,0.8c0.04-0.23,0.1-0.5,0.17-0.8c0.08-0.3,0.16-0.6,0.24-0.9
	c0.08-0.3,0.16-0.55,0.23-0.76l2.41-7.15H71.25z"/>
<path class="st13" d="M74.4,100.45v8.65h-1.84v-8.65H74.4z M73.49,97.14c0.28,0,0.52,0.08,0.73,0.23c0.21,0.15,0.31,0.41,0.31,0.78
	c0,0.36-0.1,0.62-0.31,0.78c-0.2,0.15-0.45,0.23-0.73,0.23c-0.29,0-0.54-0.08-0.74-0.23c-0.2-0.16-0.3-0.42-0.3-0.78
	c0-0.37,0.1-0.63,0.3-0.78C72.96,97.21,73.2,97.14,73.49,97.14z"/>
<path class="st13" d="M84.69,104.75c0,0.72-0.09,1.36-0.28,1.91c-0.19,0.56-0.46,1.03-0.82,1.41c-0.36,0.38-0.79,0.67-1.3,0.88
	c-0.51,0.2-1.08,0.3-1.71,0.3c-0.59,0-1.14-0.1-1.63-0.3c-0.49-0.2-0.92-0.49-1.29-0.88c-0.36-0.38-0.64-0.86-0.84-1.41
	c-0.2-0.56-0.3-1.2-0.3-1.91c0-0.95,0.16-1.76,0.49-2.42c0.33-0.67,0.81-1.17,1.42-1.52c0.61-0.35,1.35-0.52,2.2-0.52
	c0.8,0,1.5,0.17,2.11,0.52s1.09,0.86,1.43,1.52C84.52,103,84.69,103.81,84.69,104.75z M78.42,104.75c0,0.63,0.08,1.17,0.23,1.62
	c0.16,0.45,0.4,0.79,0.72,1.03c0.32,0.23,0.74,0.35,1.25,0.35c0.51,0,0.93-0.12,1.25-0.35c0.32-0.24,0.56-0.58,0.71-1.03
	c0.15-0.45,0.23-0.99,0.23-1.62c0-0.63-0.08-1.16-0.23-1.6c-0.15-0.44-0.39-0.78-0.71-1.01c-0.32-0.24-0.74-0.35-1.26-0.35
	c-0.76,0-1.32,0.26-1.66,0.77S78.42,103.8,78.42,104.75z"/>
<path class="st13" d="M88.64,109.1H86.8V96.94h1.84V109.1z"/>
<path class="st13" d="M94.71,100.29c0.77,0,1.43,0.16,1.98,0.48c0.55,0.32,0.98,0.77,1.27,1.35c0.3,0.58,0.45,1.28,0.45,2.09v0.99
	h-5.77c0.02,0.84,0.24,1.48,0.67,1.94c0.43,0.45,1.04,0.68,1.81,0.68c0.55,0,1.05-0.05,1.48-0.16c0.44-0.11,0.9-0.27,1.37-0.48v1.49
	c-0.43,0.2-0.87,0.35-1.32,0.45c-0.45,0.09-0.98,0.14-1.61,0.14c-0.85,0-1.6-0.16-2.24-0.49c-0.64-0.33-1.14-0.83-1.51-1.48
	c-0.36-0.66-0.54-1.47-0.54-2.45c0-0.97,0.16-1.79,0.49-2.47c0.33-0.68,0.79-1.19,1.38-1.55C93.23,100.46,93.92,100.29,94.71,100.29
	z M94.71,101.67c-0.58,0-1.05,0.19-1.41,0.56c-0.35,0.38-0.56,0.92-0.62,1.65h3.94c-0.01-0.43-0.08-0.82-0.22-1.15
	c-0.14-0.33-0.34-0.59-0.62-0.78C95.5,101.76,95.15,101.67,94.71,101.67z M95.64,96.84c0.14,0.24,0.33,0.5,0.56,0.8
	c0.24,0.29,0.49,0.58,0.74,0.86c0.26,0.28,0.49,0.51,0.69,0.71v0.2h-1.25c-0.28-0.18-0.58-0.39-0.9-0.63
	c-0.31-0.25-0.61-0.52-0.88-0.8c-0.28,0.29-0.58,0.55-0.88,0.8c-0.3,0.24-0.59,0.46-0.87,0.64h-1.24v-0.2
	c0.2-0.2,0.42-0.44,0.68-0.72s0.5-0.56,0.73-0.85c0.23-0.29,0.42-0.56,0.56-0.8H95.64z"/>
<path class="st13" d="M104.99,100.29c0.97,0,1.73,0.25,2.27,0.76c0.55,0.5,0.82,1.3,0.82,2.41v5.64h-1.84v-5.3
	c0-0.67-0.14-1.17-0.41-1.51c-0.28-0.34-0.7-0.51-1.28-0.51c-0.84,0-1.42,0.26-1.75,0.77c-0.32,0.52-0.48,1.26-0.48,2.24v4.3h-1.84
	v-8.65h1.43l0.26,1.17h0.1c0.19-0.3,0.42-0.55,0.7-0.74c0.28-0.2,0.59-0.35,0.94-0.45C104.26,100.33,104.62,100.29,104.99,100.29z"
	/>
<path class="st13" d="M114.14,109.25c-0.82,0-1.53-0.16-2.12-0.48c-0.6-0.32-1.06-0.8-1.38-1.46c-0.32-0.66-0.48-1.49-0.48-2.5
	c0-1.05,0.18-1.91,0.53-2.58c0.35-0.67,0.84-1.16,1.47-1.48c0.63-0.32,1.35-0.48,2.16-0.48c0.52,0,0.98,0.05,1.4,0.16
	c0.42,0.1,0.78,0.22,1.07,0.37l-0.55,1.47c-0.32-0.13-0.64-0.24-0.98-0.33c-0.33-0.09-0.65-0.13-0.96-0.13
	c-0.51,0-0.93,0.11-1.27,0.34c-0.33,0.22-0.58,0.56-0.75,1c-0.16,0.44-0.24,0.99-0.24,1.65c0,0.64,0.08,1.17,0.25,1.61
	c0.17,0.43,0.41,0.76,0.74,0.99c0.33,0.22,0.73,0.33,1.21,0.33c0.47,0,0.9-0.06,1.27-0.17c0.38-0.11,0.73-0.26,1.06-0.45v1.59
	c-0.33,0.19-0.68,0.32-1.05,0.41C115.15,109.21,114.69,109.25,114.14,109.25z"/>
<path class="st13" d="M120.45,100.45v8.65h-1.84v-8.65H120.45z M119.54,97.14c0.28,0,0.52,0.08,0.73,0.23
	c0.21,0.15,0.31,0.41,0.31,0.78c0,0.36-0.1,0.62-0.31,0.78c-0.2,0.15-0.45,0.23-0.73,0.23c-0.29,0-0.54-0.08-0.74-0.23
	c-0.2-0.16-0.3-0.42-0.3-0.78c0-0.37,0.1-0.63,0.3-0.78C119,97.21,119.25,97.14,119.54,97.14z"/>
<path class="st13" d="M126.47,100.29c1.09,0,1.92,0.24,2.48,0.73c0.56,0.48,0.84,1.24,0.84,2.27v5.82h-1.3l-0.35-1.23h-0.06
	c-0.24,0.31-0.5,0.57-0.76,0.77c-0.26,0.2-0.56,0.35-0.91,0.45c-0.34,0.1-0.75,0.16-1.24,0.16c-0.52,0-0.98-0.09-1.38-0.28
	c-0.41-0.19-0.73-0.48-0.96-0.88s-0.35-0.88-0.35-1.48c0-0.89,0.33-1.56,0.99-2.01c0.67-0.45,1.67-0.7,3.02-0.74l1.5-0.06v-0.45
	c0-0.6-0.14-1.03-0.42-1.28c-0.28-0.26-0.67-0.38-1.17-0.38c-0.43,0-0.85,0.06-1.26,0.19s-0.8,0.28-1.19,0.46l-0.59-1.3
	c0.42-0.22,0.9-0.41,1.44-0.55C125.33,100.36,125.89,100.29,126.47,100.29z M127.97,104.96l-1.12,0.04
	c-0.92,0.03-1.56,0.19-1.93,0.47c-0.37,0.28-0.55,0.67-0.55,1.16c0,0.43,0.13,0.74,0.38,0.94c0.26,0.19,0.59,0.29,1.01,0.29
	c0.64,0,1.16-0.18,1.58-0.54c0.42-0.36,0.63-0.9,0.63-1.6V104.96z"/>
<path class="st13" d="M146.29,100.29c0.97,0,1.7,0.25,2.19,0.75c0.49,0.5,0.74,1.3,0.74,2.41v5.66h-1.84v-5.33
	c0-0.66-0.13-1.15-0.38-1.48c-0.26-0.33-0.64-0.5-1.16-0.5c-0.73,0-1.26,0.23-1.58,0.7c-0.32,0.46-0.48,1.14-0.48,2.02v4.59h-1.84
	v-5.33c0-0.44-0.06-0.8-0.17-1.09c-0.11-0.3-0.28-0.52-0.51-0.66c-0.23-0.15-0.52-0.23-0.87-0.23c-0.51,0-0.91,0.11-1.21,0.34
	c-0.3,0.23-0.51,0.57-0.64,1.02c-0.13,0.44-0.2,0.99-0.2,1.63v4.32h-1.84v-8.65h1.43l0.26,1.16h0.1c0.18-0.3,0.4-0.55,0.66-0.74
	c0.27-0.2,0.56-0.34,0.88-0.44c0.32-0.1,0.66-0.15,1.01-0.15c0.65,0,1.19,0.11,1.63,0.34c0.44,0.22,0.77,0.57,0.99,1.03h0.14
	c0.27-0.47,0.65-0.82,1.13-1.04C145.24,100.4,145.75,100.29,146.29,100.29z"/>
<path class="st13" d="M159.44,104.75c0,0.72-0.09,1.36-0.28,1.91c-0.19,0.56-0.46,1.03-0.82,1.41c-0.36,0.38-0.79,0.67-1.3,0.88
	c-0.51,0.2-1.08,0.3-1.71,0.3c-0.59,0-1.14-0.1-1.63-0.3c-0.49-0.2-0.92-0.49-1.29-0.88c-0.36-0.38-0.64-0.86-0.84-1.41
	c-0.2-0.56-0.3-1.2-0.3-1.91c0-0.95,0.16-1.76,0.49-2.42c0.33-0.67,0.81-1.17,1.42-1.52c0.61-0.35,1.35-0.52,2.2-0.52
	c0.8,0,1.5,0.17,2.11,0.52s1.09,0.86,1.43,1.52C159.27,103,159.44,103.81,159.44,104.75z M153.17,104.75c0,0.63,0.08,1.17,0.23,1.62
	c0.16,0.45,0.4,0.79,0.72,1.03c0.32,0.23,0.74,0.35,1.25,0.35c0.51,0,0.93-0.12,1.25-0.35c0.32-0.24,0.56-0.58,0.71-1.03
	c0.15-0.45,0.23-0.99,0.23-1.62c0-0.63-0.08-1.16-0.23-1.6c-0.15-0.44-0.39-0.78-0.71-1.01c-0.32-0.24-0.74-0.35-1.26-0.35
	c-0.76,0-1.32,0.26-1.66,0.77S153.17,103.8,153.17,104.75z"/>
<path class="st13" d="M165.93,100.29c0.15,0,0.3,0.01,0.48,0.02c0.17,0.02,0.32,0.04,0.45,0.06l-0.17,1.72
	c-0.11-0.03-0.24-0.05-0.41-0.07c-0.16-0.02-0.3-0.02-0.42-0.02c-0.33,0-0.64,0.06-0.94,0.16c-0.3,0.11-0.56,0.27-0.79,0.49
	c-0.23,0.21-0.41,0.48-0.54,0.81c-0.13,0.32-0.2,0.7-0.2,1.12v4.52h-1.84v-8.65h1.44l0.25,1.52h0.09c0.17-0.31,0.39-0.59,0.64-0.84
	c0.26-0.26,0.55-0.46,0.88-0.61C165.17,100.36,165.54,100.29,165.93,100.29z"/>
<path class="st13" d="M171.85,100.29c1.09,0,1.92,0.24,2.48,0.73c0.56,0.48,0.84,1.24,0.84,2.27v5.82h-1.3l-0.35-1.23h-0.06
	c-0.24,0.31-0.5,0.57-0.76,0.77c-0.26,0.2-0.56,0.35-0.91,0.45c-0.34,0.1-0.75,0.16-1.24,0.16c-0.52,0-0.98-0.09-1.38-0.28
	c-0.41-0.19-0.73-0.48-0.96-0.88s-0.35-0.88-0.35-1.48c0-0.89,0.33-1.56,0.99-2.01c0.67-0.45,1.67-0.7,3.02-0.74l1.5-0.06v-0.45
	c0-0.6-0.14-1.03-0.42-1.28c-0.28-0.26-0.67-0.38-1.17-0.38c-0.43,0-0.85,0.06-1.26,0.19c-0.41,0.12-0.8,0.28-1.19,0.46l-0.59-1.3
	c0.42-0.22,0.9-0.41,1.44-0.55C170.7,100.36,171.26,100.29,171.85,100.29z M173.35,104.96l-1.12,0.04
	c-0.92,0.03-1.56,0.19-1.93,0.47c-0.37,0.28-0.55,0.67-0.55,1.16c0,0.43,0.13,0.74,0.38,0.94c0.26,0.19,0.59,0.29,1.01,0.29
	c0.64,0,1.16-0.18,1.58-0.54c0.42-0.36,0.63-0.9,0.63-1.6V104.96z"/>
<path class="st13" d="M179.58,109.1h-1.84V96.94h1.84V109.1z"/>
<path class="st13" d="M32.05,99.93c-0.49,0-0.93,0.1-1.31,0.29c-0.38,0.19-0.69,0.46-0.95,0.82c-0.25,0.36-0.45,0.79-0.58,1.3
	c-0.13,0.51-0.2,1.08-0.2,1.72c0,0.86,0.1,1.59,0.32,2.2c0.22,0.6,0.55,1.07,1,1.39c0.45,0.32,1.03,0.47,1.74,0.47
	c0.49,0,0.98-0.06,1.48-0.17c0.5-0.11,1.04-0.27,1.62-0.47v2.16c-0.54,0.22-1.06,0.38-1.59,0.47c-0.52,0.1-1.1,0.15-1.75,0.15
	c-1.25,0-2.28-0.26-3.09-0.77c-0.8-0.52-1.4-1.24-1.78-2.18c-0.39-0.93-0.58-2.02-0.58-3.27c0-0.92,0.12-1.76,0.37-2.52
	c0.25-0.76,0.61-1.43,1.1-1.98c0.48-0.56,1.08-0.99,1.78-1.29c0.71-0.3,1.52-0.46,2.44-0.46c0.6,0,1.21,0.08,1.81,0.23
	c0.61,0.15,1.19,0.36,1.74,0.62l-0.83,2.09c-0.45-0.22-0.91-0.4-1.37-0.56C32.94,100.01,32.49,99.93,32.05,99.93z"/>
<path class="st16" d="M15.28,135.1c0-2.21,1.79-4,4-4h22c2.21,0,4,1.79,4,4v22c0,2.21-1.79,4-4,4h-22c-2.21,0-4-1.79-4-4V135.1z"/>
<path class="st13" d="M71.25,139.68l-3.99,11.42h-1.98l-3.99-11.42h1.92l2.41,7.16c0.07,0.21,0.15,0.46,0.23,0.76
	c0.09,0.3,0.17,0.6,0.24,0.9c0.08,0.3,0.14,0.57,0.18,0.8c0.04-0.23,0.1-0.5,0.17-0.8c0.08-0.3,0.16-0.6,0.24-0.9
	c0.08-0.3,0.16-0.55,0.23-0.76l2.41-7.15H71.25z"/>
<path class="st13" d="M74.4,142.45v8.65h-1.84v-8.65H74.4z M73.49,139.14c0.28,0,0.52,0.08,0.73,0.23c0.21,0.15,0.31,0.41,0.31,0.78
	c0,0.36-0.1,0.62-0.31,0.78c-0.2,0.15-0.45,0.23-0.73,0.23c-0.29,0-0.54-0.08-0.74-0.23c-0.2-0.16-0.3-0.42-0.3-0.78
	c0-0.37,0.1-0.63,0.3-0.78C72.96,139.21,73.2,139.14,73.49,139.14z"/>
<path class="st13" d="M84.69,146.75c0,0.72-0.09,1.36-0.28,1.91c-0.19,0.56-0.46,1.03-0.82,1.41c-0.36,0.38-0.79,0.67-1.3,0.88
	c-0.51,0.2-1.08,0.3-1.71,0.3c-0.59,0-1.14-0.1-1.63-0.3c-0.49-0.2-0.92-0.49-1.29-0.88c-0.36-0.38-0.64-0.86-0.84-1.41
	c-0.2-0.56-0.3-1.2-0.3-1.91c0-0.95,0.16-1.76,0.49-2.42c0.33-0.67,0.81-1.17,1.42-1.52c0.61-0.35,1.35-0.52,2.2-0.52
	c0.8,0,1.5,0.17,2.11,0.52s1.09,0.86,1.43,1.52C84.52,145,84.69,145.81,84.69,146.75z M78.42,146.75c0,0.63,0.08,1.17,0.23,1.62
	c0.16,0.45,0.4,0.79,0.72,1.03c0.32,0.23,0.74,0.35,1.25,0.35c0.51,0,0.93-0.12,1.25-0.35c0.32-0.24,0.56-0.58,0.71-1.03
	c0.15-0.45,0.23-0.99,0.23-1.62c0-0.63-0.08-1.16-0.23-1.6c-0.15-0.44-0.39-0.78-0.71-1.01c-0.32-0.24-0.74-0.35-1.26-0.35
	c-0.76,0-1.32,0.26-1.66,0.77S78.42,145.8,78.42,146.75z"/>
<path class="st13" d="M88.64,151.1H86.8v-12.16h1.84V151.1z"/>
<path class="st13" d="M94.71,142.29c0.77,0,1.43,0.16,1.98,0.48c0.55,0.32,0.98,0.77,1.27,1.35c0.3,0.58,0.45,1.28,0.45,2.09v0.99
	h-5.77c0.02,0.84,0.24,1.48,0.67,1.94c0.43,0.45,1.04,0.68,1.81,0.68c0.55,0,1.05-0.05,1.48-0.16c0.44-0.11,0.9-0.27,1.37-0.48v1.49
	c-0.43,0.2-0.87,0.35-1.32,0.45c-0.45,0.09-0.98,0.14-1.61,0.14c-0.85,0-1.6-0.16-2.24-0.49c-0.64-0.33-1.14-0.83-1.51-1.48
	c-0.36-0.66-0.54-1.47-0.54-2.45c0-0.97,0.16-1.79,0.49-2.47c0.33-0.68,0.79-1.19,1.38-1.55C93.23,142.46,93.92,142.29,94.71,142.29
	z M94.71,143.67c-0.58,0-1.05,0.19-1.41,0.56c-0.35,0.38-0.56,0.92-0.62,1.65h3.94c-0.01-0.43-0.08-0.82-0.22-1.15
	c-0.14-0.33-0.34-0.59-0.62-0.78C95.5,143.76,95.15,143.67,94.71,143.67z M95.64,138.84c0.14,0.24,0.33,0.5,0.56,0.8
	c0.24,0.29,0.49,0.58,0.74,0.86c0.26,0.28,0.49,0.51,0.69,0.71v0.2h-1.25c-0.28-0.18-0.58-0.39-0.9-0.63
	c-0.31-0.25-0.61-0.52-0.88-0.8c-0.28,0.29-0.58,0.55-0.88,0.8c-0.3,0.24-0.59,0.46-0.87,0.64h-1.24v-0.2
	c0.2-0.2,0.42-0.44,0.68-0.72s0.5-0.56,0.73-0.85c0.23-0.29,0.42-0.56,0.56-0.8H95.64z"/>
<path class="st13" d="M104.99,142.29c0.97,0,1.73,0.25,2.27,0.76c0.55,0.5,0.82,1.3,0.82,2.41v5.64h-1.84v-5.3
	c0-0.67-0.14-1.17-0.41-1.51c-0.28-0.34-0.7-0.51-1.28-0.51c-0.84,0-1.42,0.26-1.75,0.77c-0.32,0.52-0.48,1.26-0.48,2.24v4.3h-1.84
	v-8.65h1.43l0.26,1.17h0.1c0.19-0.3,0.42-0.55,0.7-0.74c0.28-0.2,0.59-0.35,0.94-0.45C104.26,142.33,104.62,142.29,104.99,142.29z"
	/>
<path class="st13" d="M114.14,151.25c-0.82,0-1.53-0.16-2.12-0.48c-0.6-0.32-1.06-0.8-1.38-1.46c-0.32-0.66-0.48-1.49-0.48-2.5
	c0-1.05,0.18-1.91,0.53-2.58c0.35-0.67,0.84-1.16,1.47-1.48c0.63-0.32,1.35-0.48,2.16-0.48c0.52,0,0.98,0.05,1.4,0.16
	c0.42,0.1,0.78,0.22,1.07,0.37l-0.55,1.47c-0.32-0.13-0.64-0.24-0.98-0.33c-0.33-0.09-0.65-0.13-0.96-0.13
	c-0.51,0-0.93,0.11-1.27,0.34c-0.33,0.22-0.58,0.56-0.75,1c-0.16,0.44-0.24,0.99-0.24,1.65c0,0.64,0.08,1.17,0.25,1.61
	c0.17,0.43,0.41,0.76,0.74,0.99c0.33,0.22,0.73,0.33,1.21,0.33c0.47,0,0.9-0.06,1.27-0.17c0.38-0.11,0.73-0.26,1.06-0.45v1.59
	c-0.33,0.19-0.68,0.32-1.05,0.41C115.15,151.21,114.69,151.25,114.14,151.25z"/>
<path class="st13" d="M120.45,142.45v8.65h-1.84v-8.65H120.45z M119.54,139.14c0.28,0,0.52,0.08,0.73,0.23
	c0.21,0.15,0.31,0.41,0.31,0.78c0,0.36-0.1,0.62-0.31,0.78c-0.2,0.15-0.45,0.23-0.73,0.23c-0.29,0-0.54-0.08-0.74-0.23
	c-0.2-0.16-0.3-0.42-0.3-0.78c0-0.37,0.1-0.63,0.3-0.78C119,139.21,119.25,139.14,119.54,139.14z"/>
<path class="st13" d="M126.47,142.29c1.09,0,1.92,0.24,2.48,0.73c0.56,0.48,0.84,1.24,0.84,2.27v5.82h-1.3l-0.35-1.23h-0.06
	c-0.24,0.31-0.5,0.57-0.76,0.77c-0.26,0.2-0.56,0.35-0.91,0.45c-0.34,0.1-0.75,0.16-1.24,0.16c-0.52,0-0.98-0.09-1.38-0.28
	c-0.41-0.19-0.73-0.48-0.96-0.88s-0.35-0.88-0.35-1.48c0-0.89,0.33-1.56,0.99-2.01c0.67-0.45,1.67-0.7,3.02-0.74l1.5-0.06v-0.45
	c0-0.6-0.14-1.03-0.42-1.28c-0.28-0.26-0.67-0.38-1.17-0.38c-0.43,0-0.85,0.06-1.26,0.19s-0.8,0.28-1.19,0.46l-0.59-1.3
	c0.42-0.22,0.9-0.41,1.44-0.55C125.33,142.36,125.89,142.29,126.47,142.29z M127.97,146.96l-1.12,0.04
	c-0.92,0.03-1.56,0.19-1.93,0.47c-0.37,0.28-0.55,0.67-0.55,1.16c0,0.43,0.13,0.74,0.38,0.94c0.26,0.19,0.59,0.29,1.01,0.29
	c0.64,0,1.16-0.18,1.58-0.54c0.42-0.36,0.63-0.9,0.63-1.6V146.96z"/>
<path class="st13" d="M142.33,148.63c0,0.57-0.14,1.05-0.41,1.44c-0.28,0.39-0.68,0.69-1.21,0.89c-0.53,0.2-1.17,0.3-1.94,0.3
	c-0.6,0-1.12-0.04-1.56-0.13c-0.43-0.08-0.84-0.21-1.23-0.39v-1.59c0.41,0.19,0.87,0.36,1.38,0.5c0.52,0.14,1,0.21,1.46,0.21
	c0.6,0,1.04-0.09,1.3-0.28c0.27-0.19,0.4-0.45,0.4-0.77c0-0.19-0.05-0.35-0.16-0.5c-0.1-0.15-0.3-0.3-0.59-0.46
	c-0.29-0.16-0.71-0.35-1.27-0.58c-0.55-0.22-1.01-0.44-1.38-0.66c-0.38-0.22-0.66-0.48-0.85-0.79c-0.19-0.31-0.29-0.71-0.29-1.2
	c0-0.76,0.3-1.35,0.91-1.74c0.61-0.4,1.41-0.6,2.41-0.6c0.53,0,1.03,0.05,1.5,0.16c0.47,0.1,0.94,0.26,1.39,0.46l-0.58,1.38
	c-0.39-0.17-0.78-0.31-1.18-0.42c-0.39-0.11-0.79-0.17-1.2-0.17c-0.47,0-0.84,0.07-1.09,0.22c-0.24,0.15-0.37,0.35-0.37,0.62
	c0,0.2,0.06,0.38,0.18,0.52c0.12,0.14,0.33,0.28,0.62,0.42c0.3,0.14,0.71,0.32,1.23,0.52c0.52,0.2,0.96,0.41,1.34,0.62
	c0.38,0.21,0.67,0.48,0.88,0.79C142.23,147.73,142.33,148.13,142.33,148.63z"/>
<path class="st13" d="M147.76,142.29c0.77,0,1.43,0.16,1.98,0.48c0.55,0.32,0.98,0.77,1.27,1.35c0.3,0.58,0.45,1.28,0.45,2.09v0.99
	h-5.77c0.02,0.84,0.24,1.48,0.67,1.94c0.43,0.45,1.04,0.68,1.81,0.68c0.55,0,1.05-0.05,1.48-0.16c0.44-0.11,0.9-0.27,1.37-0.48v1.49
	c-0.43,0.2-0.87,0.35-1.32,0.45c-0.45,0.09-0.98,0.14-1.61,0.14c-0.85,0-1.6-0.16-2.24-0.49c-0.64-0.33-1.14-0.83-1.51-1.48
	c-0.36-0.66-0.54-1.47-0.54-2.45c0-0.97,0.16-1.79,0.49-2.47c0.33-0.68,0.79-1.19,1.38-1.55
	C146.28,142.46,146.97,142.29,147.76,142.29z M147.76,143.67c-0.58,0-1.05,0.19-1.41,0.56c-0.35,0.38-0.56,0.92-0.62,1.65h3.94
	c-0.01-0.43-0.08-0.82-0.22-1.15c-0.14-0.33-0.34-0.59-0.62-0.78C148.55,143.76,148.19,143.67,147.76,143.67z"/>
<path class="st13" d="M155.45,146.68l-2.89-4.23h2.09l1.98,3.04l1.98-3.04h2.09l-2.91,4.23l3.05,4.42h-2.1l-2.12-3.24l-2.12,3.24
	h-2.09L155.45,146.68z"/>
<path class="st13" d="M169.89,142.45v8.65h-1.45l-0.25-1.16h-0.1c-0.18,0.3-0.41,0.54-0.7,0.74c-0.28,0.19-0.59,0.34-0.94,0.43
	c-0.34,0.1-0.71,0.15-1.09,0.15c-0.65,0-1.21-0.11-1.67-0.33c-0.46-0.22-0.81-0.57-1.05-1.03c-0.24-0.46-0.37-1.06-0.37-1.8v-5.65
	h1.84v5.3c0,0.67,0.14,1.17,0.41,1.51c0.28,0.33,0.7,0.5,1.28,0.5c0.56,0,1-0.12,1.33-0.34c0.33-0.23,0.56-0.57,0.7-1.02
	c0.14-0.45,0.21-1,0.21-1.65v-4.3H169.89z"/>
<path class="st13" d="M175.91,142.29c1.09,0,1.92,0.24,2.48,0.73c0.56,0.48,0.84,1.24,0.84,2.27v5.82h-1.3l-0.35-1.23h-0.06
	c-0.24,0.31-0.5,0.57-0.76,0.77c-0.26,0.2-0.56,0.35-0.91,0.45c-0.34,0.1-0.75,0.16-1.24,0.16c-0.52,0-0.98-0.09-1.38-0.28
	c-0.41-0.19-0.73-0.48-0.96-0.88c-0.23-0.39-0.35-0.88-0.35-1.48c0-0.89,0.33-1.56,0.99-2.01c0.67-0.45,1.67-0.7,3.02-0.74l1.5-0.06
	v-0.45c0-0.6-0.14-1.03-0.42-1.28c-0.28-0.26-0.67-0.38-1.17-0.38c-0.43,0-0.85,0.06-1.26,0.19c-0.41,0.12-0.8,0.28-1.19,0.46
	l-0.59-1.3c0.42-0.22,0.9-0.41,1.44-0.55C174.76,142.36,175.33,142.29,175.91,142.29z M177.41,146.96l-1.12,0.04
	c-0.92,0.03-1.56,0.19-1.93,0.47s-0.55,0.67-0.55,1.16c0,0.43,0.13,0.74,0.38,0.94c0.26,0.19,0.59,0.29,1.01,0.29
	c0.64,0,1.16-0.18,1.58-0.54c0.42-0.36,0.63-0.9,0.63-1.6V146.96z"/>
<path class="st13" d="M183.64,151.1h-1.84v-12.16h1.84V151.1z"/>
<path class="st13" d="M36.09,145.91c0,1.37-0.26,2.51-0.79,3.43c-0.52,0.91-1.28,1.6-2.27,2.07c-0.99,0.46-2.18,0.69-3.58,0.69
	h-3.44v-12.14h3.81c1.27,0,2.38,0.23,3.31,0.68c0.94,0.45,1.66,1.12,2.17,2C35.83,143.52,36.09,144.61,36.09,145.91z M33.41,145.98
	c0-0.9-0.13-1.63-0.4-2.21c-0.26-0.58-0.65-1.01-1.16-1.29c-0.51-0.28-1.14-0.41-1.89-0.41h-1.37v7.9h1.1c1.26,0,2.19-0.34,2.8-1
	C33.11,148.3,33.41,147.3,33.41,145.98z"/>
<path class="st16" d="M15.28,177.1c0-2.21,1.79-4,4-4h22c2.21,0,4,1.79,4,4v22c0,2.21-1.79,4-4,4h-22c-2.21,0-4-1.79-4-4V177.1z"/>
<path class="st13" d="M71.25,181.68l-3.99,11.42h-1.98l-3.99-11.42h1.92l2.41,7.16c0.07,0.21,0.15,0.46,0.23,0.76
	c0.09,0.3,0.17,0.6,0.24,0.9c0.08,0.3,0.14,0.57,0.18,0.8c0.04-0.23,0.1-0.5,0.17-0.8c0.08-0.3,0.16-0.6,0.24-0.9
	c0.08-0.3,0.16-0.55,0.23-0.77l2.41-7.15H71.25z"/>
<path class="st13" d="M74.4,184.45v8.65h-1.84v-8.65H74.4z M73.49,181.14c0.28,0,0.52,0.08,0.73,0.23c0.21,0.15,0.31,0.41,0.31,0.78
	c0,0.36-0.1,0.62-0.31,0.78c-0.2,0.15-0.45,0.23-0.73,0.23c-0.29,0-0.54-0.08-0.74-0.23c-0.2-0.16-0.3-0.42-0.3-0.78
	c0-0.37,0.1-0.63,0.3-0.78C72.96,181.21,73.2,181.14,73.49,181.14z"/>
<path class="st13" d="M84.69,188.75c0,0.72-0.09,1.36-0.28,1.91c-0.19,0.56-0.46,1.03-0.82,1.41c-0.36,0.38-0.79,0.67-1.3,0.88
	c-0.51,0.2-1.08,0.3-1.71,0.3c-0.59,0-1.14-0.1-1.63-0.3c-0.49-0.2-0.92-0.49-1.29-0.88c-0.36-0.39-0.64-0.86-0.84-1.41
	c-0.2-0.56-0.3-1.2-0.3-1.91c0-0.95,0.16-1.76,0.49-2.42c0.33-0.67,0.81-1.17,1.42-1.52c0.61-0.35,1.35-0.52,2.2-0.52
	c0.8,0,1.5,0.17,2.11,0.52s1.09,0.86,1.43,1.52C84.52,187,84.69,187.81,84.69,188.75z M78.42,188.75c0,0.63,0.08,1.17,0.23,1.62
	c0.16,0.45,0.4,0.79,0.72,1.03c0.32,0.23,0.74,0.35,1.25,0.35c0.51,0,0.93-0.12,1.25-0.35c0.32-0.24,0.56-0.58,0.71-1.03
	c0.15-0.45,0.23-0.99,0.23-1.62s-0.08-1.16-0.23-1.6c-0.15-0.44-0.39-0.78-0.71-1.01c-0.32-0.23-0.74-0.35-1.26-0.35
	c-0.76,0-1.32,0.26-1.66,0.77S78.42,187.8,78.42,188.75z"/>
<path class="st13" d="M88.64,193.1H86.8v-12.16h1.84V193.1z"/>
<path class="st13" d="M94.71,184.29c0.77,0,1.43,0.16,1.98,0.48s0.98,0.77,1.27,1.35c0.3,0.58,0.45,1.28,0.45,2.09v0.98h-5.77
	c0.02,0.84,0.24,1.48,0.67,1.94c0.43,0.45,1.04,0.68,1.81,0.68c0.55,0,1.05-0.05,1.48-0.16c0.44-0.11,0.9-0.27,1.37-0.48v1.49
	c-0.43,0.2-0.87,0.35-1.32,0.45c-0.45,0.09-0.98,0.14-1.61,0.14c-0.85,0-1.6-0.16-2.24-0.49c-0.64-0.33-1.14-0.83-1.51-1.48
	c-0.36-0.66-0.54-1.47-0.54-2.45c0-0.97,0.16-1.79,0.49-2.47s0.79-1.19,1.38-1.55C93.23,184.46,93.92,184.29,94.71,184.29z
	 M94.71,185.67c-0.58,0-1.05,0.19-1.41,0.56c-0.35,0.38-0.56,0.92-0.62,1.65h3.94c-0.01-0.43-0.08-0.82-0.22-1.15
	c-0.14-0.33-0.34-0.59-0.62-0.78C95.5,185.76,95.15,185.67,94.71,185.67z M95.64,180.84c0.14,0.24,0.33,0.5,0.56,0.8
	c0.24,0.29,0.49,0.58,0.74,0.86c0.26,0.28,0.49,0.51,0.69,0.71v0.2h-1.25c-0.28-0.18-0.58-0.39-0.9-0.63
	c-0.31-0.25-0.61-0.52-0.88-0.8c-0.28,0.29-0.58,0.55-0.88,0.8c-0.3,0.24-0.59,0.46-0.87,0.64h-1.24v-0.2
	c0.2-0.2,0.42-0.44,0.68-0.72s0.5-0.56,0.73-0.85c0.23-0.29,0.42-0.56,0.56-0.8H95.64z"/>
<path class="st13" d="M104.99,184.29c0.97,0,1.73,0.25,2.27,0.76c0.55,0.5,0.82,1.3,0.82,2.41v5.64h-1.84v-5.3
	c0-0.67-0.14-1.17-0.41-1.51c-0.28-0.34-0.7-0.51-1.28-0.51c-0.84,0-1.42,0.26-1.75,0.77c-0.32,0.52-0.48,1.26-0.48,2.24v4.3h-1.84
	v-8.65h1.43l0.26,1.17h0.1c0.19-0.3,0.42-0.55,0.7-0.74c0.28-0.2,0.59-0.35,0.94-0.45C104.26,184.33,104.62,184.29,104.99,184.29z"
	/>
<path class="st13" d="M114.14,193.25c-0.82,0-1.53-0.16-2.12-0.48c-0.6-0.32-1.06-0.8-1.38-1.46c-0.32-0.66-0.48-1.49-0.48-2.5
	c0-1.05,0.18-1.91,0.53-2.58c0.35-0.67,0.84-1.16,1.47-1.48c0.63-0.32,1.35-0.48,2.16-0.48c0.52,0,0.98,0.05,1.4,0.16
	c0.42,0.1,0.78,0.22,1.07,0.37l-0.55,1.47c-0.32-0.13-0.64-0.24-0.98-0.33c-0.33-0.09-0.65-0.13-0.96-0.13
	c-0.51,0-0.93,0.11-1.27,0.34c-0.33,0.22-0.58,0.56-0.75,1c-0.16,0.44-0.24,0.99-0.24,1.65c0,0.64,0.08,1.17,0.25,1.61
	c0.17,0.43,0.41,0.76,0.74,0.98c0.33,0.22,0.73,0.33,1.21,0.33c0.47,0,0.9-0.06,1.27-0.17c0.38-0.11,0.73-0.26,1.06-0.45v1.59
	c-0.33,0.19-0.68,0.33-1.05,0.41C115.15,193.21,114.69,193.25,114.14,193.25z"/>
<path class="st13" d="M120.45,184.45v8.65h-1.84v-8.65H120.45z M119.54,181.14c0.28,0,0.52,0.08,0.73,0.23
	c0.21,0.15,0.31,0.41,0.31,0.78c0,0.36-0.1,0.62-0.31,0.78c-0.2,0.15-0.45,0.23-0.73,0.23c-0.29,0-0.54-0.08-0.74-0.23
	c-0.2-0.16-0.3-0.42-0.3-0.78c0-0.37,0.1-0.63,0.3-0.78C119,181.21,119.25,181.14,119.54,181.14z"/>
<path class="st13" d="M126.47,184.29c1.09,0,1.92,0.24,2.48,0.73c0.56,0.48,0.84,1.24,0.84,2.27v5.82h-1.3l-0.35-1.23h-0.06
	c-0.24,0.31-0.5,0.57-0.76,0.77c-0.26,0.2-0.56,0.35-0.91,0.45c-0.34,0.1-0.75,0.16-1.24,0.16c-0.52,0-0.98-0.09-1.38-0.28
	c-0.41-0.19-0.73-0.48-0.96-0.88s-0.35-0.89-0.35-1.48c0-0.89,0.33-1.56,0.99-2.01c0.67-0.45,1.67-0.7,3.02-0.74l1.5-0.05v-0.45
	c0-0.6-0.14-1.03-0.42-1.28c-0.28-0.26-0.67-0.38-1.17-0.38c-0.43,0-0.85,0.06-1.26,0.19s-0.8,0.28-1.19,0.46l-0.59-1.3
	c0.42-0.22,0.9-0.41,1.44-0.55C125.33,184.36,125.89,184.29,126.47,184.29z M127.97,188.96l-1.12,0.04
	c-0.92,0.03-1.56,0.19-1.93,0.47c-0.37,0.28-0.55,0.67-0.55,1.16c0,0.43,0.13,0.74,0.38,0.94c0.26,0.19,0.59,0.29,1.01,0.29
	c0.64,0,1.16-0.18,1.58-0.54c0.42-0.36,0.63-0.9,0.63-1.6V188.96z"/>
<path class="st13" d="M140.96,184.29c1.03,0,1.85,0.37,2.47,1.12c0.62,0.75,0.94,1.86,0.94,3.34c0,0.98-0.15,1.8-0.44,2.48
	c-0.29,0.67-0.69,1.17-1.21,1.52c-0.52,0.34-1.12,0.51-1.8,0.51c-0.44,0-0.82-0.06-1.14-0.17c-0.32-0.11-0.6-0.26-0.83-0.45
	c-0.23-0.19-0.42-0.39-0.58-0.61h-0.11c0.03,0.21,0.05,0.44,0.07,0.7c0.03,0.25,0.04,0.48,0.04,0.69v3.52h-1.84v-12.48h1.5l0.26,1.2
	h0.09c0.16-0.24,0.36-0.47,0.59-0.68c0.23-0.21,0.52-0.37,0.84-0.49C140.12,184.35,140.51,184.29,140.96,184.29z M140.46,185.79
	c-0.51,0-0.91,0.1-1.22,0.3c-0.3,0.2-0.52,0.5-0.66,0.9c-0.14,0.4-0.21,0.9-0.22,1.51v0.26c0,0.64,0.07,1.18,0.2,1.63
	c0.14,0.44,0.36,0.78,0.66,1.02c0.31,0.23,0.73,0.34,1.27,0.34c0.45,0,0.82-0.12,1.11-0.37c0.3-0.24,0.52-0.59,0.66-1.05
	c0.15-0.45,0.22-0.99,0.22-1.6c0-0.93-0.17-1.66-0.5-2.17C141.65,186.04,141.15,185.79,140.46,185.79z"/>
<path class="st13" d="M149.88,184.29c1.09,0,1.92,0.24,2.48,0.73c0.56,0.48,0.84,1.24,0.84,2.27v5.82h-1.3l-0.35-1.23h-0.06
	c-0.24,0.31-0.5,0.57-0.76,0.77c-0.26,0.2-0.56,0.35-0.91,0.45c-0.34,0.1-0.75,0.16-1.24,0.16c-0.52,0-0.98-0.09-1.38-0.28
	c-0.41-0.19-0.73-0.48-0.96-0.88c-0.23-0.39-0.35-0.89-0.35-1.48c0-0.89,0.33-1.56,0.99-2.01c0.67-0.45,1.67-0.7,3.02-0.74l1.5-0.05
	v-0.45c0-0.6-0.14-1.03-0.42-1.28c-0.28-0.26-0.67-0.38-1.17-0.38c-0.43,0-0.85,0.06-1.26,0.19s-0.8,0.28-1.19,0.46l-0.59-1.3
	c0.42-0.22,0.9-0.41,1.44-0.55C148.73,184.36,149.29,184.29,149.88,184.29z M151.38,188.96l-1.12,0.04
	c-0.92,0.03-1.56,0.19-1.93,0.47s-0.55,0.67-0.55,1.16c0,0.43,0.13,0.74,0.38,0.94c0.26,0.19,0.59,0.29,1.01,0.29
	c0.64,0,1.16-0.18,1.58-0.54c0.42-0.36,0.63-0.9,0.63-1.6V188.96z"/>
<path class="st13" d="M158.99,191.77c0.24,0,0.48-0.02,0.71-0.06c0.23-0.05,0.45-0.1,0.64-0.16v1.39c-0.2,0.09-0.47,0.16-0.79,0.23
	c-0.32,0.06-0.66,0.09-1.01,0.09c-0.49,0-0.93-0.08-1.32-0.24c-0.39-0.17-0.7-0.45-0.93-0.85c-0.23-0.4-0.34-0.96-0.34-1.66v-4.65
	h-1.18v-0.82l1.27-0.65l0.6-1.85h1.16v1.92h2.48v1.4h-2.48v4.62c0,0.44,0.11,0.76,0.33,0.98
	C158.34,191.66,158.63,191.77,158.99,191.77z"/>
<path class="st13" d="M166.48,184.29c0.15,0,0.3,0.01,0.48,0.02s0.32,0.04,0.45,0.06l-0.17,1.72c-0.11-0.03-0.24-0.05-0.41-0.07
	c-0.16-0.02-0.3-0.02-0.42-0.02c-0.33,0-0.64,0.05-0.94,0.16c-0.3,0.1-0.56,0.27-0.79,0.48c-0.23,0.21-0.41,0.48-0.54,0.8
	c-0.13,0.32-0.2,0.7-0.2,1.12v4.52h-1.84v-8.65h1.44l0.25,1.52h0.09c0.17-0.31,0.39-0.59,0.64-0.84c0.26-0.26,0.55-0.46,0.88-0.61
	C165.72,184.36,166.08,184.29,166.48,184.29z"/>
<path class="st13" d="M170.84,184.45v8.65H169v-8.65H170.84z M169.93,181.14c0.28,0,0.52,0.08,0.73,0.23
	c0.21,0.15,0.31,0.41,0.31,0.78c0,0.36-0.1,0.62-0.31,0.78c-0.2,0.15-0.45,0.23-0.73,0.23c-0.29,0-0.54-0.08-0.74-0.23
	c-0.2-0.16-0.3-0.42-0.3-0.78c0-0.37,0.1-0.63,0.3-0.78C169.39,181.21,169.64,181.14,169.93,181.14z"/>
<path class="st13" d="M183.24,184.29c0.97,0,1.7,0.25,2.19,0.75c0.49,0.5,0.74,1.3,0.74,2.41v5.66h-1.84v-5.33
	c0-0.66-0.13-1.15-0.38-1.48c-0.26-0.33-0.64-0.5-1.16-0.5c-0.73,0-1.26,0.23-1.58,0.7c-0.32,0.46-0.48,1.14-0.48,2.02v4.59h-1.84
	v-5.33c0-0.44-0.06-0.8-0.17-1.09c-0.11-0.3-0.28-0.52-0.51-0.66c-0.23-0.15-0.52-0.23-0.87-0.23c-0.51,0-0.91,0.11-1.21,0.34
	c-0.3,0.23-0.51,0.57-0.64,1.02c-0.13,0.44-0.2,0.99-0.2,1.63v4.32h-1.84v-8.65h1.43l0.26,1.16h0.1c0.18-0.3,0.4-0.55,0.66-0.74
	c0.27-0.2,0.56-0.34,0.88-0.44c0.32-0.1,0.66-0.15,1.01-0.15c0.65,0,1.19,0.11,1.63,0.34c0.44,0.22,0.77,0.57,0.99,1.03h0.14
	c0.27-0.47,0.65-0.82,1.13-1.04S182.7,184.29,183.24,184.29z"/>
<path class="st13" d="M196.39,188.75c0,0.72-0.09,1.36-0.28,1.91c-0.19,0.56-0.46,1.03-0.82,1.41c-0.36,0.38-0.79,0.67-1.3,0.88
	c-0.51,0.2-1.08,0.3-1.71,0.3c-0.59,0-1.14-0.1-1.63-0.3c-0.49-0.2-0.92-0.49-1.29-0.88c-0.36-0.39-0.64-0.86-0.84-1.41
	c-0.2-0.56-0.3-1.2-0.3-1.91c0-0.95,0.16-1.76,0.49-2.42c0.33-0.67,0.81-1.17,1.42-1.52c0.61-0.35,1.35-0.52,2.2-0.52
	c0.8,0,1.5,0.17,2.11,0.52s1.09,0.86,1.43,1.52C196.22,187,196.39,187.81,196.39,188.75z M190.12,188.75c0,0.63,0.08,1.17,0.23,1.62
	c0.16,0.45,0.4,0.79,0.72,1.03c0.32,0.23,0.74,0.35,1.25,0.35c0.51,0,0.93-0.12,1.25-0.35c0.32-0.24,0.56-0.58,0.71-1.03
	c0.15-0.45,0.23-0.99,0.23-1.62s-0.08-1.16-0.23-1.6c-0.15-0.44-0.39-0.78-0.71-1.01c-0.32-0.23-0.74-0.35-1.26-0.35
	c-0.76,0-1.32,0.26-1.66,0.77S190.12,187.8,190.12,188.75z"/>
<path class="st13" d="M203.01,184.29c0.97,0,1.73,0.25,2.27,0.76c0.55,0.5,0.82,1.3,0.82,2.41v5.64h-1.84v-5.3
	c0-0.67-0.14-1.17-0.41-1.51c-0.28-0.34-0.7-0.51-1.28-0.51c-0.84,0-1.42,0.26-1.75,0.77c-0.32,0.52-0.48,1.26-0.48,2.24v4.3h-1.84
	v-8.65h1.43l0.26,1.17h0.1c0.19-0.3,0.42-0.55,0.7-0.74c0.28-0.2,0.59-0.35,0.94-0.45C202.27,184.33,202.64,184.29,203.01,184.29z"
	/>
<path class="st13" d="M210.51,184.45v8.65h-1.84v-8.65H210.51z M209.6,181.14c0.28,0,0.52,0.08,0.73,0.23
	c0.21,0.15,0.31,0.41,0.31,0.78c0,0.36-0.1,0.62-0.31,0.78c-0.2,0.15-0.45,0.23-0.73,0.23c-0.29,0-0.54-0.08-0.74-0.23
	c-0.2-0.16-0.3-0.42-0.3-0.78c0-0.37,0.1-0.63,0.3-0.78C209.06,181.21,209.31,181.14,209.6,181.14z"/>
<path class="st13" d="M216.53,184.29c1.09,0,1.92,0.24,2.48,0.73c0.56,0.48,0.84,1.24,0.84,2.27v5.82h-1.3l-0.35-1.23h-0.06
	c-0.24,0.31-0.5,0.57-0.76,0.77c-0.26,0.2-0.56,0.35-0.91,0.45c-0.34,0.1-0.75,0.16-1.24,0.16c-0.52,0-0.98-0.09-1.38-0.28
	c-0.41-0.19-0.73-0.48-0.96-0.88c-0.23-0.39-0.35-0.89-0.35-1.48c0-0.89,0.33-1.56,0.99-2.01c0.67-0.45,1.67-0.7,3.02-0.74l1.5-0.05
	v-0.45c0-0.6-0.14-1.03-0.42-1.28c-0.28-0.26-0.67-0.38-1.17-0.38c-0.43,0-0.85,0.06-1.26,0.19s-0.8,0.28-1.19,0.46l-0.59-1.3
	c0.42-0.22,0.9-0.41,1.44-0.55C215.39,184.36,215.95,184.29,216.53,184.29z M218.03,188.96l-1.12,0.04
	c-0.92,0.03-1.56,0.19-1.93,0.47s-0.55,0.67-0.55,1.16c0,0.43,0.13,0.74,0.38,0.94c0.26,0.19,0.59,0.29,1.01,0.29
	c0.64,0,1.16-0.18,1.58-0.54c0.42-0.36,0.63-0.9,0.63-1.6V188.96z"/>
<path class="st13" d="M224.27,193.1h-1.84v-12.16h1.84V193.1z"/>
<path class="st13" d="M34.54,194.1h-6.99v-12.14h6.99v2.11h-4.42v2.66h4.11v2.11h-4.11v3.13h4.42V194.1z"/>
<path class="st16" d="M15.28,219.1c0-2.21,1.79-4,4-4h22c2.21,0,4,1.79,4,4v22c0,2.21-1.79,4-4,4h-22c-2.21,0-4-1.79-4-4V219.1z"/>
<path class="st13" d="M67.65,225.11c-0.55,0-1.04,0.1-1.47,0.3c-0.43,0.2-0.79,0.48-1.09,0.86c-0.3,0.37-0.52,0.82-0.68,1.35
	c-0.16,0.53-0.23,1.12-0.23,1.78c0,0.89,0.12,1.65,0.38,2.29c0.25,0.64,0.63,1.12,1.14,1.47c0.51,0.34,1.16,0.51,1.94,0.51
	c0.48,0,0.96-0.05,1.41-0.14c0.46-0.09,0.93-0.22,1.42-0.38v1.59c-0.46,0.18-0.93,0.32-1.41,0.4c-0.47,0.08-1.02,0.12-1.64,0.12
	c-1.17,0-2.14-0.24-2.91-0.73c-0.77-0.48-1.34-1.17-1.72-2.05c-0.38-0.88-0.56-1.91-0.56-3.09c0-0.86,0.12-1.66,0.36-2.38
	c0.24-0.72,0.59-1.34,1.05-1.86c0.46-0.53,1.02-0.93,1.7-1.21c0.68-0.29,1.45-0.43,2.32-0.43c0.57,0,1.14,0.07,1.69,0.2
	c0.56,0.12,1.07,0.3,1.55,0.54l-0.66,1.55c-0.4-0.19-0.81-0.35-1.24-0.48S68.11,225.11,67.65,225.11z"/>
<path class="st13" d="M76.13,226.29c1.09,0,1.92,0.24,2.48,0.73c0.56,0.48,0.84,1.24,0.84,2.27v5.82h-1.3l-0.35-1.23h-0.06
	c-0.24,0.31-0.5,0.57-0.76,0.77c-0.26,0.2-0.56,0.35-0.91,0.45c-0.34,0.1-0.75,0.16-1.24,0.16c-0.52,0-0.98-0.09-1.38-0.28
	c-0.41-0.19-0.73-0.48-0.96-0.88c-0.23-0.39-0.35-0.89-0.35-1.48c0-0.89,0.33-1.56,0.99-2.01c0.67-0.45,1.67-0.7,3.02-0.74l1.5-0.05
	v-0.45c0-0.6-0.14-1.03-0.42-1.28c-0.28-0.26-0.67-0.38-1.17-0.38c-0.43,0-0.85,0.06-1.26,0.19s-0.8,0.28-1.19,0.46l-0.59-1.3
	c0.42-0.22,0.9-0.41,1.44-0.55C74.98,226.36,75.54,226.29,76.13,226.29z M77.63,230.96L76.51,231c-0.92,0.03-1.56,0.19-1.93,0.47
	s-0.55,0.67-0.55,1.16c0,0.43,0.13,0.74,0.38,0.94c0.26,0.19,0.59,0.29,1.01,0.29c0.64,0,1.16-0.18,1.58-0.54
	c0.42-0.36,0.63-0.9,0.63-1.6V230.96z M78.73,222.84V223c-0.12,0.15-0.29,0.33-0.51,0.55c-0.21,0.21-0.45,0.43-0.7,0.66
	c-0.25,0.23-0.5,0.45-0.74,0.66c-0.24,0.21-0.47,0.39-0.66,0.53h-1.23v-0.2c0.17-0.2,0.36-0.43,0.57-0.71
	c0.21-0.28,0.42-0.56,0.62-0.85c0.21-0.29,0.38-0.56,0.52-0.8H78.73z"/>
<path class="st13" d="M86.4,226.29c0.15,0,0.3,0.01,0.48,0.02s0.32,0.04,0.45,0.06l-0.17,1.72c-0.11-0.03-0.24-0.05-0.41-0.07
	c-0.16-0.02-0.3-0.02-0.42-0.02c-0.33,0-0.64,0.05-0.94,0.16c-0.3,0.1-0.56,0.27-0.79,0.48c-0.23,0.21-0.41,0.48-0.54,0.8
	c-0.13,0.32-0.2,0.7-0.2,1.12v4.52h-1.84v-8.65h1.44l0.25,1.52h0.09c0.17-0.31,0.39-0.59,0.64-0.84c0.26-0.26,0.55-0.46,0.88-0.61
	C85.64,226.36,86,226.29,86.4,226.29z"/>
<path class="st13" d="M92.41,235.25c-0.82,0-1.53-0.16-2.12-0.48c-0.6-0.32-1.06-0.8-1.38-1.46c-0.32-0.66-0.48-1.49-0.48-2.5
	c0-1.05,0.18-1.91,0.53-2.58c0.35-0.67,0.84-1.16,1.47-1.48c0.63-0.32,1.35-0.48,2.16-0.48c0.52,0,0.98,0.05,1.4,0.16
	c0.42,0.1,0.78,0.22,1.07,0.37l-0.55,1.47c-0.32-0.13-0.64-0.24-0.98-0.33c-0.33-0.09-0.65-0.13-0.96-0.13
	c-0.51,0-0.93,0.11-1.27,0.34c-0.33,0.22-0.58,0.56-0.75,1c-0.16,0.44-0.24,0.99-0.24,1.65c0,0.64,0.08,1.17,0.25,1.61
	c0.17,0.43,0.41,0.76,0.74,0.98c0.33,0.22,0.73,0.33,1.21,0.33c0.47,0,0.9-0.06,1.27-0.17c0.38-0.11,0.73-0.26,1.06-0.45v1.59
	c-0.33,0.19-0.68,0.33-1.05,0.41C93.42,235.21,92.96,235.25,92.41,235.25z"/>
<path class="st13" d="M100.32,226.29c0.77,0,1.43,0.16,1.98,0.48c0.55,0.32,0.98,0.77,1.27,1.35c0.3,0.58,0.45,1.28,0.45,2.09v0.98
	h-5.77c0.02,0.84,0.24,1.48,0.67,1.94c0.43,0.45,1.04,0.68,1.81,0.68c0.55,0,1.05-0.05,1.48-0.16c0.44-0.11,0.9-0.27,1.37-0.48v1.49
	c-0.43,0.2-0.87,0.35-1.32,0.45c-0.45,0.09-0.98,0.14-1.61,0.14c-0.85,0-1.6-0.16-2.24-0.49c-0.64-0.33-1.14-0.83-1.51-1.48
	c-0.36-0.66-0.54-1.47-0.54-2.45c0-0.97,0.16-1.79,0.49-2.47s0.79-1.19,1.38-1.55S99.53,226.29,100.32,226.29z M100.32,227.67
	c-0.58,0-1.05,0.19-1.41,0.56c-0.35,0.38-0.56,0.92-0.62,1.65h3.94c-0.01-0.43-0.08-0.82-0.22-1.15c-0.14-0.33-0.34-0.59-0.62-0.78
	C101.11,227.76,100.75,227.67,100.32,227.67z"/>
<path class="st13" d="M110.48,226.29c0.15,0,0.3,0.01,0.48,0.02s0.32,0.04,0.45,0.06l-0.17,1.72c-0.11-0.03-0.24-0.05-0.41-0.07
	c-0.16-0.02-0.3-0.02-0.42-0.02c-0.33,0-0.64,0.05-0.94,0.16c-0.3,0.1-0.56,0.27-0.79,0.48c-0.23,0.21-0.41,0.48-0.54,0.8
	c-0.13,0.32-0.2,0.7-0.2,1.12v4.52h-1.84v-8.65h1.44l0.25,1.52h0.09c0.17-0.31,0.39-0.59,0.64-0.84c0.26-0.26,0.55-0.46,0.88-0.61
	C109.72,226.36,110.08,226.29,110.48,226.29z"/>
<path class="st13" d="M116.45,226.29c0.77,0,1.43,0.16,1.98,0.48c0.55,0.32,0.98,0.77,1.27,1.35c0.3,0.58,0.45,1.28,0.45,2.09v0.98
	h-5.77c0.02,0.84,0.24,1.48,0.67,1.94c0.43,0.45,1.04,0.68,1.81,0.68c0.55,0,1.05-0.05,1.48-0.16c0.44-0.11,0.9-0.27,1.37-0.48v1.49
	c-0.43,0.2-0.87,0.35-1.32,0.45c-0.45,0.09-0.98,0.14-1.61,0.14c-0.85,0-1.6-0.16-2.24-0.49c-0.64-0.33-1.14-0.83-1.51-1.48
	c-0.36-0.66-0.54-1.47-0.54-2.45c0-0.97,0.16-1.79,0.49-2.47s0.79-1.19,1.38-1.55S115.66,226.29,116.45,226.29z M116.45,227.67
	c-0.58,0-1.05,0.19-1.41,0.56c-0.35,0.38-0.56,0.92-0.62,1.65h3.94c-0.01-0.43-0.08-0.82-0.22-1.15c-0.14-0.33-0.34-0.59-0.62-0.78
	C117.23,227.76,116.88,227.67,116.45,227.67z"/>
<path class="st13" d="M130.81,226.29c1.03,0,1.85,0.37,2.47,1.12c0.62,0.75,0.94,1.86,0.94,3.34c0,0.98-0.15,1.8-0.44,2.48
	c-0.29,0.67-0.69,1.17-1.21,1.52c-0.52,0.34-1.12,0.51-1.8,0.51c-0.44,0-0.82-0.06-1.14-0.17c-0.32-0.11-0.6-0.26-0.83-0.45
	c-0.23-0.19-0.42-0.39-0.58-0.61h-0.11c0.03,0.21,0.05,0.44,0.07,0.7c0.03,0.25,0.04,0.48,0.04,0.69v3.52h-1.84v-12.48h1.5l0.26,1.2
	h0.09c0.16-0.24,0.36-0.47,0.59-0.68c0.23-0.21,0.52-0.37,0.84-0.49C129.98,226.35,130.37,226.29,130.81,226.29z M130.32,227.79
	c-0.51,0-0.91,0.1-1.22,0.3c-0.3,0.2-0.52,0.5-0.66,0.9c-0.14,0.4-0.21,0.9-0.22,1.51v0.26c0,0.64,0.07,1.18,0.2,1.63
	c0.14,0.44,0.36,0.78,0.66,1.02c0.31,0.23,0.73,0.34,1.27,0.34c0.45,0,0.82-0.12,1.11-0.37c0.3-0.24,0.52-0.59,0.66-1.05
	c0.15-0.45,0.22-0.99,0.22-1.6c0-0.93-0.17-1.66-0.5-2.17C131.51,228.04,131,227.79,130.32,227.79z"/>
<path class="st13" d="M140.73,226.29c0.15,0,0.3,0.01,0.48,0.02s0.32,0.04,0.45,0.06l-0.17,1.72c-0.11-0.03-0.24-0.05-0.41-0.07
	c-0.16-0.02-0.3-0.02-0.42-0.02c-0.33,0-0.64,0.05-0.94,0.16c-0.3,0.1-0.56,0.27-0.79,0.48c-0.23,0.21-0.41,0.48-0.54,0.8
	c-0.13,0.32-0.2,0.7-0.2,1.12v4.52h-1.84v-8.65h1.44l0.25,1.52h0.09c0.17-0.31,0.39-0.59,0.64-0.84c0.26-0.26,0.55-0.46,0.88-0.61
	C139.97,226.36,140.33,226.29,140.73,226.29z"/>
<path class="st13" d="M145.09,226.45v8.65h-1.84v-8.65H145.09z M144.18,223.14c0.28,0,0.52,0.08,0.73,0.23
	c0.21,0.15,0.31,0.41,0.31,0.78c0,0.36-0.1,0.62-0.31,0.78c-0.2,0.15-0.45,0.23-0.73,0.23c-0.29,0-0.54-0.08-0.74-0.23
	c-0.2-0.16-0.3-0.42-0.3-0.78c0-0.37,0.1-0.63,0.3-0.78C143.64,223.21,143.89,223.14,144.18,223.14z"/>
<path class="st13" d="M149.7,235.1l-3.29-8.65h1.95l1.78,5.08c0.11,0.32,0.22,0.67,0.31,1.05s0.16,0.69,0.2,0.95h0.06
	c0.04-0.27,0.11-0.58,0.21-0.95c0.1-0.38,0.21-0.72,0.32-1.04l1.78-5.08h1.94l-3.29,8.65H149.7z"/>
<path class="st13" d="M159.66,226.29c1.09,0,1.92,0.24,2.48,0.73c0.56,0.48,0.84,1.24,0.84,2.27v5.82h-1.3l-0.35-1.23h-0.06
	c-0.24,0.31-0.5,0.57-0.76,0.77c-0.26,0.2-0.56,0.35-0.91,0.45c-0.34,0.1-0.75,0.16-1.24,0.16c-0.52,0-0.98-0.09-1.38-0.28
	c-0.41-0.19-0.73-0.48-0.96-0.88c-0.23-0.39-0.35-0.89-0.35-1.48c0-0.89,0.33-1.56,0.99-2.01c0.67-0.45,1.67-0.7,3.02-0.74l1.5-0.05
	v-0.45c0-0.6-0.14-1.03-0.42-1.28c-0.28-0.26-0.67-0.38-1.17-0.38c-0.43,0-0.85,0.06-1.26,0.19c-0.41,0.12-0.8,0.28-1.19,0.46
	l-0.59-1.3c0.42-0.22,0.9-0.41,1.44-0.55C158.51,226.36,159.08,226.29,159.66,226.29z M161.16,230.96l-1.12,0.04
	c-0.92,0.03-1.56,0.19-1.93,0.47s-0.55,0.67-0.55,1.16c0,0.43,0.13,0.74,0.38,0.94c0.26,0.19,0.59,0.29,1.01,0.29
	c0.64,0,1.16-0.18,1.58-0.54c0.42-0.36,0.63-0.9,0.63-1.6V230.96z"/>
<path class="st13" d="M168.46,235.25c-1.03,0-1.86-0.38-2.48-1.12c-0.62-0.76-0.93-1.87-0.93-3.34c0-1.48,0.32-2.61,0.95-3.37
	c0.64-0.76,1.47-1.14,2.51-1.14c0.44,0,0.82,0.06,1.15,0.18c0.33,0.11,0.61,0.27,0.84,0.47c0.24,0.2,0.44,0.42,0.61,0.66h0.09
	c-0.03-0.16-0.06-0.39-0.09-0.7c-0.03-0.31-0.05-0.59-0.05-0.85v-3.11h1.84v12.16h-1.44l-0.33-1.18h-0.08
	c-0.16,0.25-0.35,0.48-0.59,0.68c-0.23,0.2-0.52,0.36-0.84,0.48C169.28,235.19,168.9,235.25,168.46,235.25z M168.97,233.76
	c0.79,0,1.34-0.23,1.66-0.68c0.32-0.45,0.49-1.13,0.5-2.04v-0.24c0-0.97-0.16-1.71-0.47-2.23c-0.31-0.52-0.88-0.78-1.71-0.78
	c-0.66,0-1.17,0.27-1.52,0.8c-0.34,0.53-0.52,1.27-0.52,2.23c0,0.95,0.17,1.68,0.52,2.19C167.79,233.51,168.3,233.76,168.97,233.76z
	"/>
<path class="st13" d="M183.17,230.75c0,0.72-0.09,1.36-0.28,1.91c-0.19,0.56-0.46,1.03-0.82,1.41c-0.36,0.38-0.79,0.67-1.3,0.88
	c-0.51,0.2-1.08,0.3-1.71,0.3c-0.59,0-1.14-0.1-1.63-0.3c-0.49-0.2-0.92-0.49-1.29-0.88c-0.36-0.39-0.64-0.86-0.84-1.41
	c-0.2-0.56-0.3-1.2-0.3-1.91c0-0.95,0.16-1.76,0.49-2.42c0.33-0.67,0.81-1.17,1.42-1.52c0.61-0.35,1.35-0.52,2.2-0.52
	c0.8,0,1.5,0.17,2.11,0.52c0.61,0.35,1.09,0.86,1.43,1.52C183,229,183.17,229.81,183.17,230.75z M176.9,230.75
	c0,0.63,0.08,1.17,0.23,1.62c0.16,0.45,0.4,0.79,0.72,1.03c0.32,0.23,0.74,0.35,1.25,0.35c0.51,0,0.93-0.12,1.25-0.35
	c0.32-0.24,0.56-0.58,0.71-1.03c0.15-0.45,0.23-0.99,0.23-1.62s-0.08-1.16-0.23-1.6c-0.15-0.44-0.39-0.78-0.71-1.01
	c-0.32-0.23-0.74-0.35-1.26-0.35c-0.76,0-1.32,0.26-1.66,0.77S176.9,229.8,176.9,230.75z"/>
<path class="st13" d="M30.18,236.1h-2.53v-12.14h6.96v2.11h-4.42v3.13h4.12v2.1h-4.12V236.1z"/>
<path class="st16" d="M15.28,261.1c0-2.21,1.79-4,4-4h22c2.21,0,4,1.79,4,4v22c0,2.21-1.79,4-4,4h-22c-2.21,0-4-1.79-4-4V261.1z"/>
<path class="st13" d="M66.74,277.1h-1.88v-9.83h-3.34v-1.59h8.56v1.59h-3.34V277.1z"/>
<path class="st13" d="M76.03,268.29c0.15,0,0.3,0.01,0.48,0.02s0.32,0.04,0.45,0.06l-0.17,1.72c-0.11-0.03-0.24-0.05-0.41-0.07
	c-0.16-0.02-0.3-0.02-0.42-0.02c-0.33,0-0.64,0.05-0.94,0.16c-0.3,0.1-0.56,0.27-0.79,0.48c-0.23,0.21-0.41,0.48-0.54,0.8
	c-0.13,0.32-0.2,0.7-0.2,1.12v4.52h-1.84v-8.65h1.44l0.25,1.52h0.09c0.17-0.31,0.39-0.59,0.64-0.84c0.26-0.26,0.55-0.46,0.88-0.61
	C75.27,268.36,75.63,268.29,76.03,268.29z"/>
<path class="st13" d="M81.94,268.29c1.09,0,1.92,0.24,2.48,0.73c0.56,0.48,0.84,1.24,0.84,2.27v5.82h-1.3l-0.35-1.23h-0.06
	c-0.24,0.31-0.5,0.57-0.76,0.77s-0.56,0.35-0.91,0.45c-0.34,0.1-0.75,0.16-1.24,0.16c-0.52,0-0.98-0.09-1.38-0.28
	c-0.41-0.19-0.73-0.48-0.96-0.88c-0.23-0.39-0.35-0.89-0.35-1.48c0-0.89,0.33-1.56,0.99-2.01c0.67-0.45,1.67-0.7,3.02-0.74l1.5-0.05
	v-0.45c0-0.6-0.14-1.03-0.42-1.28c-0.28-0.26-0.67-0.38-1.17-0.38c-0.43,0-0.85,0.06-1.26,0.19c-0.41,0.12-0.8,0.28-1.19,0.46
	l-0.59-1.3c0.42-0.22,0.9-0.41,1.44-0.55C80.79,268.36,81.36,268.29,81.94,268.29z M83.44,272.96L82.32,273
	c-0.92,0.03-1.56,0.19-1.93,0.47c-0.37,0.28-0.55,0.67-0.55,1.16c0,0.43,0.13,0.74,0.38,0.94c0.26,0.19,0.59,0.29,1.01,0.29
	c0.64,0,1.16-0.18,1.58-0.54c0.42-0.36,0.63-0.9,0.63-1.6V272.96z M84.54,264.84V265c-0.12,0.15-0.29,0.33-0.51,0.55
	c-0.21,0.21-0.45,0.43-0.7,0.66c-0.25,0.23-0.5,0.45-0.74,0.66c-0.24,0.21-0.47,0.39-0.66,0.53h-1.23v-0.2
	c0.17-0.2,0.36-0.43,0.57-0.71c0.21-0.28,0.42-0.56,0.62-0.85c0.21-0.29,0.38-0.56,0.52-0.8H84.54z"/>
<path class="st13" d="M92.15,269.85h-2.1v7.25h-1.84v-7.25H86.8v-0.88l1.41-0.54v-0.6c0-0.73,0.11-1.32,0.34-1.75
	c0.23-0.43,0.57-0.74,1-0.93c0.44-0.19,0.96-0.29,1.56-0.29c0.4,0,0.76,0.03,1.09,0.1c0.33,0.06,0.6,0.14,0.83,0.22l-0.48,1.39
	c-0.18-0.06-0.38-0.11-0.59-0.16c-0.22-0.05-0.45-0.08-0.7-0.08c-0.42,0-0.72,0.13-0.92,0.39c-0.19,0.26-0.29,0.64-0.29,1.14v0.59
	h2.1V269.85z M95.46,268.45v8.65h-1.84v-8.65H95.46z M94.55,265.14c0.28,0,0.52,0.08,0.73,0.23c0.21,0.15,0.31,0.41,0.31,0.78
	c0,0.36-0.1,0.62-0.31,0.78c-0.2,0.15-0.45,0.23-0.73,0.23c-0.29,0-0.54-0.08-0.74-0.23c-0.2-0.16-0.3-0.42-0.3-0.78
	c0-0.37,0.1-0.63,0.3-0.78C94.01,265.21,94.26,265.14,94.55,265.14z"/>
<path class="st13" d="M101.56,277.25c-0.82,0-1.53-0.16-2.12-0.48c-0.6-0.32-1.06-0.8-1.38-1.46c-0.32-0.66-0.48-1.49-0.48-2.5
	c0-1.05,0.18-1.91,0.53-2.58c0.35-0.67,0.84-1.16,1.47-1.48c0.63-0.32,1.35-0.48,2.16-0.48c0.52,0,0.98,0.05,1.4,0.16
	c0.42,0.1,0.78,0.22,1.07,0.37l-0.55,1.47c-0.32-0.13-0.64-0.24-0.98-0.33c-0.33-0.09-0.65-0.13-0.96-0.13
	c-0.51,0-0.93,0.11-1.27,0.34c-0.33,0.22-0.58,0.56-0.75,1c-0.16,0.44-0.24,0.99-0.24,1.65c0,0.64,0.08,1.17,0.25,1.61
	c0.17,0.43,0.41,0.76,0.74,0.98c0.33,0.22,0.73,0.33,1.21,0.33c0.47,0,0.9-0.06,1.27-0.17c0.38-0.11,0.73-0.26,1.06-0.45v1.59
	c-0.33,0.19-0.68,0.33-1.05,0.41C102.57,277.21,102.11,277.25,101.56,277.25z"/>
<path class="st13" d="M113.69,272.75c0,0.72-0.09,1.36-0.28,1.91c-0.19,0.56-0.46,1.03-0.82,1.41c-0.36,0.38-0.79,0.67-1.3,0.88
	c-0.51,0.2-1.08,0.3-1.71,0.3c-0.59,0-1.14-0.1-1.63-0.3c-0.49-0.2-0.92-0.49-1.29-0.88c-0.36-0.39-0.64-0.86-0.84-1.41
	c-0.2-0.56-0.3-1.2-0.3-1.91c0-0.95,0.16-1.76,0.49-2.42c0.33-0.67,0.81-1.17,1.42-1.52c0.61-0.35,1.35-0.52,2.2-0.52
	c0.8,0,1.5,0.17,2.11,0.52s1.09,0.86,1.43,1.52C113.52,271,113.69,271.81,113.69,272.75z M107.42,272.75c0,0.63,0.08,1.17,0.23,1.62
	c0.16,0.45,0.4,0.79,0.72,1.03c0.32,0.23,0.74,0.35,1.25,0.35c0.51,0,0.93-0.12,1.25-0.35c0.32-0.24,0.56-0.58,0.71-1.03
	c0.15-0.45,0.23-0.99,0.23-1.62s-0.08-1.16-0.23-1.6c-0.15-0.44-0.39-0.78-0.71-1.01c-0.32-0.23-0.74-0.35-1.26-0.35
	c-0.76,0-1.32,0.26-1.66,0.77S107.42,271.8,107.42,272.75z"/>
<path class="st13" d="M122.86,277.25c-1.03,0-1.86-0.38-2.48-1.12c-0.62-0.76-0.93-1.87-0.93-3.34c0-1.48,0.32-2.61,0.95-3.37
	c0.64-0.76,1.47-1.14,2.51-1.14c0.44,0,0.82,0.06,1.15,0.18c0.33,0.11,0.61,0.27,0.84,0.47c0.24,0.2,0.44,0.42,0.61,0.66h0.09
	c-0.03-0.16-0.06-0.39-0.09-0.7c-0.03-0.31-0.05-0.59-0.05-0.85v-3.11h1.84v12.16h-1.44l-0.33-1.18h-0.08
	c-0.16,0.25-0.35,0.48-0.59,0.68c-0.23,0.2-0.52,0.36-0.84,0.48C123.69,277.19,123.3,277.25,122.86,277.25z M123.38,275.76
	c0.79,0,1.34-0.23,1.66-0.68c0.32-0.45,0.49-1.13,0.5-2.04v-0.24c0-0.97-0.16-1.71-0.47-2.23c-0.31-0.52-0.88-0.78-1.71-0.78
	c-0.66,0-1.17,0.27-1.52,0.8c-0.34,0.53-0.52,1.27-0.52,2.23c0,0.95,0.17,1.68,0.52,2.19C122.19,275.51,122.71,275.76,123.38,275.76
	z"/>
<path class="st13" d="M133.37,268.29c0.77,0,1.43,0.16,1.98,0.48s0.98,0.77,1.27,1.35c0.3,0.58,0.45,1.28,0.45,2.09v0.98h-5.77
	c0.02,0.84,0.24,1.48,0.67,1.94c0.43,0.45,1.04,0.68,1.81,0.68c0.55,0,1.05-0.05,1.48-0.16c0.44-0.11,0.9-0.27,1.37-0.48v1.49
	c-0.43,0.2-0.87,0.35-1.32,0.45c-0.45,0.09-0.98,0.14-1.61,0.14c-0.85,0-1.6-0.16-2.24-0.49c-0.64-0.33-1.14-0.83-1.51-1.48
	c-0.36-0.66-0.54-1.47-0.54-2.45c0-0.97,0.16-1.79,0.49-2.47s0.79-1.19,1.38-1.55S132.58,268.29,133.37,268.29z M133.37,269.67
	c-0.58,0-1.05,0.19-1.41,0.56c-0.35,0.38-0.56,0.92-0.62,1.65h3.94c-0.01-0.43-0.08-0.82-0.22-1.15c-0.14-0.33-0.34-0.59-0.62-0.78
	C134.16,269.76,133.8,269.67,133.37,269.67z"/>
<path class="st13" d="M147.74,268.29c1.03,0,1.85,0.37,2.47,1.12c0.62,0.75,0.94,1.86,0.94,3.34c0,0.98-0.15,1.8-0.44,2.48
	c-0.29,0.67-0.69,1.17-1.21,1.52c-0.52,0.34-1.12,0.51-1.8,0.51c-0.44,0-0.82-0.06-1.14-0.17c-0.32-0.11-0.6-0.26-0.83-0.45
	c-0.23-0.19-0.42-0.39-0.58-0.61h-0.11c0.03,0.21,0.05,0.44,0.07,0.7c0.03,0.25,0.04,0.48,0.04,0.69v3.52h-1.84v-12.48h1.5l0.26,1.2
	h0.09c0.16-0.24,0.36-0.47,0.59-0.68c0.23-0.21,0.52-0.37,0.84-0.49C146.91,268.35,147.29,268.29,147.74,268.29z M147.24,269.79
	c-0.51,0-0.91,0.1-1.22,0.3c-0.3,0.2-0.52,0.5-0.66,0.9c-0.14,0.4-0.21,0.9-0.22,1.51v0.26c0,0.64,0.07,1.18,0.2,1.63
	c0.14,0.44,0.36,0.78,0.66,1.02c0.31,0.23,0.73,0.34,1.27,0.34c0.45,0,0.82-0.12,1.11-0.37c0.3-0.24,0.52-0.59,0.66-1.05
	c0.15-0.45,0.22-0.99,0.22-1.6c0-0.93-0.17-1.66-0.5-2.17C148.43,270.04,147.93,269.79,147.24,269.79z"/>
<path class="st13" d="M156.71,268.29c0.77,0,1.43,0.16,1.98,0.48s0.98,0.77,1.27,1.35c0.3,0.58,0.45,1.28,0.45,2.09v0.98h-5.77
	c0.02,0.84,0.24,1.48,0.67,1.94c0.43,0.45,1.04,0.68,1.81,0.68c0.55,0,1.05-0.05,1.48-0.16c0.44-0.11,0.9-0.27,1.37-0.48v1.49
	c-0.43,0.2-0.87,0.35-1.32,0.45c-0.45,0.09-0.98,0.14-1.61,0.14c-0.85,0-1.6-0.16-2.24-0.49c-0.64-0.33-1.14-0.83-1.51-1.48
	c-0.36-0.66-0.54-1.47-0.54-2.45c0-0.97,0.16-1.79,0.49-2.47s0.79-1.19,1.38-1.55C155.23,268.46,155.92,268.29,156.71,268.29z
	 M156.71,269.67c-0.58,0-1.05,0.19-1.41,0.56c-0.35,0.38-0.56,0.92-0.62,1.65h3.94c-0.01-0.43-0.08-0.82-0.22-1.15
	c-0.14-0.33-0.34-0.59-0.62-0.78C157.5,269.76,157.15,269.67,156.71,269.67z"/>
<path class="st13" d="M168.3,274.63c0,0.57-0.14,1.05-0.41,1.44c-0.28,0.39-0.68,0.69-1.21,0.89c-0.53,0.2-1.17,0.3-1.94,0.3
	c-0.6,0-1.12-0.04-1.56-0.13c-0.43-0.08-0.84-0.21-1.23-0.39v-1.59c0.41,0.19,0.87,0.36,1.38,0.5c0.52,0.14,1,0.21,1.46,0.21
	c0.6,0,1.04-0.09,1.3-0.28c0.27-0.19,0.4-0.45,0.4-0.77c0-0.19-0.05-0.35-0.16-0.5c-0.1-0.15-0.3-0.3-0.59-0.46
	c-0.29-0.16-0.71-0.35-1.27-0.58c-0.55-0.22-1.01-0.44-1.38-0.66c-0.38-0.22-0.66-0.48-0.85-0.79c-0.19-0.31-0.29-0.71-0.29-1.2
	c0-0.77,0.3-1.35,0.91-1.74c0.61-0.4,1.41-0.6,2.41-0.6c0.53,0,1.03,0.05,1.5,0.16c0.47,0.1,0.94,0.26,1.39,0.46l-0.58,1.38
	c-0.39-0.17-0.78-0.31-1.18-0.42c-0.39-0.11-0.79-0.17-1.2-0.17c-0.47,0-0.84,0.07-1.09,0.22c-0.24,0.15-0.37,0.35-0.37,0.62
	c0,0.2,0.06,0.38,0.18,0.52c0.12,0.14,0.33,0.28,0.62,0.42c0.3,0.14,0.71,0.32,1.23,0.52c0.52,0.2,0.96,0.41,1.34,0.62
	c0.38,0.21,0.67,0.48,0.88,0.79C168.2,273.73,168.3,274.13,168.3,274.63z"/>
<path class="st13" d="M176.1,274.63c0,0.57-0.14,1.05-0.41,1.44c-0.28,0.39-0.68,0.69-1.21,0.89c-0.53,0.2-1.17,0.3-1.94,0.3
	c-0.6,0-1.12-0.04-1.56-0.13c-0.43-0.08-0.84-0.21-1.23-0.39v-1.59c0.41,0.19,0.87,0.36,1.38,0.5c0.52,0.14,1,0.21,1.46,0.21
	c0.6,0,1.04-0.09,1.3-0.28c0.27-0.19,0.4-0.45,0.4-0.77c0-0.19-0.05-0.35-0.16-0.5c-0.1-0.15-0.3-0.3-0.59-0.46
	c-0.29-0.16-0.71-0.35-1.27-0.58c-0.55-0.22-1.01-0.44-1.38-0.66c-0.38-0.22-0.66-0.48-0.85-0.79c-0.19-0.31-0.29-0.71-0.29-1.2
	c0-0.77,0.3-1.35,0.91-1.74c0.61-0.4,1.41-0.6,2.41-0.6c0.53,0,1.03,0.05,1.5,0.16c0.47,0.1,0.94,0.26,1.39,0.46l-0.58,1.38
	c-0.39-0.17-0.78-0.31-1.18-0.42c-0.39-0.11-0.79-0.17-1.2-0.17c-0.47,0-0.84,0.07-1.09,0.22c-0.24,0.15-0.37,0.35-0.37,0.62
	c0,0.2,0.06,0.38,0.18,0.52c0.12,0.14,0.33,0.28,0.62,0.42c0.3,0.14,0.71,0.32,1.23,0.52c0.52,0.2,0.96,0.41,1.34,0.62
	c0.38,0.21,0.67,0.48,0.88,0.79C175.99,273.73,176.1,274.13,176.1,274.63z"/>
<path class="st13" d="M185.74,272.75c0,0.72-0.09,1.36-0.28,1.91c-0.19,0.56-0.46,1.03-0.82,1.41c-0.36,0.38-0.79,0.67-1.3,0.88
	c-0.51,0.2-1.08,0.3-1.71,0.3c-0.59,0-1.14-0.1-1.63-0.3c-0.49-0.2-0.92-0.49-1.29-0.88c-0.36-0.39-0.64-0.86-0.84-1.41
	c-0.2-0.56-0.3-1.2-0.3-1.91c0-0.95,0.16-1.76,0.49-2.42c0.33-0.67,0.81-1.17,1.42-1.52c0.61-0.35,1.35-0.52,2.2-0.52
	c0.8,0,1.5,0.17,2.11,0.52c0.61,0.35,1.09,0.86,1.43,1.52C185.56,271,185.74,271.81,185.74,272.75z M179.46,272.75
	c0,0.63,0.08,1.17,0.23,1.62c0.16,0.45,0.4,0.79,0.72,1.03c0.32,0.23,0.74,0.35,1.25,0.35s0.93-0.12,1.25-0.35
	c0.32-0.24,0.56-0.58,0.71-1.03c0.15-0.45,0.23-0.99,0.23-1.62s-0.08-1.16-0.23-1.6c-0.15-0.44-0.39-0.78-0.71-1.01
	c-0.32-0.23-0.74-0.35-1.26-0.35c-0.76,0-1.32,0.26-1.66,0.77S179.46,271.8,179.46,272.75z"/>
<path class="st13" d="M191.24,268.29c1.09,0,1.92,0.24,2.48,0.73c0.56,0.48,0.84,1.24,0.84,2.27v5.82h-1.3l-0.35-1.23h-0.06
	c-0.24,0.31-0.5,0.57-0.76,0.77c-0.26,0.2-0.56,0.35-0.91,0.45c-0.34,0.1-0.75,0.16-1.24,0.16c-0.52,0-0.98-0.09-1.38-0.28
	c-0.41-0.19-0.73-0.48-0.96-0.88c-0.23-0.39-0.35-0.89-0.35-1.48c0-0.89,0.33-1.56,0.99-2.01c0.67-0.45,1.67-0.7,3.02-0.74l1.5-0.05
	v-0.45c0-0.6-0.14-1.03-0.42-1.28c-0.28-0.26-0.67-0.38-1.17-0.38c-0.43,0-0.85,0.06-1.26,0.19c-0.41,0.12-0.8,0.28-1.19,0.46
	l-0.59-1.3c0.42-0.22,0.9-0.41,1.44-0.55C190.09,268.36,190.65,268.29,191.24,268.29z M192.74,272.96l-1.12,0.04
	c-0.92,0.03-1.56,0.19-1.93,0.47s-0.55,0.67-0.55,1.16c0,0.43,0.13,0.74,0.38,0.94c0.26,0.19,0.59,0.29,1.01,0.29
	c0.64,0,1.16-0.18,1.58-0.54c0.42-0.36,0.63-0.9,0.63-1.6V272.96z"/>
<path class="st13" d="M202.94,274.63c0,0.57-0.14,1.05-0.41,1.44c-0.28,0.39-0.68,0.69-1.21,0.89c-0.53,0.2-1.17,0.3-1.94,0.3
	c-0.6,0-1.12-0.04-1.56-0.13c-0.43-0.08-0.84-0.21-1.23-0.39v-1.59c0.41,0.19,0.87,0.36,1.38,0.5c0.52,0.14,1,0.21,1.46,0.21
	c0.6,0,1.04-0.09,1.3-0.28c0.27-0.19,0.4-0.45,0.4-0.77c0-0.19-0.05-0.35-0.16-0.5c-0.1-0.15-0.3-0.3-0.59-0.46
	c-0.29-0.16-0.71-0.35-1.27-0.58c-0.55-0.22-1.01-0.44-1.38-0.66c-0.38-0.22-0.66-0.48-0.85-0.79c-0.19-0.31-0.29-0.71-0.29-1.2
	c0-0.77,0.3-1.35,0.91-1.74c0.61-0.4,1.41-0.6,2.41-0.6c0.53,0,1.03,0.05,1.5,0.16c0.47,0.1,0.94,0.26,1.39,0.46l-0.58,1.38
	c-0.39-0.17-0.78-0.31-1.18-0.42c-0.39-0.11-0.79-0.17-1.2-0.17c-0.47,0-0.84,0.07-1.09,0.22c-0.24,0.15-0.37,0.35-0.37,0.62
	c0,0.2,0.06,0.38,0.18,0.52s0.33,0.28,0.62,0.42c0.3,0.14,0.71,0.32,1.23,0.52c0.52,0.2,0.96,0.41,1.34,0.62
	c0.38,0.21,0.67,0.48,0.88,0.79C202.84,273.73,202.94,274.13,202.94,274.63z"/>
<path class="st13" d="M30.76,271.28h4.82v6.29c-0.64,0.21-1.3,0.38-1.98,0.51c-0.69,0.12-1.46,0.18-2.33,0.18
	c-1.21,0-2.23-0.24-3.07-0.71c-0.84-0.48-1.48-1.18-1.92-2.11c-0.44-0.93-0.66-2.07-0.66-3.43c0-1.27,0.24-2.37,0.73-3.3
	c0.49-0.93,1.21-1.65,2.15-2.16c0.95-0.51,2.1-0.76,3.46-0.76c0.64,0,1.28,0.07,1.9,0.21c0.63,0.14,1.19,0.32,1.7,0.54l-0.85,2.06
	c-0.37-0.19-0.79-0.35-1.27-0.47c-0.48-0.13-0.97-0.19-1.49-0.19c-0.75,0-1.4,0.17-1.95,0.51c-0.55,0.34-0.97,0.82-1.28,1.44
	c-0.3,0.61-0.45,1.34-0.45,2.17c0,0.79,0.11,1.49,0.32,2.11c0.22,0.61,0.56,1.09,1.02,1.44c0.47,0.34,1.07,0.51,1.82,0.51
	c0.37,0,0.67-0.02,0.92-0.05c0.25-0.04,0.49-0.08,0.71-0.12v-2.53h-2.3V271.28z"/>
<path class="st16" d="M15.28,51.1c0-2.21,1.79-4,4-4h22c2.21,0,4,1.79,4,4v22c0,2.21-1.79,4-4,4h-22c-2.21,0-4-1.79-4-4V51.1z"/>
<path class="st13" d="M71.25,55.68L67.26,67.1h-1.98l-3.99-11.42h1.92l2.41,7.16c0.07,0.21,0.15,0.46,0.23,0.76
	c0.09,0.3,0.17,0.6,0.24,0.9c0.08,0.3,0.14,0.57,0.18,0.8c0.04-0.23,0.1-0.5,0.17-0.8c0.08-0.3,0.16-0.6,0.24-0.9
	c0.08-0.3,0.16-0.55,0.23-0.76l2.41-7.15H71.25z"/>
<path class="st13" d="M74.4,58.45v8.65h-1.84v-8.65H74.4z M73.49,55.14c0.28,0,0.52,0.08,0.73,0.23c0.21,0.15,0.31,0.41,0.31,0.78
	c0,0.36-0.1,0.62-0.31,0.78c-0.2,0.15-0.45,0.23-0.73,0.23c-0.29,0-0.54-0.08-0.74-0.23c-0.2-0.16-0.3-0.42-0.3-0.78
	c0-0.37,0.1-0.63,0.3-0.78C72.96,55.21,73.2,55.14,73.49,55.14z"/>
<path class="st13" d="M84.69,62.75c0,0.72-0.09,1.36-0.28,1.91c-0.19,0.56-0.46,1.03-0.82,1.41c-0.36,0.38-0.79,0.67-1.3,0.88
	c-0.51,0.2-1.08,0.3-1.71,0.3c-0.59,0-1.14-0.1-1.63-0.3c-0.49-0.2-0.92-0.49-1.29-0.88c-0.36-0.38-0.64-0.86-0.84-1.41
	c-0.2-0.56-0.3-1.2-0.3-1.91c0-0.95,0.16-1.76,0.49-2.42c0.33-0.67,0.81-1.17,1.42-1.52c0.61-0.35,1.35-0.52,2.2-0.52
	c0.8,0,1.5,0.17,2.11,0.52s1.09,0.86,1.43,1.52C84.52,61,84.69,61.81,84.69,62.75z M78.42,62.75c0,0.63,0.08,1.17,0.23,1.62
	c0.16,0.45,0.4,0.79,0.72,1.03c0.32,0.23,0.74,0.35,1.25,0.35c0.51,0,0.93-0.12,1.25-0.35c0.32-0.24,0.56-0.58,0.71-1.03
	c0.15-0.45,0.23-0.99,0.23-1.62c0-0.63-0.08-1.16-0.23-1.6c-0.15-0.44-0.39-0.78-0.71-1.01c-0.32-0.24-0.74-0.35-1.26-0.35
	c-0.76,0-1.32,0.26-1.66,0.77S78.42,61.8,78.42,62.75z"/>
<path class="st13" d="M88.64,67.1H86.8V54.94h1.84V67.1z"/>
<path class="st13" d="M94.71,58.29c0.77,0,1.43,0.16,1.98,0.48c0.55,0.32,0.98,0.77,1.27,1.35c0.3,0.58,0.45,1.28,0.45,2.09v0.99
	h-5.77c0.02,0.84,0.24,1.48,0.67,1.94c0.43,0.45,1.04,0.68,1.81,0.68c0.55,0,1.05-0.05,1.48-0.16c0.44-0.11,0.9-0.27,1.37-0.48v1.49
	c-0.43,0.2-0.87,0.35-1.32,0.45c-0.45,0.09-0.98,0.14-1.61,0.14c-0.85,0-1.6-0.16-2.24-0.49c-0.64-0.33-1.14-0.83-1.51-1.48
	c-0.36-0.66-0.54-1.47-0.54-2.45c0-0.97,0.16-1.79,0.49-2.47c0.33-0.68,0.79-1.19,1.38-1.55C93.23,58.46,93.92,58.29,94.71,58.29z
	 M94.71,59.67c-0.58,0-1.05,0.19-1.41,0.56c-0.35,0.38-0.56,0.92-0.62,1.65h3.94c-0.01-0.43-0.08-0.82-0.22-1.15
	c-0.14-0.33-0.34-0.59-0.62-0.78C95.5,59.76,95.15,59.67,94.71,59.67z M95.64,54.84c0.14,0.24,0.33,0.5,0.56,0.8
	c0.24,0.29,0.49,0.58,0.74,0.86c0.26,0.28,0.49,0.51,0.69,0.71v0.2h-1.25c-0.28-0.18-0.58-0.39-0.9-0.63
	c-0.31-0.25-0.61-0.52-0.88-0.8c-0.28,0.29-0.58,0.55-0.88,0.8c-0.3,0.24-0.59,0.46-0.87,0.64h-1.24v-0.2
	c0.2-0.2,0.42-0.44,0.68-0.72s0.5-0.56,0.73-0.85c0.23-0.29,0.42-0.56,0.56-0.8H95.64z"/>
<path class="st13" d="M104.99,58.29c0.97,0,1.73,0.25,2.27,0.76c0.55,0.5,0.82,1.3,0.82,2.41v5.64h-1.84v-5.3
	c0-0.67-0.14-1.17-0.41-1.51c-0.28-0.34-0.7-0.51-1.28-0.51c-0.84,0-1.42,0.26-1.75,0.77c-0.32,0.52-0.48,1.26-0.48,2.24v4.3h-1.84
	v-8.65h1.43l0.26,1.17h0.1c0.19-0.3,0.42-0.55,0.7-0.74c0.28-0.2,0.59-0.35,0.94-0.45C104.26,58.33,104.62,58.29,104.99,58.29z"/>
<path class="st13" d="M114.14,67.25c-0.82,0-1.53-0.16-2.12-0.48c-0.6-0.32-1.06-0.8-1.38-1.46c-0.32-0.66-0.48-1.49-0.48-2.5
	c0-1.05,0.18-1.91,0.53-2.58c0.35-0.67,0.84-1.16,1.47-1.48c0.63-0.32,1.35-0.48,2.16-0.48c0.52,0,0.98,0.05,1.4,0.16
	c0.42,0.1,0.78,0.22,1.07,0.37l-0.55,1.47c-0.32-0.13-0.64-0.24-0.98-0.33c-0.33-0.09-0.65-0.13-0.96-0.13
	c-0.51,0-0.93,0.11-1.27,0.34c-0.33,0.22-0.58,0.56-0.75,1c-0.16,0.44-0.24,0.99-0.24,1.65c0,0.64,0.08,1.17,0.25,1.61
	c0.17,0.43,0.41,0.76,0.74,0.99c0.33,0.22,0.73,0.33,1.21,0.33c0.47,0,0.9-0.06,1.27-0.17c0.38-0.11,0.73-0.26,1.06-0.45v1.59
	c-0.33,0.19-0.68,0.32-1.05,0.41C115.15,67.21,114.69,67.25,114.14,67.25z"/>
<path class="st13" d="M120.45,58.45v8.65h-1.84v-8.65H120.45z M119.54,55.14c0.28,0,0.52,0.08,0.73,0.23
	c0.21,0.15,0.31,0.41,0.31,0.78c0,0.36-0.1,0.62-0.31,0.78c-0.2,0.15-0.45,0.23-0.73,0.23c-0.29,0-0.54-0.08-0.74-0.23
	c-0.2-0.16-0.3-0.42-0.3-0.78c0-0.37,0.1-0.63,0.3-0.78C119,55.21,119.25,55.14,119.54,55.14z"/>
<path class="st13" d="M126.47,58.29c1.09,0,1.92,0.24,2.48,0.73c0.56,0.48,0.84,1.24,0.84,2.27v5.82h-1.3l-0.35-1.23h-0.06
	c-0.24,0.31-0.5,0.57-0.76,0.77c-0.26,0.2-0.56,0.35-0.91,0.45c-0.34,0.1-0.75,0.16-1.24,0.16c-0.52,0-0.98-0.09-1.38-0.28
	c-0.41-0.19-0.73-0.48-0.96-0.88s-0.35-0.88-0.35-1.48c0-0.89,0.33-1.56,0.99-2.01c0.67-0.45,1.67-0.7,3.02-0.74l1.5-0.06v-0.45
	c0-0.6-0.14-1.03-0.42-1.28c-0.28-0.26-0.67-0.38-1.17-0.38c-0.43,0-0.85,0.06-1.26,0.19s-0.8,0.28-1.19,0.46l-0.59-1.3
	c0.42-0.22,0.9-0.41,1.44-0.55C125.33,58.36,125.89,58.29,126.47,58.29z M127.97,62.96L126.85,63c-0.92,0.03-1.56,0.19-1.93,0.47
	c-0.37,0.28-0.55,0.67-0.55,1.16c0,0.43,0.13,0.74,0.38,0.94c0.26,0.19,0.59,0.29,1.01,0.29c0.64,0,1.16-0.18,1.58-0.54
	c0.42-0.36,0.63-0.9,0.63-1.6V62.96z"/>
<path class="st13" d="M140.96,58.29c1.03,0,1.85,0.37,2.47,1.12c0.62,0.75,0.94,1.87,0.94,3.34c0,0.98-0.15,1.8-0.44,2.48
	c-0.29,0.67-0.69,1.17-1.21,1.51c-0.52,0.34-1.12,0.51-1.8,0.51c-0.44,0-0.82-0.06-1.14-0.17c-0.32-0.11-0.6-0.26-0.83-0.44
	c-0.23-0.19-0.42-0.39-0.58-0.61h-0.11c0.03,0.21,0.05,0.44,0.07,0.7c0.03,0.25,0.04,0.48,0.04,0.69v3.52h-1.84V58.45h1.5l0.26,1.19
	h0.09c0.16-0.24,0.36-0.47,0.59-0.68c0.23-0.21,0.52-0.37,0.84-0.49C140.12,58.35,140.51,58.29,140.96,58.29z M140.46,59.79
	c-0.51,0-0.91,0.1-1.22,0.3c-0.3,0.2-0.52,0.5-0.66,0.9c-0.14,0.4-0.21,0.9-0.22,1.51v0.26c0,0.64,0.07,1.18,0.2,1.63
	c0.14,0.44,0.36,0.78,0.66,1.02c0.31,0.23,0.73,0.34,1.27,0.34c0.45,0,0.82-0.12,1.11-0.37c0.3-0.25,0.52-0.59,0.66-1.05
	c0.15-0.45,0.22-0.99,0.22-1.6c0-0.93-0.17-1.66-0.5-2.17C141.65,60.04,141.15,59.79,140.46,59.79z"/>
<path class="st13" d="M152.3,64.63c0,0.57-0.14,1.05-0.41,1.44c-0.28,0.39-0.68,0.69-1.21,0.89c-0.53,0.2-1.17,0.3-1.94,0.3
	c-0.6,0-1.12-0.04-1.56-0.13c-0.43-0.08-0.84-0.21-1.23-0.39v-1.59c0.41,0.19,0.87,0.36,1.38,0.5c0.52,0.14,1,0.21,1.46,0.21
	c0.6,0,1.04-0.09,1.3-0.28c0.27-0.19,0.4-0.45,0.4-0.77c0-0.19-0.05-0.35-0.16-0.5c-0.1-0.15-0.3-0.3-0.59-0.46
	c-0.29-0.16-0.71-0.35-1.27-0.58c-0.55-0.22-1.01-0.44-1.38-0.66c-0.38-0.22-0.66-0.48-0.85-0.79c-0.19-0.31-0.29-0.71-0.29-1.2
	c0-0.76,0.3-1.35,0.91-1.74c0.61-0.4,1.41-0.6,2.41-0.6c0.53,0,1.03,0.05,1.5,0.16c0.47,0.1,0.94,0.26,1.39,0.46l-0.58,1.38
	c-0.39-0.17-0.78-0.31-1.18-0.42c-0.39-0.11-0.79-0.17-1.2-0.17c-0.47,0-0.84,0.07-1.09,0.22c-0.24,0.15-0.37,0.35-0.37,0.62
	c0,0.2,0.06,0.38,0.18,0.52c0.12,0.14,0.33,0.28,0.62,0.42c0.3,0.14,0.71,0.32,1.23,0.52c0.52,0.2,0.96,0.41,1.34,0.62
	c0.38,0.21,0.67,0.48,0.88,0.79C152.2,63.73,152.3,64.13,152.3,64.63z"/>
<path class="st13" d="M156.12,58.45v8.65h-1.84v-8.65H156.12z M155.21,55.14c0.28,0,0.52,0.08,0.73,0.23
	c0.21,0.15,0.31,0.41,0.31,0.78c0,0.36-0.1,0.62-0.31,0.78c-0.2,0.15-0.45,0.23-0.73,0.23c-0.29,0-0.54-0.08-0.74-0.23
	c-0.2-0.16-0.3-0.42-0.3-0.78c0-0.37,0.1-0.63,0.3-0.78C154.67,55.21,154.92,55.14,155.21,55.14z"/>
<path class="st13" d="M162.24,67.25c-0.82,0-1.53-0.16-2.12-0.48c-0.6-0.32-1.06-0.8-1.38-1.46c-0.32-0.66-0.48-1.49-0.48-2.5
	c0-1.05,0.18-1.91,0.53-2.58c0.35-0.67,0.84-1.16,1.47-1.48c0.63-0.32,1.35-0.48,2.16-0.48c0.52,0,0.98,0.05,1.4,0.16
	c0.42,0.1,0.78,0.22,1.07,0.37l-0.55,1.47c-0.32-0.13-0.64-0.24-0.98-0.33c-0.33-0.09-0.65-0.13-0.96-0.13
	c-0.51,0-0.93,0.11-1.27,0.34c-0.33,0.22-0.58,0.56-0.75,1c-0.16,0.44-0.24,0.99-0.24,1.65c0,0.64,0.08,1.17,0.25,1.61
	c0.17,0.43,0.41,0.76,0.74,0.99c0.33,0.22,0.73,0.33,1.21,0.33c0.47,0,0.9-0.06,1.27-0.17c0.38-0.11,0.73-0.26,1.06-0.45v1.59
	c-0.33,0.19-0.68,0.32-1.05,0.41C163.24,67.21,162.78,67.25,162.24,67.25z"/>
<path class="st13" d="M174.36,62.75c0,0.72-0.09,1.36-0.28,1.91c-0.19,0.56-0.46,1.03-0.82,1.41c-0.36,0.38-0.79,0.67-1.3,0.88
	c-0.51,0.2-1.08,0.3-1.71,0.3c-0.59,0-1.14-0.1-1.63-0.3c-0.49-0.2-0.92-0.49-1.29-0.88c-0.36-0.38-0.64-0.86-0.84-1.41
	c-0.2-0.56-0.3-1.2-0.3-1.91c0-0.95,0.16-1.76,0.49-2.42c0.33-0.67,0.81-1.17,1.42-1.52c0.61-0.35,1.35-0.52,2.2-0.52
	c0.8,0,1.5,0.17,2.11,0.52c0.61,0.35,1.09,0.86,1.43,1.52C174.19,61,174.36,61.81,174.36,62.75z M168.09,62.75
	c0,0.63,0.08,1.17,0.23,1.62c0.16,0.45,0.4,0.79,0.72,1.03c0.32,0.23,0.74,0.35,1.25,0.35s0.93-0.12,1.25-0.35
	c0.32-0.24,0.56-0.58,0.71-1.03c0.15-0.45,0.23-0.99,0.23-1.62c0-0.63-0.08-1.16-0.23-1.6c-0.15-0.44-0.39-0.78-0.71-1.01
	c-0.32-0.24-0.74-0.35-1.26-0.35c-0.76,0-1.32,0.26-1.66,0.77S168.09,61.8,168.09,62.75z"/>
<path class="st13" d="M178.31,67.1h-1.84V54.94h1.84V67.1z"/>
<path class="st13" d="M188.6,62.75c0,0.72-0.09,1.36-0.28,1.91c-0.19,0.56-0.46,1.03-0.82,1.41c-0.36,0.38-0.79,0.67-1.3,0.88
	c-0.51,0.2-1.08,0.3-1.71,0.3c-0.59,0-1.14-0.1-1.63-0.3c-0.49-0.2-0.92-0.49-1.29-0.88c-0.36-0.38-0.64-0.86-0.84-1.41
	c-0.2-0.56-0.3-1.2-0.3-1.91c0-0.95,0.16-1.76,0.49-2.42c0.33-0.67,0.81-1.17,1.42-1.52c0.61-0.35,1.35-0.52,2.2-0.52
	c0.8,0,1.5,0.17,2.11,0.52c0.61,0.35,1.09,0.86,1.43,1.52C188.42,61,188.6,61.81,188.6,62.75z M182.32,62.75
	c0,0.63,0.08,1.17,0.23,1.62c0.16,0.45,0.4,0.79,0.72,1.03c0.32,0.23,0.74,0.35,1.25,0.35c0.51,0,0.93-0.12,1.25-0.35
	c0.32-0.24,0.56-0.58,0.71-1.03c0.15-0.45,0.23-0.99,0.23-1.62c0-0.63-0.08-1.16-0.23-1.6c-0.15-0.44-0.39-0.78-0.71-1.01
	c-0.32-0.24-0.74-0.35-1.26-0.35c-0.76,0-1.32,0.26-1.66,0.77C182.5,61.07,182.32,61.8,182.32,62.75z M187.19,54.84V55
	c-0.12,0.15-0.29,0.33-0.51,0.55c-0.21,0.21-0.45,0.43-0.7,0.66c-0.25,0.23-0.5,0.45-0.74,0.66c-0.24,0.21-0.47,0.39-0.66,0.53
	h-1.23v-0.2c0.17-0.2,0.36-0.43,0.57-0.71c0.21-0.28,0.42-0.56,0.62-0.85c0.21-0.29,0.38-0.56,0.52-0.8H187.19z"/>
<path class="st13" d="M193.17,70.94c-1.17,0-2.07-0.21-2.7-0.63s-0.94-1.01-0.94-1.77c0-0.53,0.17-0.98,0.5-1.35
	c0.33-0.37,0.81-0.62,1.43-0.76c-0.23-0.1-0.44-0.27-0.61-0.48c-0.17-0.22-0.25-0.47-0.25-0.74c0-0.32,0.09-0.6,0.27-0.83
	c0.18-0.23,0.46-0.45,0.82-0.66c-0.45-0.19-0.82-0.5-1.09-0.94c-0.27-0.44-0.41-0.95-0.41-1.54c0-0.62,0.13-1.16,0.4-1.59
	c0.27-0.44,0.65-0.78,1.16-1.01c0.51-0.23,1.13-0.35,1.85-0.35c0.16,0,0.33,0.01,0.51,0.03c0.19,0.02,0.36,0.04,0.52,0.06
	c0.16,0.02,0.28,0.04,0.37,0.07H198v1.02l-1.47,0.27c0.14,0.2,0.25,0.42,0.34,0.68c0.08,0.25,0.12,0.52,0.12,0.82
	c0,0.89-0.31,1.6-0.93,2.12c-0.61,0.51-1.46,0.77-2.55,0.77c-0.26-0.01-0.51-0.03-0.76-0.06c-0.19,0.12-0.33,0.24-0.43,0.38
	c-0.1,0.14-0.15,0.29-0.15,0.46c0,0.14,0.05,0.26,0.15,0.34c0.1,0.08,0.24,0.15,0.44,0.19c0.2,0.04,0.44,0.06,0.72,0.06h1.49
	c0.95,0,1.67,0.2,2.17,0.6s0.75,0.99,0.75,1.77c0,0.98-0.41,1.74-1.22,2.27C195.87,70.67,194.7,70.94,193.17,70.94z M193.24,69.65
	c0.64,0,1.18-0.06,1.62-0.19c0.44-0.12,0.77-0.31,0.99-0.54c0.22-0.23,0.34-0.5,0.34-0.82c0-0.28-0.07-0.5-0.21-0.65
	c-0.14-0.15-0.35-0.25-0.63-0.31c-0.28-0.06-0.63-0.09-1.05-0.09h-1.36c-0.34,0-0.64,0.05-0.9,0.16c-0.26,0.11-0.46,0.27-0.61,0.47
	c-0.14,0.2-0.21,0.45-0.21,0.73c0,0.4,0.17,0.7,0.52,0.91C192.1,69.55,192.6,69.65,193.24,69.65z M193.6,62.92
	c0.54,0,0.93-0.15,1.2-0.44c0.26-0.3,0.39-0.71,0.39-1.25c0-0.58-0.14-1.02-0.41-1.31c-0.27-0.29-0.66-0.44-1.19-0.44
	c-0.52,0-0.91,0.15-1.18,0.45c-0.27,0.3-0.4,0.74-0.4,1.32c0,0.53,0.13,0.94,0.4,1.24C192.69,62.77,193.08,62.92,193.6,62.92z"/>
<path class="st13" d="M201.42,58.45v8.65h-1.84v-8.65H201.42z M200.51,55.14c0.28,0,0.52,0.08,0.73,0.23
	c0.21,0.15,0.31,0.41,0.31,0.78c0,0.36-0.1,0.62-0.31,0.78c-0.2,0.15-0.45,0.23-0.73,0.23c-0.29,0-0.54-0.08-0.74-0.23
	c-0.2-0.16-0.3-0.42-0.3-0.78c0-0.37,0.1-0.63,0.3-0.78C199.97,55.21,200.22,55.14,200.51,55.14z"/>
<path class="st13" d="M207.53,67.25c-0.82,0-1.53-0.16-2.12-0.48c-0.6-0.32-1.06-0.8-1.38-1.46c-0.32-0.66-0.48-1.49-0.48-2.5
	c0-1.05,0.18-1.91,0.53-2.58c0.35-0.67,0.84-1.16,1.47-1.48c0.63-0.32,1.35-0.48,2.16-0.48c0.52,0,0.98,0.05,1.4,0.16
	c0.42,0.1,0.78,0.22,1.07,0.37l-0.55,1.47c-0.32-0.13-0.64-0.24-0.98-0.33c-0.33-0.09-0.65-0.13-0.96-0.13
	c-0.51,0-0.93,0.11-1.27,0.34c-0.33,0.22-0.58,0.56-0.75,1c-0.16,0.44-0.24,0.99-0.24,1.65c0,0.64,0.08,1.17,0.25,1.61
	c0.17,0.43,0.41,0.76,0.74,0.99c0.33,0.22,0.73,0.33,1.21,0.33c0.47,0,0.9-0.06,1.27-0.17c0.38-0.11,0.73-0.26,1.06-0.45v1.59
	c-0.33,0.19-0.68,0.32-1.05,0.41C208.54,67.21,208.08,67.25,207.53,67.25z"/>
<path class="st13" d="M215.39,58.29c1.09,0,1.92,0.24,2.48,0.73c0.56,0.48,0.84,1.24,0.84,2.27v5.82h-1.3l-0.35-1.23h-0.06
	c-0.24,0.31-0.5,0.57-0.76,0.77c-0.26,0.2-0.56,0.35-0.91,0.45c-0.34,0.1-0.75,0.16-1.24,0.16c-0.52,0-0.98-0.09-1.38-0.28
	c-0.41-0.19-0.73-0.48-0.96-0.88s-0.35-0.88-0.35-1.48c0-0.89,0.33-1.56,0.99-2.01c0.67-0.45,1.67-0.7,3.02-0.74l1.5-0.06v-0.45
	c0-0.6-0.14-1.03-0.42-1.28c-0.28-0.26-0.67-0.38-1.17-0.38c-0.43,0-0.85,0.06-1.26,0.19c-0.41,0.12-0.8,0.28-1.19,0.46l-0.59-1.3
	c0.42-0.22,0.9-0.41,1.44-0.55C214.25,58.36,214.81,58.29,215.39,58.29z M216.89,62.96L215.78,63c-0.92,0.03-1.56,0.19-1.93,0.47
	c-0.37,0.28-0.55,0.67-0.55,1.16c0,0.43,0.13,0.74,0.38,0.94c0.26,0.19,0.59,0.29,1.01,0.29c0.64,0,1.16-0.18,1.58-0.54
	c0.42-0.36,0.63-0.9,0.63-1.6V62.96z"/>
<path class="st13" d="M26.6,55.96h3.78c1.62,0,2.84,0.23,3.67,0.68c0.83,0.45,1.24,1.25,1.24,2.39c0,0.46-0.07,0.87-0.22,1.24
	c-0.14,0.37-0.35,0.68-0.63,0.91c-0.28,0.24-0.61,0.39-1.01,0.47v0.08c0.4,0.08,0.77,0.23,1.09,0.43c0.33,0.2,0.59,0.49,0.78,0.88
	c0.2,0.38,0.3,0.89,0.3,1.53c0,0.74-0.18,1.37-0.54,1.89c-0.36,0.53-0.87,0.93-1.54,1.21c-0.66,0.28-1.46,0.41-2.37,0.41H26.6V55.96
	z M29.17,60.77h1.49c0.75,0,1.26-0.12,1.55-0.35c0.29-0.24,0.43-0.59,0.43-1.05c0-0.46-0.17-0.8-0.51-1
	c-0.34-0.21-0.87-0.31-1.61-0.31h-1.35V60.77z M29.17,62.81v3.16h1.68c0.78,0,1.32-0.15,1.62-0.45s0.46-0.7,0.46-1.2
	c0-0.3-0.07-0.56-0.2-0.79c-0.13-0.23-0.36-0.4-0.67-0.53c-0.31-0.13-0.74-0.19-1.29-0.19H29.17z"/>
<path class="st13" d="M71.25,13.68L67.26,25.1h-1.98l-3.99-11.42h1.92l2.41,7.16c0.07,0.21,0.15,0.46,0.23,0.76
	c0.09,0.3,0.17,0.6,0.24,0.9c0.08,0.3,0.14,0.57,0.18,0.8c0.04-0.23,0.1-0.5,0.17-0.8c0.08-0.3,0.16-0.6,0.24-0.9
	c0.08-0.3,0.16-0.55,0.23-0.77l2.41-7.15H71.25z"/>
<path class="st13" d="M74.4,16.45v8.65h-1.84v-8.65H74.4z M73.49,13.14c0.28,0,0.52,0.08,0.73,0.23c0.21,0.15,0.31,0.41,0.31,0.78
	c0,0.36-0.1,0.62-0.31,0.78c-0.2,0.15-0.45,0.23-0.73,0.23c-0.29,0-0.54-0.08-0.74-0.23c-0.2-0.16-0.3-0.42-0.3-0.78
	c0-0.37,0.1-0.63,0.3-0.78C72.96,13.21,73.2,13.14,73.49,13.14z"/>
<path class="st13" d="M84.69,20.75c0,0.72-0.09,1.36-0.28,1.91c-0.19,0.56-0.46,1.03-0.82,1.41c-0.36,0.38-0.79,0.67-1.3,0.88
	c-0.51,0.2-1.08,0.3-1.71,0.3c-0.59,0-1.14-0.1-1.63-0.3c-0.49-0.2-0.92-0.49-1.29-0.88c-0.36-0.39-0.64-0.86-0.84-1.41
	c-0.2-0.56-0.3-1.2-0.3-1.91c0-0.95,0.16-1.76,0.49-2.42c0.33-0.67,0.81-1.17,1.42-1.52c0.61-0.35,1.35-0.52,2.2-0.52
	c0.8,0,1.5,0.17,2.11,0.52c0.61,0.35,1.09,0.86,1.43,1.52C84.52,19,84.69,19.81,84.69,20.75z M78.42,20.75
	c0,0.63,0.08,1.17,0.23,1.62c0.16,0.45,0.4,0.79,0.72,1.03c0.32,0.23,0.74,0.35,1.25,0.35c0.51,0,0.93-0.12,1.25-0.35
	c0.32-0.24,0.56-0.58,0.71-1.03c0.15-0.45,0.23-0.99,0.23-1.62c0-0.63-0.08-1.16-0.23-1.6c-0.15-0.44-0.39-0.78-0.71-1.01
	c-0.32-0.23-0.74-0.35-1.26-0.35c-0.76,0-1.32,0.26-1.66,0.77C78.59,19.07,78.42,19.8,78.42,20.75z"/>
<path class="st13" d="M88.64,25.1H86.8V12.94h1.84V25.1z"/>
<path class="st13" d="M94.71,16.28c0.77,0,1.43,0.16,1.98,0.48c0.55,0.32,0.98,0.77,1.27,1.35c0.3,0.58,0.45,1.28,0.45,2.09v0.98
	h-5.77c0.02,0.84,0.24,1.48,0.67,1.94c0.43,0.45,1.04,0.68,1.81,0.68c0.55,0,1.05-0.05,1.48-0.16c0.44-0.11,0.9-0.27,1.37-0.48v1.49
	c-0.43,0.2-0.87,0.35-1.32,0.45c-0.45,0.09-0.98,0.14-1.61,0.14c-0.85,0-1.6-0.16-2.24-0.49c-0.64-0.33-1.14-0.83-1.51-1.48
	c-0.36-0.66-0.54-1.47-0.54-2.45c0-0.97,0.16-1.79,0.49-2.47s0.79-1.19,1.38-1.55C93.23,16.46,93.92,16.28,94.71,16.28z
	 M94.71,17.67c-0.58,0-1.05,0.19-1.41,0.56c-0.35,0.38-0.56,0.92-0.62,1.65h3.94c-0.01-0.43-0.08-0.82-0.22-1.15
	c-0.14-0.33-0.34-0.59-0.62-0.78C95.5,17.76,95.15,17.67,94.71,17.67z M95.64,12.84c0.14,0.24,0.33,0.51,0.56,0.8
	c0.24,0.29,0.49,0.58,0.74,0.86c0.26,0.28,0.49,0.51,0.69,0.71v0.2h-1.25c-0.28-0.18-0.58-0.39-0.9-0.63
	c-0.31-0.25-0.61-0.52-0.88-0.8c-0.28,0.29-0.58,0.55-0.88,0.8c-0.3,0.24-0.59,0.46-0.87,0.64h-1.24v-0.2
	c0.2-0.2,0.42-0.44,0.68-0.72c0.26-0.28,0.5-0.56,0.73-0.85c0.23-0.29,0.42-0.56,0.56-0.8H95.64z"/>
<path class="st13" d="M104.99,16.28c0.97,0,1.73,0.25,2.27,0.76c0.55,0.5,0.82,1.3,0.82,2.41v5.64h-1.84v-5.3
	c0-0.67-0.14-1.17-0.41-1.51c-0.28-0.34-0.7-0.51-1.28-0.51c-0.84,0-1.42,0.26-1.75,0.77c-0.32,0.52-0.48,1.26-0.48,2.24v4.3h-1.84
	v-8.65h1.43l0.26,1.17h0.1c0.19-0.3,0.42-0.55,0.7-0.74c0.28-0.2,0.59-0.35,0.94-0.45C104.26,16.33,104.62,16.28,104.99,16.28z"/>
<path class="st13" d="M114.14,25.25c-0.82,0-1.53-0.16-2.12-0.48c-0.6-0.32-1.06-0.8-1.38-1.46c-0.32-0.66-0.48-1.49-0.48-2.5
	c0-1.05,0.18-1.91,0.53-2.58c0.35-0.67,0.84-1.16,1.47-1.48c0.63-0.32,1.35-0.48,2.16-0.48c0.52,0,0.98,0.05,1.4,0.16
	c0.42,0.1,0.78,0.22,1.07,0.37l-0.55,1.47c-0.32-0.13-0.64-0.24-0.98-0.33c-0.33-0.09-0.65-0.13-0.96-0.13
	c-0.51,0-0.93,0.11-1.27,0.34c-0.33,0.22-0.58,0.56-0.75,1c-0.16,0.44-0.24,0.99-0.24,1.65c0,0.64,0.08,1.17,0.25,1.61
	c0.17,0.43,0.41,0.76,0.74,0.98c0.33,0.22,0.73,0.33,1.21,0.33c0.47,0,0.9-0.06,1.27-0.17s0.73-0.26,1.06-0.45v1.59
	c-0.33,0.19-0.68,0.33-1.05,0.41C115.15,25.21,114.69,25.25,114.14,25.25z"/>
<path class="st13" d="M120.45,16.45v8.65h-1.84v-8.65H120.45z M119.54,13.14c0.28,0,0.52,0.08,0.73,0.23
	c0.21,0.15,0.31,0.41,0.31,0.78c0,0.36-0.1,0.62-0.31,0.78c-0.2,0.15-0.45,0.23-0.73,0.23c-0.29,0-0.54-0.08-0.74-0.23
	c-0.2-0.16-0.3-0.42-0.3-0.78c0-0.37,0.1-0.63,0.3-0.78C119,13.21,119.25,13.14,119.54,13.14z"/>
<path class="st13" d="M126.47,16.28c1.09,0,1.92,0.24,2.48,0.73c0.56,0.48,0.84,1.24,0.84,2.27v5.82h-1.3l-0.35-1.23h-0.06
	c-0.24,0.31-0.5,0.57-0.76,0.77c-0.26,0.2-0.56,0.35-0.91,0.45c-0.34,0.1-0.75,0.16-1.24,0.16c-0.52,0-0.98-0.09-1.38-0.28
	c-0.41-0.19-0.73-0.48-0.96-0.88s-0.35-0.89-0.35-1.48c0-0.89,0.33-1.56,0.99-2.01c0.67-0.45,1.67-0.7,3.02-0.74l1.5-0.05v-0.45
	c0-0.6-0.14-1.03-0.42-1.28c-0.28-0.26-0.67-0.38-1.17-0.38c-0.43,0-0.85,0.06-1.26,0.19s-0.8,0.28-1.19,0.46l-0.59-1.3
	c0.42-0.22,0.9-0.41,1.44-0.55C125.33,16.35,125.89,16.28,126.47,16.28z M127.97,20.96L126.85,21c-0.92,0.03-1.56,0.19-1.93,0.47
	c-0.37,0.28-0.55,0.67-0.55,1.16c0,0.43,0.13,0.74,0.38,0.94c0.26,0.19,0.59,0.29,1.01,0.29c0.64,0,1.16-0.18,1.58-0.54
	c0.42-0.36,0.63-0.9,0.63-1.6V20.96z"/>
<path class="st13" d="M140.84,17.85h-2.1v7.25h-1.84v-7.25h-1.41v-0.88l1.41-0.54v-0.6c0-0.73,0.11-1.32,0.34-1.75
	c0.23-0.43,0.57-0.74,1-0.93c0.44-0.19,0.96-0.29,1.56-0.29c0.4,0,0.76,0.03,1.09,0.1c0.33,0.06,0.6,0.14,0.83,0.22l-0.48,1.39
	c-0.18-0.06-0.38-0.11-0.59-0.16c-0.22-0.05-0.45-0.08-0.7-0.08c-0.42,0-0.72,0.13-0.92,0.39c-0.19,0.26-0.29,0.64-0.29,1.14v0.59
	h2.1V17.85z"/>
<path class="st13" d="M144.15,25.1h-1.84v-8.65h1.84V25.1z M145.9,12.84V13c-0.12,0.15-0.29,0.33-0.51,0.55
	c-0.21,0.21-0.45,0.43-0.7,0.66c-0.25,0.23-0.5,0.45-0.74,0.66c-0.24,0.21-0.47,0.39-0.66,0.53h-1.23v-0.2
	c0.17-0.2,0.36-0.43,0.57-0.71c0.21-0.28,0.42-0.56,0.62-0.85c0.21-0.29,0.38-0.56,0.52-0.8H145.9z"/>
<path class="st13" d="M152.6,22.63c0,0.57-0.14,1.05-0.41,1.44c-0.28,0.39-0.68,0.69-1.21,0.89c-0.53,0.2-1.17,0.3-1.94,0.3
	c-0.6,0-1.12-0.04-1.56-0.13c-0.43-0.08-0.84-0.21-1.23-0.39v-1.59c0.41,0.19,0.87,0.36,1.38,0.5c0.52,0.14,1,0.21,1.46,0.21
	c0.6,0,1.04-0.09,1.3-0.28c0.27-0.19,0.4-0.45,0.4-0.77c0-0.19-0.05-0.35-0.16-0.5c-0.1-0.15-0.3-0.3-0.59-0.46
	c-0.29-0.16-0.71-0.35-1.27-0.58c-0.55-0.22-1.01-0.44-1.38-0.66c-0.38-0.22-0.66-0.48-0.85-0.79c-0.19-0.31-0.29-0.71-0.29-1.2
	c0-0.77,0.3-1.35,0.91-1.74c0.61-0.4,1.41-0.6,2.41-0.6c0.53,0,1.03,0.05,1.5,0.16c0.47,0.1,0.94,0.26,1.39,0.46l-0.58,1.38
	c-0.39-0.17-0.78-0.31-1.18-0.42c-0.39-0.11-0.79-0.17-1.2-0.17c-0.47,0-0.84,0.07-1.09,0.22c-0.24,0.15-0.37,0.35-0.37,0.62
	c0,0.2,0.06,0.38,0.18,0.52c0.12,0.14,0.33,0.28,0.62,0.42c0.3,0.14,0.71,0.32,1.23,0.52c0.52,0.2,0.96,0.41,1.34,0.62
	c0.38,0.21,0.67,0.48,0.88,0.79S152.6,22.13,152.6,22.63z"/>
<path class="st13" d="M156.42,16.45v8.65h-1.84v-8.65H156.42z M155.51,13.14c0.28,0,0.52,0.08,0.73,0.23
	c0.21,0.15,0.31,0.41,0.31,0.78c0,0.36-0.1,0.62-0.31,0.78c-0.2,0.15-0.45,0.23-0.73,0.23c-0.29,0-0.54-0.08-0.74-0.23
	c-0.2-0.16-0.3-0.42-0.3-0.78c0-0.37,0.1-0.63,0.3-0.78C154.97,13.21,155.22,13.14,155.51,13.14z"/>
<path class="st13" d="M162.53,25.25c-0.82,0-1.53-0.16-2.12-0.48c-0.6-0.32-1.06-0.8-1.38-1.46c-0.32-0.66-0.48-1.49-0.48-2.5
	c0-1.05,0.18-1.91,0.53-2.58c0.35-0.67,0.84-1.16,1.47-1.48c0.63-0.32,1.35-0.48,2.16-0.48c0.52,0,0.98,0.05,1.4,0.16
	c0.42,0.1,0.78,0.22,1.07,0.37l-0.55,1.47c-0.32-0.13-0.64-0.24-0.98-0.33c-0.33-0.09-0.65-0.13-0.96-0.13
	c-0.51,0-0.93,0.11-1.27,0.34c-0.33,0.22-0.58,0.56-0.75,1c-0.16,0.44-0.24,0.99-0.24,1.65c0,0.64,0.08,1.17,0.25,1.61
	c0.17,0.43,0.41,0.76,0.74,0.98c0.33,0.22,0.73,0.33,1.21,0.33c0.47,0,0.9-0.06,1.27-0.17s0.73-0.26,1.06-0.45v1.59
	c-0.33,0.19-0.68,0.33-1.05,0.41C163.54,25.21,163.08,25.25,162.53,25.25z"/>
<path class="st13" d="M170.39,16.28c1.09,0,1.92,0.24,2.48,0.73c0.56,0.48,0.84,1.24,0.84,2.27v5.82h-1.3l-0.35-1.23h-0.06
	c-0.24,0.31-0.5,0.57-0.76,0.77c-0.26,0.2-0.56,0.35-0.91,0.45c-0.34,0.1-0.75,0.16-1.24,0.16c-0.52,0-0.98-0.09-1.38-0.28
	c-0.41-0.19-0.73-0.48-0.96-0.88s-0.35-0.89-0.35-1.48c0-0.89,0.33-1.56,0.99-2.01c0.67-0.45,1.67-0.7,3.02-0.74l1.5-0.05v-0.45
	c0-0.6-0.14-1.03-0.42-1.28c-0.28-0.26-0.67-0.38-1.17-0.38c-0.43,0-0.85,0.06-1.26,0.19c-0.41,0.12-0.8,0.28-1.19,0.46l-0.59-1.3
	c0.42-0.22,0.9-0.41,1.44-0.55C169.25,16.35,169.81,16.28,170.39,16.28z M171.89,20.96L170.78,21c-0.92,0.03-1.56,0.19-1.93,0.47
	c-0.37,0.28-0.55,0.67-0.55,1.16c0,0.43,0.13,0.74,0.38,0.94c0.26,0.19,0.59,0.29,1.01,0.29c0.64,0,1.16-0.18,1.58-0.54
	c0.42-0.36,0.63-0.9,0.63-1.6V20.96z"/>
<path class="st16" d="M15.28,9.1c0-2.21,1.79-4,4-4h22c2.21,0,4,1.79,4,4v22c0,2.21-1.79,4-4,4h-22c-2.21,0-4-1.79-4-4V9.1z"/>
<path class="st13" d="M33.87,26.1l-0.88-2.89h-4.42l-0.88,2.89h-2.77l4.28-12.19h3.15l4.3,12.19H33.87z M32.38,21.05l-0.88-2.82
	c-0.05-0.19-0.13-0.43-0.22-0.72c-0.09-0.3-0.18-0.6-0.27-0.9c-0.09-0.31-0.16-0.58-0.22-0.81c-0.05,0.23-0.13,0.51-0.23,0.85
	c-0.09,0.33-0.19,0.65-0.27,0.95c-0.09,0.3-0.15,0.51-0.19,0.64l-0.87,2.82H32.38z"/>
</svg>
