<?xml version="1.0" encoding="utf-8"?>
<!-- Generator: Adobe Illustrator 27.1.1, SVG Export Plug-In . SVG Version: 6.00 Build 0)  -->
<svg version="1.1" id="Camada_1" xmlns="http://www.w3.org/2000/svg" xmlns:xlink="http://www.w3.org/1999/xlink" x="0px" y="0px"
	 viewBox="0 0 309.93 92.11" style="enable-background:new 0 0 309.93 92.11;" xml:space="preserve">
<style type="text/css">
	.st0{fill:#4493CD;}
	.st1{fill:#BDA93B;}
	.st2{fill:#C45791;}
	.st3{fill:#FFFFFF;}
	.st4{fill:#CFB632;}
	.st5{fill:#BFDFF7;}
	.st6{fill:#262626;}
	.st7{fill:#E5CF5F;}
	.st8{fill:#F1A5C9;}
	.st9{fill:#C8E6FA;}
	.st10{fill:#3E3E3E;}
	.st11{fill-rule:evenodd;clip-rule:evenodd;fill:#FAFAFA;}
	.st12{fill-rule:evenodd;clip-rule:evenodd;fill:#FFFFFF;}
	.st13{fill:#010202;}
	.st14{fill:#CCC8C9;}
	.st15{fill:#D9D9D9;}
	.st16{fill:none;stroke:#010202;}
	.st17{fill-rule:evenodd;clip-rule:evenodd;fill:#262626;}
</style>
<path class="st10" d="M21.26,36.58c-3.07,0-5.76-0.63-8.07-1.9c-2.29-1.26-4.07-3.07-5.34-5.43c-1.24-2.36-1.87-5.12-1.87-8.29
	c0-3.13,0.62-5.88,1.87-8.24c1.27-2.35,3.05-4.17,5.34-5.43c2.32-1.27,5.01-1.9,8.07-1.9c3.67,0,6.9,0.96,9.68,2.89
	C31.43,8.63,31.78,9,31.98,9.4c0.23,0.4,0.35,0.92,0.35,1.56c0,0.89-0.26,1.65-0.78,2.28c-0.49,0.61-1.1,0.91-1.82,0.91
	c-0.43,0-0.83-0.06-1.17-0.17c-0.35-0.15-0.75-0.36-1.22-0.65c-1.01-0.61-1.97-1.04-2.86-1.3s-1.82-0.38-2.78-0.38
	c-2.58,0-4.5,0.77-5.77,2.33c-1.24,1.52-1.87,3.85-1.87,6.98c0,3.17,0.62,5.53,1.87,7.08c1.27,1.52,3.2,2.29,5.77,2.29
	c0.87,0,1.71-0.13,2.52-0.39c0.81-0.29,1.85-0.72,3.12-1.3c0.61-0.31,1.06-0.53,1.35-0.64c0.29-0.12,0.64-0.18,1.04-0.18
	c0.72,0,1.33,0.32,1.82,0.95c0.52,0.61,0.78,1.35,0.78,2.25c0,0.6-0.12,1.12-0.35,1.55c-0.2,0.4-0.55,0.78-1.04,1.12
	C28.16,35.62,24.94,36.58,21.26,36.58z"/>
<path class="st10" d="M69.48,31.32c0.26,0.54,0.39,1.08,0.39,1.59c0,0.95-0.39,1.76-1.17,2.42c-0.75,0.66-1.62,0.99-2.6,0.99
	c-0.67,0-1.27-0.17-1.82-0.52c-0.55-0.34-0.98-0.86-1.3-1.55l-1.95-4.36H46.96l-2,4.36c-0.32,0.69-0.77,1.21-1.35,1.55
	c-0.55,0.35-1.16,0.52-1.82,0.52c-0.98,0-1.88-0.33-2.69-0.99c-0.78-0.66-1.17-1.47-1.17-2.42c0-0.51,0.13-1.05,0.39-1.59
	L49.78,7.94c0.38-0.78,0.93-1.37,1.65-1.77C52.18,5.74,53,5.52,53.9,5.52c0.87,0,1.68,0.22,2.43,0.65c0.75,0.4,1.32,0.99,1.69,1.77
	L69.48,31.32z M49.65,23.94h8.68l-4.34-9.62L49.65,23.94z"/>
<path class="st10" d="M104.71,5.56c1.1,0,2,0.36,2.69,1.08c0.7,0.72,1.04,1.65,1.04,2.81v23.46c0,1.1-0.32,1.96-0.96,2.59
	c-0.64,0.64-1.47,0.95-2.52,0.95c-1.01,0-1.85-0.31-2.52-0.95c-0.64-0.63-0.95-1.49-0.95-2.59V20.23l-4.95,9.06
	c-0.49,0.92-1.01,1.58-1.56,1.98c-0.55,0.38-1.2,0.57-1.95,0.57s-1.4-0.19-1.95-0.57c-0.55-0.4-1.07-1.06-1.56-1.98l-4.9-8.8v12.42
	c0,1.07-0.33,1.93-1,2.59c-0.64,0.64-1.47,0.95-2.52,0.95c-1.01,0-1.85-0.31-2.52-0.95c-0.64-0.63-0.95-1.49-0.95-2.59V9.45
	c0-1.16,0.35-2.09,1.04-2.81c0.72-0.72,1.64-1.08,2.74-1.08c0.78,0,1.49,0.23,2.13,0.69c0.64,0.43,1.17,1.07,1.61,1.9l7.99,14.93
	l7.94-14.93C101.97,6.43,103.18,5.56,104.71,5.56z"/>
<path class="st10" d="M122.37,36.45c-1.22,0-2.18-0.34-2.91-1.03c-0.7-0.72-1.04-1.69-1.04-2.89V9.45c0-1.18,0.32-2.09,0.96-2.72
	c0.64-0.64,1.55-0.95,2.73-0.95h11.11c3.38,0,6.02,0.86,7.9,2.59c1.88,1.69,2.82,4.07,2.82,7.12c0,3.01-0.96,5.39-2.86,7.11
	c-1.88,1.73-4.5,2.59-7.86,2.59h-6.82v7.34c0,1.2-0.36,2.17-1.09,2.89C124.6,36.11,123.61,36.45,122.37,36.45z M132.14,19.24
	c1.47,0,2.56-0.3,3.26-0.91c0.72-0.6,1.08-1.54,1.08-2.8c0-2.5-1.45-3.76-4.34-3.76h-5.73v7.47H132.14z"/>
<path class="st10" d="M166.76,36.58c-3.12,0-5.84-0.63-8.16-1.9c-2.29-1.29-4.05-3.1-5.3-5.43c-1.24-2.36-1.87-5.12-1.87-8.29
	c0-3.16,0.62-5.91,1.87-8.24c1.24-2.35,3.01-4.17,5.3-5.43c2.32-1.27,5.03-1.9,8.16-1.9s5.83,0.63,8.12,1.9
	c2.32,1.26,4.08,3.08,5.3,5.43c1.24,2.33,1.87,5.08,1.87,8.24c0,3.17-0.62,5.93-1.87,8.29c-1.24,2.33-3.02,4.14-5.34,5.43
	C172.55,35.95,169.86,36.58,166.76,36.58z M166.76,30.5c2.32,0,4.12-0.81,5.42-2.42c1.3-1.64,1.95-4.01,1.95-7.12
	c0-3.1-0.66-5.46-2-7.07c-1.3-1.61-3.1-2.42-5.38-2.42c-2.32,0-4.12,0.81-5.43,2.42c-1.3,1.58-1.95,3.94-1.95,7.07
	c0,3.14,0.65,5.51,1.95,7.12C162.64,29.69,164.44,30.5,166.76,30.5z"/>
<path class="st10" d="M202.61,36.58c-2.32,0-4.47-0.24-6.47-0.73c-1.97-0.52-3.59-1.22-4.86-2.12c-0.49-0.37-0.85-0.76-1.09-1.16
	c-0.2-0.4-0.3-0.92-0.3-1.55c0-0.87,0.26-1.61,0.78-2.25c0.52-0.63,1.13-0.95,1.82-0.95c0.38,0,0.74,0.06,1.09,0.18
	c0.35,0.11,0.78,0.33,1.3,0.64c1.19,0.66,2.36,1.14,3.52,1.43c1.19,0.28,2.52,0.43,3.99,0.43c1.71,0,2.99-0.25,3.86-0.74
	c0.9-0.51,1.35-1.26,1.35-2.24c0-0.66-0.42-1.22-1.26-1.68c-0.81-0.49-2.37-0.96-4.69-1.42c-2.87-0.61-5.11-1.33-6.73-2.16
	c-1.62-0.84-2.76-1.81-3.43-2.94c-0.64-1.15-0.95-2.53-0.95-4.14c0-1.84,0.55-3.51,1.65-5c1.1-1.5,2.6-2.66,4.51-3.5
	c1.94-0.86,4.11-1.29,6.51-1.29c2.11,0,3.99,0.23,5.64,0.69c1.65,0.46,3.15,1.18,4.51,2.16c0.52,0.37,0.88,0.77,1.08,1.21
	c0.23,0.4,0.35,0.9,0.35,1.51c0,0.86-0.26,1.61-0.78,2.24c-0.49,0.63-1.09,0.95-1.78,0.95c-0.38,0-0.72-0.05-1.04-0.13
	c-0.32-0.12-0.77-0.35-1.35-0.69c-0.15-0.09-0.56-0.3-1.26-0.65c-0.66-0.37-1.46-0.66-2.39-0.86c-0.9-0.23-1.88-0.35-2.95-0.35
	c-1.48,0-2.66,0.29-3.56,0.87c-0.9,0.54-1.35,1.28-1.35,2.2c0,0.54,0.16,0.99,0.48,1.33c0.32,0.35,0.91,0.69,1.78,1.04
	c0.87,0.32,2.16,0.65,3.86,0.99c2.78,0.6,4.96,1.34,6.55,2.2c1.59,0.84,2.72,1.81,3.38,2.93c0.67,1.13,1,2.45,1,3.97
	c0,1.9-0.54,3.58-1.61,5.05c-1.07,1.44-2.58,2.56-4.51,3.37C207.38,36.19,205.15,36.58,202.61,36.58z"/>
<path class="st10" d="M244.72,36.19c-1.19,0-2.1-0.31-2.74-0.95c-0.64-0.63-0.95-1.54-0.95-2.71V9.45c0-1.18,0.31-2.09,0.95-2.72
	c0.64-0.64,1.55-0.95,2.74-0.95h8.76c3.39,0,6.3,0.62,8.73,1.85c2.46,1.21,4.34,2.95,5.64,5.22c1.3,2.28,1.95,4.98,1.95,8.11
	c0,3.17-0.65,5.9-1.95,8.2c-1.27,2.27-3.14,4.01-5.6,5.22c-2.43,1.21-5.35,1.81-8.77,1.81H244.72z M252.92,29.81
	c2.98,0,5.21-0.72,6.68-2.16c1.51-1.47,2.26-3.69,2.26-6.69c0-2.99-0.75-5.2-2.26-6.64c-1.47-1.44-3.7-2.16-6.68-2.16h-3.91v17.65
	H252.92z"/>
<path class="st10" d="M282.63,36.19c-1.19,0-2.1-0.31-2.74-0.95c-0.64-0.63-0.95-1.54-0.95-2.71V9.45c0-1.18,0.31-2.09,0.95-2.72
	c0.64-0.64,1.55-0.95,2.74-0.95h15.01c1.25,0,2.19,0.26,2.82,0.77c0.64,0.52,0.96,1.27,0.96,2.25c0,2.07-1.26,3.1-3.78,3.1h-10.93
	v5.79h10.07c2.51,0,3.77,1.02,3.77,3.06c0,0.98-0.32,1.72-0.95,2.24c-0.64,0.52-1.58,0.78-2.82,0.78h-10.07v6.3h10.93
	c2.52,0,3.78,1.03,3.78,3.1c0,0.98-0.32,1.73-0.96,2.25c-0.63,0.51-1.57,0.77-2.82,0.77H282.63z"/>
<path class="st10" d="M7.58,85.89c-0.16,0.51-0.42,0.89-0.78,1.14c-0.35,0.24-0.75,0.36-1.18,0.36c-0.54,0-1.03-0.19-1.47-0.57
	c-0.41-0.35-0.61-0.81-0.61-1.38c0-0.24,0.04-0.48,0.12-0.73l9.47-29.48c0.16-0.51,0.42-0.89,0.77-1.13
	c0.35-0.25,0.75-0.37,1.18-0.37c0.54,0,1.02,0.19,1.43,0.57c0.43,0.35,0.65,0.81,0.65,1.38c0,0.24-0.04,0.48-0.12,0.73L7.58,85.89z"
	/>
<path class="st10" d="M22.54,85.89c-0.16,0.51-0.42,0.89-0.77,1.14c-0.35,0.24-0.75,0.36-1.18,0.36c-0.54,0-1.03-0.19-1.47-0.57
	c-0.41-0.35-0.61-0.81-0.61-1.38c0-0.24,0.04-0.48,0.12-0.73l9.47-29.48c0.16-0.51,0.42-0.89,0.78-1.13
	c0.35-0.25,0.75-0.37,1.18-0.37c0.54,0,1.02,0.19,1.43,0.57c0.43,0.35,0.65,0.81,0.65,1.38c0,0.24-0.04,0.48-0.12,0.73L22.54,85.89z
	"/>
<path class="st10" d="M37.49,85.89c-0.16,0.51-0.42,0.89-0.78,1.14c-0.35,0.24-0.75,0.36-1.18,0.36c-0.54,0-1.03-0.19-1.47-0.57
	c-0.41-0.35-0.61-0.81-0.61-1.38c0-0.24,0.04-0.48,0.12-0.73l9.47-29.48c0.16-0.51,0.42-0.89,0.77-1.13
	c0.35-0.25,0.75-0.37,1.18-0.37c0.54,0,1.02,0.19,1.43,0.57c0.43,0.35,0.65,0.81,0.65,1.38c0,0.24-0.04,0.48-0.12,0.73L37.49,85.89z
	"/>
<path class="st10" d="M66.33,84.88c-2.77,0-5.21-0.6-7.3-1.79c-2.07-1.19-3.66-2.89-4.77-5.11c-1.12-2.22-1.67-4.81-1.67-7.78
	c0-2.98,0.56-5.56,1.67-7.75c1.11-2.22,2.71-3.92,4.77-5.11c2.1-1.19,4.53-1.78,7.3-1.78c1.8,0,3.48,0.27,5.06,0.81
	c1.58,0.51,2.98,1.27,4.2,2.27c0.35,0.27,0.6,0.55,0.73,0.85c0.14,0.3,0.2,0.66,0.2,1.09c0,0.6-0.16,1.1-0.49,1.51
	c-0.33,0.4-0.72,0.6-1.18,0.6c-0.54,0-1.1-0.19-1.67-0.56c-1.17-0.87-2.26-1.46-3.26-1.79c-1.01-0.35-2.12-0.53-3.35-0.53
	c-2.83,0-4.98,0.88-6.45,2.64c-1.44,1.76-2.16,4.34-2.16,7.75c0,3.43,0.72,6.02,2.16,7.78c1.47,1.76,3.62,2.64,6.45,2.64
	c1.17,0,2.24-0.18,3.22-0.53c1.01-0.35,2.13-0.95,3.39-1.78c0.27-0.17,0.54-0.3,0.82-0.41c0.27-0.11,0.56-0.16,0.86-0.16
	c0.46,0,0.86,0.2,1.18,0.61c0.33,0.4,0.49,0.9,0.49,1.5c0,0.4-0.07,0.77-0.2,1.09c-0.14,0.3-0.38,0.58-0.73,0.85
	c-1.22,1-2.62,1.77-4.2,2.32C69.81,84.62,68.12,84.88,66.33,84.88z"/>
<path class="st10" d="M110.76,81.39c0.16,0.35,0.24,0.7,0.24,1.05c0,0.62-0.26,1.15-0.78,1.58c-0.49,0.44-1.06,0.65-1.71,0.65
	c-0.43,0-0.84-0.11-1.22-0.32c-0.38-0.24-0.68-0.61-0.9-1.1l-2.45-5.43H89.58l-2.45,5.43c-0.22,0.49-0.52,0.86-0.9,1.1
	c-0.38,0.21-0.8,0.32-1.27,0.32c-0.62,0-1.2-0.21-1.71-0.65c-0.52-0.43-0.78-0.96-0.78-1.58c0-0.35,0.08-0.7,0.25-1.05l11.26-24.05
	c0.24-0.54,0.61-0.95,1.1-1.22c0.52-0.29,1.06-0.44,1.63-0.44c0.57,0,1.1,0.15,1.59,0.44c0.52,0.27,0.9,0.68,1.14,1.22L110.76,81.39
	z M91.38,73.76h10.77l-5.39-12.04L91.38,73.76z"/>
<path class="st10" d="M121.58,84.51c-0.79,0-1.42-0.22-1.88-0.65c-0.43-0.43-0.65-1.04-0.65-1.82V58.39c0-0.78,0.22-1.39,0.65-1.82
	c0.46-0.43,1.09-0.65,1.88-0.65h8.08c4.7,0,8.35,1.26,10.93,3.77c2.61,2.49,3.92,5.99,3.92,10.51c0,4.54-1.31,8.07-3.92,10.58
	c-2.58,2.49-6.23,3.73-10.93,3.73H121.58z M129.33,80.25c6.61,0,9.91-3.35,9.91-10.05c0-6.68-3.3-10.02-9.91-10.02h-5.02v20.07
	H129.33z"/>
<path class="st10" d="M179.24,81.39c0.16,0.35,0.24,0.7,0.24,1.05c0,0.62-0.26,1.15-0.78,1.58c-0.49,0.44-1.06,0.65-1.71,0.65
	c-0.43,0-0.84-0.11-1.22-0.32c-0.38-0.24-0.68-0.61-0.9-1.1l-2.45-5.43h-14.36l-2.45,5.43c-0.22,0.49-0.52,0.86-0.9,1.1
	c-0.38,0.21-0.8,0.32-1.27,0.32c-0.62,0-1.2-0.21-1.71-0.65c-0.52-0.43-0.78-0.96-0.78-1.58c0-0.35,0.08-0.7,0.24-1.05l11.26-24.05
	c0.24-0.54,0.61-0.95,1.1-1.22c0.52-0.29,1.06-0.44,1.63-0.44c0.57,0,1.1,0.15,1.59,0.44c0.52,0.27,0.9,0.68,1.14,1.22L179.24,81.39
	z M159.86,73.76h10.77l-5.39-12.04L159.86,73.76z"/>
<path class="st10" d="M197.17,84.88c-2.09,0-4.08-0.27-5.96-0.82c-1.85-0.56-3.36-1.32-4.53-2.27c-0.62-0.46-0.94-1.1-0.94-1.94
	c0-0.57,0.16-1.06,0.49-1.46c0.35-0.44,0.76-0.65,1.22-0.65c0.49,0,1.05,0.19,1.67,0.57c1.17,0.83,2.39,1.44,3.67,1.82
	s2.69,0.57,4.24,0.57c1.99,0,3.51-0.34,4.57-1.02c1.06-0.7,1.59-1.71,1.59-3.04c0-1.02-0.5-1.81-1.51-2.35
	c-0.98-0.57-2.62-1.11-4.94-1.62c-2.39-0.51-4.34-1.11-5.83-1.78c-1.5-0.68-2.62-1.55-3.39-2.6c-0.76-1.05-1.14-2.39-1.14-4.01
	c0-1.68,0.48-3.18,1.43-4.51c0.95-1.32,2.27-2.35,3.96-3.08c1.71-0.76,3.63-1.13,5.75-1.13c3.89,0,7.06,1.02,9.51,3.08
	c0.35,0.3,0.6,0.59,0.73,0.89c0.16,0.27,0.24,0.62,0.24,1.05c0,0.57-0.18,1.07-0.53,1.51c-0.33,0.4-0.72,0.6-1.18,0.6
	c-0.27,0-0.53-0.04-0.78-0.12c-0.22-0.08-0.52-0.23-0.9-0.44c-1.11-0.82-2.2-1.41-3.26-1.79c-1.03-0.4-2.31-0.61-3.83-0.61
	c-1.85,0-3.32,0.38-4.41,1.14c-1.06,0.73-1.59,1.76-1.59,3.08c0,1.11,0.48,1.96,1.43,2.56c0.95,0.59,2.57,1.14,4.85,1.66
	c2.42,0.54,4.38,1.15,5.88,1.82c1.52,0.65,2.68,1.49,3.47,2.52c0.82,1.02,1.22,2.31,1.22,3.85c0,1.68-0.48,3.16-1.43,4.46
	c-0.93,1.27-2.24,2.27-3.96,3C201.31,84.52,199.37,84.88,197.17,84.88z"/>
<path class="st10" d="M226.14,84.71c-0.82,0-1.47-0.23-1.96-0.69c-0.46-0.48-0.69-1.12-0.69-1.9v-21.9h-7.43
	c-1.63,0-2.45-0.72-2.45-2.15c0-1.43,0.82-2.15,2.45-2.15h20.11c1.63,0,2.45,0.72,2.45,2.15c0,1.43-0.82,2.15-2.45,2.15h-7.43v21.9
	c0,0.78-0.24,1.42-0.73,1.9C227.55,84.48,226.93,84.71,226.14,84.71z"/>
<path class="st10" d="M268.82,81.23c0.33,0.48,0.49,0.96,0.49,1.42c0,0.62-0.26,1.13-0.77,1.54c-0.49,0.4-1.08,0.6-1.76,0.6
	c-0.43,0-0.85-0.09-1.26-0.28c-0.38-0.22-0.71-0.53-0.98-0.93l-5.43-8.19c-0.54-0.87-1.13-1.48-1.75-1.83
	c-0.6-0.35-1.39-0.53-2.37-0.53h-4v9.09c0,0.81-0.23,1.46-0.69,1.94c-0.46,0.46-1.09,0.69-1.88,0.69s-1.42-0.23-1.91-0.69
	c-0.47-0.48-0.7-1.13-0.7-1.94V58.39c0-0.78,0.22-1.39,0.66-1.82c0.46-0.43,1.08-0.65,1.87-0.65h10.2c3.27,0,5.74,0.73,7.43,2.19
	c1.71,1.43,2.57,3.52,2.57,6.25c0,2.21-0.64,4.04-1.92,5.47c-1.25,1.41-3.03,2.31-5.34,2.72c0.78,0.19,1.48,0.52,2.08,1.01
	c0.59,0.49,1.18,1.16,1.75,2.03L268.82,81.23z M257.81,69.02c1.98,0,3.44-0.37,4.36-1.1c0.93-0.75,1.39-1.9,1.39-3.44
	c0-1.57-0.46-2.71-1.39-3.41c-0.92-0.73-2.38-1.09-4.36-1.09h-6.86v9.04H257.81z"/>
<path class="st10" d="M290.87,84.88c-2.8,0-5.23-0.6-7.3-1.79c-2.04-1.19-3.62-2.89-4.73-5.11c-1.12-2.22-1.68-4.81-1.68-7.78
	c0-2.98,0.55-5.56,1.64-7.75c1.11-2.22,2.7-3.92,4.77-5.11c2.07-1.19,4.5-1.78,7.3-1.78c2.8,0,5.22,0.59,7.26,1.78
	c2.07,1.19,3.65,2.89,4.74,5.11c1.11,2.19,1.67,4.77,1.67,7.75c0,2.97-0.56,5.56-1.67,7.78c-1.12,2.22-2.71,3.92-4.78,5.11
	C296.05,84.28,293.65,84.88,290.87,84.88z M290.87,80.7c2.64,0,4.69-0.91,6.16-2.72c1.5-1.81,2.25-4.4,2.25-7.78
	c0-3.38-0.75-5.97-2.25-7.75c-1.47-1.81-3.52-2.72-6.16-2.72c-2.66,0-4.74,0.91-6.24,2.72c-1.47,1.78-2.2,4.37-2.2,7.75
	c0,3.38,0.73,5.97,2.2,7.78C286.13,79.79,288.21,80.7,290.87,80.7z"/>
</svg>
