<?xml version="1.0" encoding="utf-8"?>
<!-- Generator: Adobe Illustrator 27.1.1, SVG Export Plug-In . SVG Version: 6.00 Build 0)  -->
<svg version="1.1" id="Camada_1" xmlns="http://www.w3.org/2000/svg" xmlns:xlink="http://www.w3.org/1999/xlink" x="0px" y="0px"
	 viewBox="0 0 344.73 437.66" style="enable-background:new 0 0 344.73 437.66;" xml:space="preserve">
<style type="text/css">
	.st0{fill:#4493CD;}
	.st1{fill:#BDA93B;}
	.st2{fill:#C45791;}
	.st3{fill:#FFFFFF;}
	.st4{fill:#CFB632;}
	.st5{fill:#BFDFF7;}
	.st6{fill:#262626;}
	.st7{fill:#E5CF5F;}
	.st8{fill:#F1A5C9;}
	.st9{fill:#C8E6FA;}
	.st10{fill:#3E3E3E;}
	.st11{fill-rule:evenodd;clip-rule:evenodd;fill:#FAFAFA;}
	.st12{fill-rule:evenodd;clip-rule:evenodd;fill:#FFFFFF;}
	.st13{fill:#010202;}
	.st14{fill:#CCC8C9;}
	.st15{fill-rule:evenodd;clip-rule:evenodd;fill:#262626;}
	.st16{fill:#D9D9D9;}
	.st17{fill:none;stroke:#010202;}
</style>
<path class="st13" d="M24.45,38.84l-1.12-3.17h-4.37l-1.11,3.17h-1.98l4.25-11.47h2.08l4.24,11.47H24.45z M22.85,34.06l-1.09-3.13
	c-0.04-0.13-0.1-0.32-0.18-0.57c-0.08-0.25-0.16-0.5-0.23-0.75c-0.08-0.26-0.15-0.48-0.2-0.66c-0.05,0.21-0.12,0.45-0.19,0.72
	c-0.08,0.26-0.15,0.5-0.22,0.73c-0.07,0.23-0.12,0.41-0.16,0.53l-1.09,3.13H22.85z"/>
<path class="st13" d="M32.08,31.59h-2.1v7.25h-1.84v-7.25h-1.41v-0.88l1.41-0.54v-0.6c0-0.74,0.12-1.32,0.35-1.75
	c0.23-0.44,0.56-0.75,1-0.93c0.43-0.2,0.96-0.29,1.56-0.29c0.4,0,0.76,0.03,1.09,0.1c0.32,0.06,0.6,0.13,0.82,0.22l-0.47,1.39
	c-0.18-0.06-0.38-0.11-0.6-0.16c-0.22-0.05-0.45-0.08-0.7-0.08c-0.42,0-0.72,0.13-0.92,0.39c-0.19,0.27-0.29,0.65-0.29,1.15v0.58
	h2.1V31.59z"/>
<path class="st13" d="M37.94,30.03c0.15,0,0.31,0.01,0.48,0.02c0.17,0.02,0.32,0.04,0.44,0.06l-0.17,1.72
	c-0.11-0.03-0.24-0.05-0.41-0.07c-0.15-0.01-0.29-0.02-0.42-0.02c-0.33,0-0.64,0.05-0.94,0.16c-0.29,0.11-0.56,0.27-0.78,0.49
	c-0.23,0.21-0.41,0.48-0.54,0.8c-0.13,0.32-0.2,0.7-0.2,1.13v4.52h-1.84v-8.65h1.43l0.26,1.53h0.08c0.17-0.31,0.39-0.59,0.64-0.85
	c0.26-0.25,0.55-0.46,0.88-0.61C37.18,30.11,37.54,30.03,37.94,30.03z"/>
<path class="st13" d="M48.12,34.5c0,0.72-0.09,1.35-0.28,1.91c-0.19,0.56-0.46,1.03-0.82,1.41s-0.79,0.68-1.3,0.88
	c-0.5,0.2-1.07,0.3-1.71,0.3c-0.59,0-1.14-0.1-1.63-0.3c-0.5-0.2-0.93-0.5-1.29-0.88s-0.64-0.85-0.84-1.41
	c-0.2-0.56-0.29-1.19-0.29-1.91c0-0.96,0.16-1.76,0.49-2.43c0.33-0.66,0.81-1.17,1.42-1.52c0.61-0.35,1.35-0.52,2.2-0.52
	c0.79,0,1.5,0.17,2.1,0.52c0.61,0.35,1.09,0.86,1.43,1.52C47.95,32.74,48.12,33.55,48.12,34.5z M41.85,34.5
	c0,0.63,0.07,1.17,0.22,1.61c0.16,0.45,0.4,0.8,0.72,1.03c0.32,0.24,0.74,0.36,1.25,0.36s0.93-0.12,1.25-0.36
	c0.32-0.23,0.56-0.58,0.71-1.03c0.15-0.44,0.23-0.98,0.23-1.61s-0.08-1.17-0.23-1.61c-0.15-0.44-0.39-0.77-0.71-1
	c-0.32-0.24-0.74-0.35-1.26-0.35c-0.76,0-1.31,0.25-1.66,0.76S41.85,33.54,41.85,34.5z"/>
<path class="st13" d="M49.48,35.32v-1.55h4.03v1.55H49.48z"/>
<path class="st13" d="M57.22,26.68v2.93c0,0.34-0.01,0.68-0.03,1c-0.02,0.33-0.03,0.58-0.05,0.76h0.08
	c0.24-0.37,0.56-0.69,0.98-0.94c0.42-0.26,0.96-0.39,1.62-0.39c1.02,0,1.85,0.37,2.47,1.13c0.63,0.75,0.94,1.86,0.94,3.33
	c0,0.98-0.14,1.81-0.43,2.47c-0.29,0.67-0.69,1.17-1.21,1.52C61.07,38.83,60.47,39,59.77,39c-0.66,0-1.19-0.12-1.6-0.36
	c-0.4-0.25-0.71-0.53-0.94-0.85H57.1l-0.34,1.05h-1.37V26.68H57.22z M59.33,31.53c-0.52,0-0.93,0.1-1.24,0.31
	c-0.3,0.21-0.52,0.52-0.66,0.94c-0.13,0.41-0.2,0.93-0.21,1.57v0.16c0,0.97,0.15,1.7,0.45,2.21c0.31,0.51,0.87,0.77,1.68,0.77
	c0.64,0,1.13-0.26,1.47-0.77c0.35-0.53,0.52-1.27,0.52-2.24c0-0.98-0.17-1.72-0.52-2.21C60.48,31.77,59.99,31.53,59.33,31.53z"/>
<path class="st13" d="M69.74,30.03c0.14,0,0.3,0.01,0.47,0.02c0.18,0.02,0.32,0.04,0.45,0.06l-0.17,1.72
	c-0.11-0.03-0.25-0.05-0.41-0.07c-0.16-0.01-0.3-0.02-0.42-0.02c-0.33,0-0.64,0.05-0.94,0.16c-0.3,0.11-0.56,0.27-0.79,0.49
	c-0.23,0.21-0.41,0.48-0.54,0.8c-0.13,0.32-0.19,0.7-0.19,1.13v4.52h-1.85v-8.65h1.44l0.25,1.53h0.09c0.17-0.31,0.38-0.59,0.64-0.85
	c0.25-0.25,0.55-0.46,0.87-0.61C68.98,30.11,69.34,30.03,69.74,30.03z"/>
<path class="st13" d="M75.65,30.03c1.1,0,1.92,0.24,2.48,0.72c0.56,0.49,0.84,1.24,0.84,2.27v5.82h-1.3l-0.35-1.23h-0.07
	c-0.24,0.32-0.49,0.57-0.76,0.78c-0.26,0.2-0.56,0.35-0.9,0.45c-0.34,0.1-0.75,0.16-1.24,0.16c-0.52,0-0.98-0.1-1.39-0.28
	c-0.4-0.2-0.72-0.49-0.96-0.88c-0.23-0.39-0.35-0.89-0.35-1.48c0-0.9,0.33-1.56,0.99-2.01c0.67-0.45,1.68-0.7,3.02-0.74l1.5-0.06
	V33.1c0-0.6-0.14-1.03-0.42-1.28c-0.28-0.26-0.67-0.39-1.17-0.39c-0.44,0-0.86,0.07-1.26,0.19c-0.41,0.13-0.8,0.28-1.19,0.46
	l-0.59-1.29c0.42-0.23,0.9-0.41,1.43-0.55C74.51,30.1,75.07,30.03,75.65,30.03z M77.15,34.71l-1.12,0.04
	c-0.91,0.03-1.56,0.18-1.93,0.47c-0.37,0.28-0.55,0.66-0.55,1.15c0,0.43,0.13,0.74,0.38,0.94c0.26,0.19,0.59,0.29,1.01,0.29
	c0.64,0,1.16-0.18,1.58-0.54c0.42-0.37,0.63-0.9,0.63-1.6V34.71z"/>
<path class="st13" d="M87.35,36.37c0,0.57-0.13,1.05-0.41,1.44c-0.28,0.39-0.68,0.69-1.21,0.89c-0.53,0.2-1.17,0.3-1.94,0.3
	c-0.6,0-1.12-0.05-1.56-0.14c-0.43-0.08-0.84-0.21-1.23-0.39v-1.58c0.41,0.19,0.88,0.36,1.39,0.5c0.51,0.14,1,0.21,1.46,0.21
	c0.6,0,1.04-0.1,1.3-0.28c0.27-0.2,0.4-0.45,0.4-0.77c0-0.19-0.06-0.35-0.16-0.5c-0.11-0.15-0.31-0.3-0.6-0.46
	c-0.28-0.16-0.71-0.35-1.26-0.58c-0.55-0.22-1.01-0.44-1.39-0.65c-0.37-0.22-0.66-0.49-0.85-0.79C81.1,33.25,81,32.86,81,32.37
	c0-0.76,0.3-1.35,0.91-1.74c0.61-0.4,1.41-0.6,2.41-0.6c0.53,0,1.03,0.05,1.5,0.16c0.48,0.11,0.94,0.26,1.39,0.46l-0.57,1.39
	c-0.39-0.18-0.79-0.32-1.18-0.43s-0.79-0.17-1.2-0.17c-0.47,0-0.84,0.07-1.09,0.22c-0.24,0.15-0.36,0.35-0.36,0.63
	c0,0.2,0.06,0.37,0.18,0.51s0.32,0.28,0.61,0.42c0.3,0.14,0.71,0.32,1.24,0.53c0.51,0.19,0.96,0.4,1.33,0.62
	c0.38,0.21,0.68,0.48,0.88,0.79C87.25,35.47,87.35,35.88,87.35,36.37z"/>
<path class="st13" d="M91.17,30.19v8.65h-1.83v-8.65H91.17z M90.27,26.88c0.28,0,0.52,0.07,0.72,0.23c0.21,0.15,0.32,0.41,0.32,0.78
	c0,0.36-0.11,0.62-0.32,0.78c-0.2,0.15-0.44,0.22-0.72,0.22c-0.29,0-0.54-0.07-0.74-0.22c-0.2-0.16-0.3-0.42-0.3-0.78
	c0-0.37,0.1-0.63,0.3-0.78C89.73,26.95,89.98,26.88,90.27,26.88z"/>
<path class="st13" d="M95.65,38.84h-1.84V26.68h1.84V38.84z"/>
<path class="st13" d="M101.72,30.03c0.77,0,1.43,0.16,1.99,0.47c0.55,0.32,0.97,0.77,1.27,1.36c0.3,0.58,0.44,1.28,0.44,2.09v0.98
	h-5.77c0.02,0.84,0.25,1.49,0.67,1.94c0.44,0.45,1.04,0.68,1.82,0.68c0.55,0,1.04-0.05,1.48-0.16c0.44-0.1,0.9-0.26,1.37-0.47v1.49
	c-0.44,0.2-0.88,0.35-1.32,0.45c-0.45,0.09-0.99,0.14-1.61,0.14c-0.85,0-1.6-0.17-2.24-0.5c-0.65-0.33-1.15-0.82-1.51-1.48
	c-0.36-0.66-0.54-1.47-0.54-2.45c0-0.96,0.16-1.79,0.49-2.46c0.33-0.68,0.79-1.2,1.38-1.55C100.24,30.2,100.93,30.03,101.72,30.03z
	 M101.72,31.41c-0.58,0-1.05,0.19-1.4,0.56c-0.36,0.38-0.57,0.93-0.63,1.65h3.94c-0.01-0.43-0.08-0.81-0.22-1.15
	c-0.14-0.33-0.34-0.59-0.63-0.78C102.51,31.5,102.15,31.41,101.72,31.41z"/>
<path class="st13" d="M109.33,30.19v8.65h-1.84v-8.65H109.33z M108.42,26.88c0.29,0,0.53,0.07,0.73,0.23
	c0.21,0.15,0.31,0.41,0.31,0.78c0,0.36-0.1,0.62-0.31,0.78c-0.2,0.15-0.44,0.22-0.73,0.22c-0.29,0-0.53-0.07-0.74-0.22
	c-0.2-0.16-0.29-0.42-0.29-0.78c0-0.37,0.09-0.63,0.29-0.78C107.89,26.95,108.13,26.88,108.42,26.88z"/>
<path class="st13" d="M116.35,30.03c0.14,0,0.3,0.01,0.47,0.02c0.17,0.02,0.32,0.04,0.45,0.06l-0.17,1.72
	c-0.11-0.03-0.25-0.05-0.41-0.07c-0.16-0.01-0.3-0.02-0.42-0.02c-0.33,0-0.64,0.05-0.94,0.16c-0.3,0.11-0.56,0.27-0.79,0.49
	c-0.23,0.21-0.41,0.48-0.54,0.8c-0.13,0.32-0.19,0.7-0.19,1.13v4.52h-1.85v-8.65h1.44l0.25,1.53h0.09c0.17-0.31,0.38-0.59,0.64-0.85
	c0.25-0.25,0.54-0.46,0.87-0.61C115.59,30.11,115.95,30.03,116.35,30.03z"/>
<path class="st13" d="M122.26,30.03c1.09,0,1.92,0.24,2.48,0.72c0.56,0.49,0.84,1.24,0.84,2.27v5.82h-1.3l-0.36-1.23h-0.06
	c-0.24,0.32-0.5,0.57-0.76,0.78c-0.26,0.2-0.56,0.35-0.9,0.45c-0.34,0.1-0.75,0.16-1.24,0.16c-0.52,0-0.98-0.1-1.39-0.28
	c-0.4-0.2-0.72-0.49-0.96-0.88c-0.23-0.39-0.35-0.89-0.35-1.48c0-0.9,0.33-1.56,0.99-2.01c0.67-0.45,1.67-0.7,3.02-0.74l1.5-0.06
	V33.1c0-0.6-0.14-1.03-0.42-1.28c-0.28-0.26-0.67-0.39-1.18-0.39c-0.43,0-0.85,0.07-1.25,0.19c-0.41,0.13-0.81,0.28-1.19,0.46
	l-0.59-1.29c0.42-0.23,0.9-0.41,1.43-0.55C121.11,30.1,121.68,30.03,122.26,30.03z M123.76,34.71l-1.12,0.04
	c-0.91,0.03-1.56,0.18-1.93,0.47c-0.37,0.28-0.55,0.66-0.55,1.15c0,0.43,0.13,0.74,0.38,0.94c0.26,0.19,0.59,0.29,1.01,0.29
	c0.64,0,1.16-0.18,1.58-0.54c0.42-0.37,0.63-0.9,0.63-1.6V34.71z"/>
<path class="st7" d="M13.87,46.84h226v20h-226V46.84z"/>
<path class="st13" d="M250.59,61.84l4.55-9.96h-5.98v-2.16h8.71v1.61l-4.59,10.51H250.59z"/>
<path class="st13" d="M263.51,54.09c1.17,0,2.11,0.33,2.8,0.98c0.7,0.66,1.04,1.57,1.04,2.71c0,1.36-0.41,2.4-1.25,3.13
	c-0.84,0.73-2.03,1.1-3.59,1.1c-1.35,0-2.44-0.22-3.27-0.66v-2.22c0.44,0.24,0.95,0.43,1.53,0.58c0.58,0.14,1.13,0.21,1.65,0.21
	c1.57,0,2.35-0.64,2.35-1.92c0-1.23-0.81-1.84-2.43-1.84c-0.29,0-0.62,0.03-0.97,0.09c-0.36,0.06-0.64,0.12-0.86,0.19l-1.03-0.55
	l0.46-6.19h6.58v2.18h-4.33l-0.22,2.38l0.29-0.06C262.59,54.13,263.01,54.09,263.51,54.09z"/>
<path class="st13" d="M23.84,89.84h-6.47V78.42h6.47V80h-4.59v3.1h4.3v1.57h-4.3v3.58h4.59V89.84z"/>
<path class="st13" d="M28.1,89.84l-3.29-8.65h1.94l1.78,5.08c0.12,0.32,0.22,0.67,0.32,1.05c0.09,0.37,0.16,0.69,0.19,0.94h0.06
	c0.04-0.26,0.11-0.58,0.22-0.95c0.1-0.38,0.21-0.72,0.32-1.04l1.78-5.08h1.93l-3.28,8.65H28.1z"/>
<path class="st13" d="M38.06,81.03c1.09,0,1.92,0.24,2.47,0.72c0.57,0.49,0.85,1.24,0.85,2.27v5.82h-1.31l-0.35-1.23h-0.06
	c-0.25,0.32-0.5,0.57-0.76,0.78c-0.26,0.2-0.56,0.35-0.91,0.45c-0.33,0.1-0.75,0.16-1.24,0.16c-0.51,0-0.97-0.1-1.38-0.28
	c-0.41-0.2-0.73-0.49-0.96-0.88c-0.24-0.39-0.35-0.89-0.35-1.48c0-0.9,0.33-1.56,0.99-2.01c0.67-0.45,1.67-0.7,3.02-0.74l1.5-0.06
	V84.1c0-0.6-0.15-1.03-0.43-1.28c-0.27-0.26-0.66-0.39-1.17-0.39c-0.43,0-0.85,0.07-1.26,0.19c-0.4,0.13-0.8,0.28-1.18,0.46
	l-0.6-1.29c0.42-0.23,0.9-0.41,1.44-0.55S37.47,81.03,38.06,81.03z M39.56,85.71l-1.12,0.04c-0.92,0.03-1.56,0.18-1.93,0.47
	c-0.37,0.28-0.55,0.66-0.55,1.15c0,0.43,0.12,0.74,0.38,0.94c0.25,0.19,0.59,0.29,1.01,0.29c0.63,0,1.16-0.18,1.57-0.54
	c0.43-0.37,0.64-0.9,0.64-1.6V85.71z"/>
<path class="st13" d="M48.46,81.03c0.97,0,1.73,0.25,2.27,0.76c0.55,0.5,0.82,1.3,0.82,2.41v5.64h-1.84v-5.3
	c0-0.67-0.13-1.17-0.41-1.5c-0.28-0.34-0.7-0.51-1.28-0.51c-0.84,0-1.42,0.26-1.75,0.77c-0.32,0.52-0.49,1.26-0.49,2.24v4.3h-1.83
	v-8.65h1.43l0.26,1.17h0.1c0.18-0.3,0.42-0.55,0.69-0.74c0.28-0.2,0.6-0.35,0.94-0.44C47.72,81.08,48.08,81.03,48.46,81.03z"/>
<path class="st13" d="M56.59,93.68c-1.17,0-2.07-0.21-2.7-0.63c-0.62-0.42-0.93-1.01-0.93-1.77c0-0.53,0.16-0.98,0.5-1.35
	c0.33-0.37,0.81-0.62,1.43-0.76c-0.24-0.11-0.44-0.27-0.61-0.49c-0.17-0.22-0.25-0.47-0.25-0.74c0-0.32,0.09-0.6,0.27-0.83
	c0.18-0.23,0.46-0.45,0.82-0.66c-0.45-0.19-0.82-0.51-1.09-0.94c-0.27-0.44-0.41-0.95-0.41-1.54c0-0.62,0.13-1.15,0.4-1.59
	c0.26-0.44,0.65-0.78,1.16-1.01c0.51-0.23,1.13-0.35,1.85-0.35c0.16,0,0.33,0.01,0.51,0.03c0.19,0.02,0.36,0.04,0.52,0.06
	c0.16,0.02,0.28,0.05,0.36,0.07h3v1.03l-1.47,0.27c0.14,0.2,0.25,0.43,0.33,0.68c0.09,0.25,0.13,0.52,0.13,0.82
	c0,0.9-0.31,1.6-0.93,2.12c-0.62,0.51-1.46,0.76-2.55,0.76c-0.26-0.01-0.51-0.03-0.76-0.06c-0.18,0.12-0.33,0.24-0.42,0.38
	c-0.1,0.14-0.15,0.29-0.15,0.46c0,0.15,0.05,0.26,0.15,0.35c0.09,0.08,0.24,0.14,0.43,0.19c0.2,0.04,0.44,0.06,0.72,0.06h1.49
	c0.95,0,1.68,0.2,2.18,0.6s0.75,0.99,0.75,1.77c0,0.98-0.41,1.74-1.22,2.27C59.28,93.42,58.11,93.68,56.59,93.68z M56.66,92.39
	c0.64,0,1.18-0.06,1.62-0.18c0.43-0.13,0.76-0.31,0.99-0.54c0.22-0.23,0.33-0.5,0.33-0.82c0-0.28-0.07-0.5-0.21-0.65
	s-0.35-0.26-0.63-0.31c-0.28-0.06-0.63-0.09-1.05-0.09h-1.36c-0.33,0-0.63,0.05-0.89,0.16s-0.47,0.26-0.61,0.47
	c-0.14,0.2-0.21,0.44-0.21,0.73c0,0.4,0.17,0.7,0.52,0.91C55.51,92.29,56.01,92.39,56.66,92.39z M57.02,85.66
	c0.53,0,0.93-0.15,1.19-0.44s0.39-0.71,0.39-1.25c0-0.58-0.13-1.02-0.4-1.31c-0.27-0.29-0.66-0.44-1.19-0.44
	c-0.52,0-0.91,0.15-1.18,0.45c-0.26,0.29-0.4,0.74-0.4,1.32c0,0.52,0.14,0.94,0.4,1.23C56.1,85.51,56.5,85.66,57.02,85.66z"/>
<path class="st13" d="M66.44,81.03c0.77,0,1.43,0.16,1.98,0.47c0.56,0.32,0.98,0.77,1.28,1.36c0.29,0.58,0.44,1.28,0.44,2.09v0.98
	h-5.77c0.02,0.84,0.24,1.49,0.67,1.94c0.43,0.45,1.04,0.68,1.81,0.68c0.56,0,1.05-0.05,1.49-0.16c0.44-0.1,0.9-0.26,1.37-0.47v1.49
	c-0.44,0.2-0.88,0.35-1.32,0.45C67.94,89.95,67.4,90,66.78,90c-0.85,0-1.6-0.17-2.25-0.5c-0.64-0.33-1.14-0.82-1.5-1.48
	c-0.36-0.66-0.54-1.47-0.54-2.45c0-0.96,0.16-1.79,0.49-2.46c0.33-0.68,0.79-1.2,1.38-1.55C64.96,81.2,65.65,81.03,66.44,81.03z
	 M66.44,82.41c-0.58,0-1.05,0.19-1.41,0.56c-0.35,0.38-0.56,0.93-0.62,1.65h3.94c-0.01-0.43-0.08-0.81-0.22-1.15
	c-0.14-0.33-0.35-0.59-0.63-0.78C67.23,82.5,66.87,82.41,66.44,82.41z M68.99,77.58v0.16c-0.12,0.15-0.29,0.33-0.5,0.55
	c-0.22,0.2-0.45,0.43-0.7,0.66s-0.5,0.45-0.74,0.66c-0.25,0.21-0.47,0.39-0.66,0.53h-1.23v-0.2c0.17-0.2,0.36-0.43,0.57-0.71
	s0.42-0.56,0.62-0.85c0.21-0.29,0.39-0.56,0.53-0.8H68.99z"/>
<path class="st13" d="M74.06,89.84h-1.85V77.68h1.85V89.84z"/>
<path class="st13" d="M78.52,81.19v8.65h-1.84v-8.65H78.52z M77.61,77.88c0.28,0,0.53,0.07,0.73,0.23c0.21,0.15,0.31,0.41,0.31,0.78
	c0,0.36-0.1,0.62-0.31,0.78c-0.2,0.15-0.45,0.22-0.73,0.22c-0.29,0-0.54-0.07-0.74-0.22c-0.2-0.16-0.3-0.42-0.3-0.78
	c0-0.37,0.1-0.63,0.3-0.78C77.07,77.95,77.32,77.88,77.61,77.88z"/>
<path class="st13" d="M84.64,90c-0.82,0-1.53-0.16-2.13-0.48c-0.6-0.32-1.06-0.8-1.38-1.46c-0.33-0.66-0.49-1.49-0.49-2.5
	c0-1.05,0.18-1.91,0.53-2.58c0.36-0.67,0.85-1.16,1.47-1.48c0.63-0.31,1.35-0.47,2.17-0.47c0.51,0,0.98,0.05,1.4,0.15
	c0.42,0.1,0.77,0.23,1.07,0.37l-0.55,1.47c-0.32-0.13-0.64-0.24-0.98-0.33c-0.33-0.09-0.65-0.13-0.96-0.13
	c-0.5,0-0.93,0.11-1.26,0.33c-0.34,0.23-0.59,0.56-0.75,1c-0.17,0.45-0.25,1-0.25,1.65c0,0.64,0.09,1.18,0.25,1.61
	c0.17,0.43,0.42,0.76,0.75,0.99c0.32,0.22,0.73,0.32,1.21,0.32c0.47,0,0.9-0.05,1.27-0.17c0.38-0.11,0.73-0.26,1.06-0.44v1.59
	c-0.32,0.19-0.68,0.33-1.05,0.42C85.64,89.95,85.18,90,84.64,90z"/>
<path class="st13" d="M92.49,81.03c1.1,0,1.92,0.24,2.48,0.72c0.56,0.49,0.85,1.24,0.85,2.27v5.82h-1.31l-0.35-1.23H94.1
	c-0.25,0.32-0.5,0.57-0.76,0.78c-0.26,0.2-0.56,0.35-0.91,0.45c-0.34,0.1-0.75,0.16-1.24,0.16c-0.52,0-0.98-0.1-1.38-0.28
	c-0.41-0.2-0.73-0.49-0.96-0.88c-0.24-0.39-0.36-0.89-0.36-1.48c0-0.9,0.34-1.56,1-2.01s1.67-0.7,3.01-0.74l1.5-0.06V84.1
	c0-0.6-0.14-1.03-0.42-1.28c-0.28-0.26-0.67-0.39-1.17-0.39c-0.43,0-0.85,0.07-1.26,0.19c-0.4,0.13-0.8,0.28-1.19,0.46l-0.59-1.29
	c0.42-0.23,0.9-0.41,1.44-0.55C91.35,81.1,91.91,81.03,92.49,81.03z M93.99,85.71l-1.11,0.04c-0.92,0.03-1.56,0.18-1.93,0.47
	c-0.37,0.28-0.56,0.66-0.56,1.15c0,0.43,0.13,0.74,0.39,0.94c0.25,0.19,0.59,0.29,1,0.29c0.64,0,1.17-0.18,1.58-0.54
	c0.42-0.37,0.63-0.9,0.63-1.6V85.71z"/>
<path class="st7" d="M13.87,97.86h176v20h-176V97.86z"/>
<path class="st13" d="M203.8,105.11c1.17,0,2.1,0.32,2.8,0.98c0.69,0.66,1.04,1.56,1.04,2.71c0,1.35-0.42,2.4-1.25,3.13
	c-0.84,0.73-2.03,1.09-3.59,1.09c-1.35,0-2.44-0.21-3.27-0.65v-2.22c0.44,0.23,0.95,0.43,1.53,0.57c0.58,0.15,1.13,0.22,1.65,0.22
	c1.57,0,2.35-0.64,2.35-1.93c0-1.22-0.81-1.83-2.43-1.83c-0.29,0-0.62,0.03-0.97,0.09c-0.36,0.06-0.64,0.12-0.87,0.18l-1.02-0.54
	l0.46-6.19h6.58v2.18h-4.33l-0.23,2.38l0.3-0.06C202.88,105.14,203.3,105.11,203.8,105.11z"/>
<path class="st13" d="M213.28,100.56c1.16,0,2.1,0.27,2.8,0.8c0.72,0.53,1.07,1.24,1.07,2.13c0,0.62-0.17,1.18-0.51,1.66
	c-0.34,0.49-0.9,0.92-1.66,1.3c0.91,0.49,1.56,1,1.95,1.53c0.4,0.52,0.6,1.1,0.6,1.73c0,1-0.39,1.8-1.17,2.41
	c-0.78,0.6-1.81,0.9-3.08,0.9c-1.33,0-2.37-0.28-3.13-0.84c-0.76-0.57-1.14-1.37-1.14-2.4c0-0.69,0.18-1.31,0.55-1.84
	c0.37-0.54,0.96-1.01,1.78-1.42c-0.7-0.44-1.19-0.91-1.5-1.41c-0.3-0.49-0.45-1.04-0.45-1.63c0-0.87,0.35-1.57,1.07-2.11
	C211.18,100.83,212.12,100.56,213.28,100.56z M211.39,109.63c0,0.47,0.16,0.85,0.49,1.11c0.34,0.27,0.79,0.4,1.37,0.4
	c0.63,0,1.11-0.14,1.42-0.41c0.32-0.27,0.48-0.64,0.48-1.08c0-0.38-0.16-0.72-0.48-1.04c-0.31-0.33-0.81-0.67-1.52-1.04
	C211.97,108.11,211.39,108.8,211.39,109.63z M213.26,102.44c-0.44,0-0.79,0.11-1.06,0.34c-0.27,0.22-0.4,0.52-0.4,0.9
	c0,0.33,0.11,0.63,0.32,0.89s0.6,0.53,1.16,0.81c0.54-0.26,0.92-0.52,1.14-0.78c0.21-0.27,0.32-0.57,0.32-0.92
	c0-0.38-0.14-0.69-0.42-0.91C214.05,102.55,213.69,102.44,213.26,102.44z"/>
<path class="st13" d="M23.84,140.86h-6.47v-11.42h6.47v1.57h-4.59v3.11h4.3v1.57h-4.3v3.58h4.59V140.86z"/>
<path class="st13" d="M31.93,138.39c0,0.57-0.14,1.05-0.41,1.44c-0.28,0.39-0.68,0.68-1.21,0.89c-0.53,0.2-1.17,0.29-1.94,0.29
	c-0.6,0-1.12-0.04-1.56-0.13c-0.43-0.08-0.84-0.21-1.23-0.39v-1.59c0.41,0.2,0.87,0.36,1.38,0.5c0.52,0.15,1.01,0.22,1.46,0.22
	c0.61,0,1.04-0.1,1.31-0.29c0.26-0.19,0.4-0.44,0.4-0.76c0-0.19-0.06-0.36-0.17-0.5c-0.1-0.15-0.3-0.31-0.59-0.46
	c-0.29-0.16-0.71-0.36-1.27-0.58c-0.54-0.22-1-0.44-1.38-0.66c-0.37-0.22-0.66-0.48-0.85-0.79c-0.19-0.31-0.29-0.71-0.29-1.19
	c0-0.77,0.3-1.35,0.91-1.74c0.61-0.4,1.41-0.6,2.41-0.6c0.53,0,1.03,0.05,1.5,0.16c0.48,0.1,0.94,0.26,1.39,0.46l-0.58,1.38
	c-0.39-0.17-0.78-0.31-1.18-0.42c-0.39-0.11-0.78-0.17-1.19-0.17c-0.48,0-0.84,0.07-1.09,0.22c-0.24,0.14-0.36,0.35-0.36,0.62
	c0,0.21,0.06,0.38,0.18,0.52s0.32,0.28,0.61,0.42c0.3,0.14,0.71,0.32,1.24,0.52c0.51,0.2,0.96,0.41,1.33,0.63
	c0.38,0.21,0.67,0.48,0.88,0.79C31.83,137.49,31.93,137.89,31.93,138.39z"/>
<path class="st13" d="M38.35,132.05c1.03,0,1.85,0.37,2.47,1.12c0.63,0.75,0.94,1.87,0.94,3.34c0,0.98-0.15,1.81-0.44,2.48
	c-0.28,0.67-0.69,1.17-1.21,1.52c-0.51,0.34-1.12,0.5-1.8,0.5c-0.44,0-0.82-0.05-1.14-0.17c-0.33-0.11-0.6-0.26-0.83-0.44
	c-0.23-0.19-0.42-0.39-0.58-0.61h-0.11c0.03,0.21,0.05,0.44,0.07,0.69c0.03,0.25,0.04,0.48,0.04,0.69v3.52h-1.84v-12.48h1.5
	l0.25,1.19h0.09c0.16-0.24,0.36-0.47,0.59-0.67c0.23-0.21,0.51-0.38,0.84-0.5C37.52,132.11,37.91,132.05,38.35,132.05z
	 M37.86,133.55c-0.5,0-0.91,0.1-1.22,0.3c-0.3,0.2-0.52,0.5-0.66,0.9s-0.21,0.9-0.22,1.51v0.25c0,0.64,0.07,1.19,0.2,1.64
	c0.13,0.44,0.35,0.78,0.66,1.01c0.31,0.23,0.73,0.35,1.27,0.35c0.44,0,0.81-0.13,1.1-0.37c0.3-0.25,0.52-0.59,0.67-1.05
	c0.14-0.45,0.22-0.98,0.22-1.6c0-0.93-0.17-1.66-0.5-2.17C39.05,133.8,38.54,133.55,37.86,133.55z"/>
<path class="st13" d="M45.72,140.86h-1.83v-8.65h1.83V140.86z M47.47,128.6v0.16c-0.12,0.15-0.29,0.33-0.51,0.54
	c-0.21,0.21-0.44,0.43-0.69,0.67c-0.25,0.23-0.5,0.45-0.74,0.66c-0.25,0.21-0.47,0.39-0.67,0.53h-1.22v-0.2
	c0.17-0.2,0.36-0.44,0.57-0.71c0.21-0.28,0.42-0.56,0.62-0.85c0.21-0.29,0.38-0.56,0.52-0.8H47.47z"/>
<path class="st13" d="M52.74,132.05c0.14,0,0.3,0,0.47,0.02c0.18,0.01,0.32,0.04,0.45,0.06l-0.17,1.72
	c-0.11-0.03-0.25-0.05-0.41-0.07c-0.16-0.02-0.3-0.02-0.42-0.02c-0.33,0-0.64,0.05-0.94,0.16c-0.3,0.1-0.56,0.27-0.79,0.48
	c-0.23,0.22-0.41,0.49-0.54,0.81s-0.19,0.7-0.19,1.12v4.53h-1.85v-8.65h1.44l0.25,1.52h0.09c0.17-0.3,0.38-0.59,0.64-0.84
	c0.25-0.26,0.55-0.46,0.87-0.61C51.98,132.12,52.34,132.05,52.74,132.05z"/>
<path class="st13" d="M57.1,132.21v8.65h-1.84v-8.65H57.1z M56.19,128.9c0.28,0,0.52,0.07,0.73,0.22c0.21,0.15,0.31,0.42,0.31,0.78
	c0,0.37-0.1,0.63-0.31,0.79c-0.21,0.15-0.45,0.22-0.73,0.22c-0.29,0-0.54-0.07-0.74-0.22c-0.2-0.16-0.3-0.42-0.3-0.79
	c0-0.36,0.1-0.63,0.3-0.78C55.65,128.97,55.9,128.9,56.19,128.9z"/>
<path class="st13" d="M62.95,139.53c0.24,0,0.47-0.02,0.71-0.06c0.23-0.05,0.45-0.1,0.64-0.17v1.39c-0.2,0.09-0.47,0.17-0.79,0.23
	c-0.32,0.06-0.66,0.09-1.01,0.09c-0.49,0-0.93-0.08-1.32-0.24c-0.39-0.16-0.7-0.45-0.93-0.85c-0.23-0.4-0.34-0.96-0.34-1.66v-4.65
	h-1.18v-0.82l1.26-0.65l0.61-1.85h1.15v1.92h2.48v1.4h-2.48v4.62c0,0.44,0.11,0.77,0.33,0.98C62.3,139.42,62.59,139.53,62.95,139.53
	z"/>
<path class="st13" d="M69.45,132.05c1.09,0,1.92,0.24,2.47,0.72c0.57,0.49,0.85,1.24,0.85,2.27v5.82h-1.31l-0.35-1.23h-0.06
	c-0.25,0.31-0.5,0.57-0.76,0.77c-0.26,0.21-0.56,0.36-0.9,0.46s-0.76,0.15-1.25,0.15c-0.51,0-0.97-0.09-1.38-0.28
	c-0.41-0.19-0.73-0.48-0.96-0.87c-0.23-0.39-0.35-0.89-0.35-1.49c0-0.89,0.33-1.56,0.99-2c0.67-0.45,1.67-0.7,3.02-0.75l1.5-0.05
	v-0.45c0-0.6-0.14-1.03-0.43-1.29c-0.27-0.25-0.66-0.38-1.17-0.38c-0.43,0-0.85,0.06-1.26,0.19c-0.4,0.12-0.8,0.28-1.18,0.46
	l-0.6-1.3c0.43-0.22,0.9-0.4,1.44-0.54S68.86,132.05,69.45,132.05z M70.95,136.73l-1.12,0.03c-0.92,0.04-1.56,0.19-1.93,0.47
	s-0.55,0.67-0.55,1.16c0,0.43,0.12,0.74,0.38,0.94c0.25,0.19,0.59,0.29,1.01,0.29c0.63,0,1.16-0.18,1.58-0.54
	c0.42-0.37,0.63-0.9,0.63-1.6V136.73z"/>
<path class="st7" d="M13.87,148.89h86v20h-86V148.89z"/>
<path class="st13" d="M117.87,163.89h-8.49v-1.78l3.05-3.08c0.9-0.92,1.49-1.56,1.77-1.92c0.27-0.36,0.47-0.69,0.59-0.99
	c0.13-0.31,0.19-0.62,0.19-0.95c0-0.49-0.14-0.85-0.41-1.09c-0.26-0.24-0.62-0.35-1.07-0.35c-0.47,0-0.93,0.1-1.37,0.32
	c-0.44,0.22-0.9,0.52-1.39,0.92l-1.39-1.65c0.6-0.51,1.09-0.87,1.49-1.08c0.39-0.21,0.82-0.37,1.28-0.48
	c0.47-0.12,0.99-0.18,1.56-0.18c0.76,0,1.43,0.14,2.01,0.42c0.58,0.28,1.03,0.66,1.35,1.16c0.33,0.5,0.49,1.07,0.49,1.71
	c0,0.56-0.1,1.09-0.3,1.58c-0.2,0.49-0.5,0.99-0.92,1.5c-0.41,0.52-1.13,1.25-2.17,2.2l-1.56,1.47v0.12h5.29V163.89z"/>
<path class="st13" d="M120.3,163.89l4.56-9.96h-5.99v-2.15h8.71v1.61l-4.59,10.5H120.3z"/>
<path class="st13" d="M22.24,181.9c-0.55,0-1.04,0.1-1.47,0.3c-0.43,0.2-0.79,0.48-1.09,0.86c-0.29,0.37-0.52,0.82-0.68,1.35
	c-0.15,0.53-0.23,1.12-0.23,1.78c0,0.89,0.12,1.65,0.37,2.29s0.63,1.13,1.14,1.47s1.16,0.51,1.94,0.51c0.49,0,0.96-0.05,1.42-0.14
	c0.45-0.1,0.93-0.23,1.42-0.39v1.6c-0.47,0.18-0.93,0.31-1.41,0.4c-0.47,0.08-1.02,0.12-1.64,0.12c-1.17,0-2.13-0.24-2.91-0.73
	c-0.76-0.48-1.33-1.16-1.71-2.04c-0.38-0.88-0.57-1.91-0.57-3.1c0-0.86,0.12-1.65,0.36-2.37c0.24-0.72,0.59-1.34,1.05-1.86
	c0.46-0.53,1.02-0.93,1.69-1.21c0.68-0.29,1.46-0.43,2.33-0.43c0.57,0,1.13,0.06,1.68,0.19c0.56,0.13,1.08,0.31,1.55,0.54
	l-0.66,1.55c-0.39-0.19-0.81-0.35-1.24-0.48C23.15,181.97,22.7,181.9,22.24,181.9z"/>
<path class="st13" d="M30.71,183.08c1.1,0,1.92,0.24,2.48,0.73c0.56,0.48,0.84,1.24,0.84,2.26v5.82h-1.3l-0.35-1.22h-0.06
	c-0.25,0.31-0.5,0.57-0.76,0.77c-0.26,0.2-0.57,0.36-0.91,0.45c-0.34,0.11-0.75,0.16-1.24,0.16c-0.52,0-0.98-0.09-1.38-0.28
	c-0.41-0.19-0.73-0.49-0.96-0.88c-0.24-0.39-0.36-0.88-0.36-1.48c0-0.89,0.33-1.56,1-2.01c0.66-0.45,1.67-0.69,3.01-0.74l1.5-0.05
	v-0.46c0-0.6-0.14-1.02-0.42-1.28c-0.28-0.25-0.67-0.38-1.17-0.38c-0.43,0-0.85,0.06-1.26,0.19c-0.41,0.12-0.8,0.27-1.19,0.46
	l-0.59-1.3c0.42-0.22,0.9-0.41,1.44-0.55C29.57,183.15,30.13,183.08,30.71,183.08z M32.21,187.76l-1.11,0.04
	c-0.92,0.03-1.56,0.19-1.93,0.47c-0.37,0.28-0.56,0.67-0.56,1.16c0,0.42,0.13,0.74,0.38,0.93c0.26,0.2,0.6,0.29,1.01,0.29
	c0.64,0,1.16-0.18,1.58-0.54c0.42-0.36,0.63-0.9,0.63-1.6V187.76z"/>
<path class="st13" d="M39.82,190.57c0.24,0,0.48-0.02,0.71-0.07c0.24-0.04,0.45-0.1,0.64-0.16v1.39c-0.2,0.09-0.46,0.16-0.78,0.23
	c-0.33,0.06-0.66,0.09-1.01,0.09c-0.49,0-0.93-0.08-1.32-0.24c-0.39-0.17-0.7-0.45-0.93-0.85s-0.35-0.96-0.35-1.67v-4.65H35.6v-0.82
	l1.27-0.64l0.6-1.86h1.16v1.93h2.47v1.39h-2.47v4.63c0,0.44,0.11,0.76,0.33,0.98C39.17,190.46,39.46,190.57,39.82,190.57z"/>
<path class="st13" d="M50.59,187.55c0,0.72-0.1,1.36-0.28,1.91c-0.19,0.56-0.46,1.03-0.82,1.42c-0.36,0.38-0.79,0.67-1.3,0.87
	c-0.5,0.2-1.08,0.3-1.71,0.3c-0.59,0-1.14-0.1-1.63-0.3c-0.5-0.2-0.93-0.49-1.29-0.87c-0.36-0.39-0.64-0.86-0.84-1.42
	c-0.2-0.55-0.3-1.19-0.3-1.91c0-0.95,0.17-1.76,0.5-2.42c0.33-0.67,0.8-1.18,1.42-1.52c0.61-0.35,1.35-0.53,2.19-0.53
	c0.8,0,1.5,0.18,2.11,0.53c0.61,0.34,1.09,0.85,1.43,1.52C50.42,185.8,50.59,186.6,50.59,187.55z M44.32,187.55
	c0,0.63,0.07,1.17,0.22,1.62c0.16,0.45,0.4,0.79,0.72,1.03c0.32,0.23,0.74,0.35,1.25,0.35s0.93-0.12,1.25-0.35
	c0.32-0.24,0.56-0.58,0.71-1.03c0.15-0.45,0.23-0.99,0.23-1.62s-0.08-1.16-0.23-1.6c-0.15-0.44-0.39-0.78-0.71-1.01
	c-0.32-0.23-0.74-0.35-1.26-0.35c-0.76,0-1.31,0.25-1.66,0.77C44.49,185.87,44.32,186.6,44.32,187.55z M49.18,179.64v0.15
	c-0.12,0.15-0.29,0.34-0.51,0.55c-0.21,0.21-0.44,0.43-0.69,0.66s-0.5,0.45-0.74,0.67c-0.25,0.21-0.47,0.38-0.67,0.53h-1.22V182
	c0.17-0.2,0.36-0.44,0.57-0.72c0.21-0.27,0.42-0.56,0.62-0.85c0.21-0.29,0.38-0.55,0.53-0.79H49.18z"/>
<path class="st13" d="M54.54,191.89H52.7v-12.15h1.84V191.89z"/>
<path class="st13" d="M59,183.25v8.64h-1.83v-8.64H59z M58.1,179.93c0.28,0,0.52,0.08,0.72,0.23c0.21,0.15,0.32,0.41,0.32,0.78
	s-0.11,0.63-0.32,0.78c-0.2,0.15-0.44,0.23-0.72,0.23c-0.3,0-0.54-0.08-0.75-0.23c-0.19-0.15-0.29-0.41-0.29-0.78
	s0.1-0.63,0.29-0.78C57.56,180.01,57.8,179.93,58.1,179.93z"/>
<path class="st13" d="M65.12,192.05c-0.82,0-1.53-0.16-2.13-0.48c-0.59-0.31-1.05-0.8-1.38-1.46c-0.32-0.65-0.48-1.49-0.48-2.5
	c0-1.05,0.17-1.91,0.53-2.58c0.35-0.66,0.84-1.15,1.47-1.47c0.63-0.32,1.35-0.48,2.16-0.48c0.52,0,0.98,0.05,1.4,0.16
	c0.42,0.1,0.78,0.22,1.07,0.37l-0.55,1.46c-0.31-0.13-0.64-0.24-0.97-0.32c-0.34-0.09-0.66-0.14-0.96-0.14
	c-0.51,0-0.93,0.11-1.27,0.34c-0.33,0.22-0.58,0.56-0.75,1c-0.16,0.44-0.24,0.99-0.24,1.65c0,0.63,0.08,1.17,0.25,1.61
	c0.17,0.43,0.41,0.76,0.74,0.98c0.33,0.22,0.73,0.33,1.21,0.33s0.9-0.06,1.27-0.17c0.38-0.12,0.73-0.27,1.07-0.45v1.6
	c-0.33,0.18-0.68,0.32-1.06,0.41C66.13,192,65.67,192.05,65.12,192.05z"/>
<path class="st13" d="M72.98,183.08c1.09,0,1.92,0.24,2.48,0.73c0.56,0.48,0.84,1.24,0.84,2.26v5.82h-1.31l-0.35-1.22h-0.06
	c-0.24,0.31-0.5,0.57-0.76,0.77c-0.26,0.2-0.56,0.36-0.9,0.45c-0.34,0.11-0.76,0.16-1.25,0.16c-0.51,0-0.97-0.09-1.38-0.28
	c-0.4-0.19-0.72-0.49-0.96-0.88c-0.23-0.39-0.35-0.88-0.35-1.48c0-0.89,0.33-1.56,0.99-2.01c0.67-0.45,1.67-0.69,3.02-0.74l1.5-0.05
	v-0.46c0-0.6-0.14-1.02-0.42-1.28c-0.28-0.25-0.67-0.38-1.18-0.38c-0.43,0-0.85,0.06-1.25,0.19c-0.41,0.12-0.81,0.27-1.19,0.46
	l-0.6-1.3c0.43-0.22,0.91-0.41,1.44-0.55C71.83,183.15,72.4,183.08,72.98,183.08z M74.48,187.76l-1.12,0.04
	c-0.91,0.03-1.56,0.19-1.93,0.47c-0.37,0.28-0.55,0.67-0.55,1.16c0,0.42,0.13,0.74,0.38,0.93c0.26,0.2,0.59,0.29,1.01,0.29
	c0.63,0,1.16-0.18,1.58-0.54c0.42-0.36,0.63-0.9,0.63-1.6V187.76z"/>
<path class="st7" d="M13.87,199.95h68v20h-68V199.95z"/>
<path class="st13" d="M98.87,214.95h-8.49v-1.79l3.05-3.08c0.9-0.92,1.49-1.56,1.77-1.91c0.27-0.36,0.47-0.7,0.59-1
	c0.13-0.3,0.19-0.62,0.19-0.95c0-0.48-0.14-0.85-0.41-1.08c-0.26-0.24-0.62-0.36-1.07-0.36c-0.47,0-0.93,0.11-1.37,0.32
	c-0.44,0.22-0.9,0.53-1.39,0.93l-1.39-1.66c0.6-0.51,1.09-0.87,1.49-1.08c0.39-0.21,0.82-0.37,1.28-0.48
	c0.47-0.11,0.99-0.17,1.56-0.17c0.76,0,1.43,0.14,2.01,0.41c0.58,0.28,1.03,0.67,1.35,1.17c0.33,0.49,0.49,1.06,0.49,1.71
	c0,0.55-0.1,1.08-0.3,1.57c-0.2,0.49-0.5,0.99-0.92,1.51c-0.41,0.51-1.13,1.24-2.17,2.19l-1.56,1.47v0.12h5.29V214.95z"/>
<path class="st13" d="M108.58,214.95h-8.49v-1.79l3.05-3.08c0.9-0.92,1.49-1.56,1.77-1.91c0.28-0.36,0.47-0.7,0.6-1
	c0.12-0.3,0.18-0.62,0.18-0.95c0-0.48-0.14-0.85-0.41-1.08c-0.26-0.24-0.62-0.36-1.07-0.36c-0.47,0-0.93,0.11-1.37,0.32
	c-0.44,0.22-0.9,0.53-1.38,0.93l-1.4-1.66c0.6-0.51,1.09-0.87,1.49-1.08c0.39-0.21,0.82-0.37,1.28-0.48
	c0.47-0.11,0.99-0.17,1.56-0.17c0.76,0,1.43,0.14,2.01,0.41c0.58,0.28,1.04,0.67,1.36,1.17c0.32,0.49,0.48,1.06,0.48,1.71
	c0,0.55-0.1,1.08-0.3,1.57c-0.19,0.49-0.5,0.99-0.91,1.51c-0.41,0.51-1.14,1.24-2.18,2.19l-1.56,1.47v0.12h5.29V214.95z"/>
<path class="st13" d="M24.45,242.95l-1.12-3.17h-4.37l-1.11,3.17h-1.98l4.25-11.47h2.08l4.24,11.47H24.45z M22.85,238.17l-1.09-3.13
	c-0.04-0.13-0.1-0.32-0.18-0.57c-0.08-0.25-0.16-0.5-0.23-0.76c-0.08-0.26-0.15-0.48-0.2-0.65c-0.05,0.21-0.12,0.45-0.19,0.72
	c-0.08,0.26-0.15,0.5-0.22,0.73s-0.12,0.41-0.16,0.53l-1.09,3.13H22.85z"/>
<path class="st13" d="M30.98,241.62c0.24,0,0.48-0.02,0.71-0.06c0.23-0.05,0.45-0.1,0.64-0.17v1.39c-0.2,0.09-0.47,0.17-0.79,0.23
	c-0.32,0.06-0.66,0.09-1.01,0.09c-0.49,0-0.93-0.08-1.32-0.24s-0.7-0.45-0.93-0.85c-0.23-0.4-0.34-0.95-0.34-1.66v-4.65h-1.18v-0.82
	l1.27-0.65l0.6-1.85h1.15v1.92h2.48v1.4h-2.48v4.62c0,0.44,0.11,0.77,0.33,0.98S30.62,241.62,30.98,241.62z"/>
<path class="st13" d="M37.53,234.14c0.77,0,1.44,0.15,1.99,0.47c0.55,0.32,0.97,0.77,1.27,1.35c0.3,0.59,0.45,1.29,0.45,2.1v0.98
	h-5.78c0.02,0.84,0.25,1.49,0.68,1.94c0.43,0.45,1.03,0.68,1.81,0.68c0.55,0,1.04-0.05,1.48-0.16c0.45-0.11,0.9-0.27,1.37-0.47v1.49
	c-0.43,0.2-0.87,0.35-1.32,0.44c-0.45,0.1-0.99,0.14-1.61,0.14c-0.85,0-1.6-0.16-2.24-0.49s-1.15-0.83-1.51-1.48
	c-0.36-0.66-0.54-1.47-0.54-2.45c0-0.97,0.17-1.79,0.49-2.47c0.33-0.67,0.79-1.19,1.39-1.54C36.05,234.31,36.74,234.14,37.53,234.14
	z M37.53,235.52c-0.57,0-1.04,0.19-1.4,0.56c-0.36,0.38-0.56,0.93-0.63,1.65h3.94c0-0.43-0.08-0.82-0.22-1.15
	c-0.13-0.33-0.34-0.59-0.62-0.78S37.97,235.52,37.53,235.52z"/>
<path class="st13" d="M50.85,234.3v8.65H49.4l-0.25-1.17h-0.1c-0.18,0.3-0.41,0.55-0.7,0.75c-0.28,0.19-0.59,0.33-0.93,0.43
	c-0.35,0.1-0.71,0.14-1.09,0.14c-0.65,0-1.21-0.1-1.67-0.32c-0.46-0.23-0.81-0.57-1.06-1.03c-0.24-0.47-0.36-1.07-0.36-1.8v-5.65
	h1.84v5.3c0,0.68,0.14,1.18,0.41,1.51c0.27,0.34,0.7,0.5,1.28,0.5c0.56,0,1-0.11,1.33-0.34c0.32-0.23,0.56-0.57,0.69-1.02
	c0.14-0.44,0.21-0.99,0.21-1.65v-4.3H50.85z"/>
<path class="st13" d="M59.29,240.48c0,0.57-0.14,1.05-0.41,1.44c-0.28,0.39-0.68,0.68-1.21,0.89c-0.53,0.2-1.18,0.29-1.94,0.29
	c-0.6,0-1.13-0.04-1.56-0.13c-0.44-0.08-0.84-0.21-1.23-0.39V241c0.41,0.19,0.87,0.35,1.38,0.5c0.52,0.14,1.01,0.21,1.46,0.21
	c0.61,0,1.04-0.1,1.31-0.29c0.26-0.19,0.4-0.44,0.4-0.76c0-0.19-0.06-0.35-0.17-0.5c-0.1-0.15-0.3-0.31-0.59-0.46
	c-0.29-0.16-0.71-0.36-1.27-0.58c-0.54-0.22-1-0.44-1.38-0.66c-0.37-0.21-0.66-0.48-0.85-0.79c-0.19-0.31-0.29-0.71-0.29-1.19
	c0-0.77,0.3-1.35,0.91-1.74c0.61-0.4,1.41-0.6,2.41-0.6c0.53,0,1.03,0.05,1.5,0.16c0.47,0.1,0.94,0.26,1.39,0.46l-0.58,1.38
	c-0.39-0.17-0.78-0.31-1.18-0.42c-0.39-0.11-0.79-0.17-1.19-0.17c-0.48,0-0.84,0.07-1.09,0.22c-0.24,0.14-0.36,0.35-0.36,0.62
	c0,0.21,0.05,0.38,0.17,0.52c0.12,0.14,0.33,0.28,0.62,0.42c0.3,0.14,0.71,0.32,1.24,0.52c0.51,0.2,0.96,0.41,1.33,0.63
	c0.38,0.21,0.67,0.48,0.88,0.79C59.19,239.58,59.29,239.98,59.29,240.48z"/>
<path class="st7" d="M13.87,251.02h28v20h-28V251.02z"/>
<path class="st13" d="M54.57,254.73c1.16,0,2.09,0.26,2.8,0.79c0.72,0.53,1.07,1.24,1.07,2.14c0,0.62-0.17,1.17-0.51,1.66
	c-0.34,0.48-0.9,0.91-1.66,1.29c0.91,0.49,1.56,1,1.95,1.53c0.4,0.53,0.6,1.1,0.6,1.73c0,1-0.39,1.8-1.17,2.41
	c-0.78,0.61-1.81,0.91-3.08,0.91c-1.33,0-2.37-0.29-3.13-0.85c-0.76-0.56-1.14-1.36-1.14-2.4c0-0.69,0.18-1.3,0.55-1.84
	s0.96-1.01,1.77-1.42c-0.69-0.44-1.19-0.91-1.49-1.4c-0.3-0.5-0.46-1.05-0.46-1.64c0-0.87,0.36-1.57,1.08-2.11
	C52.47,255,53.41,254.73,54.57,254.73z M52.67,263.79c0,0.48,0.17,0.85,0.5,1.11c0.33,0.27,0.79,0.4,1.36,0.4
	c0.64,0,1.12-0.13,1.43-0.4c0.32-0.28,0.47-0.64,0.47-1.09c0-0.37-0.15-0.72-0.47-1.04c-0.31-0.33-0.82-0.67-1.52-1.04
	C53.26,262.28,52.67,262.96,52.67,263.79z M54.55,256.6c-0.44,0-0.79,0.12-1.06,0.34c-0.27,0.22-0.4,0.52-0.4,0.9
	c0,0.33,0.1,0.63,0.31,0.9c0.22,0.26,0.61,0.52,1.17,0.8c0.54-0.25,0.92-0.51,1.13-0.78c0.22-0.26,0.33-0.57,0.33-0.92
	c0-0.38-0.14-0.68-0.42-0.9C55.34,256.71,54.98,256.6,54.55,256.6z"/>
<path class="st13" d="M15.95,297.2c-0.29,0-0.54-0.02-0.75-0.05c-0.22-0.04-0.41-0.08-0.56-0.14v-1.57
	c0.16,0.04,0.34,0.08,0.53,0.11c0.2,0.03,0.4,0.05,0.62,0.05c0.29,0,0.55-0.06,0.78-0.17c0.24-0.1,0.42-0.3,0.56-0.59
	s0.21-0.69,0.21-1.21V282.6h1.87v10.97c0,0.85-0.13,1.54-0.4,2.07c-0.27,0.53-0.65,0.93-1.14,1.18S16.6,297.2,15.95,297.2z"/>
<path class="st13" d="M29.52,285.37v8.65h-1.45l-0.25-1.16h-0.1c-0.18,0.29-0.41,0.54-0.69,0.74c-0.28,0.19-0.6,0.33-0.94,0.43
	c-0.34,0.1-0.71,0.15-1.09,0.15c-0.65,0-1.21-0.11-1.67-0.33c-0.46-0.23-0.81-0.57-1.05-1.03c-0.25-0.47-0.37-1.06-0.37-1.8v-5.65
	h1.84v5.31c0,0.67,0.14,1.17,0.41,1.5c0.28,0.34,0.7,0.5,1.28,0.5c0.56,0,1-0.11,1.33-0.34c0.33-0.23,0.56-0.57,0.69-1.01
	c0.14-0.45,0.21-1,0.21-1.65v-4.31H29.52z"/>
<path class="st13" d="M35.06,294.18c-1.03,0-1.86-0.38-2.49-1.13c-0.62-0.75-0.93-1.87-0.93-3.33c0-1.49,0.32-2.61,0.95-3.37
	s1.47-1.14,2.51-1.14c0.43,0,0.82,0.06,1.15,0.18c0.32,0.11,0.6,0.27,0.84,0.47c0.24,0.19,0.44,0.42,0.61,0.66h0.08
	c-0.02-0.16-0.05-0.39-0.09-0.69c-0.03-0.31-0.05-0.6-0.05-0.86v-3.11h1.85v12.16h-1.44l-0.33-1.18h-0.08
	c-0.15,0.25-0.35,0.48-0.59,0.68c-0.23,0.2-0.52,0.36-0.84,0.48C35.88,294.12,35.5,294.18,35.06,294.18z M35.57,292.68
	c0.79,0,1.34-0.22,1.67-0.67c0.32-0.46,0.49-1.14,0.5-2.04v-0.25c0-0.96-0.16-1.71-0.47-2.22c-0.31-0.52-0.88-0.78-1.71-0.78
	c-0.66,0-1.17,0.26-1.52,0.8c-0.34,0.53-0.51,1.27-0.51,2.23c0,0.95,0.17,1.68,0.51,2.18C34.39,292.43,34.9,292.68,35.57,292.68z"/>
<path class="st13" d="M45.51,285.21c1.09,0,1.92,0.24,2.48,0.72c0.56,0.49,0.84,1.24,0.84,2.27v5.82h-1.3l-0.36-1.23h-0.06
	c-0.24,0.32-0.5,0.57-0.76,0.78c-0.26,0.2-0.56,0.35-0.9,0.45c-0.34,0.1-0.75,0.16-1.24,0.16c-0.52,0-0.98-0.1-1.39-0.28
	c-0.4-0.2-0.72-0.49-0.96-0.88c-0.23-0.39-0.35-0.88-0.35-1.48c0-0.89,0.33-1.56,0.99-2.01c0.67-0.45,1.67-0.7,3.02-0.74l1.5-0.06
	v-0.45c0-0.6-0.14-1.03-0.42-1.28c-0.28-0.26-0.67-0.39-1.18-0.39c-0.43,0-0.85,0.07-1.25,0.19c-0.41,0.13-0.81,0.28-1.19,0.46
	l-0.59-1.29c0.42-0.23,0.9-0.41,1.43-0.55C44.36,285.28,44.93,285.21,45.51,285.21z M47.01,289.89l-1.12,0.04
	c-0.91,0.03-1.56,0.18-1.93,0.47c-0.37,0.28-0.55,0.66-0.55,1.15c0,0.43,0.13,0.74,0.38,0.94c0.26,0.19,0.59,0.29,1.01,0.29
	c0.64,0,1.16-0.18,1.58-0.54c0.42-0.37,0.63-0.9,0.63-1.6V289.89z"/>
<path class="st13" d="M53.24,285.37v8.65H51.4v-8.65H53.24z M52.33,282.06c0.28,0,0.52,0.08,0.73,0.23
	c0.21,0.15,0.31,0.41,0.31,0.78c0,0.36-0.1,0.62-0.31,0.78c-0.21,0.15-0.45,0.23-0.73,0.23c-0.29,0-0.54-0.08-0.74-0.23
	c-0.2-0.16-0.3-0.42-0.3-0.78c0-0.37,0.1-0.63,0.3-0.78C51.79,282.14,52.04,282.06,52.33,282.06z"/>
<path class="st13" d="M59.35,294.18c-0.81,0-1.52-0.16-2.12-0.48c-0.6-0.32-1.06-0.8-1.38-1.46c-0.33-0.66-0.49-1.49-0.49-2.5
	c0-1.05,0.18-1.91,0.53-2.58c0.36-0.67,0.85-1.16,1.47-1.48c0.63-0.31,1.35-0.47,2.17-0.47c0.51,0,0.98,0.05,1.39,0.15
	c0.43,0.1,0.78,0.23,1.07,0.37l-0.54,1.47c-0.32-0.13-0.65-0.24-0.98-0.33c-0.33-0.09-0.65-0.13-0.96-0.13
	c-0.5,0-0.93,0.11-1.26,0.34c-0.34,0.22-0.59,0.55-0.76,1c-0.16,0.44-0.24,0.99-0.24,1.64c0,0.64,0.09,1.18,0.25,1.61
	c0.17,0.44,0.42,0.76,0.75,0.99c0.32,0.22,0.73,0.33,1.21,0.33c0.47,0,0.89-0.06,1.27-0.18c0.37-0.11,0.73-0.26,1.06-0.44v1.59
	c-0.33,0.19-0.68,0.33-1.05,0.42C60.36,294.13,59.9,294.18,59.35,294.18z"/>
<path class="st13" d="M67.21,285.21c1.1,0,1.92,0.24,2.48,0.72c0.56,0.49,0.84,1.24,0.84,2.27v5.82h-1.3l-0.35-1.23h-0.06
	c-0.25,0.32-0.5,0.57-0.76,0.78c-0.26,0.2-0.57,0.35-0.91,0.45c-0.34,0.1-0.75,0.16-1.24,0.16c-0.52,0-0.98-0.1-1.38-0.28
	c-0.41-0.2-0.73-0.49-0.96-0.88c-0.24-0.39-0.36-0.88-0.36-1.48c0-0.89,0.33-1.56,1-2.01c0.66-0.45,1.67-0.7,3.01-0.74l1.5-0.06
	v-0.45c0-0.6-0.14-1.03-0.42-1.28c-0.28-0.26-0.67-0.39-1.17-0.39c-0.43,0-0.85,0.07-1.26,0.19c-0.41,0.13-0.8,0.28-1.19,0.46
	l-0.59-1.29c0.42-0.23,0.9-0.41,1.44-0.55C66.07,285.28,66.63,285.21,67.21,285.21z M68.71,289.89l-1.11,0.04
	c-0.92,0.03-1.56,0.18-1.93,0.47c-0.37,0.28-0.56,0.66-0.56,1.15c0,0.43,0.13,0.74,0.38,0.94c0.26,0.19,0.6,0.29,1.01,0.29
	c0.64,0,1.16-0.18,1.58-0.54c0.42-0.37,0.63-0.9,0.63-1.6V289.89z"/>
<path class="st7" d="M13.87,302.11h24v20h-24V302.11z"/>
<path class="st13" d="M48.3,313.96c0-2.41,0.51-4.19,1.52-5.37c1.02-1.17,2.54-1.76,4.56-1.76c0.7,0,1.24,0.05,1.63,0.13v2.05
	c-0.49-0.11-0.98-0.17-1.46-0.17c-0.88,0-1.6,0.14-2.16,0.4c-0.55,0.27-0.97,0.66-1.24,1.18c-0.28,0.52-0.44,1.26-0.49,2.22h0.11
	c0.54-0.94,1.42-1.41,2.63-1.41c1.08,0,1.93,0.34,2.54,1.02c0.62,0.68,0.93,1.62,0.93,2.82c0,1.29-0.37,2.32-1.1,3.08
	c-0.73,0.75-1.74,1.13-3.04,1.13c-0.89,0-1.68-0.21-2.35-0.63c-0.66-0.41-1.18-1.02-1.54-1.81C48.48,316.04,48.3,315.08,48.3,313.96
	z M52.68,317.23c0.55,0,0.97-0.19,1.26-0.55c0.3-0.37,0.44-0.9,0.44-1.58c0-0.59-0.13-1.06-0.41-1.39
	c-0.27-0.35-0.68-0.52-1.24-0.52c-0.52,0-0.96,0.17-1.33,0.51c-0.37,0.34-0.55,0.73-0.55,1.18c0,0.66,0.17,1.21,0.51,1.67
	C51.71,317,52.15,317.23,52.68,317.23z"/>
<path class="st13" d="M17.37,345.11v-11.42h1.88v11.42H17.37z"/>
<path class="st13" d="M27.89,342.64c0,0.57-0.14,1.05-0.42,1.44c-0.27,0.39-0.68,0.69-1.21,0.89c-0.53,0.2-1.17,0.3-1.94,0.3
	c-0.6,0-1.12-0.05-1.56-0.14c-0.43-0.08-0.84-0.21-1.23-0.39v-1.58c0.42,0.19,0.88,0.36,1.39,0.5c0.51,0.14,1,0.21,1.46,0.21
	c0.6,0,1.04-0.09,1.3-0.28c0.27-0.2,0.4-0.45,0.4-0.77c0-0.19-0.05-0.35-0.16-0.5c-0.11-0.15-0.31-0.3-0.6-0.46
	c-0.28-0.16-0.71-0.35-1.26-0.58c-0.55-0.22-1.01-0.43-1.39-0.65c-0.37-0.22-0.65-0.49-0.85-0.79c-0.19-0.31-0.29-0.71-0.29-1.2
	c0-0.76,0.31-1.34,0.91-1.74c0.61-0.4,1.41-0.6,2.41-0.6c0.54,0,1.04,0.05,1.5,0.16c0.48,0.11,0.94,0.26,1.4,0.46l-0.58,1.39
	c-0.39-0.18-0.79-0.32-1.18-0.43c-0.39-0.11-0.79-0.17-1.2-0.17c-0.47,0-0.83,0.08-1.08,0.22c-0.25,0.15-0.37,0.36-0.37,0.63
	c0,0.2,0.06,0.37,0.18,0.51c0.12,0.14,0.32,0.28,0.62,0.42c0.29,0.14,0.7,0.32,1.23,0.53c0.52,0.2,0.96,0.4,1.34,0.62
	s0.67,0.48,0.87,0.79C27.78,341.74,27.89,342.15,27.89,342.64z"/>
<path class="st13" d="M31.71,345.11h-1.84v-12.16h1.84V345.11z"/>
<path class="st13" d="M37.73,336.3c1.09,0,1.92,0.24,2.48,0.73c0.56,0.48,0.84,1.23,0.84,2.26v5.82h-1.3l-0.36-1.23h-0.06
	c-0.24,0.32-0.5,0.57-0.76,0.78c-0.26,0.2-0.56,0.35-0.9,0.45c-0.34,0.11-0.76,0.16-1.25,0.16c-0.51,0-0.97-0.1-1.38-0.28
	c-0.4-0.2-0.72-0.49-0.96-0.88c-0.23-0.39-0.35-0.88-0.35-1.48c0-0.89,0.33-1.56,0.99-2.01c0.67-0.45,1.67-0.7,3.02-0.74l1.5-0.06
	v-0.45c0-0.6-0.14-1.03-0.42-1.28c-0.28-0.26-0.67-0.39-1.18-0.39c-0.43,0-0.85,0.07-1.25,0.19c-0.41,0.13-0.81,0.28-1.19,0.46
	l-0.6-1.29c0.43-0.23,0.91-0.41,1.44-0.55C36.58,336.37,37.15,336.3,37.73,336.3z M39.23,340.98l-1.12,0.04
	c-0.91,0.03-1.56,0.18-1.93,0.47c-0.37,0.28-0.55,0.66-0.55,1.15c0,0.43,0.13,0.74,0.38,0.94c0.26,0.19,0.59,0.29,1.01,0.29
	c0.63,0,1.16-0.18,1.58-0.54c0.42-0.36,0.63-0.9,0.63-1.6V340.98z M38.71,332.85c0.14,0.24,0.32,0.51,0.56,0.8s0.49,0.58,0.74,0.86
	c0.26,0.28,0.49,0.51,0.69,0.71v0.2h-1.25c-0.28-0.18-0.58-0.39-0.9-0.64c-0.31-0.25-0.61-0.52-0.88-0.8
	c-0.28,0.28-0.58,0.55-0.89,0.8c-0.3,0.24-0.59,0.45-0.86,0.64h-1.25v-0.2c0.2-0.2,0.43-0.44,0.68-0.72
	c0.26-0.27,0.5-0.56,0.74-0.85c0.23-0.29,0.42-0.56,0.56-0.8H38.71z"/>
<path class="st13" d="M53.39,336.3c0.97,0,1.7,0.25,2.19,0.75c0.5,0.5,0.74,1.3,0.74,2.4v5.66h-1.83v-5.33
	c0-0.65-0.13-1.15-0.39-1.48c-0.25-0.33-0.64-0.5-1.16-0.5c-0.73,0-1.25,0.23-1.58,0.7c-0.32,0.47-0.47,1.14-0.47,2.03v4.58h-1.84
	v-5.33c0-0.43-0.06-0.8-0.17-1.09c-0.11-0.3-0.28-0.52-0.51-0.66c-0.23-0.16-0.52-0.23-0.87-0.23c-0.5,0-0.91,0.11-1.21,0.34
	c-0.3,0.23-0.51,0.57-0.64,1.02c-0.13,0.44-0.19,0.98-0.19,1.63v4.32h-1.84v-8.65h1.43l0.26,1.17h0.1c0.18-0.31,0.39-0.55,0.66-0.75
	c0.26-0.19,0.56-0.34,0.88-0.43c0.32-0.1,0.66-0.15,1.01-0.15c0.64,0,1.19,0.11,1.63,0.34c0.44,0.23,0.77,0.57,0.99,1.03h0.14
	c0.27-0.47,0.65-0.81,1.13-1.04C52.34,336.41,52.85,336.3,53.39,336.3z"/>
<path class="st13" d="M60.72,336.46v8.65h-1.83v-8.65H60.72z M59.82,333.15c0.28,0,0.52,0.08,0.72,0.23
	c0.21,0.15,0.31,0.41,0.31,0.78c0,0.36-0.1,0.62-0.31,0.78c-0.2,0.15-0.44,0.23-0.72,0.23c-0.3,0-0.54-0.08-0.75-0.23
	c-0.19-0.16-0.29-0.42-0.29-0.78c0-0.37,0.1-0.63,0.29-0.78C59.28,333.23,59.52,333.15,59.82,333.15z"/>
<path class="st13" d="M66.84,345.27c-0.82,0-1.53-0.16-2.13-0.48s-1.06-0.8-1.38-1.46c-0.32-0.66-0.48-1.49-0.48-2.5
	c0-1.05,0.17-1.91,0.53-2.58c0.35-0.67,0.84-1.16,1.47-1.47c0.63-0.32,1.35-0.48,2.16-0.48c0.52,0,0.98,0.05,1.4,0.15
	c0.42,0.1,0.78,0.23,1.07,0.37l-0.55,1.47c-0.32-0.13-0.64-0.24-0.97-0.33c-0.34-0.09-0.66-0.13-0.97-0.13
	c-0.5,0-0.92,0.11-1.26,0.34c-0.33,0.22-0.58,0.55-0.75,1c-0.16,0.44-0.24,0.99-0.24,1.64c0,0.64,0.08,1.18,0.25,1.61
	c0.16,0.44,0.41,0.76,0.74,0.99c0.33,0.22,0.73,0.33,1.21,0.33c0.47,0,0.9-0.06,1.27-0.18c0.38-0.11,0.73-0.26,1.07-0.44v1.59
	c-0.33,0.19-0.68,0.33-1.06,0.42C67.85,345.22,67.39,345.27,66.84,345.27z"/>
<path class="st13" d="M74.7,336.3c1.09,0,1.92,0.24,2.47,0.73c0.57,0.48,0.85,1.23,0.85,2.26v5.82h-1.31l-0.35-1.23H76.3
	c-0.25,0.32-0.5,0.57-0.76,0.78c-0.26,0.2-0.56,0.35-0.9,0.45c-0.34,0.11-0.76,0.16-1.25,0.16c-0.51,0-0.97-0.1-1.38-0.28
	c-0.41-0.2-0.73-0.49-0.96-0.88c-0.23-0.39-0.35-0.88-0.35-1.48c0-0.89,0.33-1.56,0.99-2.01c0.67-0.45,1.67-0.7,3.02-0.74l1.5-0.06
	v-0.45c0-0.6-0.14-1.03-0.43-1.28c-0.27-0.26-0.66-0.39-1.17-0.39c-0.43,0-0.85,0.07-1.26,0.19c-0.4,0.13-0.8,0.28-1.18,0.46
	l-0.6-1.29c0.42-0.23,0.9-0.41,1.44-0.55C73.55,336.37,74.11,336.3,74.7,336.3z M76.2,340.98l-1.12,0.04
	c-0.92,0.03-1.56,0.18-1.93,0.47c-0.37,0.28-0.55,0.66-0.55,1.15c0,0.43,0.12,0.74,0.38,0.94c0.25,0.19,0.59,0.29,1.01,0.29
	c0.63,0,1.16-0.18,1.58-0.54c0.42-0.36,0.63-0.9,0.63-1.6V340.98z"/>
<path class="st7" d="M13.87,353.22h21v20h-21V353.22z"/>
<path class="st13" d="M48.8,362.47c1.17,0,2.1,0.33,2.8,0.98c0.69,0.66,1.04,1.56,1.04,2.71c0,1.36-0.42,2.4-1.25,3.13
	c-0.84,0.73-2.03,1.1-3.59,1.1c-1.35,0-2.44-0.22-3.27-0.66v-2.22c0.44,0.24,0.95,0.43,1.53,0.58c0.58,0.14,1.13,0.21,1.65,0.21
	c1.57,0,2.35-0.64,2.35-1.92c0-1.23-0.81-1.84-2.43-1.84c-0.29,0-0.62,0.03-0.97,0.09c-0.36,0.06-0.64,0.12-0.87,0.19l-1.02-0.55
	l0.46-6.19h6.58v2.18h-4.33l-0.23,2.38l0.3-0.06C47.88,362.51,48.3,362.47,48.8,362.47z"/>
<path class="st13" d="M27.51,390.49c0,0.88-0.11,1.69-0.34,2.41c-0.21,0.72-0.54,1.34-0.99,1.86c-0.44,0.51-0.99,0.91-1.66,1.19
	c-0.67,0.29-1.45,0.43-2.35,0.43c-0.91,0-1.7-0.14-2.37-0.43c-0.67-0.28-1.22-0.68-1.66-1.2c-0.44-0.52-0.77-1.14-0.99-1.87
	c-0.22-0.72-0.33-1.52-0.33-2.4c0-1.18,0.2-2.21,0.58-3.08c0.39-0.88,0.98-1.56,1.77-2.05c0.8-0.49,1.81-0.73,3.02-0.73
	c1.19,0,2.17,0.24,2.96,0.72c0.79,0.49,1.38,1.17,1.77,2.05C27.31,388.27,27.51,389.3,27.51,390.49z M18.79,390.49
	c0,0.88,0.12,1.65,0.36,2.29c0.24,0.64,0.61,1.14,1.1,1.49c0.5,0.34,1.14,0.51,1.92,0.51c0.79,0,1.43-0.17,1.93-0.51
	c0.49-0.35,0.86-0.85,1.09-1.49c0.23-0.64,0.35-1.41,0.35-2.29c0-1.34-0.27-2.38-0.8-3.14s-1.38-1.14-2.55-1.14
	c-0.78,0-1.42,0.17-1.93,0.52c-0.5,0.34-0.87,0.83-1.11,1.47C18.91,388.84,18.79,389.6,18.79,390.49z"/>
<path class="st13" d="M37.32,387.57v8.65h-1.45l-0.25-1.16h-0.1c-0.18,0.29-0.42,0.54-0.7,0.74c-0.28,0.19-0.59,0.33-0.93,0.43
	c-0.35,0.1-0.71,0.15-1.09,0.15c-0.65,0-1.21-0.11-1.67-0.33c-0.46-0.23-0.81-0.57-1.06-1.03c-0.24-0.47-0.36-1.07-0.36-1.8v-5.65
	h1.84v5.31c0,0.67,0.14,1.17,0.41,1.5c0.27,0.34,0.7,0.5,1.28,0.5c0.55,0,1-0.11,1.33-0.34c0.32-0.23,0.56-0.57,0.69-1.02
	c0.14-0.44,0.21-0.99,0.21-1.64v-4.31H37.32z"/>
<path class="st13" d="M43.17,394.89c0.24,0,0.47-0.02,0.71-0.06c0.23-0.05,0.45-0.1,0.64-0.17v1.4c-0.2,0.08-0.47,0.16-0.79,0.22
	c-0.32,0.06-0.66,0.1-1.01,0.1c-0.49,0-0.93-0.09-1.32-0.25c-0.39-0.16-0.7-0.45-0.93-0.85c-0.23-0.4-0.34-0.95-0.34-1.66v-4.65
	h-1.18v-0.82l1.26-0.65l0.61-1.85h1.15v1.92h2.48v1.4h-2.48v4.62c0,0.44,0.11,0.77,0.33,0.98
	C42.52,394.78,42.81,394.89,43.17,394.89z"/>
<path class="st13" d="M50.66,387.41c0.14,0,0.3,0,0.48,0.02c0.17,0.02,0.32,0.04,0.44,0.06l-0.17,1.72
	c-0.11-0.03-0.25-0.05-0.41-0.07c-0.15-0.01-0.29-0.02-0.42-0.02c-0.33,0-0.64,0.05-0.94,0.16c-0.29,0.11-0.56,0.27-0.79,0.49
	c-0.22,0.21-0.4,0.48-0.53,0.8s-0.2,0.7-0.2,1.13v4.52h-1.84v-8.65h1.43l0.25,1.52h0.09c0.17-0.3,0.39-0.58,0.64-0.84
	c0.26-0.25,0.55-0.46,0.88-0.61C49.9,387.49,50.26,387.41,50.66,387.41z"/>
<path class="st13" d="M56.57,387.41c1.1,0,1.92,0.24,2.48,0.72c0.56,0.49,0.84,1.24,0.84,2.27v5.82h-1.3l-0.35-1.23h-0.07
	c-0.24,0.32-0.49,0.57-0.75,0.78c-0.26,0.2-0.57,0.35-0.91,0.45c-0.34,0.1-0.75,0.16-1.24,0.16c-0.52,0-0.98-0.1-1.38-0.29
	c-0.41-0.19-0.73-0.48-0.97-0.87c-0.23-0.39-0.35-0.89-0.35-1.48c0-0.9,0.33-1.56,1-2.01c0.66-0.45,1.67-0.7,3.01-0.74l1.5-0.06
	v-0.45c0-0.6-0.14-1.03-0.42-1.28c-0.28-0.26-0.67-0.39-1.17-0.39c-0.44,0-0.85,0.07-1.26,0.19c-0.41,0.13-0.8,0.28-1.19,0.46
	l-0.59-1.3c0.42-0.22,0.9-0.4,1.44-0.54C55.43,387.48,55.99,387.41,56.57,387.41z M58.07,392.09l-1.11,0.04
	c-0.92,0.03-1.56,0.18-1.93,0.46c-0.37,0.29-0.56,0.67-0.56,1.16c0,0.43,0.13,0.74,0.38,0.94c0.26,0.19,0.6,0.29,1.01,0.29
	c0.64,0,1.16-0.18,1.58-0.54c0.42-0.37,0.63-0.9,0.63-1.6V392.09z"/>
<path class="st13" d="M68.28,393.75c0,0.57-0.14,1.05-0.42,1.44c-0.27,0.39-0.68,0.69-1.21,0.89c-0.52,0.2-1.17,0.3-1.94,0.3
	c-0.6,0-1.12-0.05-1.56-0.14c-0.43-0.08-0.84-0.21-1.23-0.39v-1.58c0.42,0.19,0.88,0.36,1.39,0.5c0.51,0.14,1,0.21,1.46,0.21
	c0.6,0,1.04-0.1,1.3-0.28c0.27-0.2,0.4-0.45,0.4-0.77c0-0.19-0.05-0.35-0.16-0.5c-0.11-0.15-0.3-0.3-0.6-0.46
	c-0.28-0.16-0.7-0.35-1.26-0.58c-0.55-0.22-1.01-0.44-1.38-0.65c-0.38-0.22-0.66-0.49-0.86-0.79c-0.19-0.32-0.29-0.71-0.29-1.2
	c0-0.76,0.31-1.35,0.91-1.74c0.61-0.4,1.42-0.6,2.42-0.6c0.53,0,1.03,0.05,1.5,0.16c0.47,0.11,0.93,0.26,1.39,0.46l-0.58,1.38
	c-0.39-0.17-0.79-0.31-1.18-0.42c-0.39-0.11-0.79-0.17-1.2-0.17c-0.47,0-0.83,0.07-1.08,0.22c-0.25,0.15-0.37,0.35-0.37,0.62
	c0,0.21,0.06,0.38,0.18,0.52c0.12,0.14,0.32,0.28,0.62,0.42c0.29,0.14,0.7,0.32,1.23,0.53c0.52,0.19,0.96,0.4,1.34,0.62
	c0.38,0.21,0.67,0.48,0.87,0.79C68.17,392.85,68.28,393.26,68.28,393.75z"/>
<path class="st7" d="M13.87,404.35h50v20h-50V404.35z"/>
<path class="st13" d="M79.72,421.35h-2.56v-7.03l0.02-1.15l0.05-1.26c-0.43,0.42-0.73,0.7-0.89,0.84l-1.4,1.12l-1.23-1.55l3.91-3.11
	h2.1V421.35z"/>
<path class="st13" d="M87.51,413.59c1.17,0,2.11,0.33,2.8,0.99c0.7,0.66,1.04,1.56,1.04,2.71c0,1.35-0.41,2.4-1.25,3.13
	s-2.03,1.09-3.59,1.09c-1.35,0-2.44-0.22-3.27-0.65v-2.22c0.44,0.23,0.95,0.42,1.53,0.57c0.58,0.15,1.13,0.22,1.65,0.22
	c1.57,0,2.35-0.64,2.35-1.93c0-1.22-0.81-1.83-2.43-1.83c-0.29,0-0.62,0.03-0.97,0.09c-0.36,0.05-0.64,0.12-0.86,0.18l-1.03-0.55
	l0.46-6.18h6.58v2.17h-4.33l-0.22,2.39l0.29-0.06C86.59,413.63,87.01,413.59,87.51,413.59z"/>
</svg>
