<?xml version="1.0" encoding="utf-8"?>
<!-- Generator: Adobe Illustrator 26.5.0, SVG Export Plug-In . SVG Version: 6.00 Build 0)  -->
<svg version="1.1" id="Camada_1" xmlns="http://www.w3.org/2000/svg" xmlns:xlink="http://www.w3.org/1999/xlink" x="0px" y="0px"
	 viewBox="0 0 841.89 595.28" style="enable-background:new 0 0 841.89 595.28;" xml:space="preserve">
<style type="text/css">
	.st0{fill:#010202;}
	.st1{fill:#E5CF5F;}
</style>
<path class="st0" d="M224.3,179.64l-0.19,0.58h3.67l-0.19-0.58c-0.43-1.34-0.78-2.44-1.05-3.32c-0.27-0.88-0.44-1.43-0.49-1.65
	l-0.09-0.32C225.84,174.88,225.29,176.65,224.3,179.64z M222.72,184.48h-1.85l3.96-11.46h2.29l3.91,11.46h-1.87l-0.9-2.81h-4.62
	L222.72,184.48z M236.93,177.16h-1.82v7.33h-1.67v-7.33h-1.38v-1.29h1.38v-0.66c0-0.9,0.24-1.6,0.71-2.11
	c0.49-0.52,1.17-0.78,2.04-0.78c0.32,0,0.64,0.05,0.97,0.14v1.46c-0.26-0.11-0.53-0.17-0.82-0.17c-0.83,0-1.24,0.49-1.24,1.48v0.65
	h1.82V177.16z M240.08,184.48h-1.67v-8.62h1.67v1.51c0.42-1.07,1.17-1.6,2.26-1.6c0.16,0,0.33,0.02,0.53,0.05v1.63
	c-0.24-0.1-0.5-0.15-0.8-0.15c-0.58,0-1.05,0.26-1.43,0.76c-0.37,0.51-0.56,1.12-0.56,1.82V184.48z M250.82,177
	c0.71,0.83,1.07,1.89,1.07,3.18c0,1.29-0.37,2.36-1.11,3.2c-0.73,0.84-1.73,1.26-3.01,1.26c-1.27,0-2.27-0.41-2.99-1.24
	c-0.73-0.83-1.09-1.88-1.09-3.15c0-1.29,0.37-2.36,1.12-3.21c0.75-0.86,1.73-1.29,2.96-1.29C249.09,175.74,250.11,176.16,250.82,177
	z M245.43,180.2c0,0.85,0.21,1.57,0.63,2.16c0.42,0.58,0.99,0.87,1.72,0.87c0.77,0,1.35-0.28,1.75-0.85
	c0.41-0.57,0.61-1.29,0.61-2.16c0-0.9-0.19-1.63-0.58-2.19c-0.39-0.58-0.99-0.87-1.8-0.87c-0.74,0-1.31,0.29-1.72,0.88
	C245.64,178.62,245.43,179.34,245.43,180.2z M257.65,180.66h-4.15v-1.43h4.15V180.66z M261.43,184.48h-1.68v-12.02h1.68v4.71
	c0.61-0.95,1.48-1.43,2.6-1.43c1.09,0,1.98,0.41,2.67,1.22c0.69,0.82,1.04,1.9,1.04,3.25c0,1.21-0.33,2.25-0.99,3.11
	c-0.66,0.85-1.56,1.27-2.7,1.27c-1.14,0-2.02-0.48-2.62-1.43V184.48z M261.43,180.11c0,1.02,0.23,1.78,0.68,2.28
	c0.45,0.5,1.01,0.75,1.67,0.75c0.63,0,1.17-0.27,1.6-0.8c0.43-0.54,0.65-1.24,0.65-2.09c0-0.97-0.22-1.72-0.65-2.24
	c-0.43-0.53-0.98-0.8-1.65-0.8c-0.59,0-1.12,0.24-1.6,0.71C261.66,178.4,261.43,179.13,261.43,180.11z M271.27,184.48h-1.67v-8.62
	h1.67v1.51c0.42-1.07,1.17-1.6,2.26-1.6c0.16,0,0.33,0.02,0.53,0.05v1.63c-0.24-0.1-0.5-0.15-0.8-0.15c-0.58,0-1.05,0.26-1.43,0.76
	c-0.37,0.51-0.56,1.12-0.56,1.82V184.48z M278.16,183.24c0.54,0,0.97-0.15,1.27-0.44c0.32-0.31,0.48-0.7,0.48-1.19v-0.97h-1.29
	c-0.63,0-1.12,0.12-1.44,0.37c-0.32,0.25-0.48,0.57-0.48,0.95c0,0.4,0.12,0.71,0.37,0.93C277.32,183.13,277.68,183.24,278.16,183.24
	z M279.96,183.46c-0.44,0.73-1.22,1.09-2.33,1.09c-0.82,0-1.47-0.23-1.97-0.7c-0.49-0.48-0.73-1.08-0.73-1.8
	c0-0.83,0.31-1.47,0.93-1.92c0.62-0.46,1.5-0.7,2.62-0.7h1.43v-0.49c0-0.59-0.14-1.03-0.43-1.33c-0.28-0.31-0.75-0.46-1.41-0.46
	c-0.92,0-1.75,0.26-2.5,0.76v-1.61c0.67-0.39,1.55-0.58,2.65-0.58c2.26,0,3.38,1.09,3.38,3.28v5.47h-1.65V183.46z M289.24,182.1
	c0,0.77-0.27,1.38-0.82,1.82c-0.54,0.43-1.28,0.65-2.21,0.65c-1.02,0-1.87-0.17-2.55-0.51v-1.58c0.79,0.49,1.62,0.73,2.46,0.73
	c0.44,0,0.78-0.09,1.02-0.27c0.25-0.18,0.37-0.42,0.37-0.71c0-0.25-0.1-0.47-0.29-0.66c-0.19-0.2-0.39-0.35-0.6-0.44
	c-0.19-0.1-0.53-0.26-1-0.46c-1.35-0.56-2.02-1.37-2.02-2.45c0-0.76,0.28-1.35,0.85-1.78c0.57-0.43,1.27-0.65,2.12-0.65
	c0.93,0,1.65,0.12,2.18,0.37v1.51c-0.56-0.33-1.27-0.49-2.14-0.49c-0.4,0-0.71,0.09-0.95,0.27c-0.23,0.18-0.34,0.42-0.34,0.71
	c0,0.08,0.01,0.16,0.02,0.24c0.02,0.07,0.06,0.14,0.1,0.22c0.05,0.07,0.08,0.13,0.12,0.19c0.05,0.05,0.11,0.1,0.2,0.15
	c0.09,0.06,0.16,0.11,0.2,0.15c0.06,0.03,0.14,0.08,0.26,0.14c0.12,0.06,0.22,0.1,0.27,0.14c0.06,0.02,0.15,0.07,0.29,0.14
	c0.15,0.06,0.25,0.1,0.31,0.12c0.67,0.29,1.19,0.63,1.56,1C289.05,181,289.24,181.49,289.24,182.1z M292.73,184.48h-1.68v-8.62h1.68
	V184.48z M292.93,173.23c0,0.28-0.1,0.53-0.31,0.73c-0.2,0.2-0.45,0.31-0.75,0.31s-0.54-0.1-0.75-0.29
	c-0.19-0.2-0.29-0.45-0.29-0.75c0-0.29,0.1-0.54,0.29-0.75c0.2-0.2,0.45-0.31,0.75-0.31s0.54,0.1,0.75,0.31
	C292.83,172.68,292.93,172.93,292.93,173.23z M296.89,184.48h-1.68v-12.02h1.68V184.48z M305.73,184.02
	c-0.63,0.36-1.47,0.54-2.52,0.54c-1.34,0-2.4-0.4-3.2-1.21c-0.79-0.8-1.19-1.86-1.19-3.16c0-1.38,0.36-2.46,1.09-3.25
	c0.73-0.79,1.65-1.19,2.77-1.19c1.1,0,1.97,0.35,2.62,1.04c0.65,0.68,0.97,1.67,0.97,2.96c0,0.35-0.03,0.72-0.1,1.1h-5.66
	c0.11,0.75,0.43,1.32,0.95,1.72s1.18,0.6,1.97,0.6c0.92,0,1.68-0.22,2.29-0.65V184.02z M302.73,177.14c-0.57,0-1.05,0.21-1.46,0.63
	c-0.41,0.41-0.66,1-0.77,1.79h4.16v-0.31c-0.02-0.65-0.2-1.16-0.53-1.53C303.81,177.33,303.34,177.14,302.73,177.14z M309.99,184.48
	h-1.68v-8.62h1.68V184.48z M310.2,173.23c0,0.28-0.1,0.53-0.31,0.73c-0.2,0.2-0.45,0.31-0.75,0.31c-0.3,0-0.54-0.1-0.75-0.29
	c-0.19-0.2-0.29-0.45-0.29-0.75c0-0.29,0.1-0.54,0.29-0.75c0.2-0.2,0.45-0.31,0.75-0.31c0.29,0,0.54,0.1,0.75,0.31
	C310.09,172.68,310.2,172.93,310.2,173.23z M314.07,184.48h-1.67v-8.62h1.67v1.51c0.42-1.07,1.17-1.6,2.26-1.6
	c0.16,0,0.33,0.02,0.53,0.05v1.63c-0.24-0.1-0.51-0.15-0.8-0.15c-0.58,0-1.05,0.26-1.43,0.76c-0.37,0.51-0.56,1.12-0.56,1.82V184.48
	z M320.96,183.24c0.54,0,0.97-0.15,1.27-0.44c0.32-0.31,0.48-0.7,0.48-1.19v-0.97h-1.29c-0.63,0-1.12,0.12-1.44,0.37
	c-0.32,0.25-0.48,0.57-0.48,0.95c0,0.4,0.12,0.71,0.37,0.93C320.12,183.13,320.48,183.24,320.96,183.24z M322.76,183.46
	c-0.44,0.73-1.22,1.09-2.33,1.09c-0.82,0-1.47-0.23-1.97-0.7c-0.49-0.48-0.73-1.08-0.73-1.8c0-0.83,0.31-1.47,0.93-1.92
	c0.62-0.46,1.5-0.7,2.62-0.7h1.43v-0.49c0-0.59-0.14-1.03-0.43-1.33c-0.28-0.31-0.75-0.46-1.41-0.46c-0.92,0-1.75,0.26-2.5,0.76
	v-1.61c0.67-0.39,1.55-0.58,2.65-0.58c2.26,0,3.38,1.09,3.38,3.28v5.47h-1.65V183.46z"/>
<path class="st0" d="M254.77,218.37h-6.61v-11.46h6.53v1.46h-4.78v3.54h4.23v1.46h-4.23v3.54h4.86V218.37z M260.94,218.37h-1.9
	l-3.06-8.62h1.75l1.17,3.64c0.27,0.84,0.5,1.56,0.68,2.18c0.19,0.61,0.31,1.01,0.36,1.21l0.07,0.29c0.1-0.56,0.48-1.78,1.12-3.67
	l1.21-3.64h1.73L260.94,218.37z M268.35,217.13c0.54,0,0.97-0.15,1.27-0.44c0.32-0.31,0.48-0.7,0.48-1.19v-0.97h-1.29
	c-0.63,0-1.12,0.12-1.45,0.37c-0.32,0.25-0.48,0.57-0.48,0.95c0,0.4,0.12,0.71,0.37,0.93C267.51,217.02,267.87,217.13,268.35,217.13
	z M270.15,217.35c-0.44,0.73-1.22,1.09-2.33,1.09c-0.82,0-1.47-0.23-1.97-0.7c-0.49-0.48-0.73-1.08-0.73-1.8
	c0-0.83,0.31-1.47,0.93-1.92c0.62-0.46,1.5-0.7,2.62-0.7h1.43v-0.49c0-0.59-0.14-1.03-0.43-1.33c-0.28-0.31-0.75-0.46-1.41-0.46
	c-0.92,0-1.75,0.26-2.5,0.76v-1.61c0.67-0.39,1.55-0.58,2.65-0.58c2.26,0,3.38,1.09,3.38,3.28v5.47h-1.65V217.35z M281.16,218.37
	h-1.67v-5.44c0-0.6-0.15-1.06-0.46-1.38c-0.29-0.32-0.69-0.48-1.19-0.48c-0.59,0-1.09,0.23-1.51,0.7c-0.42,0.45-0.63,1.09-0.63,1.92
	v4.68h-1.67v-8.62h1.67v1.48c0.51-1.07,1.41-1.6,2.69-1.6c0.85,0,1.52,0.26,2.02,0.78c0.5,0.52,0.75,1.23,0.75,2.12V218.37z
	 M290.66,217.64c0,1.33-0.38,2.32-1.14,2.99c-0.75,0.68-1.71,1.02-2.89,1.02c-1.11,0-2.05-0.19-2.8-0.56v-1.68
	c0.73,0.48,1.6,0.71,2.63,0.71c1.69,0,2.53-0.83,2.53-2.5v-0.88c-0.56,0.93-1.39,1.39-2.5,1.39c-0.97,0-1.81-0.36-2.5-1.07
	c-0.69-0.73-1.04-1.75-1.04-3.06c0-1.27,0.32-2.31,0.97-3.13c0.65-0.83,1.5-1.24,2.57-1.24c1.14,0,1.98,0.49,2.5,1.46v-1.34h1.67
	V217.64z M284.71,213.97c0,0.9,0.2,1.58,0.61,2.04c0.42,0.46,0.91,0.7,1.48,0.7c0.59,0,1.1-0.23,1.53-0.68
	c0.44-0.46,0.66-1.11,0.66-1.94c0-1.02-0.21-1.77-0.63-2.26c-0.41-0.49-0.91-0.73-1.5-0.73c-0.67,0-1.2,0.27-1.58,0.8
	C284.91,212.42,284.71,213.11,284.71,213.97z M299.33,217.91c-0.63,0.36-1.47,0.54-2.52,0.54c-1.34,0-2.4-0.4-3.2-1.21
	c-0.79-0.8-1.19-1.86-1.19-3.16c0-1.38,0.36-2.46,1.09-3.25c0.73-0.79,1.65-1.19,2.77-1.19c1.1,0,1.97,0.35,2.62,1.04
	c0.65,0.68,0.97,1.67,0.97,2.96c0,0.35-0.03,0.72-0.1,1.11h-5.66c0.11,0.75,0.43,1.32,0.95,1.72c0.52,0.4,1.18,0.6,1.97,0.6
	c0.92,0,1.68-0.22,2.3-0.65V217.91z M296.32,211.03c-0.57,0-1.05,0.21-1.46,0.63c-0.41,0.41-0.66,1-0.77,1.79h4.17v-0.31
	c-0.02-0.65-0.2-1.16-0.53-1.53C297.4,211.22,296.93,211.03,296.32,211.03z M297.3,208.89h-1.43l1.62-2.75h1.85L297.3,208.89z
	 M303.58,218.37h-1.68v-12.02h1.68V218.37z M307.75,218.37h-1.68v-8.62h1.68V218.37z M307.95,207.12c0,0.28-0.1,0.53-0.31,0.73
	c-0.2,0.2-0.45,0.31-0.75,0.31c-0.3,0-0.54-0.1-0.75-0.29c-0.19-0.2-0.29-0.45-0.29-0.75c0-0.29,0.1-0.54,0.29-0.75
	c0.2-0.2,0.45-0.31,0.75-0.31c0.29,0,0.54,0.1,0.75,0.31C307.85,206.58,307.95,206.83,307.95,207.12z M316.25,218.03
	c-0.56,0.34-1.26,0.51-2.12,0.51c-1.35,0-2.43-0.43-3.23-1.28c-0.8-0.85-1.21-1.91-1.21-3.18c0-1.24,0.4-2.29,1.21-3.16
	c0.82-0.88,1.92-1.33,3.3-1.33c0.75,0,1.43,0.16,2.06,0.48v1.53c-0.56-0.35-1.18-0.53-1.89-0.53c-0.9,0-1.61,0.28-2.16,0.85
	c-0.53,0.57-0.8,1.29-0.8,2.18c0.02,0.87,0.29,1.59,0.8,2.16c0.51,0.56,1.22,0.83,2.14,0.83c0.68,0,1.31-0.19,1.9-0.56V218.03z
	 M320.96,217.13c0.54,0,0.97-0.15,1.27-0.44c0.32-0.31,0.48-0.7,0.48-1.19v-0.97h-1.29c-0.63,0-1.12,0.12-1.44,0.37
	c-0.32,0.25-0.48,0.57-0.48,0.95c0,0.4,0.12,0.71,0.37,0.93C320.12,217.02,320.48,217.13,320.96,217.13z M322.76,217.35
	c-0.44,0.73-1.22,1.09-2.33,1.09c-0.82,0-1.47-0.23-1.97-0.7c-0.49-0.48-0.73-1.08-0.73-1.8c0-0.83,0.31-1.47,0.93-1.92
	c0.62-0.46,1.5-0.7,2.62-0.7h1.43v-0.49c0-0.59-0.14-1.03-0.43-1.33c-0.28-0.31-0.75-0.46-1.41-0.46c-0.92,0-1.75,0.26-2.5,0.76
	v-1.61c0.67-0.39,1.55-0.58,2.65-0.58c2.26,0,3.38,1.09,3.38,3.28v5.47h-1.65V217.35z"/>
<path class="st0" d="M278.68,252.27h-6.61v-11.46h6.53v1.46h-4.78v3.54h4.23v1.46h-4.23v3.54h4.86V252.27z M286.12,249.89
	c0,0.77-0.27,1.38-0.82,1.82c-0.54,0.43-1.28,0.65-2.21,0.65c-1.02,0-1.87-0.17-2.55-0.51v-1.58c0.79,0.49,1.61,0.73,2.46,0.73
	c0.44,0,0.78-0.09,1.02-0.27c0.25-0.18,0.37-0.42,0.37-0.71c0-0.25-0.1-0.47-0.29-0.66c-0.19-0.2-0.39-0.35-0.6-0.44
	c-0.19-0.1-0.53-0.25-1-0.46c-1.35-0.56-2.02-1.37-2.02-2.45c0-0.76,0.28-1.35,0.85-1.79c0.57-0.43,1.27-0.65,2.12-0.65
	c0.93,0,1.65,0.12,2.18,0.37v1.51c-0.56-0.33-1.27-0.49-2.14-0.49c-0.4,0-0.71,0.09-0.95,0.27c-0.23,0.18-0.34,0.42-0.34,0.71
	c0,0.08,0.01,0.16,0.02,0.24c0.02,0.07,0.06,0.14,0.1,0.22c0.05,0.07,0.08,0.13,0.12,0.19c0.05,0.05,0.11,0.1,0.2,0.15
	c0.09,0.06,0.16,0.11,0.2,0.15c0.06,0.03,0.14,0.08,0.25,0.14c0.12,0.06,0.22,0.1,0.27,0.14c0.06,0.02,0.15,0.07,0.29,0.14
	c0.15,0.06,0.25,0.1,0.31,0.12c0.67,0.29,1.19,0.63,1.56,1C285.93,248.79,286.12,249.27,286.12,249.89z M289.52,255.56h-1.67v-11.92
	h1.67v1.33c0.59-0.96,1.47-1.44,2.65-1.44c1.13,0,2.03,0.41,2.69,1.24c0.66,0.82,0.99,1.86,0.99,3.13c0,1.3-0.34,2.38-1.02,3.23
	c-0.67,0.84-1.56,1.26-2.69,1.26c-1.14,0-2.02-0.48-2.62-1.43V255.56z M289.52,247.93c0,1,0.23,1.75,0.7,2.24
	c0.48,0.5,1.01,0.75,1.62,0.75c0.67,0,1.22-0.26,1.65-0.78c0.43-0.53,0.65-1.27,0.65-2.23c0-0.9-0.21-1.6-0.63-2.12
	c-0.42-0.53-0.95-0.8-1.6-0.8s-1.21,0.24-1.68,0.71C289.75,246.17,289.52,246.91,289.52,247.93z M299.47,252.27h-1.68v-8.62h1.68
	V252.27z M299.47,242.78h-1.43l1.61-2.75h1.85L299.47,242.78z M303.55,252.27h-1.67v-8.62h1.67v1.51c0.42-1.07,1.17-1.6,2.26-1.6
	c0.16,0,0.33,0.02,0.53,0.05v1.63c-0.24-0.1-0.5-0.15-0.8-0.15c-0.58,0-1.05,0.26-1.43,0.76c-0.37,0.51-0.56,1.12-0.56,1.82V252.27z
	 M309.39,252.27h-1.68v-8.62h1.68V252.27z M309.6,241.01c0,0.28-0.1,0.53-0.31,0.73s-0.45,0.31-0.75,0.31c-0.3,0-0.54-0.1-0.75-0.29
	c-0.19-0.2-0.29-0.45-0.29-0.75c0-0.29,0.1-0.54,0.29-0.75c0.2-0.2,0.45-0.31,0.75-0.31c0.29,0,0.54,0.1,0.75,0.31
	C309.5,240.47,309.6,240.72,309.6,241.01z M316.33,252.05c-0.37,0.2-0.83,0.31-1.38,0.31c-1.78,0-2.67-0.9-2.67-2.7v-4.71h-1.34
	v-1.29h1.34v-2.11h1.68v2.11h2.26v1.29h-2.26v4.74c0,0.83,0.4,1.24,1.19,1.24c0.46,0,0.86-0.12,1.17-0.37V252.05z M320.96,251.03
	c0.54,0,0.97-0.15,1.27-0.44c0.32-0.31,0.48-0.7,0.48-1.19v-0.97h-1.29c-0.63,0-1.12,0.12-1.44,0.37c-0.32,0.25-0.48,0.57-0.48,0.95
	c0,0.4,0.12,0.71,0.37,0.93C320.12,250.91,320.48,251.03,320.96,251.03z M322.76,251.25c-0.44,0.73-1.22,1.09-2.33,1.09
	c-0.82,0-1.47-0.23-1.97-0.7c-0.49-0.48-0.73-1.08-0.73-1.8c0-0.83,0.31-1.47,0.93-1.92c0.62-0.46,1.5-0.7,2.62-0.7h1.43v-0.49
	c0-0.59-0.14-1.03-0.43-1.33c-0.28-0.31-0.75-0.46-1.41-0.46c-0.92,0-1.75,0.26-2.5,0.76v-1.61c0.67-0.39,1.55-0.58,2.65-0.58
	c2.26,0,3.38,1.09,3.38,3.28v5.47h-1.65V251.25z"/>
<path class="st0" d="M275.47,285.6c-0.7,0.46-1.68,0.7-2.92,0.7c-1.71,0-3.11-0.53-4.2-1.6c-1.09-1.07-1.63-2.49-1.63-4.28
	c0-1.73,0.54-3.14,1.63-4.23c1.1-1.09,2.49-1.63,4.17-1.63c1.22,0,2.2,0.21,2.94,0.63v1.72c-0.5-0.27-0.95-0.46-1.36-0.56
	c-0.4-0.11-0.91-0.17-1.53-0.17c-1.14,0-2.1,0.39-2.87,1.17c-0.76,0.77-1.14,1.8-1.14,3.08c0,1.3,0.38,2.34,1.14,3.11
	c0.76,0.77,1.76,1.16,3.01,1.16c1.1,0,2.02-0.28,2.77-0.85V285.6z M280.18,284.92c0.54,0,0.97-0.15,1.27-0.44
	c0.32-0.31,0.48-0.7,0.48-1.19v-0.97h-1.29c-0.63,0-1.12,0.12-1.45,0.37c-0.32,0.25-0.48,0.57-0.48,0.95c0,0.4,0.12,0.71,0.37,0.93
	C279.34,284.8,279.71,284.92,280.18,284.92z M281.98,285.14c-0.44,0.72-1.22,1.09-2.33,1.09c-0.82,0-1.47-0.23-1.97-0.7
	c-0.49-0.48-0.73-1.08-0.73-1.8c0-0.83,0.31-1.47,0.93-1.92c0.62-0.46,1.5-0.7,2.62-0.7h1.43v-0.49c0-0.59-0.14-1.03-0.42-1.33
	c-0.28-0.31-0.75-0.46-1.41-0.46c-0.92,0-1.75,0.26-2.5,0.76v-1.61c0.67-0.39,1.55-0.58,2.65-0.58c2.26,0,3.38,1.09,3.38,3.28v5.47
	h-1.65V285.14z M290.4,285.94c-0.37,0.2-0.83,0.31-1.38,0.31c-1.78,0-2.67-0.9-2.67-2.7v-4.71h-1.34v-1.29h1.34v-2.11h1.68v2.11
	h2.26v1.29h-2.26v4.74c0,0.83,0.4,1.24,1.19,1.24c0.46,0,0.86-0.12,1.17-0.37V285.94z M298.88,278.68c0.71,0.83,1.07,1.89,1.07,3.18
	s-0.37,2.36-1.11,3.2c-0.73,0.84-1.73,1.26-3.01,1.26c-1.27,0-2.27-0.41-2.99-1.24c-0.73-0.83-1.09-1.88-1.09-3.14
	c0-1.29,0.37-2.36,1.12-3.21c0.75-0.86,1.73-1.29,2.96-1.29C297.15,277.42,298.17,277.84,298.88,278.68z M293.49,281.87
	c0,0.85,0.21,1.57,0.63,2.16c0.42,0.58,0.99,0.87,1.72,0.87c0.77,0,1.35-0.28,1.75-0.85c0.41-0.57,0.61-1.29,0.61-2.16
	c0-0.89-0.19-1.63-0.58-2.19c-0.39-0.58-0.99-0.87-1.8-0.87c-0.74,0-1.31,0.29-1.72,0.88C293.7,280.29,293.49,281.01,293.49,281.87z
	 M296.77,276.67h-1.43l1.62-2.75h1.85L296.77,276.67z M303.58,286.16h-1.68v-12.02h1.68V286.16z M307.75,286.16h-1.68v-8.62h1.68
	V286.16z M307.95,274.9c0,0.28-0.1,0.53-0.31,0.73c-0.2,0.2-0.45,0.31-0.75,0.31c-0.3,0-0.54-0.1-0.75-0.29
	c-0.19-0.2-0.29-0.45-0.29-0.75s0.1-0.54,0.29-0.75c0.2-0.2,0.45-0.31,0.75-0.31c0.29,0,0.54,0.1,0.75,0.31
	C307.85,274.36,307.95,274.61,307.95,274.9z M316.25,285.82c-0.56,0.34-1.26,0.51-2.12,0.51c-1.35,0-2.43-0.43-3.23-1.28
	c-0.8-0.85-1.21-1.91-1.21-3.18c0-1.24,0.4-2.29,1.21-3.16c0.82-0.88,1.92-1.33,3.3-1.33c0.75,0,1.43,0.16,2.06,0.48v1.53
	c-0.56-0.35-1.18-0.53-1.89-0.53c-0.9,0-1.61,0.28-2.16,0.85c-0.53,0.57-0.8,1.29-0.8,2.18c0.02,0.87,0.29,1.59,0.8,2.16
	c0.51,0.55,1.22,0.83,2.14,0.83c0.68,0,1.31-0.19,1.9-0.56V285.82z M320.96,284.92c0.54,0,0.97-0.15,1.27-0.44
	c0.32-0.31,0.48-0.7,0.48-1.19v-0.97h-1.29c-0.63,0-1.12,0.12-1.44,0.37c-0.32,0.25-0.48,0.57-0.48,0.95c0,0.4,0.12,0.71,0.37,0.93
	C320.12,284.8,320.48,284.92,320.96,284.92z M322.76,285.14c-0.44,0.72-1.22,1.09-2.33,1.09c-0.82,0-1.47-0.23-1.97-0.7
	c-0.49-0.48-0.73-1.08-0.73-1.8c0-0.83,0.31-1.47,0.93-1.92c0.62-0.46,1.5-0.7,2.62-0.7h1.43v-0.49c0-0.59-0.14-1.03-0.43-1.33
	c-0.28-0.31-0.75-0.46-1.41-0.46c-0.92,0-1.75,0.26-2.5,0.76v-1.61c0.67-0.39,1.55-0.58,2.65-0.58c2.26,0,3.38,1.09,3.38,3.28v5.47
	h-1.65V285.14z"/>
<path class="st0" d="M286.44,315.21l-0.19,0.58h3.67l-0.19-0.58c-0.43-1.34-0.78-2.44-1.05-3.32c-0.27-0.88-0.44-1.43-0.49-1.65
	l-0.08-0.32C287.98,310.45,287.43,312.21,286.44,315.21z M284.86,320.05h-1.85l3.96-11.46h2.3l3.91,11.46h-1.87l-0.9-2.8h-4.62
	L284.86,320.05z M299.4,319.83c-0.37,0.2-0.83,0.31-1.38,0.31c-1.78,0-2.67-0.9-2.67-2.7v-4.71h-1.34v-1.29h1.34v-2.11h1.68v2.11
	h2.26v1.29h-2.26v4.74c0,0.83,0.4,1.24,1.19,1.24c0.46,0,0.86-0.12,1.17-0.37V319.83z M307.66,319.59
	c-0.63,0.36-1.47,0.54-2.52,0.54c-1.34,0-2.4-0.4-3.2-1.21c-0.79-0.8-1.19-1.86-1.19-3.16c0-1.38,0.36-2.46,1.09-3.25
	c0.73-0.79,1.65-1.19,2.77-1.19c1.1,0,1.97,0.35,2.62,1.04c0.65,0.68,0.97,1.67,0.97,2.96c0,0.35-0.03,0.72-0.1,1.11h-5.66
	c0.11,0.75,0.43,1.32,0.95,1.72c0.52,0.4,1.18,0.6,1.97,0.6c0.92,0,1.68-0.21,2.29-0.65V319.59z M304.65,312.71
	c-0.57,0-1.05,0.21-1.46,0.63c-0.41,0.41-0.66,1-0.76,1.79h4.17v-0.31c-0.02-0.65-0.2-1.16-0.53-1.53
	C305.73,312.9,305.26,312.71,304.65,312.71z M317.19,320.05h-1.67v-1.48c-0.45,1.05-1.35,1.58-2.69,1.58
	c-0.85,0-1.52-0.25-2.02-0.75c-0.5-0.51-0.75-1.21-0.75-2.09v-5.88h1.68v5.47c0,0.59,0.14,1.04,0.43,1.36
	c0.29,0.31,0.7,0.46,1.21,0.46c0.65,0,1.16-0.23,1.55-0.68c0.4-0.45,0.6-1.09,0.6-1.92v-4.69h1.67V320.05z M324.92,317.67
	c0,0.77-0.27,1.38-0.82,1.82c-0.54,0.43-1.28,0.65-2.21,0.65c-1.02,0-1.87-0.17-2.55-0.51v-1.58c0.79,0.49,1.61,0.73,2.46,0.73
	c0.44,0,0.78-0.09,1.02-0.27c0.25-0.18,0.37-0.42,0.37-0.71c0-0.25-0.1-0.47-0.29-0.66c-0.19-0.2-0.39-0.35-0.6-0.44
	c-0.19-0.1-0.53-0.26-1-0.46c-1.35-0.55-2.02-1.37-2.02-2.45c0-0.76,0.28-1.35,0.85-1.79c0.57-0.43,1.27-0.65,2.12-0.65
	c0.93,0,1.65,0.12,2.18,0.37v1.51c-0.56-0.33-1.27-0.49-2.14-0.49c-0.4,0-0.71,0.09-0.95,0.27c-0.23,0.18-0.34,0.42-0.34,0.71
	c0,0.08,0,0.16,0.02,0.24c0.02,0.07,0.06,0.14,0.1,0.22c0.05,0.07,0.08,0.13,0.12,0.19c0.05,0.05,0.11,0.1,0.2,0.15
	c0.09,0.06,0.16,0.11,0.2,0.15c0.06,0.03,0.14,0.08,0.26,0.14c0.12,0.06,0.21,0.1,0.27,0.14c0.06,0.02,0.15,0.07,0.29,0.14
	c0.15,0.06,0.25,0.1,0.31,0.12c0.67,0.3,1.19,0.63,1.56,1C324.73,316.57,324.92,317.06,324.92,317.67z"/>
<path class="st0" d="M275.91,350.85c0,1.05-0.26,1.84-0.78,2.35c-0.51,0.5-1.2,0.75-2.07,0.75c-0.7,0-1.26-0.12-1.68-0.36v-1.61
	c0.46,0.28,0.93,0.42,1.39,0.42c0.93,0,1.39-0.49,1.39-1.48v-8.43h1.75V350.85z M285.31,353.94h-1.67v-1.48
	c-0.45,1.05-1.35,1.58-2.69,1.58c-0.85,0-1.52-0.25-2.02-0.75c-0.5-0.51-0.75-1.21-0.75-2.09v-5.88h1.68v5.47
	c0,0.59,0.14,1.04,0.42,1.36c0.29,0.31,0.7,0.46,1.21,0.46c0.65,0,1.16-0.23,1.55-0.68c0.4-0.45,0.6-1.09,0.6-1.92v-4.69h1.67
	V353.94z M288.89,349.71c0,0.86,0.21,1.56,0.63,2.09c0.43,0.53,0.97,0.8,1.62,0.8c0.66,0,1.21-0.25,1.67-0.75s0.68-1.26,0.68-2.28
	c0-0.99-0.24-1.72-0.71-2.19c-0.46-0.48-0.99-0.71-1.58-0.71c-0.67,0-1.22,0.27-1.65,0.8C289.11,347.99,288.89,348.73,288.89,349.71
	z M295.17,353.94h-1.68v-1.31c-0.6,0.95-1.48,1.43-2.63,1.43c-1.13,0-2.03-0.42-2.69-1.27c-0.66-0.86-0.99-1.9-0.99-3.11
	c0-1.35,0.35-2.43,1.04-3.25c0.69-0.82,1.58-1.22,2.67-1.22c1.12,0,1.99,0.48,2.6,1.43v-4.71h1.68V353.94z M300.3,352.7
	c0.54,0,0.97-0.15,1.28-0.44c0.32-0.31,0.48-0.7,0.48-1.19v-0.97h-1.29c-0.63,0-1.12,0.12-1.45,0.37c-0.32,0.25-0.48,0.57-0.48,0.95
	c0,0.4,0.12,0.71,0.37,0.93C299.46,352.59,299.83,352.7,300.3,352.7z M302.11,352.92c-0.44,0.72-1.22,1.09-2.33,1.09
	c-0.82,0-1.47-0.23-1.97-0.7c-0.49-0.48-0.73-1.08-0.73-1.8c0-0.83,0.31-1.47,0.93-1.92c0.62-0.46,1.5-0.7,2.62-0.7h1.43v-0.49
	c0-0.59-0.14-1.03-0.42-1.33c-0.28-0.31-0.75-0.46-1.41-0.46c-0.92,0-1.75,0.26-2.5,0.76v-1.61c0.67-0.39,1.55-0.58,2.65-0.58
	c2.26,0,3.38,1.09,3.38,3.28v5.47h-1.65V352.92z M307.75,353.94h-1.68v-8.62h1.68V353.94z M307.95,342.69c0,0.28-0.1,0.53-0.31,0.73
	c-0.2,0.2-0.45,0.31-0.75,0.31c-0.3,0-0.54-0.1-0.75-0.29c-0.19-0.2-0.29-0.45-0.29-0.75s0.1-0.54,0.29-0.75
	c0.2-0.2,0.45-0.31,0.75-0.31c0.29,0,0.54,0.1,0.75,0.31C307.85,342.14,307.95,342.39,307.95,342.69z M316.25,353.6
	c-0.56,0.34-1.26,0.51-2.12,0.51c-1.35,0-2.43-0.43-3.23-1.28c-0.8-0.85-1.21-1.91-1.21-3.18c0-1.24,0.4-2.29,1.21-3.16
	c0.82-0.88,1.92-1.33,3.3-1.33c0.75,0,1.43,0.16,2.06,0.48v1.53c-0.56-0.35-1.18-0.53-1.89-0.53c-0.9,0-1.61,0.28-2.16,0.85
	c-0.53,0.57-0.8,1.29-0.8,2.18c0.02,0.87,0.29,1.59,0.8,2.16c0.51,0.55,1.22,0.83,2.14,0.83c0.68,0,1.31-0.19,1.9-0.56V353.6z
	 M320.96,352.7c0.54,0,0.97-0.15,1.27-0.44c0.32-0.31,0.48-0.7,0.48-1.19v-0.97h-1.29c-0.63,0-1.12,0.12-1.44,0.37
	c-0.32,0.25-0.48,0.57-0.48,0.95c0,0.4,0.12,0.71,0.37,0.93C320.12,352.59,320.48,352.7,320.96,352.7z M322.76,352.92
	c-0.44,0.72-1.22,1.09-2.33,1.09c-0.82,0-1.47-0.23-1.97-0.7c-0.49-0.48-0.73-1.08-0.73-1.8c0-0.83,0.31-1.47,0.93-1.92
	c0.62-0.46,1.5-0.7,2.62-0.7h1.43v-0.49c0-0.59-0.14-1.03-0.43-1.33c-0.28-0.31-0.75-0.46-1.41-0.46c-0.92,0-1.75,0.26-2.5,0.76
	v-1.61c0.67-0.39,1.55-0.58,2.65-0.58c2.26,0,3.38,1.09,3.38,3.28v5.47h-1.65V352.92z"/>
<path class="st0" d="M269.57,387.83h-1.73v-11.46h1.73V387.83z M277.5,385.45c0,0.77-0.27,1.38-0.82,1.82
	c-0.54,0.43-1.28,0.65-2.21,0.65c-1.02,0-1.87-0.17-2.55-0.51v-1.58c0.79,0.49,1.62,0.73,2.47,0.73c0.44,0,0.78-0.09,1.02-0.27
	c0.25-0.18,0.37-0.42,0.37-0.71c0-0.25-0.1-0.47-0.29-0.66c-0.19-0.2-0.39-0.35-0.6-0.44c-0.19-0.1-0.53-0.26-1-0.46
	c-1.35-0.56-2.02-1.37-2.02-2.45c0-0.76,0.28-1.35,0.85-1.78c0.57-0.43,1.27-0.65,2.12-0.65c0.93,0,1.65,0.12,2.18,0.37v1.51
	c-0.56-0.33-1.27-0.49-2.14-0.49c-0.4,0-0.71,0.09-0.95,0.27c-0.23,0.18-0.34,0.42-0.34,0.71c0,0.08,0.01,0.16,0.02,0.24
	c0.02,0.07,0.06,0.14,0.1,0.22c0.05,0.07,0.09,0.13,0.12,0.19c0.05,0.05,0.11,0.1,0.2,0.15c0.09,0.06,0.16,0.11,0.2,0.15
	c0.06,0.03,0.14,0.08,0.26,0.14c0.12,0.06,0.22,0.1,0.27,0.14c0.06,0.02,0.15,0.07,0.29,0.14c0.15,0.06,0.25,0.1,0.31,0.12
	c0.67,0.29,1.19,0.63,1.56,1C277.31,384.35,277.5,384.84,277.5,385.45z M280.99,387.83h-1.68v-12.02h1.68V387.83z M286.19,386.59
	c0.54,0,0.97-0.15,1.28-0.44c0.32-0.31,0.48-0.7,0.48-1.19v-0.97h-1.29c-0.63,0-1.12,0.12-1.45,0.37c-0.32,0.25-0.48,0.57-0.48,0.95
	c0,0.4,0.12,0.71,0.37,0.93C285.35,386.48,285.72,386.59,286.19,386.59z M287.99,386.81c-0.44,0.73-1.22,1.09-2.33,1.09
	c-0.82,0-1.47-0.23-1.97-0.7c-0.49-0.48-0.73-1.08-0.73-1.8c0-0.83,0.31-1.47,0.93-1.92c0.62-0.46,1.5-0.7,2.62-0.7h1.43v-0.49
	c0-0.59-0.14-1.03-0.42-1.33c-0.28-0.31-0.75-0.46-1.41-0.46c-0.92,0-1.75,0.26-2.5,0.76v-1.61c0.67-0.39,1.55-0.58,2.65-0.58
	c2.26,0,3.38,1.09,3.38,3.28v5.47h-1.65V386.81z M285.15,378.35h-1.65l2.29-2.75h1.53l2.3,2.75h-1.65l-1.43-1.73L285.15,378.35z
	 M303.74,387.83h-1.67v-5.44c0-1.24-0.5-1.85-1.5-1.85c-0.5,0-0.95,0.22-1.34,0.66c-0.39,0.44-0.58,1.09-0.58,1.96v4.67h-1.67v-5.44
	c0-1.24-0.5-1.85-1.51-1.85c-0.49,0-0.93,0.22-1.33,0.66c-0.4,0.44-0.6,1.09-0.6,1.96v4.67h-1.67v-8.62h1.67v1.38
	c0.49-1,1.3-1.5,2.43-1.5c1.29,0,2.12,0.56,2.48,1.67c0.24-0.53,0.58-0.94,1.04-1.22c0.45-0.3,0.96-0.44,1.53-0.44
	c0.88,0,1.55,0.26,2.01,0.78c0.46,0.52,0.7,1.24,0.7,2.16V387.83z M307.75,387.83h-1.68v-8.62h1.68V387.83z M307.95,376.58
	c0,0.28-0.1,0.53-0.31,0.73c-0.2,0.2-0.45,0.31-0.75,0.31c-0.3,0-0.54-0.1-0.75-0.29c-0.19-0.2-0.29-0.45-0.29-0.75
	c0-0.3,0.1-0.54,0.29-0.75c0.2-0.2,0.45-0.31,0.75-0.31c0.29,0,0.54,0.1,0.75,0.31C307.85,376.04,307.95,376.29,307.95,376.58z
	 M316.25,387.49c-0.56,0.34-1.26,0.51-2.12,0.51c-1.35,0-2.43-0.43-3.23-1.28c-0.8-0.85-1.21-1.91-1.21-3.18
	c0-1.24,0.4-2.29,1.21-3.16c0.82-0.88,1.92-1.33,3.3-1.33c0.75,0,1.43,0.16,2.06,0.48v1.53c-0.56-0.35-1.18-0.53-1.89-0.53
	c-0.9,0-1.61,0.28-2.16,0.85c-0.53,0.57-0.8,1.29-0.8,2.18c0.02,0.87,0.29,1.59,0.8,2.16c0.51,0.55,1.22,0.83,2.14,0.83
	c0.68,0,1.31-0.19,1.9-0.56V387.49z M320.96,386.59c0.54,0,0.97-0.15,1.27-0.44c0.32-0.31,0.48-0.7,0.48-1.19v-0.97h-1.29
	c-0.63,0-1.12,0.12-1.44,0.37c-0.32,0.25-0.48,0.57-0.48,0.95c0,0.4,0.12,0.71,0.37,0.93C320.12,386.48,320.48,386.59,320.96,386.59
	z M322.76,386.81c-0.44,0.73-1.22,1.09-2.33,1.09c-0.82,0-1.47-0.23-1.97-0.7c-0.49-0.48-0.73-1.08-0.73-1.8
	c0-0.83,0.31-1.47,0.93-1.92c0.62-0.46,1.5-0.7,2.62-0.7h1.43v-0.49c0-0.59-0.14-1.03-0.43-1.33c-0.28-0.31-0.75-0.46-1.41-0.46
	c-0.92,0-1.75,0.26-2.5,0.76v-1.61c0.67-0.39,1.55-0.58,2.65-0.58c2.26,0,3.38,1.09,3.38,3.28v5.47h-1.65V386.81z"/>
<path class="st0" d="M286.2,411.66c0.94,1.07,1.41,2.49,1.41,4.28c0,1.79-0.48,3.22-1.43,4.3c-0.94,1.08-2.22,1.62-3.83,1.62
	c-1.6,0-2.88-0.54-3.84-1.62c-0.95-1.08-1.43-2.51-1.43-4.3c0-1.78,0.48-3.21,1.43-4.28s2.23-1.61,3.83-1.61
	C283.97,410.05,285.26,410.59,286.2,411.66z M279.82,412.84c-0.6,0.76-0.9,1.8-0.9,3.11s0.31,2.36,0.93,3.13
	c0.62,0.77,1.46,1.16,2.5,1.16c1.08,0,1.92-0.38,2.52-1.14c0.6-0.76,0.9-1.81,0.9-3.14c0-1.33-0.31-2.37-0.92-3.13
	c-0.6-0.76-1.44-1.14-2.52-1.14C281.27,411.68,280.44,412.06,279.82,412.84z M296.58,421.73h-1.67v-1.48
	c-0.45,1.05-1.35,1.58-2.69,1.58c-0.85,0-1.52-0.25-2.02-0.75c-0.5-0.51-0.75-1.21-0.75-2.09v-5.88h1.68v5.47
	c0,0.59,0.14,1.04,0.42,1.36c0.29,0.31,0.7,0.46,1.21,0.46c0.65,0,1.16-0.23,1.55-0.68c0.4-0.45,0.6-1.09,0.6-1.92v-4.69h1.67
	V421.73z M303.45,421.51c-0.37,0.2-0.83,0.31-1.38,0.31c-1.78,0-2.67-0.9-2.67-2.7v-4.71h-1.34v-1.29h1.34V411h1.68v2.11h2.26v1.29
	h-2.26v4.74c0,0.83,0.4,1.24,1.19,1.24c0.46,0,0.86-0.12,1.17-0.37V421.51z M306.95,421.73h-1.67v-8.62h1.67v1.51
	c0.42-1.07,1.17-1.6,2.26-1.6c0.16,0,0.33,0.02,0.53,0.05v1.63c-0.24-0.1-0.51-0.15-0.8-0.15c-0.58,0-1.05,0.25-1.43,0.76
	c-0.37,0.51-0.56,1.12-0.56,1.82V421.73z M313.83,420.49c0.54,0,0.97-0.15,1.27-0.44c0.32-0.31,0.48-0.7,0.48-1.19v-0.97h-1.29
	c-0.63,0-1.12,0.12-1.45,0.37c-0.32,0.25-0.48,0.57-0.48,0.95c0,0.4,0.12,0.71,0.37,0.93C313,420.37,313.36,420.49,313.83,420.49z
	 M315.64,420.71c-0.44,0.73-1.22,1.09-2.33,1.09c-0.82,0-1.47-0.23-1.97-0.7c-0.49-0.48-0.73-1.08-0.73-1.8
	c0-0.83,0.31-1.47,0.93-1.92c0.62-0.46,1.5-0.7,2.62-0.7h1.43v-0.49c0-0.59-0.14-1.03-0.42-1.33c-0.28-0.31-0.75-0.46-1.41-0.46
	c-0.92,0-1.75,0.26-2.5,0.77v-1.62c0.67-0.38,1.55-0.58,2.65-0.58c2.26,0,3.38,1.09,3.38,3.28v5.47h-1.65V420.71z M324.92,419.35
	c0,0.77-0.27,1.38-0.82,1.82c-0.54,0.43-1.28,0.65-2.21,0.65c-1.02,0-1.87-0.17-2.55-0.51v-1.58c0.79,0.49,1.61,0.73,2.46,0.73
	c0.44,0,0.78-0.09,1.02-0.27c0.25-0.18,0.37-0.42,0.37-0.71c0-0.25-0.1-0.47-0.29-0.66c-0.19-0.2-0.39-0.35-0.6-0.44
	c-0.19-0.1-0.53-0.26-1-0.46c-1.35-0.56-2.02-1.37-2.02-2.45c0-0.76,0.28-1.35,0.85-1.78c0.57-0.43,1.27-0.65,2.12-0.65
	c0.93,0,1.65,0.12,2.18,0.37v1.51c-0.56-0.33-1.27-0.49-2.14-0.49c-0.4,0-0.71,0.09-0.95,0.27c-0.23,0.18-0.34,0.42-0.34,0.71
	c0,0.08,0,0.16,0.02,0.24c0.02,0.07,0.06,0.14,0.1,0.22c0.05,0.07,0.08,0.13,0.12,0.19c0.05,0.05,0.11,0.1,0.2,0.15
	c0.09,0.06,0.16,0.11,0.2,0.15c0.06,0.03,0.14,0.08,0.26,0.14c0.12,0.06,0.21,0.1,0.27,0.14c0.06,0.02,0.15,0.07,0.29,0.14
	c0.15,0.06,0.25,0.1,0.31,0.12c0.67,0.3,1.19,0.63,1.56,1C324.73,418.25,324.92,418.73,324.92,419.35z"/>
<path class="st0" d="M609.31,185.45h-2.18l4.44-9.37h-5.24v-1.77h7.4v1.77L609.31,185.45z M621.97,181.83
	c0,1.13-0.37,2.04-1.12,2.72c-0.75,0.68-1.8,1.02-3.14,1.02c-1.17,0-2.15-0.2-2.94-0.6v-1.96c0.75,0.45,1.61,0.68,2.6,0.68
	c1.67,0,2.5-0.64,2.5-1.92c0-0.5-0.18-0.89-0.54-1.17c-0.35-0.28-0.86-0.43-1.51-0.43c-0.86,0-1.71,0.19-2.53,0.58v-6.44h5.98v1.75
	h-3.98v2.45c0.33-0.07,0.65-0.1,0.95-0.1c1.19,0,2.11,0.31,2.75,0.92C621.64,179.94,621.97,180.78,621.97,181.83z"/>
<path class="st0" d="M554.69,215.72c0,1.13-0.37,2.04-1.12,2.72c-0.75,0.68-1.8,1.02-3.14,1.02c-1.17,0-2.15-0.2-2.94-0.59v-1.96
	c0.75,0.45,1.61,0.68,2.6,0.68c1.67,0,2.5-0.64,2.5-1.92c0-0.5-0.18-0.89-0.54-1.17c-0.35-0.28-0.86-0.43-1.51-0.43
	c-0.86,0-1.71,0.19-2.53,0.58v-6.44h5.98v1.75H550v2.45c0.33-0.07,0.65-0.1,0.95-0.1c1.19,0,2.11,0.31,2.75,0.92
	C554.36,213.84,554.69,214.67,554.69,215.72z M563.8,216.32c0,0.95-0.37,1.72-1.11,2.31c-0.74,0.58-1.68,0.87-2.84,0.87
	s-2.09-0.28-2.8-0.83c-0.7-0.56-1.05-1.31-1.05-2.26c0-1.25,0.58-2.12,1.75-2.63c-1.05-0.53-1.58-1.35-1.58-2.46
	c0-1.02,0.35-1.81,1.05-2.38c0.71-0.58,1.59-0.87,2.64-0.87c1.09,0,1.98,0.27,2.69,0.82c0.7,0.54,1.05,1.35,1.05,2.43
	c0,1.08-0.51,1.88-1.53,2.41C563.23,214.17,563.8,215.04,563.8,216.32z M558.06,216.33c0,0.42,0.15,0.78,0.46,1.07
	c0.31,0.28,0.76,0.43,1.36,0.43c0.61,0,1.08-0.15,1.39-0.46c0.32-0.31,0.48-0.67,0.48-1.11c0-0.45-0.16-0.83-0.49-1.14
	c-0.32-0.31-0.78-0.46-1.38-0.46c-0.6,0.01-1.05,0.18-1.36,0.51C558.21,215.5,558.06,215.88,558.06,216.33z M558.25,211.27
	c0,0.51,0.16,0.9,0.48,1.17c0.32,0.27,0.71,0.41,1.19,0.41c0.46,0,0.85-0.14,1.16-0.41c0.32-0.27,0.48-0.66,0.48-1.17
	c0-0.45-0.13-0.82-0.39-1.1c-0.26-0.29-0.69-0.44-1.29-0.44c-0.52,0-0.92,0.15-1.21,0.46C558.38,210.47,558.25,210.84,558.25,211.27
	z"/>
<path class="st0" d="M457.66,252.27h-7.26v-1.63c1.33-0.94,2.47-1.94,3.43-3.01c0.96-1.08,1.45-2.05,1.45-2.91
	c0-0.57-0.17-1.01-0.49-1.33c-0.33-0.32-0.81-0.48-1.43-0.48c-0.94,0-1.84,0.35-2.7,1.05v-1.99c0.37-0.28,0.84-0.52,1.39-0.7
	c0.55-0.18,1.11-0.27,1.67-0.27c1.09,0,1.97,0.3,2.65,0.9c0.69,0.59,1.04,1.42,1.04,2.5c0,2.02-1.39,4.05-4.18,6.1h4.44V252.27z
	 M461.57,252.27h-2.18l4.44-9.37h-5.24v-1.77h7.4v1.77L461.57,252.27z"/>
<path class="st0" d="M434.86,286.16h-7.26v-1.63c1.33-0.94,2.47-1.94,3.43-3.01c0.96-1.08,1.45-2.05,1.45-2.91
	c0-0.57-0.16-1.01-0.49-1.33c-0.33-0.32-0.8-0.48-1.43-0.48c-0.94,0-1.84,0.35-2.7,1.05v-1.99c0.37-0.28,0.84-0.52,1.39-0.7
	s1.11-0.27,1.67-0.27c1.09,0,1.97,0.3,2.65,0.9c0.69,0.59,1.04,1.42,1.04,2.5c0,2.02-1.39,4.05-4.18,6.1h4.44V286.16z
	 M443.32,286.16h-7.26v-1.63c1.33-0.94,2.47-1.94,3.43-3.01c0.96-1.08,1.44-2.05,1.44-2.91c0-0.57-0.16-1.01-0.49-1.33
	c-0.33-0.32-0.8-0.48-1.43-0.48c-0.94,0-1.84,0.35-2.7,1.05v-1.99c0.37-0.28,0.84-0.52,1.39-0.7c0.55-0.18,1.11-0.27,1.67-0.27
	c1.09,0,1.97,0.3,2.65,0.9c0.69,0.59,1.04,1.42,1.04,2.5c0,2.02-1.39,4.05-4.18,6.1h4.44V286.16z"/>
<path class="st0" d="M389.55,317.02c0,0.95-0.37,1.72-1.11,2.31c-0.74,0.58-1.68,0.87-2.84,0.87s-2.09-0.28-2.8-0.83
	c-0.7-0.56-1.05-1.31-1.05-2.26c0-1.25,0.58-2.12,1.75-2.63c-1.05-0.53-1.58-1.35-1.58-2.47c0-1.02,0.35-1.81,1.05-2.38
	c0.71-0.58,1.59-0.87,2.64-0.87c1.09,0,1.98,0.27,2.69,0.82c0.7,0.54,1.05,1.35,1.05,2.43c0,1.08-0.51,1.88-1.53,2.41
	C388.98,314.88,389.55,315.74,389.55,317.02z M383.81,317.04c0,0.42,0.15,0.78,0.46,1.07c0.31,0.28,0.76,0.42,1.36,0.42
	c0.61,0,1.08-0.15,1.39-0.46c0.32-0.31,0.48-0.67,0.48-1.1c0-0.45-0.16-0.83-0.49-1.14c-0.32-0.31-0.78-0.46-1.38-0.46
	c-0.6,0.01-1.05,0.18-1.36,0.51C383.96,316.2,383.81,316.59,383.81,317.04z M383.99,311.98c0,0.51,0.16,0.9,0.48,1.17
	c0.32,0.27,0.71,0.41,1.19,0.41c0.46,0,0.85-0.14,1.16-0.41c0.32-0.27,0.48-0.66,0.48-1.17c0-0.45-0.13-0.82-0.39-1.1
	c-0.26-0.3-0.69-0.44-1.29-0.44c-0.52,0-0.92,0.15-1.21,0.46C384.13,311.18,383.99,311.54,383.99,311.98z"/>
<path class="st0" d="M385.24,350.34c0,1.12-0.34,2.05-1.02,2.79c-0.68,0.73-1.6,1.09-2.77,1.09c-1.33,0-2.33-0.48-3.03-1.45
	c-0.69-0.98-1.04-2.27-1.04-3.89c0-1.88,0.49-3.4,1.48-4.56c0.99-1.17,2.27-1.75,3.86-1.75c0.61,0,1.17,0.09,1.67,0.27v1.92
	c-0.44-0.23-0.95-0.34-1.53-0.34c-0.91,0-1.64,0.31-2.21,0.92c-0.57,0.61-0.93,1.4-1.09,2.36c0.68-0.62,1.48-0.93,2.41-0.93
	c0.99,0,1.77,0.32,2.36,0.97C384.94,348.38,385.24,349.25,385.24,350.34z M381.46,352.38c0.51,0,0.91-0.18,1.21-0.54
	c0.31-0.37,0.46-0.87,0.46-1.48c0-0.55-0.15-1-0.44-1.33c-0.29-0.33-0.7-0.49-1.21-0.49c-0.74,0-1.41,0.31-2.01,0.93
	c0.07,1,0.28,1.73,0.63,2.21C380.46,352.15,380.92,352.38,381.46,352.38z"/>
<path class="st0" d="M380.24,384.21c0,1.13-0.37,2.04-1.12,2.72c-0.75,0.68-1.8,1.02-3.14,1.02c-1.17,0-2.15-0.2-2.94-0.59v-1.96
	c0.75,0.45,1.62,0.68,2.6,0.68c1.67,0,2.5-0.64,2.5-1.92c0-0.5-0.18-0.89-0.54-1.17c-0.35-0.28-0.86-0.42-1.51-0.42
	c-0.86,0-1.71,0.19-2.53,0.58v-6.44h5.98v1.75h-3.98v2.45c0.33-0.07,0.65-0.1,0.95-0.1c1.19,0,2.11,0.31,2.75,0.92
	C379.91,382.33,380.24,383.16,380.24,384.21z"/>
<path class="st0" d="M415.84,421.73h-2.02v-8.91l-2.72,1.65v-2.12l2.94-1.73h1.8V421.73z M424.92,418.11c0,1.13-0.37,2.04-1.12,2.72
	c-0.75,0.68-1.8,1.02-3.14,1.02c-1.17,0-2.15-0.2-2.94-0.6v-1.96c0.75,0.45,1.62,0.68,2.6,0.68c1.67,0,2.5-0.64,2.5-1.92
	c0-0.5-0.18-0.89-0.54-1.17c-0.35-0.28-0.86-0.42-1.51-0.42c-0.86,0-1.71,0.19-2.53,0.58v-6.44h5.98v1.75h-3.98v2.45
	c0.33-0.07,0.65-0.1,0.95-0.1c1.19,0,2.11,0.31,2.75,0.92C424.6,416.22,424.92,417.05,424.92,418.11z"/>
<rect x="342.19" y="169.79" class="st1" width="250.93" height="19.38"/>
<rect x="342.19" y="203.71" class="st1" width="195.89" height="19.38"/>
<rect x="342.19" y="237.62" class="st1" width="95.15" height="19.38"/>
<rect x="342.19" y="271.54" class="st1" width="75.56" height="19.38"/>
<rect x="342.19" y="305.46" class="st1" width="30.78" height="19.38"/>
<rect x="342.19" y="339.38" class="st1" width="26.12" height="19.38"/>
<rect x="342.19" y="372.32" class="st1" width="23.32" height="19.38"/>
<rect x="342.19" y="406.24" class="st1" width="55.04" height="19.38"/>
</svg>
