<?xml version="1.0" encoding="utf-8"?>
<!-- Generator: Adobe Illustrator 27.1.1, SVG Export Plug-In . SVG Version: 6.00 Build 0)  -->
<svg version="1.1" id="Camada_1" xmlns="http://www.w3.org/2000/svg" xmlns:xlink="http://www.w3.org/1999/xlink" x="0px" y="0px"
	 viewBox="0 0 427.15 305.45" style="enable-background:new 0 0 427.15 305.45;" xml:space="preserve">
<style type="text/css">
	.st0{fill:#4493CD;}
	.st1{fill:#BDA93B;}
	.st2{fill:#C45791;}
	.st3{fill:#FFFFFF;}
	.st4{fill:#CFB632;}
	.st5{fill:#BFDFF7;}
	.st6{fill:#262626;}
	.st7{fill:#E5CF5F;}
	.st8{fill:#F1A5C9;}
	.st9{fill:#C8E6FA;}
	.st10{fill:#3E3E3E;}
	.st11{fill-rule:evenodd;clip-rule:evenodd;fill:#FAFAFA;}
	.st12{fill-rule:evenodd;clip-rule:evenodd;fill:#FFFFFF;}
	.st13{fill:#010202;}
	.st14{fill:#CCC8C9;}
	.st15{fill-rule:evenodd;clip-rule:evenodd;fill:#262626;}
	.st16{fill:#D9D9D9;}
	.st17{fill:none;stroke:#010202;}
</style>
<path class="st13" d="M12.89,30.73l-1.12-3.17H7.41l-1.12,3.17H4.32l4.25-11.47h2.08l4.24,11.47H12.89z M11.29,25.95l-1.09-3.13
	c-0.04-0.13-0.1-0.32-0.18-0.57c-0.08-0.25-0.16-0.5-0.23-0.76c-0.08-0.26-0.14-0.47-0.2-0.65c-0.05,0.21-0.12,0.45-0.2,0.72
	c-0.07,0.26-0.15,0.5-0.22,0.73c-0.07,0.23-0.12,0.41-0.16,0.53l-1.09,3.13H11.29z"/>
<path class="st13" d="M20.53,23.48h-2.1v7.25h-1.84v-7.25h-1.41V22.6l1.41-0.54v-0.6c0-0.74,0.11-1.32,0.34-1.75
	c0.23-0.44,0.57-0.75,1-0.93c0.44-0.2,0.96-0.29,1.56-0.29c0.4,0,0.76,0.03,1.09,0.1c0.33,0.06,0.6,0.13,0.83,0.22l-0.48,1.39
	c-0.18-0.06-0.38-0.11-0.59-0.16c-0.22-0.05-0.45-0.08-0.7-0.08c-0.42,0-0.72,0.13-0.92,0.39c-0.19,0.26-0.29,0.64-0.29,1.14v0.59
	h2.1V23.48z"/>
<path class="st13" d="M26.39,21.92c0.15,0,0.3,0,0.48,0.02c0.17,0.02,0.32,0.04,0.45,0.06l-0.17,1.72
	c-0.11-0.03-0.24-0.05-0.41-0.07c-0.16-0.02-0.3-0.02-0.42-0.02c-0.33,0-0.64,0.05-0.94,0.16c-0.3,0.11-0.56,0.27-0.79,0.49
	c-0.23,0.21-0.41,0.48-0.54,0.8c-0.13,0.32-0.2,0.7-0.2,1.13v4.52H22v-8.65h1.44l0.25,1.52h0.09c0.17-0.3,0.39-0.58,0.64-0.84
	c0.26-0.26,0.55-0.46,0.88-0.61C25.63,21.99,25.99,21.92,26.39,21.92z"/>
<path class="st13" d="M36.57,26.38c0,0.72-0.09,1.36-0.28,1.92s-0.46,1.03-0.82,1.41c-0.36,0.38-0.79,0.67-1.3,0.88
	c-0.51,0.2-1.08,0.29-1.71,0.29c-0.59,0-1.14-0.09-1.63-0.29c-0.49-0.21-0.92-0.5-1.29-0.88c-0.36-0.38-0.64-0.85-0.84-1.41
	c-0.2-0.56-0.3-1.2-0.3-1.92c0-0.95,0.16-1.76,0.49-2.42c0.33-0.66,0.81-1.17,1.42-1.52c0.61-0.35,1.35-0.52,2.2-0.52
	c0.8,0,1.5,0.17,2.11,0.52c0.61,0.35,1.09,0.86,1.43,1.52C36.39,24.63,36.57,25.44,36.57,26.38z M30.29,26.38
	c0,0.64,0.08,1.17,0.23,1.62c0.16,0.45,0.4,0.79,0.72,1.03c0.32,0.24,0.74,0.35,1.25,0.35s0.93-0.11,1.25-0.35s0.56-0.58,0.71-1.03
	c0.15-0.45,0.23-0.98,0.23-1.62c0-0.63-0.08-1.16-0.23-1.6s-0.39-0.78-0.71-1c-0.32-0.24-0.74-0.36-1.26-0.36
	c-0.76,0-1.32,0.26-1.66,0.77C30.47,24.7,30.29,25.43,30.29,26.38z"/>
<path class="st13" d="M37.93,27.21v-1.55h4.03v1.55H37.93z"/>
<path class="st13" d="M45.67,18.57v2.93c0,0.34-0.01,0.67-0.03,1c-0.02,0.32-0.03,0.58-0.05,0.76h0.08
	c0.23-0.38,0.56-0.69,0.98-0.95c0.42-0.26,0.96-0.39,1.62-0.39c1.03,0,1.85,0.38,2.48,1.14c0.62,0.75,0.94,1.86,0.94,3.33
	c0,0.98-0.14,1.8-0.43,2.47c-0.29,0.67-0.69,1.17-1.21,1.52c-0.52,0.34-1.12,0.5-1.82,0.5c-0.66,0-1.19-0.11-1.59-0.35
	c-0.4-0.25-0.72-0.53-0.95-0.86h-0.13l-0.34,1.06h-1.38V18.57H45.67z M47.78,23.42c-0.52,0-0.93,0.1-1.24,0.31
	c-0.3,0.21-0.52,0.52-0.66,0.94c-0.14,0.41-0.21,0.93-0.21,1.57v0.16c0,0.96,0.15,1.7,0.45,2.21c0.31,0.51,0.86,0.77,1.67,0.77
	c0.64,0,1.13-0.26,1.48-0.78c0.34-0.52,0.52-1.26,0.52-2.23c0-0.98-0.17-1.72-0.52-2.21C48.93,23.66,48.43,23.42,47.78,23.42z"/>
<path class="st13" d="M58.18,21.92c0.15,0,0.3,0,0.48,0.02c0.17,0.02,0.32,0.04,0.45,0.06l-0.17,1.72
	c-0.11-0.03-0.24-0.05-0.41-0.07c-0.16-0.02-0.3-0.02-0.42-0.02c-0.33,0-0.64,0.05-0.94,0.16c-0.3,0.11-0.56,0.27-0.79,0.49
	c-0.23,0.21-0.41,0.48-0.54,0.8s-0.2,0.7-0.2,1.13v4.52H53.8v-8.65h1.44l0.25,1.52h0.09c0.17-0.3,0.39-0.58,0.64-0.84
	s0.55-0.46,0.88-0.61C57.42,21.99,57.79,21.92,58.18,21.92z"/>
<path class="st13" d="M64.1,21.92c1.09,0,1.92,0.24,2.48,0.72c0.56,0.49,0.84,1.24,0.84,2.27v5.82h-1.3l-0.35-1.23H65.7
	c-0.24,0.31-0.5,0.57-0.76,0.78c-0.26,0.2-0.56,0.35-0.91,0.45c-0.34,0.1-0.75,0.15-1.24,0.15c-0.52,0-0.98-0.09-1.38-0.28
	c-0.41-0.19-0.73-0.48-0.96-0.87c-0.23-0.39-0.35-0.89-0.35-1.49c0-0.89,0.33-1.56,0.99-2c0.67-0.45,1.67-0.7,3.02-0.75l1.5-0.05
	v-0.45c0-0.6-0.14-1.03-0.42-1.28c-0.28-0.26-0.67-0.39-1.17-0.39c-0.43,0-0.85,0.06-1.26,0.19c-0.41,0.12-0.8,0.28-1.19,0.46
	l-0.59-1.3c0.42-0.22,0.9-0.4,1.44-0.54C62.95,21.99,63.51,21.92,64.1,21.92z M65.6,26.6l-1.12,0.03c-0.92,0.04-1.56,0.19-1.93,0.47
	S62,27.77,62,28.26c0,0.43,0.13,0.74,0.38,0.94c0.26,0.19,0.59,0.29,1.01,0.29c0.64,0,1.16-0.18,1.58-0.54
	c0.42-0.37,0.63-0.9,0.63-1.6V26.6z"/>
<path class="st13" d="M75.8,28.26c0,0.57-0.14,1.05-0.41,1.44c-0.28,0.39-0.68,0.68-1.21,0.89c-0.53,0.2-1.17,0.29-1.94,0.29
	c-0.6,0-1.12-0.04-1.56-0.13c-0.43-0.08-0.84-0.21-1.23-0.39v-1.58c0.41,0.19,0.87,0.35,1.38,0.5c0.52,0.14,1,0.21,1.46,0.21
	c0.6,0,1.04-0.1,1.3-0.28c0.27-0.2,0.4-0.45,0.4-0.77c0-0.19-0.05-0.35-0.16-0.5c-0.1-0.15-0.3-0.31-0.59-0.46
	c-0.29-0.16-0.71-0.36-1.27-0.58c-0.55-0.22-1.01-0.44-1.38-0.66c-0.38-0.21-0.66-0.48-0.85-0.78c-0.19-0.32-0.29-0.72-0.29-1.2
	c0-0.77,0.3-1.35,0.91-1.74c0.61-0.4,1.41-0.6,2.41-0.6c0.53,0,1.03,0.05,1.5,0.16c0.47,0.1,0.94,0.26,1.39,0.46l-0.58,1.38
	c-0.39-0.17-0.78-0.31-1.18-0.42c-0.39-0.11-0.79-0.17-1.2-0.17c-0.47,0-0.84,0.07-1.09,0.22c-0.24,0.14-0.37,0.35-0.37,0.62
	c0,0.21,0.06,0.38,0.18,0.52c0.12,0.14,0.33,0.28,0.62,0.42c0.3,0.14,0.71,0.32,1.23,0.52c0.52,0.2,0.96,0.41,1.34,0.63
	c0.38,0.21,0.67,0.48,0.88,0.79C75.7,27.36,75.8,27.77,75.8,28.26z"/>
<path class="st13" d="M79.62,22.08v8.65h-1.84v-8.65H79.62z M78.71,18.77c0.28,0,0.52,0.07,0.73,0.22c0.21,0.16,0.31,0.42,0.31,0.79
	c0,0.36-0.1,0.62-0.31,0.78c-0.2,0.15-0.45,0.22-0.73,0.22c-0.29,0-0.54-0.07-0.74-0.22c-0.2-0.16-0.3-0.42-0.3-0.78
	c0-0.37,0.1-0.63,0.3-0.79C78.18,18.84,78.42,18.77,78.71,18.77z"/>
<path class="st13" d="M84.1,30.73h-1.84V18.57h1.84V30.73z"/>
<path class="st13" d="M90.17,21.92c0.77,0,1.43,0.15,1.98,0.47c0.55,0.32,0.98,0.77,1.27,1.35c0.3,0.59,0.45,1.29,0.45,2.1v0.98
	H88.1c0.02,0.84,0.24,1.49,0.67,1.94c0.43,0.45,1.04,0.68,1.81,0.68c0.55,0,1.05-0.05,1.48-0.16c0.44-0.11,0.9-0.26,1.37-0.47v1.49
	c-0.43,0.2-0.87,0.35-1.32,0.44c-0.45,0.1-0.98,0.14-1.61,0.14c-0.85,0-1.6-0.16-2.24-0.49c-0.64-0.33-1.14-0.83-1.51-1.48
	c-0.36-0.66-0.54-1.47-0.54-2.45c0-0.97,0.16-1.79,0.49-2.47c0.33-0.67,0.79-1.19,1.38-1.54C88.68,22.09,89.38,21.92,90.17,21.92z
	 M90.17,23.3c-0.58,0-1.05,0.19-1.41,0.56c-0.35,0.38-0.56,0.93-0.62,1.65h3.94c-0.01-0.43-0.08-0.82-0.22-1.15
	c-0.14-0.33-0.34-0.59-0.62-0.78C90.95,23.39,90.6,23.3,90.17,23.3z"/>
<path class="st13" d="M97.78,22.08v8.65h-1.84v-8.65H97.78z M96.87,18.77c0.28,0,0.52,0.07,0.73,0.22c0.21,0.16,0.31,0.42,0.31,0.79
	c0,0.36-0.1,0.62-0.31,0.78c-0.2,0.15-0.45,0.22-0.73,0.22c-0.29,0-0.54-0.07-0.74-0.22c-0.2-0.16-0.3-0.42-0.3-0.78
	c0-0.37,0.1-0.63,0.3-0.79C96.33,18.84,96.58,18.77,96.87,18.77z"/>
<path class="st13" d="M104.79,21.92c0.15,0,0.3,0,0.48,0.02c0.17,0.02,0.32,0.04,0.44,0.06l-0.17,1.72
	c-0.11-0.03-0.25-0.05-0.41-0.07c-0.16-0.02-0.3-0.02-0.42-0.02c-0.33,0-0.64,0.05-0.94,0.16c-0.3,0.11-0.56,0.27-0.79,0.49
	c-0.23,0.21-0.41,0.48-0.54,0.8c-0.13,0.32-0.2,0.7-0.2,1.13v4.52h-1.84v-8.65h1.44l0.25,1.52h0.09c0.17-0.3,0.39-0.58,0.64-0.84
	c0.26-0.26,0.55-0.46,0.87-0.61C104.03,21.99,104.4,21.92,104.79,21.92z"/>
<path class="st13" d="M110.71,21.92c1.09,0,1.92,0.24,2.48,0.72c0.56,0.49,0.84,1.24,0.84,2.27v5.82h-1.31l-0.35-1.23h-0.06
	c-0.25,0.31-0.5,0.57-0.76,0.78c-0.26,0.2-0.56,0.35-0.91,0.45c-0.34,0.1-0.75,0.15-1.24,0.15c-0.52,0-0.98-0.09-1.38-0.28
	c-0.41-0.19-0.73-0.48-0.96-0.87c-0.24-0.39-0.35-0.89-0.35-1.49c0-0.89,0.33-1.56,0.99-2c0.67-0.45,1.67-0.7,3.02-0.75l1.5-0.05
	v-0.45c0-0.6-0.14-1.03-0.42-1.28c-0.28-0.26-0.67-0.39-1.17-0.39c-0.43,0-0.85,0.06-1.26,0.19c-0.41,0.12-0.8,0.28-1.19,0.46
	l-0.59-1.3c0.42-0.22,0.9-0.4,1.44-0.54C109.56,21.99,110.12,21.92,110.71,21.92z M112.21,26.6l-1.12,0.03
	c-0.92,0.04-1.56,0.19-1.93,0.47c-0.37,0.28-0.55,0.67-0.55,1.16c0,0.43,0.13,0.74,0.38,0.94c0.26,0.19,0.59,0.29,1.01,0.29
	c0.64,0,1.16-0.18,1.58-0.54c0.42-0.37,0.63-0.9,0.63-1.6V26.6z"/>
<path class="st13" d="M42.05,65.7h-6.47V54.28h6.47v1.58h-4.59v3.1h4.3v1.57h-4.3v3.59h4.59V65.7z"/>
<path class="st13" d="M46.31,65.7l-3.29-8.65h1.95l1.78,5.08c0.11,0.33,0.22,0.67,0.31,1.05c0.09,0.37,0.16,0.69,0.2,0.94h0.06
	c0.04-0.26,0.11-0.58,0.21-0.95c0.1-0.37,0.21-0.72,0.32-1.04l1.78-5.08h1.94l-3.29,8.65H46.31z"/>
<path class="st13" d="M56.27,56.89c1.09,0,1.92,0.24,2.48,0.73c0.56,0.48,0.84,1.24,0.84,2.26v5.82h-1.3l-0.35-1.22h-0.06
	c-0.24,0.31-0.5,0.57-0.76,0.77c-0.26,0.2-0.56,0.35-0.91,0.45c-0.34,0.11-0.75,0.16-1.24,0.16c-0.52,0-0.98-0.09-1.38-0.28
	c-0.41-0.19-0.73-0.49-0.96-0.88c-0.23-0.39-0.35-0.88-0.35-1.48c0-0.89,0.33-1.56,0.99-2.01c0.67-0.45,1.67-0.69,3.02-0.74
	l1.5-0.06v-0.45c0-0.6-0.14-1.03-0.42-1.28c-0.28-0.26-0.67-0.38-1.17-0.38c-0.43,0-0.85,0.06-1.26,0.18
	c-0.41,0.13-0.8,0.28-1.19,0.47l-0.59-1.3c0.42-0.23,0.9-0.41,1.44-0.55C55.12,56.96,55.69,56.89,56.27,56.89z M57.77,61.57
	l-1.12,0.04c-0.92,0.03-1.56,0.19-1.93,0.47s-0.55,0.66-0.55,1.15c0,0.43,0.13,0.74,0.38,0.94c0.26,0.19,0.59,0.29,1.01,0.29
	c0.64,0,1.16-0.18,1.58-0.54c0.42-0.36,0.63-0.9,0.63-1.6V61.57z"/>
<path class="st13" d="M66.67,56.89c0.97,0,1.73,0.25,2.27,0.76c0.55,0.5,0.82,1.3,0.82,2.41v5.64h-1.84v-5.29
	c0-0.68-0.14-1.18-0.41-1.51c-0.28-0.34-0.7-0.51-1.28-0.51c-0.84,0-1.42,0.26-1.75,0.77C64.16,59.68,64,60.43,64,61.41v4.29h-1.84
	v-8.65h1.43l0.26,1.18h0.1c0.19-0.31,0.42-0.55,0.7-0.75c0.28-0.19,0.59-0.34,0.94-0.44C65.93,56.94,66.29,56.89,66.67,56.89z"/>
<path class="st13" d="M74.8,69.55c-1.17,0-2.07-0.21-2.7-0.64c-0.62-0.42-0.94-1.01-0.94-1.77c0-0.53,0.17-0.98,0.5-1.35
	c0.33-0.37,0.81-0.62,1.43-0.76c-0.23-0.1-0.44-0.26-0.61-0.48c-0.17-0.23-0.25-0.47-0.25-0.75c0-0.32,0.09-0.59,0.27-0.82
	s0.46-0.45,0.82-0.67c-0.45-0.19-0.82-0.5-1.09-0.94c-0.27-0.43-0.41-0.95-0.41-1.53c0-0.63,0.13-1.16,0.4-1.6
	c0.27-0.44,0.65-0.78,1.16-1.01c0.51-0.23,1.13-0.35,1.85-0.35c0.16,0,0.33,0.01,0.51,0.03c0.19,0.02,0.36,0.04,0.52,0.07
	c0.16,0.02,0.28,0.04,0.37,0.07h2.99v1.02l-1.47,0.27c0.14,0.2,0.25,0.43,0.34,0.68c0.08,0.25,0.12,0.53,0.12,0.82
	c0,0.9-0.31,1.61-0.93,2.12c-0.61,0.51-1.46,0.77-2.55,0.77c-0.26-0.01-0.51-0.03-0.76-0.07c-0.19,0.12-0.33,0.25-0.43,0.39
	c-0.1,0.13-0.15,0.29-0.15,0.46c0,0.14,0.05,0.25,0.15,0.34c0.1,0.08,0.24,0.15,0.44,0.19c0.2,0.04,0.44,0.06,0.72,0.06h1.49
	c0.95,0,1.67,0.2,2.17,0.6c0.5,0.4,0.75,0.99,0.75,1.77c0,0.98-0.41,1.74-1.22,2.27C77.5,69.28,76.33,69.55,74.8,69.55z
	 M74.87,68.26c0.64,0,1.18-0.06,1.62-0.19c0.44-0.12,0.77-0.3,0.99-0.54c0.22-0.23,0.34-0.5,0.34-0.82c0-0.28-0.07-0.5-0.21-0.65
	c-0.14-0.15-0.35-0.25-0.63-0.31c-0.28-0.06-0.63-0.09-1.05-0.09h-1.36c-0.34,0-0.64,0.06-0.9,0.16c-0.26,0.11-0.46,0.27-0.61,0.47
	c-0.14,0.2-0.21,0.45-0.21,0.73c0,0.4,0.17,0.7,0.52,0.92C73.73,68.15,74.23,68.26,74.87,68.26z M75.23,61.52
	c0.54,0,0.93-0.14,1.2-0.43c0.26-0.3,0.39-0.72,0.39-1.25c0-0.59-0.14-1.02-0.41-1.32c-0.27-0.29-0.66-0.43-1.19-0.43
	c-0.52,0-0.91,0.14-1.18,0.44c-0.27,0.3-0.4,0.74-0.4,1.32c0,0.53,0.13,0.94,0.4,1.24C74.31,61.38,74.71,61.52,75.23,61.52z"/>
<path class="st13" d="M84.65,56.89c0.77,0,1.43,0.16,1.98,0.48c0.55,0.31,0.98,0.77,1.27,1.35c0.3,0.58,0.45,1.28,0.45,2.09v0.99
	h-5.77c0.02,0.84,0.24,1.48,0.67,1.93c0.43,0.46,1.04,0.68,1.81,0.68c0.55,0,1.05-0.05,1.48-0.15c0.44-0.11,0.9-0.27,1.37-0.48v1.49
	c-0.43,0.21-0.87,0.35-1.32,0.45c-0.45,0.09-0.98,0.14-1.61,0.14c-0.85,0-1.6-0.16-2.24-0.49c-0.64-0.34-1.14-0.83-1.51-1.49
	c-0.36-0.65-0.54-1.47-0.54-2.44c0-0.97,0.16-1.79,0.49-2.47c0.33-0.68,0.79-1.19,1.38-1.55C83.17,57.07,83.86,56.89,84.65,56.89z
	 M84.65,58.27c-0.58,0-1.05,0.19-1.41,0.57c-0.35,0.37-0.56,0.92-0.62,1.64h3.94c-0.01-0.43-0.08-0.81-0.22-1.14
	C86.2,59,86,58.74,85.71,58.55C85.44,58.37,85.08,58.27,84.65,58.27z M87.21,53.45v0.15c-0.12,0.15-0.29,0.33-0.51,0.55
	c-0.21,0.21-0.45,0.43-0.7,0.66s-0.5,0.45-0.74,0.67c-0.24,0.2-0.47,0.38-0.66,0.53h-1.23V55.8c0.17-0.19,0.36-0.43,0.57-0.71
	c0.21-0.27,0.42-0.56,0.62-0.85c0.21-0.29,0.38-0.56,0.52-0.79H87.21z"/>
<path class="st13" d="M92.27,65.7h-1.84V53.55h1.84V65.7z"/>
<path class="st13" d="M96.73,57.05v8.65h-1.84v-8.65H96.73z M95.82,53.74c0.28,0,0.52,0.08,0.73,0.23c0.21,0.15,0.31,0.41,0.31,0.78
	c0,0.36-0.1,0.62-0.31,0.78c-0.2,0.15-0.45,0.23-0.73,0.23c-0.29,0-0.54-0.08-0.74-0.23c-0.2-0.16-0.3-0.42-0.3-0.78
	c0-0.37,0.1-0.63,0.3-0.78C95.29,53.82,95.53,53.74,95.82,53.74z"/>
<path class="st13" d="M102.85,65.86c-0.82,0-1.53-0.16-2.12-0.48c-0.6-0.31-1.06-0.8-1.38-1.46c-0.32-0.65-0.48-1.49-0.48-2.5
	c0-1.05,0.18-1.91,0.53-2.58c0.35-0.66,0.84-1.16,1.47-1.47c0.63-0.32,1.35-0.48,2.16-0.48c0.52,0,0.98,0.05,1.4,0.16
	c0.42,0.1,0.78,0.22,1.07,0.36l-0.55,1.47c-0.32-0.13-0.64-0.24-0.98-0.33c-0.33-0.08-0.65-0.13-0.96-0.13
	c-0.51,0-0.93,0.11-1.27,0.34c-0.33,0.22-0.58,0.56-0.75,1c-0.16,0.44-0.24,0.99-0.24,1.65c0,0.63,0.08,1.17,0.25,1.61
	c0.17,0.43,0.41,0.76,0.74,0.98c0.33,0.22,0.73,0.33,1.21,0.33c0.47,0,0.9-0.06,1.27-0.17c0.38-0.12,0.73-0.27,1.06-0.45v1.59
	c-0.33,0.19-0.68,0.33-1.05,0.42C103.86,65.81,103.39,65.86,102.85,65.86z"/>
<path class="st13" d="M110.71,56.89c1.09,0,1.92,0.24,2.48,0.73c0.56,0.48,0.84,1.24,0.84,2.26v5.82h-1.3l-0.35-1.22h-0.06
	c-0.25,0.31-0.5,0.57-0.76,0.77c-0.26,0.2-0.56,0.35-0.91,0.45c-0.34,0.11-0.75,0.16-1.24,0.16c-0.51,0-0.98-0.09-1.38-0.28
	c-0.41-0.19-0.73-0.49-0.96-0.88c-0.24-0.39-0.35-0.88-0.35-1.48c0-0.89,0.33-1.56,0.99-2.01c0.67-0.45,1.67-0.69,3.02-0.74
	l1.5-0.06v-0.45c0-0.6-0.14-1.03-0.42-1.28c-0.28-0.26-0.67-0.38-1.17-0.38c-0.43,0-0.85,0.06-1.26,0.18
	c-0.41,0.13-0.8,0.28-1.19,0.47l-0.59-1.3c0.42-0.23,0.9-0.41,1.44-0.55C109.56,56.96,110.12,56.89,110.71,56.89z M112.21,61.57
	l-1.12,0.04c-0.92,0.03-1.56,0.19-1.93,0.47s-0.55,0.66-0.55,1.15c0,0.43,0.13,0.74,0.38,0.94c0.26,0.19,0.59,0.29,1.01,0.29
	c0.64,0,1.16-0.18,1.58-0.54c0.42-0.36,0.63-0.9,0.63-1.6V61.57z"/>
<path class="st13" d="M65.1,100.68h-6.47V89.26h6.47v1.57H60.5v3.11h4.3v1.57h-4.3v3.58h4.59V100.68z"/>
<path class="st13" d="M73.19,98.21c0,0.57-0.14,1.05-0.41,1.44c-0.28,0.39-0.68,0.68-1.21,0.89c-0.53,0.19-1.17,0.29-1.94,0.29
	c-0.6,0-1.12-0.04-1.56-0.13c-0.43-0.08-0.84-0.21-1.23-0.39v-1.59c0.41,0.2,0.87,0.36,1.38,0.5c0.52,0.15,1,0.22,1.46,0.22
	c0.6,0,1.04-0.1,1.3-0.29c0.27-0.19,0.4-0.44,0.4-0.76c0-0.19-0.05-0.36-0.16-0.5c-0.1-0.15-0.3-0.31-0.59-0.46
	c-0.29-0.16-0.71-0.36-1.27-0.58c-0.55-0.22-1.01-0.44-1.38-0.66c-0.38-0.22-0.66-0.48-0.85-0.79c-0.19-0.31-0.29-0.71-0.29-1.19
	c0-0.77,0.3-1.35,0.91-1.74c0.61-0.4,1.41-0.6,2.41-0.6c0.53,0,1.03,0.05,1.5,0.16c0.47,0.1,0.94,0.26,1.39,0.46l-0.58,1.38
	c-0.39-0.17-0.78-0.31-1.18-0.42c-0.39-0.11-0.79-0.17-1.2-0.17c-0.47,0-0.84,0.07-1.09,0.22c-0.24,0.14-0.37,0.35-0.37,0.62
	c0,0.21,0.06,0.38,0.18,0.52c0.12,0.14,0.33,0.28,0.62,0.42c0.3,0.14,0.71,0.32,1.23,0.52c0.52,0.2,0.96,0.41,1.34,0.63
	c0.38,0.21,0.67,0.48,0.88,0.79C73.09,97.31,73.19,97.71,73.19,98.21z"/>
<path class="st13" d="M79.61,91.87c1.03,0,1.85,0.37,2.47,1.12c0.62,0.75,0.94,1.86,0.94,3.34c0,0.98-0.15,1.81-0.44,2.48
	c-0.29,0.67-0.69,1.17-1.21,1.52c-0.52,0.33-1.12,0.5-1.8,0.5c-0.44,0-0.82-0.05-1.14-0.17c-0.32-0.11-0.6-0.26-0.83-0.44
	c-0.23-0.19-0.42-0.39-0.58-0.61h-0.11c0.03,0.21,0.05,0.44,0.07,0.69c0.03,0.25,0.04,0.48,0.04,0.69v3.52h-1.84V92.03h1.5
	l0.26,1.19h0.09c0.16-0.24,0.36-0.47,0.59-0.68c0.23-0.2,0.52-0.37,0.84-0.49C78.78,91.93,79.17,91.87,79.61,91.87z M79.12,93.37
	c-0.51,0-0.91,0.1-1.22,0.3c-0.3,0.2-0.52,0.5-0.66,0.9c-0.14,0.4-0.21,0.9-0.22,1.51v0.25c0,0.64,0.07,1.19,0.2,1.64
	c0.14,0.44,0.36,0.78,0.66,1.01c0.31,0.23,0.73,0.35,1.27,0.35c0.45,0,0.82-0.13,1.11-0.37c0.3-0.25,0.52-0.59,0.66-1.05
	c0.15-0.45,0.22-0.98,0.22-1.6c0-0.93-0.17-1.66-0.5-2.17C80.31,93.62,79.8,93.37,79.12,93.37z"/>
<path class="st13" d="M86.98,100.68h-1.84v-8.65h1.84V100.68z M88.73,88.42v0.16c-0.12,0.15-0.29,0.33-0.51,0.54
	c-0.21,0.21-0.45,0.43-0.7,0.67c-0.25,0.23-0.5,0.45-0.74,0.66c-0.24,0.21-0.47,0.39-0.66,0.53h-1.23v-0.2
	c0.17-0.2,0.36-0.44,0.57-0.71c0.21-0.28,0.42-0.56,0.62-0.85c0.21-0.29,0.38-0.56,0.52-0.8H88.73z"/>
<path class="st13" d="M94,91.87c0.15,0,0.3,0,0.48,0.02c0.17,0.01,0.32,0.04,0.45,0.06l-0.17,1.72c-0.11-0.03-0.24-0.05-0.41-0.07
	c-0.16-0.02-0.3-0.02-0.42-0.02c-0.33,0-0.64,0.05-0.94,0.16c-0.3,0.1-0.56,0.27-0.79,0.48c-0.23,0.22-0.41,0.49-0.54,0.81
	c-0.13,0.32-0.2,0.7-0.2,1.12v4.53h-1.84v-8.65h1.44l0.25,1.52h0.09c0.17-0.3,0.39-0.59,0.64-0.84c0.26-0.26,0.55-0.46,0.88-0.61
	C93.24,91.94,93.6,91.87,94,91.87z"/>
<path class="st13" d="M98.36,92.03v8.65h-1.84v-8.65H98.36z M97.45,88.72c0.28,0,0.52,0.07,0.73,0.22c0.21,0.15,0.31,0.41,0.31,0.78
	c0,0.37-0.1,0.63-0.31,0.79c-0.2,0.15-0.45,0.22-0.73,0.22c-0.29,0-0.54-0.07-0.74-0.22c-0.2-0.16-0.3-0.42-0.3-0.79
	c0-0.37,0.1-0.63,0.3-0.78C96.91,88.79,97.16,88.72,97.45,88.72z"/>
<path class="st13" d="M104.21,99.35c0.24,0,0.48-0.02,0.71-0.06c0.23-0.05,0.45-0.1,0.64-0.17v1.39c-0.2,0.09-0.47,0.17-0.79,0.23
	c-0.32,0.06-0.66,0.09-1.01,0.09c-0.49,0-0.93-0.08-1.32-0.24c-0.39-0.16-0.7-0.45-0.93-0.85c-0.23-0.4-0.34-0.96-0.34-1.66v-4.65
	h-1.18v-0.82l1.27-0.65l0.6-1.85h1.16v1.92h2.48v1.4h-2.48v4.62c0,0.44,0.11,0.77,0.33,0.98C103.56,99.24,103.85,99.35,104.21,99.35
	z"/>
<path class="st13" d="M110.71,91.87c1.09,0,1.92,0.24,2.48,0.72c0.56,0.49,0.84,1.24,0.84,2.27v5.82h-1.3l-0.35-1.23h-0.06
	c-0.25,0.31-0.5,0.57-0.76,0.77c-0.26,0.21-0.56,0.36-0.91,0.46c-0.34,0.1-0.75,0.15-1.24,0.15c-0.51,0-0.98-0.09-1.38-0.28
	c-0.41-0.19-0.73-0.48-0.96-0.87c-0.24-0.39-0.35-0.89-0.35-1.49c0-0.89,0.33-1.56,0.99-2c0.67-0.45,1.67-0.7,3.02-0.75l1.5-0.05
	v-0.45c0-0.6-0.14-1.03-0.42-1.29c-0.28-0.25-0.67-0.38-1.17-0.38c-0.43,0-0.85,0.06-1.26,0.19c-0.41,0.12-0.8,0.28-1.19,0.46
	l-0.59-1.3c0.42-0.22,0.9-0.4,1.44-0.54C109.56,91.94,110.12,91.87,110.71,91.87z M112.21,96.54l-1.12,0.04
	c-0.92,0.04-1.56,0.19-1.93,0.47s-0.55,0.67-0.55,1.16c0,0.43,0.13,0.74,0.38,0.94c0.26,0.19,0.59,0.29,1.01,0.29
	c0.64,0,1.16-0.18,1.58-0.54c0.42-0.37,0.63-0.9,0.63-1.61V96.54z"/>
<path class="st13" d="M59.96,125.66c-0.55,0-1.04,0.1-1.47,0.3c-0.43,0.19-0.79,0.48-1.09,0.86c-0.3,0.37-0.52,0.82-0.68,1.35
	c-0.16,0.52-0.23,1.12-0.23,1.78c0,0.88,0.12,1.65,0.38,2.29c0.25,0.63,0.63,1.12,1.14,1.47c0.51,0.34,1.16,0.5,1.94,0.5
	c0.48,0,0.96-0.04,1.41-0.14c0.46-0.09,0.93-0.22,1.42-0.38v1.6c-0.46,0.18-0.93,0.31-1.41,0.39c-0.47,0.09-1.02,0.13-1.64,0.13
	c-1.17,0-2.14-0.24-2.91-0.73c-0.77-0.48-1.34-1.16-1.72-2.04c-0.38-0.89-0.56-1.92-0.56-3.1c0-0.86,0.12-1.65,0.36-2.37
	c0.24-0.72,0.59-1.34,1.05-1.86c0.46-0.53,1.02-0.93,1.7-1.21c0.68-0.29,1.45-0.43,2.32-0.43c0.57,0,1.14,0.06,1.69,0.19
	c0.56,0.13,1.07,0.31,1.55,0.54l-0.66,1.55c-0.4-0.19-0.81-0.35-1.24-0.49C60.88,125.73,60.43,125.66,59.96,125.66z"/>
<path class="st13" d="M68.44,126.84c1.09,0,1.92,0.24,2.48,0.73c0.56,0.48,0.84,1.24,0.84,2.26v5.82h-1.3l-0.35-1.22h-0.06
	c-0.24,0.31-0.5,0.57-0.76,0.77c-0.26,0.2-0.56,0.35-0.91,0.45c-0.34,0.11-0.75,0.16-1.24,0.16c-0.52,0-0.98-0.1-1.38-0.28
	c-0.41-0.2-0.73-0.49-0.96-0.88c-0.23-0.39-0.35-0.88-0.35-1.48c0-0.89,0.33-1.56,0.99-2.01c0.67-0.45,1.67-0.7,3.02-0.74l1.5-0.06
	v-0.45c0-0.6-0.14-1.03-0.42-1.28c-0.28-0.26-0.67-0.38-1.17-0.38c-0.43,0-0.85,0.06-1.26,0.18c-0.41,0.13-0.8,0.28-1.19,0.46
	l-0.59-1.29c0.42-0.23,0.9-0.41,1.44-0.55C67.3,126.91,67.86,126.84,68.44,126.84z M69.94,131.52l-1.12,0.04
	c-0.92,0.03-1.56,0.19-1.93,0.47c-0.37,0.28-0.55,0.66-0.55,1.15c0,0.43,0.13,0.74,0.38,0.94c0.26,0.19,0.59,0.29,1.01,0.29
	c0.64,0,1.16-0.18,1.58-0.54c0.42-0.36,0.63-0.9,0.63-1.6V131.52z"/>
<path class="st13" d="M77.55,134.32c0.24,0,0.48-0.02,0.71-0.06c0.23-0.05,0.45-0.1,0.64-0.16v1.39c-0.2,0.09-0.47,0.16-0.79,0.22
	c-0.32,0.07-0.66,0.1-1.01,0.1c-0.49,0-0.93-0.08-1.32-0.24c-0.39-0.17-0.7-0.45-0.93-0.86c-0.23-0.4-0.34-0.95-0.34-1.66v-4.65
	h-1.18v-0.82l1.27-0.65l0.6-1.85h1.16V127h2.48v1.4h-2.48v4.63c0,0.43,0.11,0.76,0.33,0.97C76.9,134.22,77.19,134.32,77.55,134.32z"
	/>
<path class="st13" d="M88.32,131.31c0,0.72-0.09,1.36-0.28,1.91c-0.19,0.56-0.46,1.03-0.82,1.42c-0.36,0.38-0.79,0.67-1.3,0.87
	c-0.51,0.2-1.08,0.3-1.71,0.3c-0.59,0-1.14-0.1-1.63-0.3s-0.92-0.49-1.29-0.87c-0.36-0.39-0.64-0.86-0.84-1.42
	c-0.2-0.55-0.3-1.19-0.3-1.91c0-0.95,0.16-1.76,0.49-2.42c0.33-0.67,0.81-1.18,1.42-1.53c0.61-0.35,1.35-0.52,2.2-0.52
	c0.8,0,1.5,0.17,2.11,0.52c0.61,0.35,1.09,0.86,1.43,1.53C88.14,129.55,88.32,130.36,88.32,131.31z M82.04,131.31
	c0,0.63,0.08,1.17,0.23,1.62c0.16,0.44,0.4,0.79,0.72,1.03c0.32,0.23,0.74,0.35,1.25,0.35c0.51,0,0.93-0.12,1.25-0.35
	c0.32-0.24,0.56-0.59,0.71-1.03c0.15-0.45,0.23-0.99,0.23-1.62c0-0.63-0.08-1.17-0.23-1.6c-0.15-0.45-0.39-0.78-0.71-1.01
	c-0.32-0.24-0.74-0.35-1.26-0.35c-0.76,0-1.32,0.25-1.66,0.76C82.22,129.62,82.04,130.36,82.04,131.31z M86.91,123.39v0.16
	c-0.12,0.15-0.29,0.33-0.51,0.55c-0.21,0.21-0.45,0.43-0.7,0.66s-0.5,0.45-0.74,0.67c-0.24,0.2-0.47,0.38-0.66,0.53h-1.23v-0.21
	c0.17-0.19,0.36-0.43,0.57-0.71c0.21-0.27,0.42-0.56,0.62-0.85c0.21-0.29,0.38-0.56,0.52-0.8H86.91z"/>
<path class="st13" d="M92.27,135.65h-1.84V123.5h1.84V135.65z"/>
<path class="st13" d="M96.73,127v8.65h-1.84V127H96.73z M95.82,123.69c0.28,0,0.52,0.08,0.73,0.23c0.21,0.15,0.31,0.41,0.31,0.78
	c0,0.36-0.1,0.62-0.31,0.78c-0.2,0.15-0.45,0.23-0.73,0.23c-0.29,0-0.54-0.08-0.74-0.23c-0.2-0.16-0.3-0.42-0.3-0.78
	c0-0.37,0.1-0.63,0.3-0.78C95.29,123.77,95.53,123.69,95.82,123.69z"/>
<path class="st13" d="M102.85,135.81c-0.82,0-1.53-0.16-2.12-0.48c-0.6-0.32-1.06-0.8-1.38-1.46c-0.32-0.66-0.48-1.49-0.48-2.5
	c0-1.05,0.18-1.91,0.53-2.58c0.35-0.66,0.84-1.16,1.47-1.47c0.63-0.32,1.35-0.48,2.16-0.48c0.52,0,0.98,0.05,1.4,0.16
	c0.42,0.09,0.78,0.22,1.07,0.36l-0.55,1.47c-0.32-0.13-0.64-0.24-0.98-0.33c-0.33-0.08-0.65-0.13-0.96-0.13
	c-0.51,0-0.93,0.11-1.27,0.34c-0.33,0.22-0.58,0.55-0.75,1c-0.16,0.44-0.24,0.99-0.24,1.65c0,0.63,0.08,1.17,0.25,1.6
	c0.17,0.44,0.41,0.77,0.74,0.99c0.33,0.22,0.73,0.33,1.21,0.33c0.47,0,0.9-0.06,1.27-0.17c0.38-0.12,0.73-0.27,1.06-0.45v1.59
	c-0.33,0.19-0.68,0.33-1.05,0.42C103.86,135.76,103.39,135.81,102.85,135.81z"/>
<path class="st13" d="M110.71,126.84c1.09,0,1.92,0.24,2.48,0.73c0.56,0.48,0.84,1.24,0.84,2.26v5.82h-1.3l-0.35-1.22h-0.06
	c-0.25,0.31-0.5,0.57-0.76,0.77c-0.26,0.2-0.56,0.35-0.91,0.45c-0.34,0.11-0.75,0.16-1.24,0.16c-0.51,0-0.98-0.1-1.38-0.28
	c-0.41-0.2-0.73-0.49-0.96-0.88c-0.24-0.39-0.35-0.88-0.35-1.48c0-0.89,0.33-1.56,0.99-2.01c0.67-0.45,1.67-0.7,3.02-0.74l1.5-0.06
	v-0.45c0-0.6-0.14-1.03-0.42-1.28c-0.28-0.26-0.67-0.38-1.17-0.38c-0.43,0-0.85,0.06-1.26,0.18c-0.41,0.13-0.8,0.28-1.19,0.46
	l-0.59-1.29c0.42-0.23,0.9-0.41,1.44-0.55C109.56,126.91,110.12,126.84,110.71,126.84z M112.21,131.52l-1.12,0.04
	c-0.92,0.03-1.56,0.19-1.93,0.47s-0.55,0.66-0.55,1.15c0,0.43,0.13,0.74,0.38,0.94c0.26,0.19,0.59,0.29,1.01,0.29
	c0.64,0,1.16-0.18,1.58-0.54c0.42-0.36,0.63-0.9,0.63-1.6V131.52z"/>
<path class="st13" d="M79.77,170.63l-1.12-3.17h-4.37l-1.12,3.17h-1.98l4.25-11.47h2.08l4.24,11.47H79.77z M78.17,165.85l-1.09-3.13
	c-0.04-0.13-0.1-0.32-0.18-0.57s-0.16-0.5-0.23-0.76c-0.08-0.26-0.14-0.48-0.2-0.65c-0.05,0.21-0.12,0.45-0.2,0.72
	c-0.07,0.26-0.15,0.5-0.22,0.73c-0.07,0.23-0.12,0.41-0.16,0.53l-1.09,3.13H78.17z"/>
<path class="st13" d="M86.3,169.3c0.24,0,0.48-0.02,0.71-0.06c0.23-0.05,0.45-0.11,0.64-0.17v1.39c-0.2,0.09-0.47,0.17-0.79,0.23
	c-0.32,0.06-0.66,0.09-1.01,0.09c-0.49,0-0.93-0.08-1.32-0.24c-0.39-0.17-0.7-0.45-0.93-0.85c-0.23-0.4-0.34-0.96-0.34-1.66v-4.65
	h-1.18v-0.82l1.27-0.65l0.6-1.85h1.16v1.92h2.48v1.4h-2.48V168c0,0.44,0.11,0.76,0.33,0.98C85.65,169.19,85.94,169.3,86.3,169.3z"/>
<path class="st13" d="M92.86,161.81c0.77,0,1.43,0.16,1.98,0.48s0.98,0.77,1.27,1.35c0.3,0.59,0.45,1.28,0.45,2.1v0.98h-5.77
	c0.02,0.84,0.24,1.48,0.67,1.94c0.43,0.45,1.04,0.68,1.81,0.68c0.55,0,1.05-0.05,1.48-0.16c0.44-0.11,0.9-0.27,1.37-0.48v1.5
	c-0.43,0.2-0.87,0.35-1.32,0.44c-0.45,0.1-0.98,0.14-1.61,0.14c-0.85,0-1.6-0.16-2.24-0.49c-0.64-0.33-1.14-0.83-1.51-1.48
	c-0.36-0.66-0.54-1.47-0.54-2.45c0-0.97,0.16-1.79,0.49-2.47c0.33-0.67,0.79-1.19,1.38-1.54C91.37,161.99,92.06,161.81,92.86,161.81
	z M92.86,163.2c-0.58,0-1.05,0.18-1.41,0.56c-0.35,0.37-0.56,0.92-0.62,1.65h3.94c-0.01-0.43-0.08-0.82-0.22-1.15
	c-0.14-0.33-0.34-0.59-0.62-0.78C93.64,163.29,93.29,163.2,92.86,163.2z"/>
<path class="st13" d="M106.17,161.98v8.65h-1.45l-0.25-1.17h-0.1c-0.18,0.3-0.41,0.55-0.69,0.74c-0.28,0.2-0.59,0.34-0.94,0.43
	c-0.34,0.1-0.71,0.15-1.09,0.15c-0.65,0-1.21-0.11-1.67-0.32c-0.46-0.23-0.81-0.57-1.05-1.04c-0.24-0.46-0.37-1.06-0.37-1.79v-5.65
	h1.84v5.3c0,0.68,0.14,1.18,0.41,1.51c0.28,0.33,0.7,0.5,1.28,0.5c0.56,0,1-0.11,1.33-0.34c0.33-0.23,0.56-0.57,0.69-1.02
	c0.14-0.45,0.21-1,0.21-1.65v-4.3H106.17z"/>
<path class="st13" d="M114.61,168.16c0,0.57-0.14,1.04-0.41,1.44c-0.28,0.39-0.68,0.68-1.21,0.89c-0.53,0.19-1.17,0.29-1.94,0.29
	c-0.6,0-1.12-0.04-1.56-0.13c-0.43-0.08-0.84-0.21-1.23-0.39v-1.59c0.41,0.2,0.87,0.36,1.38,0.5c0.51,0.14,1,0.21,1.46,0.21
	c0.6,0,1.04-0.09,1.3-0.28c0.27-0.19,0.4-0.44,0.4-0.76c0-0.19-0.06-0.36-0.16-0.5c-0.11-0.15-0.3-0.31-0.59-0.46
	c-0.29-0.16-0.71-0.36-1.27-0.58c-0.55-0.22-1.01-0.44-1.38-0.66s-0.66-0.48-0.85-0.79s-0.29-0.71-0.29-1.19
	c0-0.77,0.3-1.35,0.91-1.74c0.61-0.41,1.41-0.61,2.41-0.61c0.53,0,1.03,0.06,1.5,0.17c0.47,0.1,0.94,0.26,1.39,0.46l-0.58,1.38
	c-0.39-0.17-0.78-0.31-1.18-0.42c-0.39-0.11-0.79-0.17-1.19-0.17c-0.47,0-0.84,0.07-1.09,0.22c-0.25,0.14-0.37,0.35-0.37,0.62
	c0,0.21,0.06,0.38,0.18,0.52s0.33,0.28,0.62,0.42c0.3,0.14,0.71,0.31,1.23,0.52c0.52,0.2,0.96,0.41,1.34,0.63
	c0.38,0.21,0.67,0.47,0.88,0.79C114.51,167.26,114.61,167.66,114.61,168.16z"/>
<path class="st13" d="M59.44,208.78c-0.29,0-0.54-0.02-0.75-0.05c-0.22-0.03-0.41-0.08-0.56-0.14v-1.57
	c0.17,0.05,0.35,0.08,0.54,0.11s0.4,0.05,0.62,0.05c0.29,0,0.55-0.06,0.78-0.16c0.23-0.11,0.42-0.31,0.55-0.6
	c0.14-0.28,0.21-0.69,0.21-1.21v-11.03h1.88v10.97c0,0.85-0.14,1.54-0.41,2.07c-0.27,0.54-0.65,0.93-1.14,1.18
	C60.67,208.65,60.1,208.78,59.44,208.78z"/>
<path class="st13" d="M73.01,196.95v8.65h-1.45l-0.25-1.16h-0.1c-0.18,0.29-0.41,0.54-0.7,0.74c-0.28,0.19-0.59,0.34-0.94,0.43
	c-0.34,0.1-0.71,0.15-1.09,0.15c-0.65,0-1.21-0.11-1.67-0.33c-0.46-0.22-0.81-0.57-1.05-1.03c-0.24-0.47-0.37-1.06-0.37-1.8v-5.65
	h1.84v5.31c0,0.67,0.14,1.17,0.41,1.51c0.28,0.33,0.7,0.5,1.28,0.5c0.56,0,1-0.12,1.33-0.35s0.56-0.57,0.7-1.01
	c0.14-0.45,0.21-1,0.21-1.65v-4.31H73.01z"/>
<path class="st13" d="M78.55,205.76c-1.03,0-1.86-0.38-2.48-1.13c-0.62-0.75-0.93-1.86-0.93-3.33c0-1.49,0.32-2.61,0.95-3.37
	c0.64-0.76,1.47-1.14,2.51-1.14c0.44,0,0.82,0.06,1.15,0.18c0.33,0.11,0.61,0.27,0.84,0.47c0.24,0.2,0.44,0.42,0.61,0.66h0.09
	c-0.03-0.16-0.06-0.39-0.09-0.69c-0.03-0.31-0.05-0.59-0.05-0.86v-3.1h1.84v12.15h-1.44l-0.33-1.18h-0.08
	c-0.16,0.25-0.35,0.48-0.59,0.68c-0.23,0.2-0.52,0.36-0.84,0.48C79.38,205.7,78.99,205.76,78.55,205.76z M79.07,204.27
	c0.79,0,1.34-0.23,1.66-0.68c0.32-0.46,0.49-1.14,0.5-2.04v-0.25c0-0.96-0.16-1.71-0.47-2.22c-0.31-0.52-0.88-0.78-1.71-0.78
	c-0.66,0-1.17,0.27-1.52,0.8c-0.34,0.53-0.52,1.27-0.52,2.23c0,0.95,0.17,1.68,0.52,2.19C77.88,204.02,78.39,204.27,79.07,204.27z"
	/>
<path class="st13" d="M89,196.79c1.09,0,1.92,0.24,2.48,0.73c0.56,0.48,0.84,1.24,0.84,2.26v5.82h-1.3l-0.35-1.23h-0.06
	c-0.24,0.32-0.5,0.58-0.76,0.78s-0.56,0.35-0.91,0.45c-0.34,0.11-0.75,0.16-1.24,0.16c-0.52,0-0.98-0.1-1.38-0.28
	c-0.41-0.2-0.73-0.49-0.96-0.88c-0.23-0.39-0.35-0.88-0.35-1.48c0-0.89,0.33-1.56,0.99-2.01c0.67-0.45,1.67-0.7,3.02-0.74l1.5-0.06
	v-0.45c0-0.6-0.14-1.03-0.42-1.28c-0.28-0.26-0.67-0.38-1.17-0.38c-0.43,0-0.85,0.06-1.26,0.18c-0.41,0.13-0.8,0.28-1.19,0.46
	l-0.59-1.29c0.42-0.23,0.9-0.41,1.44-0.55C87.86,196.86,88.42,196.79,89,196.79z M90.5,201.47l-1.12,0.04
	c-0.92,0.03-1.56,0.19-1.93,0.47c-0.37,0.28-0.55,0.66-0.55,1.15c0,0.43,0.13,0.74,0.38,0.94c0.26,0.19,0.59,0.29,1.01,0.29
	c0.64,0,1.16-0.18,1.58-0.54c0.42-0.36,0.63-0.9,0.63-1.6V201.47z"/>
<path class="st13" d="M96.73,196.95v8.65h-1.84v-8.65H96.73z M95.82,193.64c0.28,0,0.52,0.08,0.73,0.23
	c0.21,0.15,0.31,0.41,0.31,0.78c0,0.36-0.1,0.62-0.31,0.78c-0.2,0.15-0.45,0.23-0.73,0.23c-0.29,0-0.54-0.08-0.74-0.23
	c-0.2-0.16-0.3-0.42-0.3-0.78c0-0.37,0.1-0.63,0.3-0.78C95.29,193.72,95.53,193.64,95.82,193.64z"/>
<path class="st13" d="M102.85,205.76c-0.82,0-1.53-0.16-2.12-0.48c-0.6-0.32-1.06-0.8-1.38-1.46s-0.48-1.49-0.48-2.5
	c0-1.05,0.18-1.91,0.53-2.58c0.35-0.66,0.84-1.16,1.47-1.47c0.63-0.32,1.35-0.48,2.16-0.48c0.52,0,0.98,0.05,1.4,0.16
	c0.42,0.09,0.78,0.22,1.07,0.36l-0.55,1.47c-0.32-0.13-0.64-0.24-0.98-0.33c-0.33-0.09-0.65-0.13-0.96-0.13
	c-0.51,0-0.93,0.11-1.27,0.34c-0.33,0.22-0.58,0.55-0.75,1c-0.16,0.44-0.24,0.99-0.24,1.64c0,0.64,0.08,1.18,0.25,1.61
	c0.17,0.44,0.41,0.76,0.74,0.99c0.33,0.22,0.73,0.33,1.21,0.33c0.47,0,0.9-0.06,1.27-0.18c0.38-0.11,0.73-0.26,1.06-0.44v1.59
	c-0.33,0.19-0.68,0.33-1.05,0.42C103.86,205.71,103.39,205.76,102.85,205.76z"/>
<path class="st13" d="M110.71,196.79c1.09,0,1.92,0.24,2.48,0.73c0.56,0.48,0.84,1.24,0.84,2.26v5.82h-1.3l-0.35-1.23h-0.06
	c-0.25,0.32-0.5,0.58-0.76,0.78c-0.26,0.2-0.56,0.35-0.91,0.45c-0.34,0.11-0.75,0.16-1.24,0.16c-0.51,0-0.98-0.1-1.38-0.28
	c-0.41-0.2-0.73-0.49-0.96-0.88c-0.24-0.39-0.35-0.88-0.35-1.48c0-0.89,0.33-1.56,0.99-2.01c0.67-0.45,1.67-0.7,3.02-0.74l1.5-0.06
	v-0.45c0-0.6-0.14-1.03-0.42-1.28c-0.28-0.26-0.67-0.38-1.17-0.38c-0.43,0-0.85,0.06-1.26,0.18c-0.41,0.13-0.8,0.28-1.19,0.46
	l-0.59-1.29c0.42-0.23,0.9-0.41,1.44-0.55C109.56,196.86,110.12,196.79,110.71,196.79z M112.21,201.47l-1.12,0.04
	c-0.92,0.03-1.56,0.19-1.93,0.47c-0.37,0.28-0.55,0.66-0.55,1.15c0,0.43,0.13,0.74,0.38,0.94c0.26,0.19,0.59,0.29,1.01,0.29
	c0.64,0,1.16-0.18,1.58-0.54c0.42-0.36,0.63-0.9,0.63-1.6V201.47z"/>
<path class="st13" d="M53.38,240.58v-11.43h1.88v11.43H53.38z"/>
<path class="st13" d="M63.89,238.11c0,0.56-0.14,1.04-0.41,1.43c-0.28,0.4-0.68,0.69-1.21,0.9c-0.53,0.19-1.17,0.29-1.94,0.29
	c-0.6,0-1.12-0.04-1.56-0.13c-0.43-0.08-0.84-0.21-1.23-0.39v-1.59c0.41,0.2,0.87,0.36,1.38,0.5c0.52,0.14,1,0.21,1.46,0.21
	c0.6,0,1.04-0.09,1.3-0.28c0.27-0.19,0.4-0.45,0.4-0.76c0-0.19-0.05-0.36-0.16-0.5c-0.1-0.15-0.3-0.31-0.59-0.46
	c-0.29-0.17-0.71-0.36-1.27-0.58c-0.55-0.22-1.01-0.44-1.38-0.66s-0.66-0.48-0.85-0.79s-0.29-0.71-0.29-1.19
	c0-0.77,0.3-1.35,0.91-1.74c0.61-0.41,1.41-0.61,2.41-0.61c0.53,0,1.03,0.06,1.5,0.17c0.47,0.1,0.94,0.26,1.39,0.46l-0.58,1.38
	c-0.39-0.17-0.78-0.31-1.18-0.42c-0.39-0.12-0.79-0.17-1.2-0.17c-0.47,0-0.84,0.07-1.09,0.22c-0.24,0.14-0.37,0.35-0.37,0.62
	c0,0.2,0.06,0.38,0.18,0.52c0.12,0.14,0.33,0.28,0.62,0.42c0.3,0.14,0.71,0.31,1.23,0.52c0.52,0.2,0.96,0.41,1.34,0.63
	c0.38,0.21,0.67,0.47,0.88,0.79C63.79,237.21,63.89,237.61,63.89,238.11z"/>
<path class="st13" d="M67.72,240.58h-1.84v-12.16h1.84V240.58z"/>
<path class="st13" d="M73.74,231.76c1.09,0,1.92,0.25,2.48,0.73c0.56,0.48,0.84,1.24,0.84,2.27v5.82h-1.3l-0.35-1.23h-0.06
	c-0.24,0.31-0.5,0.57-0.76,0.77c-0.26,0.21-0.56,0.36-0.91,0.46c-0.34,0.1-0.75,0.15-1.24,0.15c-0.52,0-0.98-0.09-1.38-0.28
	c-0.41-0.19-0.73-0.48-0.96-0.87s-0.35-0.89-0.35-1.49c0-0.89,0.33-1.56,0.99-2.01c0.67-0.44,1.67-0.69,3.02-0.74l1.5-0.05v-0.46
	c0-0.6-0.14-1.02-0.42-1.28c-0.28-0.25-0.67-0.38-1.17-0.38c-0.43,0-0.85,0.06-1.26,0.19c-0.41,0.12-0.8,0.28-1.19,0.46l-0.59-1.3
	c0.42-0.22,0.9-0.4,1.44-0.55C72.59,231.83,73.15,231.76,73.74,231.76z M75.24,236.44l-1.12,0.04c-0.92,0.03-1.56,0.19-1.93,0.47
	c-0.37,0.28-0.55,0.67-0.55,1.16c0,0.42,0.13,0.74,0.38,0.93c0.26,0.2,0.59,0.29,1.01,0.29c0.64,0,1.16-0.18,1.58-0.54
	c0.42-0.36,0.63-0.89,0.63-1.6V236.44z M74.71,228.32c0.14,0.24,0.33,0.5,0.56,0.8c0.24,0.29,0.49,0.57,0.74,0.85
	c0.26,0.28,0.49,0.52,0.69,0.72v0.19h-1.25c-0.28-0.18-0.58-0.39-0.9-0.63c-0.31-0.25-0.61-0.52-0.88-0.81
	c-0.28,0.29-0.58,0.56-0.88,0.8c-0.3,0.24-0.59,0.46-0.87,0.64h-1.24v-0.19c0.2-0.21,0.42-0.45,0.68-0.72
	c0.26-0.28,0.5-0.56,0.73-0.85c0.23-0.3,0.42-0.56,0.56-0.8H74.71z"/>
<path class="st13" d="M89.4,231.76c0.97,0,1.7,0.25,2.19,0.75c0.49,0.5,0.74,1.31,0.74,2.41v5.66H90.5v-5.33
	c0-0.66-0.13-1.15-0.38-1.49c-0.26-0.33-0.64-0.5-1.16-0.5c-0.73,0-1.26,0.24-1.58,0.71c-0.32,0.46-0.48,1.13-0.48,2.02v4.59h-1.84
	v-5.33c0-0.44-0.06-0.8-0.17-1.1c-0.11-0.29-0.28-0.51-0.51-0.66c-0.23-0.15-0.52-0.23-0.87-0.23c-0.51,0-0.91,0.12-1.21,0.35
	c-0.3,0.23-0.51,0.56-0.64,1.01c-0.13,0.45-0.2,0.99-0.2,1.64v4.32h-1.84v-8.65h1.43l0.26,1.16h0.1c0.18-0.3,0.4-0.55,0.66-0.74
	c0.27-0.2,0.56-0.34,0.88-0.44c0.32-0.1,0.66-0.15,1.01-0.15c0.65,0,1.19,0.12,1.63,0.35c0.44,0.22,0.77,0.56,0.99,1.03h0.14
	c0.27-0.47,0.65-0.82,1.13-1.04C88.35,231.88,88.86,231.76,89.4,231.76z"/>
<path class="st13" d="M96.73,231.93v8.65h-1.84v-8.65H96.73z M95.82,228.62c0.28,0,0.52,0.07,0.73,0.22
	c0.21,0.15,0.31,0.41,0.31,0.78c0,0.37-0.1,0.63-0.31,0.78c-0.2,0.16-0.45,0.23-0.73,0.23c-0.29,0-0.54-0.07-0.74-0.23
	c-0.2-0.15-0.3-0.41-0.3-0.78c0-0.37,0.1-0.63,0.3-0.78C95.29,228.69,95.53,228.62,95.82,228.62z"/>
<path class="st13" d="M102.85,240.73c-0.82,0-1.53-0.16-2.12-0.47c-0.6-0.32-1.06-0.81-1.38-1.47c-0.32-0.65-0.48-1.48-0.48-2.5
	c0-1.05,0.18-1.91,0.53-2.57c0.35-0.67,0.84-1.16,1.47-1.48c0.63-0.32,1.35-0.48,2.16-0.48c0.52,0,0.98,0.06,1.4,0.16
	c0.42,0.1,0.78,0.22,1.07,0.37l-0.55,1.47c-0.32-0.13-0.64-0.24-0.98-0.33c-0.33-0.09-0.65-0.14-0.96-0.14
	c-0.51,0-0.93,0.12-1.27,0.34c-0.33,0.22-0.58,0.56-0.75,1c-0.16,0.44-0.24,0.99-0.24,1.65c0,0.63,0.08,1.17,0.25,1.61
	c0.17,0.43,0.41,0.76,0.74,0.98c0.33,0.22,0.73,0.33,1.21,0.33c0.47,0,0.9-0.06,1.27-0.17c0.38-0.12,0.73-0.26,1.06-0.45v1.6
	c-0.33,0.19-0.68,0.32-1.05,0.41C103.86,240.69,103.39,240.73,102.85,240.73z"/>
<path class="st13" d="M110.71,231.76c1.09,0,1.92,0.25,2.48,0.73c0.56,0.48,0.84,1.24,0.84,2.27v5.82h-1.3l-0.35-1.23h-0.06
	c-0.25,0.31-0.5,0.57-0.76,0.77c-0.26,0.21-0.56,0.36-0.91,0.46c-0.34,0.1-0.75,0.15-1.24,0.15c-0.51,0-0.98-0.09-1.38-0.28
	c-0.41-0.19-0.73-0.48-0.96-0.87c-0.24-0.39-0.35-0.89-0.35-1.49c0-0.89,0.33-1.56,0.99-2.01c0.67-0.44,1.67-0.69,3.02-0.74
	l1.5-0.05v-0.46c0-0.6-0.14-1.02-0.42-1.28c-0.28-0.25-0.67-0.38-1.17-0.38c-0.43,0-0.85,0.06-1.26,0.19
	c-0.41,0.12-0.8,0.28-1.19,0.46l-0.59-1.3c0.42-0.22,0.9-0.4,1.44-0.55C109.56,231.83,110.12,231.76,110.71,231.76z M112.21,236.44
	l-1.12,0.04c-0.92,0.03-1.56,0.19-1.93,0.47c-0.37,0.28-0.55,0.67-0.55,1.16c0,0.42,0.13,0.74,0.38,0.93
	c0.26,0.2,0.59,0.29,1.01,0.29c0.64,0,1.16-0.18,1.58-0.54c0.42-0.36,0.63-0.89,0.63-1.6V236.44z"/>
<path class="st13" d="M73.85,269.82c0,0.88-0.11,1.69-0.34,2.41c-0.22,0.72-0.55,1.34-0.99,1.86c-0.44,0.52-1,0.91-1.66,1.19
	c-0.67,0.29-1.45,0.43-2.34,0.43c-0.91,0-1.7-0.14-2.38-0.43c-0.67-0.28-1.22-0.68-1.66-1.2c-0.44-0.52-0.77-1.14-0.98-1.87
	c-0.22-0.72-0.33-1.52-0.33-2.4c0-1.18,0.19-2.2,0.58-3.08c0.39-0.88,0.98-1.56,1.77-2.05c0.8-0.49,1.8-0.73,3.02-0.73
	c1.19,0,2.17,0.24,2.96,0.73c0.79,0.48,1.38,1.16,1.77,2.04C73.65,267.6,73.85,268.63,73.85,269.82z M65.13,269.82
	c0,0.88,0.12,1.65,0.36,2.29c0.24,0.64,0.61,1.14,1.1,1.49c0.5,0.34,1.14,0.51,1.92,0.51c0.79,0,1.43-0.17,1.92-0.51
	c0.49-0.35,0.86-0.85,1.09-1.49c0.23-0.64,0.35-1.41,0.35-2.29c0-1.33-0.27-2.38-0.8-3.14c-0.53-0.76-1.38-1.14-2.55-1.14
	c-0.78,0-1.42,0.17-1.93,0.52c-0.5,0.34-0.87,0.83-1.11,1.47C65.25,268.17,65.13,268.93,65.13,269.82z"/>
<path class="st13" d="M83.65,266.9v8.65h-1.45l-0.25-1.16h-0.1c-0.18,0.29-0.41,0.54-0.7,0.74c-0.28,0.19-0.59,0.33-0.94,0.43
	c-0.34,0.1-0.71,0.15-1.09,0.15c-0.65,0-1.21-0.11-1.67-0.33c-0.46-0.23-0.81-0.57-1.05-1.03c-0.24-0.47-0.37-1.07-0.37-1.8v-5.65
	h1.84v5.31c0,0.67,0.14,1.17,0.41,1.5c0.28,0.34,0.7,0.5,1.28,0.5c0.56,0,1-0.11,1.33-0.34s0.56-0.57,0.7-1.01
	c0.14-0.45,0.21-1,0.21-1.65v-4.31H83.65z"/>
<path class="st13" d="M89.5,274.22c0.24,0,0.48-0.02,0.71-0.06c0.23-0.05,0.45-0.1,0.64-0.16v1.39c-0.2,0.09-0.47,0.16-0.79,0.22
	c-0.32,0.07-0.66,0.1-1.01,0.1c-0.49,0-0.93-0.08-1.32-0.25c-0.39-0.16-0.7-0.45-0.93-0.85c-0.23-0.4-0.34-0.95-0.34-1.66v-4.65
	h-1.18v-0.82l1.27-0.65l0.6-1.85h1.16v1.92h2.48v1.4h-2.48v4.63c0,0.43,0.11,0.76,0.33,0.97C88.86,274.12,89.14,274.22,89.5,274.22z
	"/>
<path class="st13" d="M97,266.74c0.15,0,0.3,0.01,0.48,0.02c0.17,0.02,0.32,0.04,0.45,0.06l-0.17,1.72
	c-0.11-0.03-0.24-0.05-0.41-0.07c-0.16-0.01-0.3-0.02-0.42-0.02c-0.33,0-0.64,0.05-0.94,0.16c-0.3,0.11-0.56,0.27-0.79,0.49
	c-0.23,0.21-0.41,0.48-0.54,0.8c-0.13,0.33-0.2,0.7-0.2,1.13v4.52h-1.84v-8.65h1.44l0.25,1.53h0.09c0.17-0.31,0.39-0.59,0.64-0.85
	c0.26-0.25,0.55-0.46,0.88-0.61C96.24,266.82,96.6,266.74,97,266.74z"/>
<path class="st13" d="M102.91,266.74c1.09,0,1.92,0.24,2.48,0.72c0.56,0.49,0.84,1.24,0.84,2.27v5.82h-1.31l-0.35-1.23h-0.06
	c-0.24,0.32-0.5,0.57-0.76,0.78c-0.26,0.2-0.56,0.35-0.91,0.45c-0.34,0.1-0.75,0.16-1.24,0.16c-0.52,0-0.98-0.1-1.38-0.28
	c-0.41-0.2-0.73-0.49-0.96-0.88c-0.23-0.39-0.35-0.88-0.35-1.48c0-0.89,0.33-1.56,0.99-2.01c0.67-0.45,1.67-0.7,3.02-0.74l1.5-0.06
	v-0.45c0-0.6-0.14-1.03-0.42-1.28c-0.28-0.26-0.67-0.39-1.17-0.39c-0.43,0-0.85,0.07-1.26,0.19c-0.41,0.13-0.8,0.28-1.19,0.46
	l-0.59-1.29c0.42-0.23,0.9-0.41,1.44-0.55C101.76,266.81,102.33,266.74,102.91,266.74z M104.41,271.42l-1.12,0.04
	c-0.92,0.03-1.56,0.18-1.93,0.47c-0.37,0.28-0.55,0.66-0.55,1.15c0,0.43,0.13,0.74,0.38,0.94c0.26,0.19,0.59,0.29,1.01,0.29
	c0.64,0,1.16-0.18,1.58-0.54c0.42-0.37,0.63-0.9,0.63-1.6V271.42z"/>
<path class="st13" d="M114.61,273.08c0,0.57-0.14,1.05-0.41,1.44c-0.28,0.39-0.68,0.69-1.21,0.89c-0.53,0.2-1.17,0.3-1.94,0.3
	c-0.6,0-1.12-0.05-1.56-0.14c-0.43-0.08-0.84-0.21-1.23-0.39v-1.58c0.41,0.19,0.87,0.36,1.38,0.5c0.51,0.14,1,0.21,1.46,0.21
	c0.6,0,1.04-0.1,1.3-0.28c0.27-0.2,0.4-0.45,0.4-0.77c0-0.19-0.06-0.35-0.16-0.5c-0.11-0.15-0.3-0.3-0.59-0.46
	c-0.29-0.16-0.71-0.35-1.27-0.58c-0.55-0.22-1.01-0.44-1.38-0.65c-0.38-0.22-0.66-0.49-0.85-0.79c-0.19-0.32-0.29-0.71-0.29-1.2
	c0-0.76,0.3-1.34,0.91-1.74c0.61-0.4,1.41-0.6,2.41-0.6c0.53,0,1.03,0.05,1.5,0.16c0.47,0.11,0.94,0.26,1.39,0.46l-0.58,1.39
	c-0.39-0.18-0.78-0.32-1.18-0.43c-0.39-0.11-0.79-0.17-1.19-0.17c-0.47,0-0.84,0.08-1.09,0.22c-0.25,0.15-0.37,0.36-0.37,0.63
	c0,0.2,0.06,0.37,0.18,0.51c0.12,0.14,0.33,0.28,0.62,0.42c0.3,0.14,0.71,0.32,1.23,0.53c0.52,0.19,0.96,0.4,1.34,0.62
	c0.38,0.22,0.67,0.48,0.88,0.79C114.51,272.18,114.61,272.59,114.61,273.08z"/>
<path class="st13" d="M400.7,31.73l4.56-9.98h-5.99v-2.16h8.71v1.61l-4.59,10.53H400.7z"/>
<path class="st13" d="M413.64,23.98c0.74,0,1.4,0.14,1.98,0.42c0.58,0.28,1.04,0.7,1.37,1.24c0.33,0.55,0.5,1.23,0.5,2.03
	c0,0.87-0.18,1.63-0.55,2.27c-0.36,0.63-0.9,1.11-1.62,1.45c-0.71,0.34-1.61,0.5-2.67,0.5c-0.64,0-1.24-0.05-1.8-0.16
	c-0.56-0.11-1.05-0.27-1.47-0.49v-2.22c0.42,0.22,0.92,0.41,1.51,0.57c0.59,0.15,1.15,0.22,1.67,0.22c0.51,0,0.94-0.07,1.29-0.2
	c0.35-0.14,0.61-0.35,0.79-0.63c0.18-0.29,0.27-0.65,0.27-1.09c0-0.6-0.2-1.05-0.6-1.37c-0.4-0.31-1.01-0.47-1.84-0.47
	c-0.32,0-0.64,0.03-0.99,0.09c-0.34,0.06-0.62,0.12-0.85,0.18l-1.02-0.54l0.46-6.19h6.58v2.18h-4.33l-0.22,2.38
	c0.19-0.04,0.39-0.08,0.61-0.12C412.93,23.99,413.24,23.98,413.64,23.98z"/>
<path class="st13" d="M342.71,58.95c0.74,0,1.4,0.14,1.98,0.42c0.58,0.29,1.04,0.7,1.37,1.25s0.5,1.22,0.5,2.02
	c0,0.88-0.18,1.63-0.55,2.27c-0.36,0.63-0.9,1.12-1.62,1.45c-0.71,0.34-1.6,0.51-2.67,0.51c-0.64,0-1.24-0.06-1.8-0.17
	c-0.56-0.1-1.05-0.27-1.47-0.49V64c0.42,0.22,0.92,0.41,1.51,0.56c0.59,0.15,1.15,0.23,1.67,0.23c0.51,0,0.94-0.07,1.29-0.2
	c0.35-0.14,0.61-0.35,0.79-0.63c0.18-0.29,0.27-0.66,0.27-1.1c0-0.59-0.2-1.05-0.6-1.36c-0.4-0.32-1.01-0.47-1.83-0.47
	c-0.32,0-0.64,0.03-0.99,0.09c-0.34,0.06-0.62,0.12-0.85,0.18l-1.02-0.55l0.46-6.18h6.58v2.17h-4.33l-0.22,2.38
	c0.19-0.03,0.39-0.07,0.61-0.11S342.31,58.95,342.71,58.95z"/>
<path class="st13" d="M352.2,54.41c0.7,0,1.34,0.11,1.93,0.32c0.59,0.22,1.07,0.55,1.42,0.98c0.35,0.43,0.53,0.98,0.53,1.63
	c0,0.49-0.1,0.91-0.29,1.28c-0.19,0.36-0.45,0.68-0.77,0.96c-0.33,0.27-0.7,0.51-1.11,0.71c0.43,0.23,0.84,0.5,1.23,0.8
	c0.39,0.3,0.7,0.65,0.95,1.06c0.25,0.4,0.37,0.87,0.37,1.41c0,0.67-0.18,1.26-0.54,1.76c-0.36,0.49-0.86,0.87-1.49,1.14
	c-0.64,0.27-1.38,0.41-2.22,0.41c-0.91,0-1.68-0.13-2.32-0.39c-0.64-0.26-1.12-0.63-1.45-1.11c-0.33-0.49-0.5-1.07-0.5-1.75
	c0-0.55,0.1-1.03,0.31-1.44c0.21-0.41,0.49-0.76,0.85-1.05c0.35-0.3,0.74-0.56,1.17-0.77c-0.36-0.23-0.69-0.48-0.99-0.77
	c-0.29-0.29-0.53-0.62-0.71-0.99c-0.17-0.37-0.26-0.8-0.26-1.28c0-0.64,0.18-1.18,0.54-1.61c0.37-0.43,0.84-0.75,1.44-0.97
	C350.88,54.52,351.52,54.41,352.2,54.41z M350.31,63.47c0,0.44,0.16,0.8,0.47,1.09c0.32,0.28,0.78,0.42,1.39,0.42
	c0.64,0,1.11-0.13,1.43-0.4c0.32-0.28,0.47-0.64,0.47-1.09c0-0.31-0.09-0.58-0.27-0.81c-0.18-0.24-0.4-0.44-0.67-0.63
	c-0.27-0.18-0.55-0.36-0.82-0.52l-0.22-0.11c-0.35,0.16-0.66,0.34-0.93,0.54c-0.26,0.19-0.46,0.42-0.61,0.67
	C350.39,62.88,350.31,63.16,350.31,63.47z M352.19,56.29c-0.42,0-0.77,0.1-1.05,0.32c-0.28,0.22-0.42,0.52-0.42,0.91
	c0,0.28,0.07,0.52,0.2,0.73c0.14,0.21,0.32,0.39,0.54,0.54c0.23,0.16,0.47,0.3,0.74,0.43c0.25-0.12,0.49-0.25,0.71-0.4
	c0.22-0.15,0.4-0.33,0.54-0.54c0.14-0.21,0.21-0.46,0.21-0.76c0-0.39-0.14-0.69-0.42-0.91C352.97,56.39,352.61,56.29,352.19,56.29z"
	/>
<path class="st13" d="M246.78,100.68h-8.48v-1.79l3.05-3.08c0.61-0.63,1.11-1.15,1.48-1.57c0.38-0.43,0.65-0.82,0.81-1.17
	c0.17-0.34,0.26-0.72,0.26-1.12c0-0.48-0.13-0.84-0.41-1.08c-0.27-0.24-0.62-0.36-1.07-0.36c-0.47,0-0.93,0.11-1.37,0.32
	c-0.44,0.22-0.9,0.53-1.39,0.92l-1.4-1.65c0.35-0.3,0.72-0.58,1.1-0.84c0.39-0.27,0.85-0.48,1.36-0.64
	c0.52-0.17,1.14-0.25,1.87-0.25c0.8,0,1.48,0.14,2.05,0.43c0.57,0.29,1.02,0.68,1.33,1.18c0.31,0.49,0.46,1.05,0.46,1.67
	c0,0.67-0.13,1.29-0.4,1.84c-0.26,0.55-0.65,1.1-1.16,1.64c-0.5,0.55-1.11,1.15-1.83,1.8l-1.56,1.47v0.12h5.29V100.68z"/>
<path class="st13" d="M249.23,100.68l4.56-9.98h-5.99v-2.16h8.71v1.61l-4.59,10.53H249.23z"/>
<path class="st13" d="M223.25,135.65h-8.48v-1.78l3.05-3.08c0.61-0.63,1.11-1.16,1.48-1.58c0.38-0.43,0.65-0.81,0.81-1.16
	c0.17-0.35,0.26-0.72,0.26-1.12c0-0.48-0.14-0.84-0.41-1.08c-0.26-0.24-0.62-0.37-1.07-0.37c-0.47,0-0.93,0.11-1.37,0.33
	c-0.44,0.21-0.9,0.52-1.39,0.92l-1.4-1.65c0.35-0.3,0.72-0.58,1.1-0.85c0.39-0.27,0.85-0.48,1.36-0.64
	c0.52-0.16,1.14-0.25,1.87-0.25c0.8,0,1.48,0.15,2.05,0.43c0.58,0.29,1.02,0.68,1.33,1.18c0.31,0.5,0.46,1.05,0.46,1.68
	c0,0.67-0.13,1.28-0.4,1.83c-0.27,0.56-0.65,1.11-1.16,1.65c-0.5,0.54-1.11,1.14-1.83,1.8l-1.56,1.47v0.11h5.29V135.65z"/>
<path class="st13" d="M232.98,135.65h-8.48v-1.78l3.05-3.08c0.61-0.63,1.11-1.16,1.48-1.58c0.38-0.43,0.65-0.81,0.81-1.16
	c0.17-0.35,0.26-0.72,0.26-1.12c0-0.48-0.14-0.84-0.41-1.08c-0.27-0.24-0.62-0.37-1.07-0.37c-0.47,0-0.93,0.11-1.37,0.33
	c-0.44,0.21-0.9,0.52-1.39,0.92l-1.39-1.65c0.35-0.3,0.72-0.58,1.1-0.85c0.39-0.27,0.85-0.48,1.36-0.64
	c0.52-0.16,1.14-0.25,1.87-0.25c0.8,0,1.48,0.15,2.05,0.43c0.57,0.29,1.02,0.68,1.33,1.18s0.46,1.05,0.46,1.68
	c0,0.67-0.13,1.28-0.4,1.83c-0.26,0.56-0.65,1.11-1.16,1.65c-0.5,0.54-1.11,1.14-1.83,1.8l-1.56,1.47v0.11h5.29V135.65z"/>
<path class="st13" d="M171.5,158.33c0.7,0,1.34,0.11,1.93,0.33c0.59,0.21,1.07,0.54,1.42,0.98c0.35,0.43,0.53,0.97,0.53,1.62
	c0,0.49-0.1,0.92-0.29,1.28c-0.19,0.37-0.45,0.69-0.77,0.96c-0.33,0.28-0.7,0.51-1.11,0.72c0.43,0.23,0.84,0.49,1.23,0.8
	c0.39,0.29,0.7,0.65,0.95,1.05c0.25,0.4,0.37,0.87,0.37,1.41c0,0.68-0.18,1.26-0.54,1.76c-0.36,0.49-0.86,0.87-1.49,1.15
	c-0.64,0.27-1.38,0.4-2.22,0.4c-0.91,0-1.68-0.13-2.32-0.39c-0.64-0.26-1.12-0.63-1.45-1.11c-0.33-0.49-0.5-1.07-0.5-1.74
	c0-0.56,0.1-1.04,0.31-1.45c0.21-0.41,0.49-0.76,0.85-1.05c0.35-0.3,0.74-0.55,1.17-0.76c-0.36-0.23-0.69-0.49-0.99-0.78
	c-0.29-0.28-0.53-0.61-0.71-0.98c-0.17-0.38-0.26-0.8-0.26-1.28c0-0.64,0.18-1.18,0.54-1.61c0.36-0.44,0.84-0.76,1.44-0.97
	C170.17,158.44,170.81,158.33,171.5,158.33z M169.61,167.4c0,0.44,0.15,0.8,0.46,1.09c0.32,0.28,0.78,0.42,1.39,0.42
	c0.64,0,1.11-0.14,1.43-0.41c0.32-0.27,0.47-0.64,0.47-1.09c0-0.31-0.09-0.58-0.27-0.81c-0.18-0.23-0.4-0.44-0.67-0.62
	c-0.27-0.19-0.54-0.36-0.82-0.52l-0.22-0.12c-0.35,0.16-0.66,0.34-0.93,0.54c-0.26,0.2-0.46,0.42-0.61,0.67
	C169.68,166.8,169.61,167.08,169.61,167.4z M171.48,160.21c-0.42,0-0.77,0.11-1.05,0.32c-0.28,0.22-0.41,0.52-0.41,0.92
	c0,0.27,0.07,0.52,0.2,0.73c0.14,0.2,0.32,0.38,0.54,0.54c0.23,0.15,0.47,0.3,0.74,0.43c0.25-0.12,0.49-0.26,0.71-0.41
	c0.22-0.15,0.4-0.33,0.54-0.54c0.14-0.21,0.21-0.46,0.21-0.75c0-0.4-0.14-0.7-0.42-0.92C172.26,160.32,171.91,160.21,171.48,160.21z
	"/>
<path class="st13" d="M162.71,200.45c0-0.7,0.05-1.39,0.15-2.07c0.1-0.69,0.28-1.33,0.54-1.93c0.25-0.61,0.61-1.15,1.07-1.61
	c0.46-0.48,1.04-0.84,1.75-1.11c0.71-0.27,1.57-0.41,2.57-0.41c0.24,0,0.51,0.02,0.83,0.04c0.32,0.01,0.59,0.04,0.8,0.09v2.05
	c-0.22-0.05-0.46-0.09-0.71-0.12c-0.25-0.03-0.5-0.05-0.75-0.05c-1.01,0-1.79,0.16-2.34,0.48c-0.55,0.33-0.93,0.77-1.16,1.34
	c-0.22,0.57-0.35,1.22-0.39,1.98h0.11c0.15-0.27,0.35-0.52,0.58-0.73c0.24-0.21,0.53-0.37,0.86-0.49c0.34-0.13,0.73-0.19,1.19-0.19
	c0.71,0,1.32,0.15,1.84,0.45c0.52,0.3,0.92,0.74,1.2,1.31c0.28,0.57,0.42,1.26,0.42,2.08c0,0.87-0.17,1.63-0.51,2.26
	c-0.34,0.63-0.82,1.11-1.44,1.45c-0.61,0.33-1.34,0.5-2.19,0.5c-0.62,0-1.2-0.11-1.74-0.32c-0.54-0.21-1.01-0.54-1.41-0.98
	c-0.4-0.43-0.72-0.99-0.95-1.65C162.82,202.15,162.71,201.36,162.71,200.45z M167.09,203.72c0.5,0,0.91-0.17,1.23-0.52
	c0.32-0.34,0.47-0.88,0.47-1.61c0-0.59-0.14-1.05-0.42-1.39c-0.27-0.35-0.68-0.52-1.24-0.52c-0.38,0-0.71,0.09-1,0.26
	c-0.28,0.17-0.5,0.38-0.66,0.64c-0.15,0.25-0.23,0.52-0.23,0.79c0,0.28,0.04,0.56,0.12,0.84c0.08,0.27,0.19,0.52,0.35,0.75
	c0.15,0.23,0.35,0.41,0.57,0.55C166.53,203.65,166.79,203.72,167.09,203.72z"/>
<path class="st13" d="M162.68,232.82c0.74,0,1.4,0.14,1.98,0.43c0.58,0.28,1.04,0.69,1.37,1.24c0.33,0.55,0.5,1.22,0.5,2.03
	c0,0.87-0.18,1.63-0.55,2.26c-0.36,0.63-0.9,1.12-1.62,1.46c-0.71,0.33-1.6,0.5-2.67,0.5c-0.64,0-1.24-0.05-1.8-0.16
	c-0.56-0.11-1.05-0.27-1.47-0.49v-2.22c0.42,0.22,0.92,0.41,1.51,0.56c0.59,0.15,1.15,0.23,1.67,0.23c0.51,0,0.94-0.07,1.29-0.2
	c0.35-0.14,0.61-0.35,0.79-0.63c0.18-0.29,0.27-0.65,0.27-1.1c0-0.59-0.2-1.04-0.6-1.36c-0.4-0.31-1.01-0.47-1.83-0.47
	c-0.32,0-0.65,0.03-0.99,0.09c-0.34,0.06-0.62,0.12-0.85,0.18l-1.02-0.55l0.46-6.18h6.58v2.18h-4.33l-0.22,2.38
	c0.19-0.04,0.39-0.08,0.61-0.12C161.97,232.84,162.28,232.82,162.68,232.82z"/>
<path class="st13" d="M204.43,275.55h-2.57v-7.02c0-0.2,0-0.43,0.01-0.72c0.01-0.28,0.01-0.58,0.03-0.88
	c0.01-0.3,0.02-0.57,0.03-0.82c-0.06,0.07-0.18,0.2-0.37,0.38c-0.18,0.17-0.35,0.32-0.51,0.46l-1.39,1.12l-1.24-1.54l3.91-3.12h2.11
	V275.55z"/>
<path class="st13" d="M212.23,267.8c0.74,0,1.4,0.14,1.98,0.42c0.58,0.28,1.04,0.7,1.37,1.25c0.33,0.54,0.5,1.22,0.5,2.02
	c0,0.88-0.18,1.63-0.55,2.27c-0.36,0.63-0.9,1.11-1.62,1.45c-0.71,0.34-1.61,0.51-2.67,0.51c-0.64,0-1.24-0.06-1.8-0.17
	c-0.56-0.1-1.05-0.27-1.47-0.49v-2.22c0.42,0.23,0.92,0.41,1.51,0.57c0.59,0.15,1.15,0.22,1.67,0.22c0.51,0,0.94-0.06,1.29-0.2
	c0.35-0.13,0.61-0.34,0.79-0.63c0.18-0.28,0.27-0.65,0.27-1.09c0-0.59-0.2-1.05-0.6-1.36c-0.4-0.32-1.01-0.48-1.83-0.48
	c-0.32,0-0.65,0.03-0.99,0.09c-0.34,0.07-0.62,0.13-0.85,0.19l-1.02-0.55l0.46-6.19h6.58v2.18h-4.33l-0.22,2.38
	c0.19-0.04,0.39-0.08,0.62-0.11C211.53,267.82,211.84,267.8,212.23,267.8z"/>
<path class="st7" d="M126.53,15.08h258.94v20H126.53V15.08z"/>
<path class="st7" d="M126.53,50.08h202.15v20H126.53V50.08z"/>
<path class="st7" d="M126.53,85.08h98.19v20h-98.19V85.08z"/>
<path class="st7" d="M126.53,120.08h77.97v20h-77.97V120.08z"/>
<path class="st7" d="M126.53,155.08h31.77v20h-31.77V155.08z"/>
<path class="st7" d="M126.53,190.08h26.95v20h-26.95V190.08z"/>
<path class="st7" d="M126.53,224.08h24.07v20h-24.07V224.08z"/>
<path class="st7" d="M126.53,259.08h56.79v20h-56.79V259.08z"/>
</svg>
