<?xml version="1.0" encoding="utf-8"?>
<!-- Generator: Adobe Illustrator 27.1.1, SVG Export Plug-In . SVG Version: 6.00 Build 0)  -->
<svg version="1.1" id="Camada_1" xmlns="http://www.w3.org/2000/svg" xmlns:xlink="http://www.w3.org/1999/xlink" x="0px" y="0px"
	 viewBox="0 0 212.97 93.98" style="enable-background:new 0 0 212.97 93.98;" xml:space="preserve">
<style type="text/css">
	.st0{fill:#4493CD;}
	.st1{fill:#BDA93B;}
	.st2{fill:#C45791;}
	.st3{fill:#FFFFFF;}
	.st4{fill:#CFB632;}
	.st5{fill:#BFDFF7;}
	.st6{fill:#262626;}
	.st7{fill:#E5CF5F;}
	.st8{fill:#F1A5C9;}
	.st9{fill:#C8E6FA;}
	.st10{fill:#3E3E3E;}
	.st11{fill-rule:evenodd;clip-rule:evenodd;fill:#FAFAFA;}
	.st12{fill-rule:evenodd;clip-rule:evenodd;fill:#FFFFFF;}
	.st13{fill:#010202;}
	.st14{fill:#CCC8C9;}
	.st15{fill:#D9D9D9;}
	.st16{fill:none;stroke:#010202;}
	.st17{fill-rule:evenodd;clip-rule:evenodd;fill:#262626;}
</style>
<path class="st10" d="M48.48,2.62c1.56,0,2.82,0.51,3.81,1.54c0.98,1.02,1.47,2.36,1.47,4v33.46c0,1.56-0.45,2.79-1.35,3.69
	c-0.9,0.9-2.09,1.35-3.56,1.35c-1.43,0-2.62-0.45-3.56-1.35c-0.9-0.9-1.35-2.13-1.35-3.69V23.54l-7,12.91
	c-0.7,1.32-1.43,2.26-2.21,2.83c-0.78,0.54-1.7,0.8-2.76,0.8c-1.06,0-1.99-0.26-2.76-0.8c-0.78-0.57-1.51-1.51-2.21-2.83L20.06,23.9
	v17.72c0,1.52-0.47,2.75-1.41,3.69c-0.9,0.9-2.09,1.35-3.56,1.35c-1.43,0-2.62-0.45-3.56-1.35c-0.9-0.9-1.35-2.13-1.35-3.69V8.16
	c0-1.64,0.49-2.98,1.47-4c1.02-1.03,2.31-1.54,3.87-1.54c1.11,0,2.11,0.33,3.01,0.99c0.9,0.61,1.66,1.51,2.27,2.7l11.3,21.29
	L43.33,6.31C44.59,3.85,46.31,2.62,48.48,2.62z"/>
<path class="st10" d="M109.31,39.34c0.37,0.78,0.55,1.54,0.55,2.28c0,1.35-0.55,2.5-1.66,3.44c-1.06,0.95-2.29,1.42-3.68,1.42
	c-0.94,0-1.8-0.25-2.58-0.74c-0.78-0.49-1.39-1.23-1.84-2.21l-2.76-6.22H77.45l-2.82,6.22c-0.45,0.98-1.08,1.72-1.9,2.21
	c-0.78,0.49-1.64,0.74-2.58,0.74c-1.39,0-2.66-0.47-3.81-1.42c-1.1-0.94-1.66-2.09-1.66-3.44c0-0.74,0.18-1.5,0.55-2.28L81.44,6
	c0.53-1.1,1.31-1.94,2.33-2.52c1.06-0.61,2.23-0.92,3.5-0.92c1.23,0,2.37,0.31,3.44,0.92C91.77,4.06,92.57,4.9,93.1,6L109.31,39.34z
	 M81.25,28.83h12.28l-6.14-13.72L81.25,28.83z"/>
<path class="st10" d="M126.3,46.66c-1.72,0-3.09-0.49-4.11-1.47c-0.98-1.03-1.47-2.4-1.47-4.12V8.16c0-1.68,0.45-2.98,1.35-3.88
	c0.9-0.9,2.19-1.35,3.87-1.35h15.72c4.79,0,8.51,1.23,11.17,3.69c2.66,2.42,3.99,5.8,3.99,10.15c0,4.3-1.35,7.69-4.05,10.15
	c-2.66,2.46-6.36,3.69-11.11,3.69h-9.64v10.46c0,1.72-0.51,3.09-1.54,4.12C129.45,46.17,128.06,46.66,126.3,46.66z M140.11,22.12
	c2.09,0,3.62-0.43,4.6-1.29c1.02-0.86,1.54-2.19,1.54-4c0-3.57-2.05-5.35-6.14-5.35h-8.1v10.64H140.11z"/>
<path class="st10" d="M205.22,39.34c0.37,0.78,0.55,1.54,0.55,2.28c0,1.35-0.55,2.5-1.66,3.44c-1.06,0.95-2.29,1.42-3.68,1.42
	c-0.94,0-1.8-0.25-2.58-0.74c-0.78-0.49-1.39-1.23-1.84-2.21l-2.76-6.22h-19.89l-2.82,6.22c-0.45,0.98-1.08,1.72-1.9,2.21
	c-0.78,0.49-1.64,0.74-2.58,0.74c-1.39,0-2.66-0.47-3.81-1.42c-1.11-0.94-1.66-2.09-1.66-3.44c0-0.74,0.18-1.5,0.55-2.28L177.35,6
	c0.53-1.1,1.31-1.94,2.33-2.52c1.06-0.61,2.23-0.92,3.5-0.92c1.23,0,2.37,0.31,3.44,0.92c1.07,0.58,1.86,1.42,2.39,2.52
	L205.22,39.34z M177.17,28.83h12.28l-6.14-13.72L177.17,28.83z"/>
<path class="st10" d="M9.3,90.22c-0.14,0.46-0.37,0.8-0.69,1.01c-0.31,0.22-0.66,0.33-1.05,0.33c-0.48,0-0.91-0.17-1.3-0.51
	c-0.36-0.31-0.54-0.72-0.54-1.23c0-0.21,0.04-0.43,0.11-0.65l8.38-26.3c0.15-0.46,0.37-0.8,0.69-1.02c0.31-0.21,0.66-0.32,1.05-0.32
	c0.48,0,0.9,0.17,1.26,0.5c0.39,0.32,0.58,0.73,0.58,1.23c0,0.22-0.04,0.44-0.11,0.66L9.3,90.22z"/>
<path class="st10" d="M22.54,90.22c-0.14,0.46-0.37,0.8-0.69,1.01c-0.31,0.22-0.66,0.33-1.05,0.33c-0.48,0-0.91-0.17-1.3-0.51
	c-0.36-0.31-0.54-0.72-0.54-1.23c0-0.21,0.04-0.43,0.11-0.65l8.38-26.3c0.14-0.46,0.37-0.8,0.69-1.02c0.31-0.21,0.66-0.32,1.05-0.32
	c0.48,0,0.9,0.17,1.26,0.5c0.38,0.32,0.58,0.73,0.58,1.23c0,0.22-0.04,0.44-0.11,0.66L22.54,90.22z"/>
<path class="st10" d="M35.78,90.22c-0.14,0.46-0.37,0.8-0.69,1.01c-0.31,0.22-0.66,0.33-1.05,0.33c-0.48,0-0.92-0.17-1.3-0.51
	c-0.36-0.31-0.54-0.72-0.54-1.23c0-0.21,0.04-0.43,0.11-0.65l8.38-26.3c0.14-0.46,0.37-0.8,0.69-1.02c0.31-0.21,0.66-0.32,1.05-0.32
	c0.48,0,0.9,0.17,1.26,0.5c0.38,0.32,0.58,0.73,0.58,1.23c0,0.22-0.04,0.44-0.11,0.66L35.78,90.22z"/>
<path class="st10" d="M72.88,63.3c0.67,0,1.22,0.22,1.62,0.65c0.41,0.41,0.61,0.97,0.61,1.67v21.42c0,0.67-0.19,1.2-0.58,1.59
	c-0.38,0.39-0.89,0.58-1.52,0.58c-0.63,0-1.12-0.19-1.48-0.58c-0.36-0.39-0.54-0.92-0.54-1.59V72.13l-6.14,11.65
	c-0.29,0.53-0.6,0.93-0.94,1.19c-0.34,0.25-0.73,0.37-1.19,0.37c-0.46,0-0.85-0.12-1.19-0.37c-0.34-0.24-0.65-0.63-0.94-1.19
	l-6.18-11.47v14.73c0,0.65-0.19,1.18-0.58,1.59c-0.36,0.39-0.85,0.58-1.48,0.58c-0.63,0-1.12-0.19-1.48-0.58
	c-0.36-0.39-0.54-0.92-0.54-1.59V65.62c0-0.7,0.19-1.26,0.58-1.67c0.41-0.43,0.95-0.65,1.63-0.65c0.94,0,1.67,0.52,2.2,1.56
	l8.02,15.3l7.98-15.3C71.28,63.82,71.99,63.3,72.88,63.3z"/>
<path class="st10" d="M86.49,88.99c-0.7,0-1.25-0.19-1.66-0.58c-0.38-0.38-0.58-0.93-0.58-1.63V65.69c0-0.7,0.19-1.24,0.58-1.63
	c0.41-0.39,0.96-0.58,1.66-0.58h13.04c0.7,0,1.24,0.16,1.62,0.47c0.39,0.32,0.58,0.76,0.58,1.34c0,0.6-0.19,1.07-0.58,1.41
	c-0.39,0.32-0.93,0.47-1.62,0.47H88.8v7.02h10c0.7,0,1.24,0.16,1.62,0.47c0.39,0.32,0.58,0.77,0.58,1.38c0,0.58-0.19,1.02-0.58,1.34
	c-0.38,0.31-0.93,0.47-1.62,0.47h-10v7.45h10.73c0.7,0,1.24,0.17,1.62,0.51c0.39,0.31,0.58,0.77,0.58,1.37
	c0,0.58-0.19,1.03-0.58,1.34c-0.39,0.31-0.93,0.47-1.62,0.47H86.49z"/>
<path class="st10" d="M128.41,63.3c0.67,0,1.2,0.22,1.59,0.65c0.41,0.41,0.61,0.97,0.61,1.67v21.24c0,0.7-0.2,1.26-0.61,1.7
	c-0.41,0.43-0.94,0.65-1.59,0.65c-0.77,0-1.36-0.28-1.77-0.83l-13.18-17.19v15.67c0,0.7-0.19,1.26-0.58,1.7
	c-0.38,0.43-0.91,0.65-1.59,0.65c-0.67,0-1.2-0.22-1.59-0.65c-0.39-0.44-0.58-1-0.58-1.7V65.62c0-0.7,0.2-1.26,0.61-1.67
	c0.41-0.43,0.95-0.65,1.62-0.65c0.75,0,1.32,0.28,1.73,0.83l13.14,17.12V65.62c0-0.7,0.19-1.26,0.58-1.67
	C127.23,63.52,127.76,63.3,128.41,63.3z"/>
<path class="st10" d="M148.06,89.17c-0.72,0-1.3-0.2-1.73-0.61c-0.41-0.44-0.61-1-0.61-1.7V67.32h-6.57c-1.44,0-2.17-0.64-2.17-1.92
	c0-1.28,0.72-1.92,2.17-1.92h17.8c1.45,0,2.17,0.64,2.17,1.92c0,1.28-0.72,1.92-2.17,1.92h-6.57v19.54c0,0.7-0.22,1.26-0.65,1.7
	C149.31,88.97,148.76,89.17,148.06,89.17z"/>
<path class="st10" d="M185.41,86.2c0.15,0.32,0.22,0.63,0.22,0.95c0,0.55-0.23,1.02-0.69,1.41c-0.43,0.38-0.94,0.58-1.52,0.58
	c-0.39,0-0.75-0.1-1.08-0.29c-0.34-0.22-0.6-0.55-0.79-0.98l-2.17-4.85h-12.71l-2.17,4.85c-0.19,0.43-0.46,0.76-0.79,0.98
	c-0.34,0.19-0.71,0.29-1.12,0.29c-0.55,0-1.06-0.2-1.52-0.58c-0.46-0.39-0.69-0.86-0.69-1.41c0-0.32,0.07-0.63,0.22-0.95l9.97-21.45
	c0.22-0.48,0.54-0.85,0.98-1.09c0.46-0.26,0.94-0.4,1.45-0.4c0.51,0,0.98,0.14,1.41,0.4c0.46,0.24,0.8,0.61,1.01,1.09L185.41,86.2z
	 M168.26,79.4h9.53l-4.77-10.74L168.26,79.4z"/>
<path class="st10" d="M194.96,88.99c-0.7,0-1.24-0.19-1.62-0.58c-0.39-0.38-0.58-0.91-0.58-1.59v-21.2c0-0.7,0.2-1.26,0.61-1.67
	c0.43-0.43,1-0.65,1.7-0.65c0.72,0,1.29,0.22,1.7,0.65c0.43,0.41,0.65,0.97,0.65,1.67v19.54h10.15c1.45,0,2.17,0.63,2.17,1.91
	s-0.72,1.92-2.17,1.92H194.96z"/>
</svg>
