<?xml version="1.0" encoding="utf-8"?>
<!-- Generator: Adobe Illustrator 27.1.1, SVG Export Plug-In . SVG Version: 6.00 Build 0)  -->
<svg version="1.1" id="Camada_1" xmlns="http://www.w3.org/2000/svg" xmlns:xlink="http://www.w3.org/1999/xlink" x="0px" y="0px"
	 viewBox="0 0 130.62 119.63" style="enable-background:new 0 0 130.62 119.63;" xml:space="preserve">
<style type="text/css">
	.st0{fill:#4493CD;}
	.st1{fill:#BDA93B;}
	.st2{fill:#C45791;}
	.st3{fill:#FFFFFF;}
	.st4{fill:#CFB632;}
	.st5{fill:#BFDFF7;}
	.st6{fill:#262626;}
	.st7{fill:#E5CF5F;}
	.st8{fill:#F1A5C9;}
	.st9{fill:#C8E6FA;}
	.st10{fill:#3E3E3E;}
	.st11{fill-rule:evenodd;clip-rule:evenodd;fill:#FAFAFA;}
	.st12{fill-rule:evenodd;clip-rule:evenodd;fill:#FFFFFF;}
	.st13{fill:#010202;}
	.st14{fill:#CCC8C9;}
	.st15{fill:#D9D9D9;}
	.st16{fill:none;stroke:#010202;}
	.st17{fill-rule:evenodd;clip-rule:evenodd;fill:#262626;}
</style>
<path class="st10" d="M111.94,79.15h-9.2V65.46c9.88-1.28,17.55-9.73,17.55-19.96c0-11.11-9.03-20.14-20.14-20.14
	S80.01,34.39,80.01,45.5c0,10.23,7.67,18.68,17.55,19.96v13.69h-9.2c-1.43,0-2.59,1.16-2.59,2.59c0,1.42,1.16,2.58,2.59,2.58h9.2
	v10.49c0,1.43,1.16,2.59,2.59,2.59c1.43,0,2.58-1.16,2.58-2.59V84.32h9.21c1.43,0,2.58-1.16,2.58-2.58
	C114.53,80.31,113.37,79.15,111.94,79.15z M85.18,45.5c0-8.26,6.72-14.97,14.97-14.97c8.26,0,14.97,6.71,14.97,14.97
	c0,8.25-6.71,14.97-14.97,14.97S85.18,53.75,85.18,45.5z"/>
<path class="st10" d="M61.34,31.34c-1.21,0-2.51,0.15-3.7,0.57c-1.32-4.64-5.33-5.73-8.81-5.73c-2.04,0-4.26,0.38-6.02,1.64
	C40.96,25.61,38.08,25,35.5,25c-3.42,0-7.38,1.06-8.75,5.54c-1.45-0.61-3.07-0.82-4.58-0.82c-4.22,0-9.25,1.6-9.25,9.25v22.44
	c0,21.33,10.66,33.56,29.25,33.56c18.32,0,27.61-11.29,27.61-33.56V49.13c0-0.02-0.01-0.03-0.01-0.04c0-0.04,0.01-0.07,0.01-0.11
	v-9.21C69.78,32.81,65.19,31.34,61.34,31.34L61.34,31.34z M61.34,36.52c2.81,0,3.26,0.77,3.26,3.25v9.21c0,5.52-2.45,5.52-3.26,5.52
	c-0.8,0-3.25,0-3.25-5.52v-9.21C58.09,37.29,58.54,36.52,61.34,36.52z M48.83,31.35c3.52,0,4.08,1.2,4.08,4.08v9.09h-8.16v-9.09
	C44.75,32.55,45.32,31.35,48.83,31.35z M31.42,34.25c0-2.88,0.57-4.08,4.08-4.08c3.52,0,4.08,1.2,4.08,4.08v10.27h-8.16v-5.55V34.25
	z M22.17,34.89c3.52,0,4.08,1.2,4.08,4.08v5.56c-3.08,0.03-5.9,1.11-8.16,2.88v-8.44C18.09,36.09,18.66,34.89,22.17,34.89z
	 M42.17,89.8c-10.99,0-24.08-4.93-24.08-28.39V58c0-4.58,3.73-8.31,8.31-8.31h24.78c-1.42,3.12-4.79,7.53-12.41,7.53h-8.89
	c-1.37,0-2.51,1.07-2.58,2.45c-0.08,1.37,0.93,2.56,2.3,2.71c0.41,0.04,9.98,1.19,9.98,10.01c0,1.43,1.16,2.59,2.59,2.59
	c1.42,0,2.58-1.16,2.58-2.59c0-4.46-1.65-7.74-3.94-10.08c6.49-0.56,10.69-3.76,13.25-7.3c1.36,2.99,3.87,4.66,7.28,4.66
	c1.2,0,2.29-0.21,3.26-0.61v2.35C64.6,80.78,57.47,89.8,42.17,89.8L42.17,89.8z"/>
</svg>
