<?xml version="1.0" encoding="utf-8"?>
<!-- Generator: Adobe Illustrator 27.1.1, SVG Export Plug-In . SVG Version: 6.00 Build 0)  -->
<svg version="1.1" id="Camada_1" xmlns="http://www.w3.org/2000/svg" xmlns:xlink="http://www.w3.org/1999/xlink" x="0px" y="0px"
	 viewBox="0 0 340.99 210.56" style="enable-background:new 0 0 340.99 210.56;" xml:space="preserve">
<style type="text/css">
	.st0{fill:#4493CD;}
	.st1{fill:#BDA93B;}
	.st2{fill:#C45791;}
	.st3{fill:#FFFFFF;}
	.st4{fill:#CFB632;}
	.st5{fill:#BFDFF7;}
	.st6{fill:#262626;}
	.st7{fill:#E5CF5F;}
	.st8{fill:#F1A5C9;}
	.st9{fill:#C8E6FA;}
	.st10{fill:#3E3E3E;}
	.st11{fill-rule:evenodd;clip-rule:evenodd;fill:#FAFAFA;}
	.st12{fill-rule:evenodd;clip-rule:evenodd;fill:#FFFFFF;}
	.st13{fill:#010202;}
	.st14{fill:#CCC8C9;}
	.st15{fill:#D9D9D9;}
	.st16{fill:none;stroke:#010202;}
	.st17{fill-rule:evenodd;clip-rule:evenodd;fill:#262626;}
</style>
<rect x="170.5" y="164.53" class="st6" width="170.5" height="46.03"/>
<rect y="83.54" class="st9" width="326.5" height="80.99"/>
<rect x="23.87" class="st7" width="257.45" height="83.54"/>
<path class="st6" d="M50.94,110.33H38.89v-3.76h28.46v3.76H55.36v35.45h-4.42V110.33z"/>
<path class="st6" d="M102.03,145.77l-9.73-16.95h-7.4v16.95h-4.42v-39.21h11.99c8.99,0,13.49,3.62,13.49,10.86
	c0,2.98-0.82,5.41-2.45,7.28c-1.59,1.87-3.82,3.1-6.68,3.7l10.21,17.36H102.03z M84.91,125.25h6.86c3.18,0,5.61-0.66,7.28-1.97
	c1.67-1.31,2.51-3.26,2.51-5.85s-0.82-4.43-2.45-5.55c-1.63-1.15-4.08-1.73-7.34-1.73h-6.86V125.25z"/>
<path class="st6" d="M120.08,106.57h22.26v3.76H124.5v12.95h15.04v3.7H124.5v15.04h18.44v3.76h-22.85V106.57z"/>
<path class="st6" d="M157.35,106.57h4.42v39.21h-4.42V106.57z"/>
<path class="st6" d="M178.64,106.57h4.54l14.8,25.42l4.3,8.06h0.24l-0.18-2.63c-0.04-0.64-0.12-1.97-0.24-4
	c-0.12-2.07-0.18-3.94-0.18-5.61v-21.24h4.18v39.21h-4.54l-14.8-25.42l-4.3-8.06h-0.24l0.18,2.86c0.28,3.46,0.42,6.5,0.42,9.13
	v21.48h-4.18V106.57z"/>
<path class="st6" d="M240.85,133.42h-14.62l-4,12.35h-4.48l13.43-39.21h4.89l13.37,39.21h-4.66L240.85,133.42z M239.72,129.9
	l-2.03-6.33c-1.59-4.97-2.94-9.41-4.06-13.31h-0.24c-1.31,4.81-2.65,9.25-4,13.31l-2.03,6.33H239.72z"/>
<path class="st6" d="M282.69,145.77l-9.73-16.95h-7.4v16.95h-4.42v-39.21h11.99c8.99,0,13.49,3.62,13.49,10.86
	c0,2.98-0.82,5.41-2.45,7.28c-1.59,1.87-3.82,3.1-6.68,3.7l10.2,17.36H282.69z M265.56,125.25h6.86c3.18,0,5.61-0.66,7.28-1.97
	c1.67-1.31,2.51-3.26,2.51-5.85s-0.82-4.43-2.45-5.55c-1.63-1.15-4.08-1.73-7.34-1.73h-6.86V125.25z"/>
<path class="st3" d="M204.91,178.52h1.33l-6.85,21.51h-1.34L204.91,178.52z"/>
<path class="st3" d="M216.07,178.52h1.33l-6.85,21.51h-1.34L216.07,178.52z"/>
<path class="st3" d="M227.23,178.52h1.33l-6.85,21.51h-1.34L227.23,178.52z"/>
<path class="st3" d="M241,179.83h1.83v14.68H250v1.56h-9V179.83z"/>
<path class="st3" d="M260.65,196.37c-1.35,0-2.55-0.35-3.58-1.04c-1.04-0.69-1.85-1.68-2.45-2.97c-0.58-1.28-0.86-2.78-0.86-4.47
	c0-1.7,0.29-3.17,0.86-4.43c0.59-1.27,1.41-2.24,2.45-2.92c1.04-0.68,2.23-1.01,3.58-1.01c1.33,0,2.52,0.34,3.56,1.01
	c1.04,0.68,1.85,1.65,2.42,2.92c0.59,1.25,0.89,2.73,0.89,4.43c0,1.7-0.3,3.19-0.89,4.47c-0.58,1.29-1.38,2.28-2.42,2.97
	C263.17,196.02,261.99,196.37,260.65,196.37z M260.65,194.76c0.99,0,1.85-0.28,2.6-0.84c0.76-0.58,1.34-1.38,1.76-2.4
	c0.41-1.04,0.62-2.25,0.62-3.63c0-1.37-0.21-2.55-0.62-3.56c-0.41-1.02-1-1.8-1.76-2.35c-0.74-0.56-1.61-0.84-2.6-0.84
	c-1.01,0-1.89,0.28-2.65,0.84c-0.74,0.54-1.32,1.33-1.73,2.35c-0.41,1.01-0.62,2.19-0.62,3.56c0,1.38,0.21,2.6,0.62,3.63
	c0.41,1.04,1,1.84,1.75,2.4S259.67,194.76,260.65,194.76z"/>
<path class="st3" d="M279.82,196.37c-1.42,0-2.68-0.34-3.78-1.01c-1.09-0.68-1.94-1.65-2.55-2.92c-0.61-1.27-0.91-2.76-0.91-4.47
	s0.31-3.21,0.94-4.48c0.63-1.27,1.5-2.24,2.62-2.92c1.12-0.69,2.4-1.04,3.83-1.04c1.8,0,3.34,0.66,4.62,1.98l-1.01,1.21
	c-0.99-1.05-2.18-1.58-3.56-1.58c-1.12,0-2.1,0.28-2.94,0.84c-0.82,0.54-1.47,1.33-1.93,2.35c-0.45,1.01-0.67,2.2-0.67,3.58
	c0,2.11,0.49,3.78,1.46,5.02c0.97,1.22,2.32,1.83,4.05,1.83c0.61,0,1.19-0.09,1.76-0.27c0.56-0.2,1.01-0.45,1.36-0.77v-4.43h-3.56
	v-1.53h5.24v6.72c-0.54,0.58-1.24,1.04-2.1,1.38C281.83,196.2,280.87,196.37,279.82,196.37z"/>
<path class="st3" d="M291.22,179.83h1.83v16.24h-1.83V179.83z"/>
<path class="st3" d="M300.04,179.83h1.88l6.13,10.53l1.78,3.34h0.1l-0.07-1.09c-0.02-0.26-0.05-0.82-0.1-1.66
	c-0.05-0.86-0.07-1.63-0.07-2.32v-8.8h1.73v16.24h-1.88l-6.13-10.53l-1.78-3.34h-0.1l0.07,1.19c0.11,1.43,0.17,2.7,0.17,3.78v8.9
	h-1.73V179.83z"/>
<path class="st6" d="M85.62,70.87c-0.72,0.36-1.67,0.64-2.87,0.84c-1.15,0.24-2.43,0.36-3.82,0.36c-3.9,0-7.26-0.93-10.08-2.8
	c-2.82-1.87-4.93-4.38-6.33-7.52c-4.22-0.84-7.58-3-10.08-6.51c-2.47-3.54-3.7-8.04-3.7-13.49c0-4.18,0.74-7.76,2.21-10.74
	c1.47-3.02,3.52-5.33,6.15-6.92c2.66-1.59,5.73-2.39,9.19-2.39c3.46,0,6.51,0.79,9.13,2.39c2.67,1.59,4.71,3.9,6.15,6.92
	c1.47,3.02,2.21,6.6,2.21,10.74c0,5.21-1.13,9.55-3.4,13.01c-2.23,3.42-5.29,5.67-9.19,6.74c0.84,1.35,2.03,2.35,3.58,2.98
	c1.55,0.68,3.26,1.01,5.13,1.01c1.47,0,2.9-0.22,4.3-0.66L85.62,70.87z M57.15,41.75c0,4.26,0.82,7.6,2.45,10.02
	c1.63,2.43,3.86,3.64,6.68,3.64c2.79,0,4.99-1.21,6.62-3.64c1.67-2.43,2.51-5.77,2.51-10.02c0-4.02-0.84-7.18-2.51-9.49
	c-1.63-2.31-3.84-3.46-6.62-3.46c-2.82,0-5.05,1.15-6.68,3.46C57.97,34.53,57.15,37.69,57.15,41.75z"/>
<path class="st6" d="M112.33,62.1c-4.97,0-8.77-1.49-11.4-4.48c-2.59-2.98-3.88-7.64-3.88-13.96V22.41h8.18v22.02
	c0,3.78,0.6,6.48,1.79,8.12c1.19,1.63,2.96,2.45,5.31,2.45c2.39,0,4.2-0.82,5.43-2.45c1.23-1.63,1.85-4.34,1.85-8.12V22.41h7.88
	v21.24c0,6.33-1.29,10.98-3.88,13.96C121.06,60.6,117.3,62.1,112.33,62.1z"/>
<path class="st6" d="M142.71,22.41h24.11v6.86h-15.93v8.53h13.55v6.86h-13.55v9.85h16.53v6.86h-24.71V22.41z"/>
<path class="st6" d="M202.32,61.38l-7.76-14.44h-5.19v14.44h-8.18V22.41h13.72c4.54,0,8.14,0.93,10.8,2.8c2.67,1.83,4,4.87,4,9.13
	c0,2.79-0.64,5.13-1.91,7.04c-1.27,1.87-3.04,3.26-5.31,4.18l9.01,15.81H202.32z M189.37,40.43h4.83c2.47,0,4.34-0.5,5.61-1.49
	c1.27-1.03,1.91-2.57,1.91-4.6c0-1.95-0.62-3.34-1.85-4.18c-1.23-0.83-3.12-1.25-5.67-1.25h-4.83V40.43z"/>
<path class="st6" d="M238.99,62.1c-3.46,0-6.52-0.82-9.19-2.45c-2.63-1.63-4.68-3.98-6.15-7.04c-1.47-3.1-2.21-6.72-2.21-10.86
	c0-4.18,0.74-7.76,2.21-10.74c1.47-3.02,3.52-5.33,6.15-6.92c2.67-1.59,5.73-2.39,9.19-2.39c3.46,0,6.5,0.79,9.13,2.39
	c2.66,1.59,4.71,3.9,6.15,6.92c1.47,3.02,2.21,6.6,2.21,10.74c0,4.14-0.74,7.76-2.21,10.86c-1.43,3.06-3.48,5.41-6.15,7.04
	C245.49,61.28,242.45,62.1,238.99,62.1z M238.99,54.99c2.78,0,4.99-1.19,6.62-3.58c1.67-2.39,2.51-5.61,2.51-9.67
	c0-4.02-0.84-7.18-2.51-9.49c-1.63-2.31-3.84-3.46-6.62-3.46c-2.83,0-5.05,1.15-6.68,3.46c-1.63,2.27-2.45,5.43-2.45,9.49
	s0.82,7.28,2.45,9.67C233.98,53.8,236.2,54.99,238.99,54.99z"/>
</svg>
