<?xml version="1.0" encoding="utf-8"?>
<!-- Generator: Adobe Illustrator 27.1.1, SVG Export Plug-In . SVG Version: 6.00 Build 0)  -->
<svg version="1.1" id="Camada_1" xmlns="http://www.w3.org/2000/svg" xmlns:xlink="http://www.w3.org/1999/xlink" x="0px" y="0px"
	 viewBox="0 0 366 210.24" style="enable-background:new 0 0 366 210.24;" xml:space="preserve">
<style type="text/css">
	.st0{fill:#4493CD;}
	.st1{fill:#BDA93B;}
	.st2{fill:#C45791;}
	.st3{fill:#FFFFFF;}
	.st4{fill:#CFB632;}
	.st5{fill:#BFDFF7;}
	.st6{fill:#262626;}
	.st7{fill:#E5CF5F;}
	.st8{fill:#F1A5C9;}
	.st9{fill:#C8E6FA;}
	.st10{fill:#3E3E3E;}
	.st11{fill-rule:evenodd;clip-rule:evenodd;fill:#FAFAFA;}
	.st12{fill-rule:evenodd;clip-rule:evenodd;fill:#FFFFFF;}
	.st13{fill:#010202;}
	.st14{fill:#CCC8C9;}
	.st15{fill:#D9D9D9;}
	.st16{fill:none;stroke:#010202;}
	.st17{fill-rule:evenodd;clip-rule:evenodd;fill:#262626;}
</style>
<rect x="170.23" y="164.27" class="st6" width="170.23" height="45.96"/>
<rect y="83.41" class="st8" width="366" height="80.86"/>
<rect x="23.83" class="st7" width="257.05" height="83.41"/>
<path class="st6" d="M50.39,133.21H35.8l-3.99,12.33h-4.47l13.41-39.15h4.89l13.35,39.15h-4.65L50.39,133.21z M49.26,129.7
	l-2.03-6.32c-1.59-4.96-2.94-9.39-4.05-13.29h-0.24c-1.31,4.81-2.64,9.24-3.99,13.29l-2.02,6.32H49.26z"/>
<path class="st6" d="M70.66,106.4H81.5c4.65,0,8.22,0.89,10.72,2.68c2.54,1.75,3.81,4.65,3.81,8.7c0,3.93-1.27,6.91-3.81,8.94
	c-2.54,1.99-6.04,2.98-10.49,2.98h-6.67v15.85h-4.41V106.4z M81.08,126.07c3.62,0,6.28-0.66,7.98-1.97
	c1.71-1.35,2.56-3.45,2.56-6.32c0-2.86-0.87-4.87-2.62-6.02c-1.75-1.19-4.47-1.79-8.16-1.79h-5.78v16.09H81.08z"/>
<path class="st6" d="M131.58,145.55l-9.71-16.92h-7.39v16.92h-4.41V106.4h11.98c8.98,0,13.46,3.61,13.46,10.84
	c0,2.98-0.81,5.4-2.44,7.27c-1.59,1.87-3.81,3.1-6.67,3.69l10.19,17.34H131.58z M114.48,125.05h6.85c3.18,0,5.6-0.66,7.27-1.97
	c1.67-1.31,2.5-3.26,2.5-5.84c0-2.58-0.81-4.43-2.44-5.54c-1.63-1.15-4.07-1.73-7.33-1.73h-6.85V125.05z"/>
<path class="st6" d="M149.6,106.4h22.22v3.75h-17.81v12.93h15.01v3.69h-15.01v15.01h18.41v3.75H149.6V106.4z"/>
<path class="st6" d="M186.8,106.4h4.53l14.78,25.38l4.29,8.04h0.24l-0.18-2.62c-0.04-0.64-0.12-1.97-0.24-3.99
	c-0.12-2.07-0.18-3.93-0.18-5.6V106.4h4.17v39.15h-4.53l-14.78-25.38l-4.29-8.04h-0.24l0.18,2.86c0.28,3.45,0.42,6.49,0.42,9.11
	v21.45h-4.17V106.4z"/>
<path class="st6" d="M231.11,106.4h9.59c5.96,0,10.49,1.69,13.58,5.06c3.14,3.38,4.71,8.16,4.71,14.36c0,6.2-1.57,11.04-4.71,14.54
	c-3.1,3.46-7.57,5.18-13.41,5.18h-9.77V106.4z M240.34,141.91c4.69,0,8.2-1.39,10.55-4.17c2.38-2.82,3.57-6.79,3.57-11.92
	c0-5.04-1.19-8.94-3.57-11.68c-2.34-2.74-5.86-4.11-10.55-4.11h-4.83v31.88H240.34z"/>
<path class="st6" d="M273.6,106.4h22.23v3.75h-17.82v12.93h15.02v3.69h-15.02v15.01h18.41v3.75H273.6V106.4z"/>
<path class="st6" d="M332.32,145.55l-9.72-16.92h-7.38v16.92h-4.41V106.4h11.97c8.98,0,13.47,3.61,13.47,10.84
	c0,2.98-0.82,5.4-2.44,7.27c-1.59,1.87-3.82,3.1-6.68,3.69l10.19,17.34H332.32z M315.22,125.05h6.85c3.18,0,5.6-0.66,7.27-1.97
	c1.67-1.31,2.5-3.26,2.5-5.84c0-2.58-0.81-4.43-2.44-5.54c-1.63-1.15-4.07-1.73-7.33-1.73h-6.85V125.05z"/>
<path class="st3" d="M193.88,178.24h1.33l-6.84,21.47h-1.33L193.88,178.24z"/>
<path class="st3" d="M205.03,178.24h1.33l-6.84,21.47h-1.33L205.03,178.24z"/>
<path class="st3" d="M216.17,178.24h1.33l-6.84,21.47h-1.33L216.17,178.24z"/>
<path class="st3" d="M229.92,179.55h9.21v1.56h-7.38v5.36h6.22v1.53h-6.22v6.22h7.63v1.55h-9.45V179.55z"/>
<path class="st3" d="M248.73,181.11h-4.99v-1.56h11.77v1.56h-4.96v14.66h-1.83V181.11z"/>
<path class="st3" d="M267.35,190.66h-6.05l-1.65,5.11h-1.85l5.55-16.22h2.02l5.53,16.22h-1.93L267.35,190.66z M266.88,189.2
	l-0.84-2.62c-0.66-2.06-1.22-3.89-1.68-5.5h-0.1c-0.54,1.99-1.09,3.83-1.65,5.5l-0.84,2.62H266.88z"/>
<path class="st3" d="M275.74,179.55h4.49c1.92,0,3.4,0.37,4.44,1.11c1.05,0.72,1.58,1.93,1.58,3.6c0,1.63-0.53,2.86-1.58,3.7
	c-1.05,0.82-2.5,1.23-4.34,1.23h-2.77v6.57h-1.83V179.55z M280.06,187.7c1.5,0,2.6-0.27,3.31-0.82c0.71-0.56,1.06-1.43,1.06-2.62
	c0-1.19-0.36-2.02-1.08-2.49c-0.73-0.49-1.85-0.74-3.38-0.74h-2.39v6.67H280.06z"/>
<path class="st3" d="M298.22,190.66h-6.04l-1.66,5.11h-1.85l5.56-16.22h2.02l5.53,16.22h-1.93L298.22,190.66z M297.76,189.2
	l-0.84-2.62c-0.66-2.06-1.22-3.89-1.68-5.5h-0.1c-0.54,1.99-1.1,3.83-1.65,5.5l-0.84,2.62H297.76z"/>
<path class="st3" d="M312.74,194.71c1.86-1.88,3.3-3.38,4.32-4.52c1.02-1.14,1.81-2.18,2.35-3.14c0.56-0.95,0.84-1.85,0.84-2.69
	c0-0.96-0.26-1.72-0.79-2.3c-0.53-0.58-1.3-0.86-2.32-0.86c-0.63,0-1.24,0.17-1.83,0.52c-0.57,0.35-1.11,0.81-1.6,1.41l-1.06-1.04
	c0.69-0.76,1.41-1.34,2.17-1.75c0.76-0.41,1.6-0.62,2.54-0.62c1.43,0,2.57,0.42,3.41,1.26c0.84,0.82,1.26,1.93,1.26,3.31
	c0,0.95-0.28,1.93-0.82,2.94c-0.53,1-1.22,2.02-2.1,3.04c-0.87,1.02-2.11,2.38-3.72,4.07l0.59-0.02c0.92-0.07,1.6-0.1,2.05-0.1h4.76
	v1.55h-10.05V194.71z"/>
<path class="st6" d="M85.48,70.76c-0.71,0.36-1.67,0.64-2.86,0.83c-1.15,0.24-2.42,0.36-3.81,0.36c-3.89,0-7.25-0.93-10.07-2.8
	c-2.82-1.87-4.92-4.37-6.32-7.51c-4.21-0.83-7.57-3-10.07-6.49c-2.46-3.54-3.69-8.02-3.69-13.47c0-4.17,0.73-7.74,2.21-10.72
	c1.47-3.02,3.51-5.32,6.14-6.91c2.66-1.59,5.72-2.38,9.18-2.38c3.46,0,6.49,0.8,9.12,2.38c2.66,1.59,4.71,3.89,6.14,6.91
	c1.47,3.02,2.2,6.59,2.2,10.72c0,5.2-1.13,9.53-3.4,12.99c-2.22,3.42-5.28,5.66-9.17,6.73c0.83,1.35,2.02,2.34,3.58,2.98
	c1.55,0.68,3.26,1.01,5.12,1.01c1.47,0,2.9-0.22,4.29-0.66L85.48,70.76z M57.07,41.68c0,4.25,0.81,7.59,2.44,10.01
	c1.63,2.42,3.85,3.63,6.67,3.63c2.78,0,4.98-1.21,6.61-3.63c1.67-2.42,2.5-5.76,2.5-10.01c0-4.01-0.83-7.17-2.5-9.47
	c-1.63-2.3-3.83-3.46-6.61-3.46c-2.82,0-5.05,1.15-6.67,3.46C57.88,34.47,57.07,37.63,57.07,41.68z"/>
<path class="st6" d="M112.16,62c-4.97,0-8.76-1.49-11.38-4.47c-2.58-2.98-3.87-7.63-3.87-13.94V22.38h8.16v21.99
	c0,3.77,0.6,6.47,1.79,8.1c1.19,1.63,2.96,2.44,5.3,2.44c2.38,0,4.19-0.81,5.42-2.44c1.23-1.63,1.85-4.33,1.85-8.1V22.38h7.86v21.21
	c0,6.32-1.29,10.96-3.87,13.94C120.88,60.51,117.12,62,112.16,62z"/>
<path class="st6" d="M142.49,22.38h24.07v6.85h-15.91v8.52h13.53v6.85h-13.53v9.83h16.5v6.85h-24.67V22.38z"/>
<path class="st6" d="M202.01,61.28l-7.74-14.42h-5.18v14.42h-8.16V22.38h13.7c4.53,0,8.12,0.93,10.78,2.8
	c2.66,1.83,3.99,4.87,3.99,9.12c0,2.78-0.64,5.12-1.91,7.03c-1.27,1.87-3.04,3.26-5.3,4.17l9,15.79H202.01z M189.08,40.37h4.83
	c2.46,0,4.33-0.5,5.6-1.49c1.27-1.03,1.91-2.56,1.91-4.59c0-1.95-0.61-3.34-1.85-4.17c-1.23-0.83-3.12-1.25-5.66-1.25h-4.83V40.37z"
	/>
<path class="st6" d="M238.62,62c-3.46,0-6.51-0.82-9.18-2.44c-2.62-1.63-4.67-3.97-6.14-7.03c-1.47-3.1-2.2-6.71-2.2-10.84
	c0-4.17,0.73-7.74,2.2-10.72c1.47-3.02,3.52-5.32,6.14-6.91c2.66-1.59,5.72-2.38,9.18-2.38c3.46,0,6.49,0.8,9.12,2.38
	c2.66,1.59,4.71,3.89,6.14,6.91c1.47,3.02,2.21,6.59,2.21,10.72s-0.73,7.75-2.21,10.84c-1.43,3.06-3.47,5.4-6.14,7.03
	C245.11,61.18,242.07,62,238.62,62z M238.62,54.91c2.78,0,4.99-1.19,6.61-3.57c1.67-2.38,2.5-5.6,2.5-9.65
	c0-4.01-0.84-7.17-2.5-9.47c-1.63-2.3-3.83-3.46-6.61-3.46c-2.82,0-5.04,1.15-6.67,3.46c-1.63,2.26-2.44,5.42-2.44,9.47
	c0,4.05,0.81,7.27,2.44,9.65C233.61,53.72,235.84,54.91,238.62,54.91z"/>
</svg>
