<?xml version="1.0" encoding="utf-8"?>
<!-- Generator: Adobe Illustrator 27.1.1, SVG Export Plug-In . SVG Version: 6.00 Build 0)  -->
<svg version="1.1" id="Camada_1" xmlns="http://www.w3.org/2000/svg" xmlns:xlink="http://www.w3.org/1999/xlink" x="0px" y="0px"
	 viewBox="0 0 369.2 143.49" style="enable-background:new 0 0 369.2 143.49;" xml:space="preserve">
<style type="text/css">
	.st0{fill:#4493CD;}
	.st1{fill:#BDA93B;}
	.st2{fill:#C45791;}
	.st3{fill:#FFFFFF;}
	.st4{fill:#CFB632;}
	.st5{fill:#BFDFF7;}
	.st6{fill:#262626;}
	.st7{fill:#E5CF5F;}
	.st8{fill:#F1A5C9;}
	.st9{fill:#C8E6FA;}
	.st10{fill:#3E3E3E;}
	.st11{fill-rule:evenodd;clip-rule:evenodd;fill:#FAFAFA;}
	.st12{fill-rule:evenodd;clip-rule:evenodd;fill:#FFFFFF;}
	.st13{fill:#010202;}
	.st14{fill:#CCC8C9;}
	.st15{fill:#D9D9D9;}
	.st16{fill:none;stroke:#010202;}
	.st17{fill-rule:evenodd;clip-rule:evenodd;fill:#262626;}
</style>
<rect x="65.15" y="96.18" class="st5" width="304.04" height="47.31"/>
<path class="st6" d="M96.06,116.76h1.82l-4.27,17.55h-1.82L96.06,116.76z"/>
<path class="st6" d="M104.95,116.76h1.82l-4.27,17.55h-1.82L104.95,116.76z"/>
<path class="st6" d="M113.84,116.76h1.82l-4.28,17.55h-1.82L113.84,116.76z"/>
<path class="st6" d="M125.84,117.91h8.15v2.32h-5.38v2.88h4.58v2.32h-4.58v3.33h5.59v2.32h-8.35V117.91z"/>
<path class="st6" d="M142.82,131.32c-0.89,0-1.75-0.16-2.6-0.48c-0.85-0.34-1.59-0.81-2.24-1.43l1.59-1.9
	c0.48,0.43,1.01,0.77,1.59,1.03c0.59,0.26,1.16,0.38,1.71,0.38c0.64,0,1.14-0.12,1.47-0.36c0.35-0.26,0.52-0.61,0.52-1.05
	c0-0.28-0.08-0.52-0.24-0.71c-0.15-0.19-0.34-0.34-0.59-0.46c-0.23-0.12-0.6-0.29-1.13-0.5l-1.73-0.75
	c-0.78-0.32-1.42-0.77-1.92-1.35c-0.5-0.59-0.75-1.33-0.75-2.22c0-0.71,0.19-1.36,0.58-1.94c0.4-0.59,0.95-1.06,1.65-1.39
	c0.7-0.35,1.49-0.52,2.36-0.52c0.77,0,1.52,0.15,2.26,0.46c0.74,0.29,1.38,0.71,1.92,1.25l-1.39,1.75
	c-0.46-0.36-0.91-0.63-1.35-0.81c-0.44-0.18-0.92-0.26-1.43-0.26c-0.55,0-0.99,0.11-1.31,0.34c-0.32,0.23-0.48,0.54-0.48,0.95
	c0,0.28,0.08,0.52,0.24,0.71c0.18,0.19,0.38,0.34,0.62,0.46c0.26,0.12,0.65,0.29,1.17,0.5l1.69,0.69c0.85,0.35,1.5,0.81,1.96,1.39
	c0.46,0.57,0.69,1.29,0.69,2.18c0,0.74-0.19,1.42-0.58,2.04c-0.39,0.6-0.96,1.09-1.69,1.45
	C144.68,131.14,143.81,131.32,142.82,131.32z"/>
<path class="st6" d="M157.41,131.32c-1.13,0-2.16-0.26-3.09-0.79c-0.91-0.52-1.64-1.29-2.18-2.3c-0.54-1.02-0.81-2.25-0.81-3.67
	c0-1.41,0.27-2.64,0.83-3.67c0.55-1.05,1.3-1.85,2.24-2.4c0.94-0.55,1.97-0.83,3.08-0.83c0.79,0,1.52,0.16,2.18,0.48
	c0.67,0.31,1.25,0.71,1.74,1.21l-1.47,1.77c-0.36-0.35-0.74-0.61-1.13-0.79c-0.38-0.19-0.79-0.28-1.25-0.28
	c-0.65,0-1.22,0.18-1.73,0.54c-0.51,0.35-0.92,0.86-1.21,1.53c-0.28,0.66-0.42,1.43-0.42,2.32c0,1.38,0.3,2.47,0.89,3.27
	c0.6,0.79,1.42,1.19,2.44,1.19c1.01,0,1.89-0.42,2.64-1.27l1.47,1.73C160.52,130.68,159.12,131.32,157.41,131.32z"/>
<path class="st6" d="M172.84,131.08l-2.62-4.88h-1.76v4.88h-2.76v-13.17h4.64c1.53,0,2.75,0.32,3.65,0.95
	c0.9,0.62,1.35,1.65,1.35,3.09c0,0.94-0.21,1.73-0.64,2.38c-0.43,0.63-1.03,1.1-1.8,1.41l3.05,5.34H172.84z M168.46,124h1.63
	c0.83,0,1.46-0.17,1.9-0.5c0.43-0.35,0.65-0.87,0.65-1.55c0-0.66-0.21-1.13-0.62-1.41c-0.42-0.28-1.06-0.42-1.92-0.42h-1.63V124z"/>
<path class="st6" d="M179.95,117.91h8.15v2.32h-5.38v2.88h4.58v2.32h-4.58v3.33h5.59v2.32h-8.35V117.91z"/>
<path class="st6" d="M191.24,117.91h2.92l1.67,6.29c0.2,0.73,0.38,1.43,0.54,2.12c0.43,1.69,0.61,2.41,0.54,2.14h0.08
	c0.07-0.24,0.3-1.12,0.69-2.64l0.4-1.61l1.65-6.29h2.82l-4.01,13.17h-3.31L191.24,117.91z"/>
<path class="st6" d="M206.06,117.91h8.15v2.32h-5.38v2.88h4.58v2.32h-4.58v3.33h5.59v2.32h-8.35V117.91z"/>
<path class="st6" d="M226.2,131.08l-2.62-4.88h-1.76v4.88h-2.76v-13.17h4.64c1.53,0,2.75,0.32,3.65,0.95
	c0.9,0.62,1.35,1.65,1.35,3.09c0,0.94-0.21,1.73-0.65,2.38c-0.43,0.63-1.03,1.1-1.79,1.41l3.04,5.34H226.2z M221.83,124h1.63
	c0.83,0,1.46-0.17,1.89-0.5c0.43-0.35,0.65-0.87,0.65-1.55c0-0.66-0.21-1.13-0.62-1.41c-0.42-0.28-1.05-0.42-1.92-0.42h-1.63V124z"
	/>
<path class="st6" d="M239.36,117.91h4.4c1.59,0,2.84,0.33,3.77,0.99c0.94,0.64,1.41,1.71,1.41,3.19c0,1.45-0.48,2.55-1.43,3.29
	c-0.95,0.74-2.18,1.11-3.67,1.11h-1.71v4.6h-2.76V117.91z M243.66,124.28c1.72,0,2.58-0.73,2.58-2.2c0-0.7-0.22-1.2-0.67-1.51
	c-0.43-0.31-1.1-0.46-2-0.46h-1.45v4.17H243.66z"/>
<path class="st6" d="M258.44,127.79h-4.13l-0.89,3.29h-2.82l4.2-13.17h3.29l4.17,13.17h-2.92L258.44,127.79z M257.88,125.66
	l-0.36-1.35c-0.16-0.59-0.4-1.52-0.73-2.78l-0.38-1.49h-0.08c-0.4,1.73-0.76,3.16-1.07,4.28l-0.36,1.35H257.88z"/>
<path class="st6" d="M272.91,131.08l-2.62-4.88h-1.75v4.88h-2.76v-13.17h4.64c1.53,0,2.75,0.32,3.65,0.95
	c0.9,0.62,1.35,1.65,1.35,3.09c0,0.94-0.21,1.73-0.64,2.38c-0.43,0.63-1.03,1.1-1.8,1.41l3.05,5.34H272.91z M268.53,124h1.63
	c0.83,0,1.47-0.17,1.9-0.5c0.43-0.35,0.65-0.87,0.65-1.55c0-0.66-0.21-1.13-0.62-1.41c-0.42-0.28-1.06-0.42-1.92-0.42h-1.63V124z"/>
<path class="st6" d="M286.01,127.79h-4.13l-0.89,3.29h-2.82l4.2-13.17h3.29l4.17,13.17h-2.92L286.01,127.79z M285.44,125.66
	l-0.36-1.35c-0.16-0.59-0.4-1.52-0.73-2.78l-0.38-1.49h-0.08c-0.4,1.73-0.76,3.16-1.07,4.28l-0.36,1.35H285.44z"/>
<path class="st6" d="M297.68,117.91h2.92l1.67,6.29c0.2,0.73,0.38,1.43,0.55,2.12c0.43,1.69,0.61,2.41,0.54,2.14h0.08
	c0.07-0.24,0.3-1.12,0.68-2.64l0.4-1.61l1.65-6.29h2.82L305,131.08h-3.31L297.68,117.91z"/>
<path class="st6" d="M312.49,117.91h8.15v2.32h-5.39v2.88h4.58v2.32h-4.58v3.33h5.59v2.32h-8.35V117.91z"/>
<path class="st6" d="M332.64,131.08l-2.62-4.88h-1.75v4.88h-2.76v-13.17h4.64c1.53,0,2.75,0.32,3.65,0.95
	c0.9,0.62,1.35,1.65,1.35,3.09c0,0.94-0.22,1.73-0.65,2.38c-0.43,0.63-1.03,1.1-1.79,1.41l3.04,5.34H332.64z M328.26,124h1.63
	c0.83,0,1.47-0.17,1.9-0.5c0.43-0.35,0.65-0.87,0.65-1.55c0-0.66-0.21-1.13-0.62-1.41c-0.42-0.28-1.06-0.42-1.92-0.42h-1.63V124z"/>
<rect class="st7" width="339.72" height="106.26"/>
<path class="st6" d="M97.17,93.18c-2.51-0.25-5.66-0.46-9.43-0.63c-3.69-0.17-6.96-0.25-9.81-0.25H34.55l-0.38-6.79l8.05-2.14
	c0.17-0.42,0.34-1.55,0.5-3.39c0.17-1.84,0.29-4.19,0.38-7.04c0.08-2.85,0.13-5.95,0.13-9.3v-16.6c0-3.35-0.04-6.45-0.13-9.3
	c-0.08-2.93-0.21-5.28-0.38-7.04c-0.17-1.84-0.34-2.93-0.5-3.27l-8.05-2.14l0.38-6.79h37.97c1.93,0,4.23,0,6.92,0
	c2.77-0.08,5.45-0.17,8.05-0.25c2.6-0.17,4.74-0.34,6.41-0.5l3.65,19.36l-7.8,1.13l-4.9-11.32c-1.26-0.25-2.35-0.42-3.27-0.5
	c-0.84-0.08-1.76-0.13-2.77-0.13h-7.92c-1.59,0-3.19,0.04-4.78,0.13c-1.59,0-2.81,0.08-3.65,0.25c0,0.75-0.04,1.8-0.12,3.14
	c0,1.26-0.04,2.93-0.13,5.03c0,2.1,0,4.65,0,7.67v24.02c0,3.02,0,5.66,0,7.92c0.08,2.18,0.13,3.98,0.13,5.41
	c0.08,1.42,0.12,2.56,0.12,3.39c1.68,0.25,3.39,0.42,5.15,0.5c1.76,0.08,4.07,0.13,6.92,0.13h4.9c2.18,0,3.77,0,4.78,0
	c1.01-0.08,1.76-0.17,2.26-0.25c0.5-0.08,1.13-0.17,1.89-0.25l7.04-12.83l7.54,1.51L97.17,93.18z M80.45,67.4l-1.13-8.42
	c-0.59,0-1.59,0-3.02,0c-1.34-0.08-2.85-0.13-4.53-0.13h-5.78c-1.59,0-3.02,0.04-4.28,0.13c-1.26,0.08-2.1,0.17-2.51,0.25v-9.68
	c0.42,0.08,1.26,0.21,2.51,0.38c1.26,0.08,2.68,0.13,4.28,0.13h5.78c1.68,0,3.18,0,4.53,0c1.43-0.08,2.43-0.13,3.02-0.13l1.13-8.3
	h7.54V67.4H80.45z"/>
<path class="st6" d="M154.98,74.75V63.14c0-2.66-0.03-5.2-0.09-7.62c0-2.42-0.06-4.43-0.18-6.03c-0.06-1.65-0.18-2.63-0.35-2.92
	l-6.2-1.51l0.26-4.79H168l0.27,4.79l-5.76,1.51c-0.12,0.3-0.24,1.27-0.35,2.92c-0.06,1.6-0.12,3.6-0.18,6.03
	c-0.06,2.42-0.09,4.96-0.09,7.62v15.51c0,3.01,0,5.61,0,7.8c0,2.19,0,4.31,0,6.38h-5.85l-36.69-40.41l5.67-0.09v15.69
	c0,3.07,0.03,5.91,0.09,8.51c0.06,2.54,0.12,4.67,0.18,6.38c0.12,1.65,0.27,2.69,0.44,3.1l6.2,1.51l-0.27,4.79h-19.94l-0.26-4.79
	l5.76-1.51c0.12-0.41,0.21-1.51,0.27-3.28c0.06-1.77,0.12-3.96,0.18-6.56c0.06-2.66,0.09-5.38,0.09-8.15V57.38
	c0-1.12-0.03-2.45-0.09-3.99c-0.06-1.54-0.15-2.95-0.27-4.25c-0.06-1.3-0.12-2.16-0.18-2.57l-5.76-1.51l0.26-4.79h14.71l32.79,34.47
	H154.98z"/>
<path class="st6" d="M221.24,92.92c-1.77-0.18-3.99-0.32-6.65-0.44c-2.6-0.12-4.9-0.18-6.91-0.18h-30.57l-0.27-4.79l5.67-1.51
	c0.12-0.3,0.24-1.09,0.35-2.39c0.12-1.3,0.21-2.95,0.27-4.96c0.06-2.01,0.09-4.19,0.09-6.56V60.4c0-2.36-0.03-4.55-0.09-6.56
	c-0.06-2.07-0.15-3.72-0.27-4.96c-0.12-1.3-0.24-2.07-0.35-2.3l-5.67-1.51l0.27-4.79h26.76c1.36,0,2.98,0,4.88,0
	c1.95-0.06,3.84-0.12,5.67-0.18c1.83-0.12,3.34-0.24,4.52-0.35l2.57,13.65l-5.5,0.8l-3.46-7.98c-0.89-0.18-1.65-0.3-2.3-0.35
	c-0.59-0.06-1.24-0.09-1.95-0.09h-5.58c-1.12,0-2.24,0.03-3.37,0.09c-1.12,0-1.98,0.06-2.57,0.18c0,0.53-0.03,1.27-0.09,2.22
	c0,0.89-0.03,2.07-0.09,3.54c0,1.48,0,3.28,0,5.41v16.93c0,2.13,0,3.99,0,5.58c0.06,1.54,0.09,2.81,0.09,3.81
	c0.06,1,0.09,1.8,0.09,2.39c1.18,0.18,2.39,0.3,3.63,0.35c1.24,0.06,2.87,0.09,4.87,0.09h3.46c1.54,0,2.66,0,3.37,0
	c0.71-0.06,1.24-0.12,1.6-0.18c0.35-0.06,0.8-0.12,1.33-0.18l4.96-9.04l5.32,1.06L221.24,92.92z M209.45,74.75l-0.8-5.94
	c-0.41,0-1.12,0-2.13,0c-0.95-0.06-2.01-0.09-3.19-0.09h-4.08c-1.12,0-2.13,0.03-3.01,0.09c-0.89,0.06-1.48,0.12-1.77,0.18v-6.82
	c0.29,0.06,0.89,0.15,1.77,0.27c0.89,0.06,1.89,0.09,3.01,0.09h4.08c1.18,0,2.24,0,3.19,0c1-0.06,1.71-0.09,2.13-0.09l0.8-5.85h5.32
	v18.17H209.45z"/>
<path class="st6" d="M233.27,40.28h19.67l18.52,38.28h-2.84l16.22-38.28h20.12l0.27,4.79l-5.76,1.42c-0.06,1-0.06,2.39,0,4.17
	c0.06,1.77,0.12,3.99,0.18,6.65l0.62,15.33c0.12,2.3,0.24,4.43,0.35,6.38c0.12,1.95,0.24,3.54,0.35,4.79
	c0.12,1.24,0.21,1.98,0.27,2.22l5.67,1.51l-0.27,4.79h-25.79l-0.27-4.79l5.67-1.51c0.12-0.24,0.18-0.97,0.18-2.22
	c0.06-1.24,0.09-2.87,0.09-4.87c0.06-2.01,0.06-4.22,0-6.65l-0.35-29.42h4.7l-21,49.72h-6.38L239.2,42.85h6.65l0.09,30.66
	c0,4.37,0.03,7.47,0.09,9.31c0.06,1.83,0.12,2.89,0.18,3.19l6.2,1.51l-0.27,4.79h-20.03l-0.27-4.79l6.2-1.51
	c0.06-0.35,0.12-1.18,0.18-2.48c0.06-1.3,0.12-2.84,0.18-4.61c0.06-1.77,0.09-3.52,0.09-5.23l0.18-16.13
	c0.06-2.95,0.09-5.35,0.09-7.18c0-1.83,0-3.1,0-3.81L233,45.06L233.27,40.28z"/>
</svg>
