<?xml version="1.0" encoding="utf-8"?>
<!-- Generator: Adobe Illustrator 27.1.1, SVG Export Plug-In . SVG Version: 6.00 Build 0)  -->
<svg version="1.1" id="Camada_1" xmlns="http://www.w3.org/2000/svg" xmlns:xlink="http://www.w3.org/1999/xlink" x="0px" y="0px"
	 viewBox="0 0 123.04 121.89" style="enable-background:new 0 0 123.04 121.89;" xml:space="preserve">
<style type="text/css">
	.st0{fill:#4493CD;}
	.st1{fill:#BDA93B;}
	.st2{fill:#C45791;}
	.st3{fill:#FFFFFF;}
	.st4{fill:#CFB632;}
	.st5{fill:#BFDFF7;}
	.st6{fill:#262626;}
	.st7{fill:#E5CF5F;}
	.st8{fill:#F1A5C9;}
	.st9{fill:#C8E6FA;}
	.st10{fill:#3E3E3E;}
	.st11{fill-rule:evenodd;clip-rule:evenodd;fill:#FAFAFA;}
	.st12{fill-rule:evenodd;clip-rule:evenodd;fill:#FFFFFF;}
	.st13{fill:#010202;}
	.st14{fill:#CCC8C9;}
	.st15{fill:#D9D9D9;}
	.st16{fill:none;stroke:#010202;}
	.st17{fill-rule:evenodd;clip-rule:evenodd;fill:#262626;}
</style>
<path class="st10" d="M47.43,20.34c-1.15,0-2.13,0.85-2.28,1.99c-0.45,3.39-2.15,6.48-4.77,8.68c-2.63,2.19-5.98,3.33-9.39,3.18
	c-3.42-0.15-6.65-1.58-9.07-4c-2.42-2.41-3.84-5.65-3.99-9.07c-0.15-3.41,0.98-6.76,3.17-9.38c2.2-2.62,5.3-4.33,8.69-4.78
	c1.25,0,2.28-1.02,2.28-2.28S31.04,2.4,29.79,2.4c-0.91-0.11-1.83-0.16-2.74-0.14C21,2.26,15.2,4.67,10.93,8.94
	c-4.28,4.28-6.68,10.08-6.68,16.12c0,6.05,2.4,11.85,6.68,16.13c4.27,4.27,10.07,6.67,16.12,6.67c6.05,0,11.85-2.4,16.12-6.67
	c4.28-4.28,6.68-10.08,6.68-16.13c0-0.9-0.06-1.81-0.18-2.71C49.53,21.22,48.57,20.36,47.43,20.34L47.43,20.34z M27.05,43.3
	c-5.22,0-10.19-2.23-13.65-6.14c-3.46-3.9-5.08-9.1-4.46-14.28c0.63-5.19,3.44-9.85,7.74-12.82c-3.27,4.72-4.12,10.7-2.3,16.15
	c1.81,5.44,6.08,9.71,11.53,11.53c5.44,1.81,11.42,0.96,16.14-2.3C38.65,40.36,33.04,43.3,27.05,43.3L27.05,43.3z"/>
<path class="st10" d="M28.51,9.47c-0.73,0.51-1.1,1.4-0.94,2.28l0.62,3.81l-2.6,2.66c-0.59,0.6-0.8,1.48-0.55,2.28
	c0.28,0.81,0.98,1.4,1.83,1.53l3.53,0.55l1.6,3.4v-0.01c0.37,0.81,1.17,1.32,2.05,1.33c0.91,0.02,1.74-0.5,2.12-1.33l1.59-3.39
	l3.52-0.55l0,0c0.82-0.15,1.49-0.74,1.76-1.53c0.26-0.79,0.06-1.67-0.51-2.28l-2.62-2.66l0.61-3.81l0,0
	c0.16-0.88-0.2-1.77-0.93-2.28c-0.71-0.51-1.65-0.56-2.42-0.14l-3.12,1.73l-3.13-1.73C30.16,8.91,29.22,8.96,28.51,9.47L28.51,9.47z
	 M32.27,17.86L32.27,17.86c0.51-0.52,0.73-1.25,0.62-1.96v-0.3H33c0.7,0.41,1.57,0.41,2.28,0h0.11v0.3
	c-0.11,0.71,0.11,1.44,0.62,1.96l0.16,0.36h-0.34c-0.76,0.12-1.41,0.61-1.74,1.3c-0.33-0.71-1.01-1.21-1.8-1.3h-0.34L32.27,17.86z"
	/>
<path class="st10" d="M111.8,27.34l6.13-10.23l0,0c0.42-0.71,0.42-1.58,0.02-2.3c-0.41-0.71-1.16-1.15-1.98-1.15h-12.38L97.41,3.38
	C97,2.69,96.25,2.26,95.45,2.26c-0.81,0-1.55,0.43-1.96,1.12l-6.18,10.28H74.93c-0.82,0-1.58,0.44-1.98,1.15
	c-0.41,0.72-0.4,1.59,0.02,2.3l6.13,10.23l-6.13,10.24l0,0c-0.42,0.7-0.43,1.58-0.02,2.29c0.4,0.71,1.16,1.15,1.98,1.15h12.38
	l6.18,10.29l0,0c0.41,0.69,1.15,1.11,1.96,1.11c0.8,0,1.55-0.42,1.96-1.11l6.18-10.29h12.38c0.82,0,1.57-0.44,1.98-1.15
	c0.4-0.71,0.4-1.59-0.02-2.29L111.8,27.34z M111.93,18.22l-2.8,4.7l-2.81-4.7H111.93z M106.46,27.34l-5.47,9.12H89.91l-5.47-9.12
	l5.47-9.12h11.08L106.46,27.34z M95.45,8.97l2.8,4.69h-5.61L95.45,8.97z M78.96,18.22h5.61l-2.8,4.7L78.96,18.22z M78.96,36.46
	l2.81-4.69l2.8,4.69H78.96z M95.45,45.72l-2.81-4.7h5.61L95.45,45.72z M106.32,36.46l2.81-4.69l2.8,4.69H106.32z"/>
<path class="st10" d="M38.45,82.06h-9.12v-9.12c0-0.6-0.24-1.18-0.67-1.61c-0.43-0.43-1.01-0.67-1.61-0.67h-9.12
	c-1.26,0-2.28,1.02-2.28,2.28v9.12H6.53c-1.26,0-2.28,1.02-2.28,2.28v9.12c0,0.61,0.24,1.19,0.67,1.61
	c0.43,0.43,1.01,0.67,1.61,0.67h9.12v18.24c0,0.61,0.24,1.19,0.67,1.61c0.42,0.43,1.01,0.67,1.61,0.67h9.12
	c0.6,0,1.18-0.24,1.61-0.67c0.43-0.42,0.67-1,0.67-1.61V95.74h9.12c0.6,0,1.18-0.24,1.61-0.67c0.43-0.42,0.67-1,0.67-1.61v-9.12
	c0-0.6-0.24-1.18-0.67-1.61C39.63,82.3,39.05,82.06,38.45,82.06z M36.17,91.18h-9.12c-1.26,0-2.28,1.02-2.28,2.28v18.24h-4.56V93.46
	c0-0.6-0.24-1.18-0.67-1.61c-0.43-0.43-1.01-0.67-1.61-0.67H8.81v-4.56h9.12c0.6,0,1.18-0.24,1.61-0.67c0.43-0.42,0.67-1,0.67-1.61
	v-9.12h4.56v9.12c0,0.61,0.24,1.19,0.67,1.61c0.42,0.43,1,0.67,1.61,0.67h9.12V91.18z"/>
<path class="st10" d="M118.25,92.66V92.5c-0.05-1.07-0.17-2.13-0.37-3.19c-1.31-7.03-5.84-13.03-12.24-16.22
	c-6.41-3.19-13.93-3.19-20.33,0c-6.4,3.19-10.94,9.19-12.25,16.22c-0.21,1.06-0.33,2.12-0.36,3.19v0.96
	c0,8.15,4.34,15.68,11.4,19.75c7.05,4.07,15.74,4.07,22.79,0c7.06-4.07,11.4-11.6,11.4-19.75
	C118.25,93.19,118.25,92.91,118.25,92.66L118.25,92.66z M85.19,88.9c1.38,0,2.63,0.84,3.16,2.11c0.53,1.28,0.23,2.75-0.74,3.73
	c-0.98,0.98-2.45,1.27-3.73,0.74s-2.11-1.77-2.11-3.16C81.77,90.43,83.3,88.9,85.19,88.9L85.19,88.9z M95.45,75.22
	c4.26,0,8.39,1.49,11.67,4.21c3.27,2.73,5.49,6.51,6.27,10.7c0.16,0.84,0.26,1.68,0.3,2.53c-0.06,2.86-1.64,5.46-4.14,6.83
	s-5.54,1.31-7.98-0.17c-2.44-1.48-3.9-4.15-3.84-7c-0.01-3.32-1.33-6.51-3.68-8.86c-2.35-2.35-5.54-3.67-8.86-3.68
	c-0.67,0-1.33,0.05-1.99,0.16C86.56,76.9,90.92,75.22,95.45,75.22L95.45,75.22z"/>
<path class="st10" d="M109.13,92.32c0,1.89-1.53,3.42-3.42,3.42s-3.42-1.53-3.42-3.42c0-1.89,1.53-3.42,3.42-3.42
	S109.13,90.43,109.13,92.32z"/>
</svg>
