<?xml version="1.0" encoding="utf-8"?>
<!-- Generator: Adobe Illustrator 27.1.1, SVG Export Plug-In . SVG Version: 6.00 Build 0)  -->
<svg version="1.1" id="Camada_1" xmlns="http://www.w3.org/2000/svg" xmlns:xlink="http://www.w3.org/1999/xlink" x="0px" y="0px"
	 viewBox="0 0 448.02 295.48" style="enable-background:new 0 0 448.02 295.48;" xml:space="preserve">
<style type="text/css">
	.st0{fill:#4493CD;}
	.st1{fill:#BDA93B;}
	.st2{fill:#C45791;}
	.st3{fill:#FFFFFF;}
	.st4{fill:#CFB632;}
	.st5{fill:#BFDFF7;}
	.st6{fill:#262626;}
	.st7{fill:#E5CF5F;}
	.st8{fill:#F1A5C9;}
	.st9{fill:#C8E6FA;}
	.st10{fill:#3E3E3E;}
	.st11{fill-rule:evenodd;clip-rule:evenodd;fill:#FAFAFA;}
	.st12{fill-rule:evenodd;clip-rule:evenodd;fill:#FFFFFF;}
	.st13{fill:#010202;}
	.st14{fill:#CCC8C9;}
	.st15{fill-rule:evenodd;clip-rule:evenodd;fill:#262626;}
	.st16{fill:#D9D9D9;}
	.st17{fill:none;stroke:#010202;}
</style>
<path class="st7" d="M36.06,245.1v-203h20l0,203H36.06z"/>
<path class="st16" d="M31.06,261.1c0-2.21,1.79-4,4-4h22c2.21,0,4,1.79,4,4v22c0,2.21-1.79,4-4,4h-22c-2.21,0-4-1.79-4-4V261.1z"/>
<path class="st13" d="M49.65,278.1l-0.88-2.89h-4.42l-0.88,2.89h-2.77l4.28-12.19h3.15l4.3,12.19H49.65z M48.16,273.05l-0.88-2.82
	c-0.06-0.19-0.13-0.43-0.22-0.72c-0.09-0.3-0.18-0.6-0.27-0.9c-0.09-0.31-0.16-0.58-0.22-0.8c-0.06,0.23-0.13,0.51-0.23,0.85
	c-0.09,0.33-0.19,0.65-0.27,0.95c-0.09,0.3-0.15,0.51-0.19,0.64l-0.87,2.82H48.16z"/>
<path class="st13" d="M27.92,25.48c0,1.13-0.37,2.04-1.12,2.72c-0.75,0.68-1.8,1.02-3.15,1.02c-1.17,0-2.15-0.2-2.94-0.6v-1.96
	c0.75,0.45,1.61,0.68,2.6,0.68c1.67,0,2.5-0.64,2.5-1.92c0-0.5-0.18-0.89-0.54-1.17c-0.35-0.28-0.86-0.42-1.51-0.42
	c-0.86,0-1.71,0.19-2.53,0.58v-6.44h5.98v1.75h-3.98v2.45c0.33-0.07,0.65-0.1,0.95-0.1c1.19,0,2.11,0.31,2.75,0.92
	C27.59,23.59,27.92,24.42,27.92,25.48z"/>
<path class="st13" d="M33.5,29.1h-2.02v-8.91l-2.72,1.65v-2.12l2.94-1.73h1.8V29.1z"/>
<path class="st13" d="M36.27,31.24h-1.77l1.67-4.2h2.36L36.27,31.24z"/>
<path class="st13" d="M47.74,25.49c0,1.12-0.34,2.05-1.02,2.79c-0.68,0.72-1.6,1.09-2.77,1.09c-1.33,0-2.33-0.48-3.03-1.44
	c-0.69-0.98-1.04-2.27-1.04-3.89c0-1.88,0.49-3.4,1.48-4.56c0.99-1.17,2.27-1.75,3.86-1.75c0.61,0,1.17,0.09,1.67,0.27v1.92
	c-0.44-0.23-0.95-0.34-1.53-0.34c-0.91,0-1.64,0.31-2.21,0.92c-0.57,0.61-0.93,1.4-1.09,2.36c0.68-0.62,1.48-0.94,2.41-0.94
	c0.99,0,1.77,0.32,2.36,0.97C47.44,23.54,47.74,24.41,47.74,25.49z M43.97,27.53c0.51,0,0.91-0.18,1.21-0.54
	c0.31-0.37,0.46-0.87,0.46-1.48c0-0.56-0.15-1-0.44-1.33c-0.29-0.33-0.7-0.49-1.21-0.49c-0.74,0-1.41,0.31-2.01,0.93
	c0.07,1,0.28,1.73,0.63,2.21C42.97,27.3,43.42,27.53,43.97,27.53z"/>
<path class="st13" d="M56.74,26.07c0,0.95-0.37,1.72-1.1,2.31c-0.74,0.58-1.68,0.87-2.84,0.87c-1.16,0-2.09-0.28-2.81-0.83
	c-0.7-0.56-1.05-1.31-1.05-2.26c0-1.25,0.58-2.12,1.75-2.63c-1.05-0.53-1.58-1.35-1.58-2.47c0-1.02,0.35-1.81,1.05-2.38
	c0.71-0.58,1.59-0.87,2.63-0.87c1.09,0,1.98,0.27,2.69,0.82c0.7,0.54,1.05,1.35,1.05,2.43s-0.51,1.88-1.53,2.41
	C56.16,23.92,56.74,24.79,56.74,26.07z M50.99,26.09c0,0.42,0.15,0.78,0.46,1.07c0.31,0.28,0.76,0.43,1.36,0.43
	c0.61,0,1.08-0.15,1.39-0.46c0.32-0.31,0.48-0.67,0.48-1.11c0-0.45-0.16-0.83-0.49-1.14c-0.32-0.31-0.78-0.46-1.38-0.46
	c-0.6,0.01-1.05,0.18-1.36,0.51C51.15,25.25,50.99,25.63,50.99,26.09z M51.18,21.02c0,0.51,0.16,0.9,0.48,1.17s0.71,0.41,1.19,0.41
	c0.46,0,0.85-0.14,1.16-0.41c0.32-0.27,0.48-0.66,0.48-1.17c0-0.45-0.13-0.82-0.39-1.11c-0.26-0.29-0.69-0.44-1.29-0.44
	c-0.52,0-0.92,0.15-1.21,0.46C51.32,20.23,51.18,20.59,51.18,21.02z"/>
<path class="st13" d="M63.03,29.11h-1.87l6.31-11.76h1.89L63.03,29.11z M64.29,20.17c0,0.83-0.3,1.54-0.9,2.14
	c-0.59,0.59-1.3,0.88-2.12,0.88c-0.84,0-1.55-0.29-2.14-0.88c-0.59-0.59-0.88-1.3-0.88-2.14s0.29-1.55,0.88-2.14
	c0.59-0.59,1.3-0.88,2.14-0.88c0.84,0,1.55,0.29,2.14,0.88C63.99,18.62,64.29,19.33,64.29,20.17z M59.9,20.17
	c0,0.36,0.13,0.68,0.39,0.95c0.27,0.26,0.6,0.39,0.97,0.39c0.36,0,0.67-0.13,0.94-0.39c0.27-0.27,0.41-0.59,0.41-0.95
	c0-0.37-0.14-0.69-0.41-0.95c-0.26-0.27-0.57-0.41-0.94-0.41c-0.37,0-0.7,0.14-0.97,0.41C60.03,19.48,59.9,19.8,59.9,20.17z
	 M71.48,24.07c0.6,0.59,0.9,1.3,0.9,2.14c0,0.84-0.3,1.55-0.9,2.14c-0.59,0.59-1.3,0.88-2.12,0.88c-0.84,0-1.55-0.29-2.14-0.88
	c-0.59-0.59-0.88-1.3-0.88-2.14c0-0.84,0.29-1.55,0.88-2.14c0.59-0.59,1.3-0.88,2.14-0.88C70.18,23.18,70.89,23.48,71.48,24.07z
	 M68.01,26.21c0,0.36,0.13,0.68,0.39,0.95c0.26,0.26,0.58,0.39,0.95,0.39c0.36,0,0.67-0.13,0.93-0.39c0.27-0.27,0.41-0.59,0.41-0.95
	c0-0.37-0.14-0.69-0.41-0.95c-0.26-0.27-0.57-0.41-0.93-0.41c-0.37,0-0.69,0.14-0.95,0.41C68.14,25.52,68.01,25.83,68.01,26.21z"/>
<path class="st7" d="M97.06,245.1v-133h20v133H97.06z"/>
<path class="st16" d="M92.06,261.1c0-2.21,1.79-4,4-4h22c2.21,0,4,1.79,4,4v22c0,2.21-1.79,4-4,4h-22c-2.21,0-4-1.79-4-4V261.1z"/>
<path class="st13" d="M103.38,265.96h3.78c1.62,0,2.84,0.23,3.67,0.68c0.83,0.45,1.25,1.25,1.25,2.39c0,0.46-0.08,0.87-0.22,1.24
	c-0.14,0.37-0.35,0.67-0.63,0.91s-0.61,0.39-1.01,0.46v0.08c0.4,0.08,0.77,0.23,1.1,0.43c0.33,0.2,0.59,0.49,0.78,0.88
	c0.2,0.38,0.3,0.89,0.3,1.53c0,0.74-0.18,1.37-0.54,1.89c-0.36,0.53-0.87,0.93-1.54,1.21c-0.67,0.28-1.46,0.42-2.38,0.42h-4.54
	V265.96z M105.95,270.77h1.49c0.75,0,1.26-0.12,1.55-0.35c0.29-0.24,0.43-0.59,0.43-1.05c0-0.46-0.17-0.8-0.51-1
	c-0.34-0.2-0.88-0.31-1.61-0.31h-1.35V270.77z M105.95,272.81v3.16h1.68c0.78,0,1.31-0.15,1.62-0.45c0.3-0.3,0.46-0.7,0.46-1.2
	c0-0.3-0.07-0.56-0.2-0.79c-0.13-0.23-0.36-0.4-0.67-0.53c-0.31-0.13-0.74-0.19-1.29-0.19H105.95z"/>
<path class="st13" d="M89.09,96.04c0,0.93-0.35,1.69-1.04,2.28c-0.68,0.58-1.64,0.87-2.87,0.87c-1.14,0-2.12-0.19-2.92-0.56v-1.99
	c0.88,0.48,1.81,0.71,2.79,0.71c0.61,0,1.09-0.14,1.43-0.42C86.82,96.63,87,96.25,87,95.8c0-0.99-0.8-1.48-2.4-1.48h-0.65V92.6h0.65
	c0.6,0,1.11-0.13,1.51-0.39s0.61-0.63,0.61-1.11c0-0.95-0.58-1.43-1.75-1.43c-0.77,0-1.54,0.24-2.31,0.71v-1.92
	c0.77-0.42,1.58-0.63,2.43-0.63c1.17,0,2.08,0.28,2.74,0.85c0.67,0.57,1,1.29,1,2.18c0,1.28-0.58,2.15-1.75,2.62
	c0.63,0.16,1.13,0.46,1.48,0.9C88.91,94.82,89.09,95.37,89.09,96.04z"/>
<path class="st13" d="M94.74,99.1h-2.02v-8.91L90,91.84v-2.12l2.94-1.73h1.8V99.1z"/>
<path class="st13" d="M97.52,101.24h-1.77l1.67-4.2h2.36L97.52,101.24z"/>
<path class="st13" d="M108.92,96.07c0,0.95-0.37,1.72-1.11,2.31c-0.74,0.58-1.68,0.87-2.84,0.87s-2.09-0.28-2.81-0.83
	c-0.7-0.56-1.05-1.31-1.05-2.26c0-1.25,0.58-2.12,1.75-2.64c-1.05-0.53-1.58-1.35-1.58-2.46c0-1.02,0.35-1.81,1.05-2.38
	c0.71-0.58,1.59-0.87,2.64-0.87c1.09,0,1.98,0.27,2.69,0.82c0.7,0.54,1.05,1.35,1.05,2.43s-0.51,1.88-1.53,2.41
	C108.34,93.92,108.92,94.79,108.92,96.07z M103.17,96.09c0,0.42,0.15,0.78,0.46,1.07c0.31,0.28,0.76,0.43,1.36,0.43
	c0.61,0,1.08-0.15,1.39-0.46c0.32-0.31,0.48-0.67,0.48-1.1c0-0.45-0.16-0.83-0.49-1.14c-0.32-0.31-0.78-0.46-1.38-0.46
	c-0.6,0.01-1.05,0.18-1.36,0.51C103.33,95.25,103.17,95.64,103.17,96.09z M103.36,91.02c0,0.51,0.16,0.9,0.48,1.17
	c0.32,0.27,0.71,0.41,1.19,0.41c0.47,0,0.85-0.14,1.16-0.41c0.32-0.27,0.48-0.66,0.48-1.17c0-0.45-0.13-0.82-0.39-1.1
	c-0.26-0.3-0.69-0.44-1.29-0.44c-0.52,0-0.92,0.15-1.21,0.46C103.5,90.23,103.36,90.59,103.36,91.02z"/>
<path class="st13" d="M114.58,99.1h-2.02v-8.91l-2.72,1.65v-2.12l2.94-1.73h1.8V99.1z"/>
<path class="st13" d="M121.3,99.11h-1.87l6.31-11.76h1.89L121.3,99.11z M122.56,90.17c0,0.83-0.3,1.54-0.9,2.14
	c-0.59,0.59-1.3,0.88-2.12,0.88c-0.84,0-1.55-0.29-2.14-0.88c-0.59-0.59-0.88-1.3-0.88-2.14s0.29-1.55,0.88-2.14
	c0.59-0.59,1.3-0.88,2.14-0.88s1.55,0.29,2.14,0.88C122.27,88.62,122.56,89.33,122.56,90.17z M118.17,90.17
	c0,0.36,0.13,0.68,0.39,0.95c0.27,0.26,0.6,0.39,0.97,0.39c0.36,0,0.67-0.13,0.93-0.39c0.27-0.27,0.41-0.59,0.41-0.95
	c0-0.37-0.14-0.69-0.41-0.95c-0.26-0.27-0.57-0.41-0.93-0.41c-0.37,0-0.7,0.14-0.97,0.41C118.3,89.48,118.17,89.8,118.17,90.17z
	 M129.75,94.07c0.6,0.59,0.9,1.3,0.9,2.14s-0.3,1.55-0.9,2.14c-0.59,0.59-1.3,0.88-2.13,0.88c-0.84,0-1.55-0.29-2.14-0.88
	c-0.59-0.59-0.88-1.3-0.88-2.14s0.29-1.55,0.88-2.14c0.59-0.59,1.3-0.88,2.14-0.88C128.45,93.18,129.16,93.48,129.75,94.07z
	 M126.28,96.21c0,0.36,0.13,0.68,0.39,0.95c0.26,0.26,0.58,0.39,0.95,0.39c0.36,0,0.67-0.13,0.94-0.39
	c0.27-0.27,0.41-0.59,0.41-0.95c0-0.37-0.14-0.69-0.41-0.95c-0.26-0.27-0.57-0.41-0.94-0.41c-0.37,0-0.69,0.14-0.95,0.41
	C126.41,95.52,126.28,95.83,126.28,96.21z"/>
<path class="st7" d="M156.06,245.1v-43h20v43H156.06z"/>
<path class="st16" d="M151.06,261.1c0-2.21,1.79-4,4-4h22c2.21,0,4,1.79,4,4v22c0,2.21-1.79,4-4,4h-22c-2.21,0-4-1.79-4-4V261.1z"/>
<path class="st13" d="M167.82,267.93c-0.49,0-0.93,0.1-1.31,0.29c-0.38,0.19-0.69,0.46-0.96,0.82c-0.25,0.36-0.45,0.79-0.58,1.3
	s-0.2,1.08-0.2,1.72c0,0.86,0.11,1.59,0.32,2.2c0.22,0.6,0.55,1.07,1,1.39c0.45,0.32,1.03,0.47,1.74,0.47
	c0.49,0,0.99-0.05,1.48-0.17c0.5-0.11,1.04-0.27,1.62-0.47v2.16c-0.54,0.22-1.06,0.38-1.58,0.47c-0.52,0.1-1.1,0.15-1.75,0.15
	c-1.25,0-2.28-0.26-3.09-0.77c-0.8-0.52-1.4-1.25-1.79-2.18c-0.39-0.93-0.58-2.02-0.58-3.27c0-0.92,0.12-1.76,0.37-2.52
	c0.25-0.76,0.61-1.42,1.1-1.98c0.48-0.56,1.08-0.99,1.79-1.3c0.71-0.3,1.52-0.46,2.44-0.46c0.6,0,1.21,0.08,1.81,0.23
	c0.61,0.15,1.19,0.36,1.74,0.62l-0.83,2.09c-0.45-0.22-0.91-0.4-1.37-0.57C168.72,268.01,168.27,267.93,167.82,267.93z"/>
<path class="st13" d="M147.16,183.49c0.78,0,1.41-0.3,1.89-0.9c-0.04-0.95-0.24-1.67-0.58-2.16c-0.33-0.5-0.78-0.75-1.34-0.75
	c-0.52,0-0.94,0.17-1.26,0.51c-0.31,0.34-0.46,0.81-0.46,1.39c0,0.58,0.16,1.04,0.48,1.39C146.2,183.32,146.62,183.49,147.16,183.49
	z M151.08,183.01c0,2.03-0.45,3.58-1.36,4.64c-0.9,1.05-2.15,1.58-3.76,1.58c-0.74,0-1.4-0.11-1.99-0.32v-1.95
	c0.59,0.27,1.19,0.41,1.8,0.41c1.86,0,2.92-1.01,3.2-3.03c-0.51,0.57-1.29,0.85-2.33,0.85c-0.96,0-1.76-0.32-2.4-0.97
	c-0.63-0.66-0.95-1.52-0.95-2.6c0-1.09,0.34-1.99,1-2.7c0.67-0.73,1.58-1.09,2.72-1.09c1.3,0,2.31,0.48,3.01,1.43
	C150.73,180.2,151.08,181.45,151.08,183.01z"/>
<path class="st13" d="M153.39,191.24h-1.77l1.67-4.2h2.36L153.39,191.24z"/>
<path class="st13" d="M164.85,185.49c0,1.12-0.34,2.05-1.02,2.79c-0.68,0.73-1.6,1.09-2.77,1.09c-1.33,0-2.34-0.48-3.03-1.45
	c-0.69-0.98-1.04-2.27-1.04-3.89c0-1.88,0.49-3.4,1.48-4.56c0.99-1.17,2.27-1.75,3.86-1.75c0.61,0,1.17,0.09,1.67,0.27v1.92
	c-0.44-0.23-0.95-0.34-1.53-0.34c-0.91,0-1.64,0.31-2.21,0.92s-0.93,1.4-1.09,2.36c0.68-0.62,1.49-0.93,2.41-0.93
	c0.99,0,1.77,0.32,2.36,0.97C164.55,183.54,164.85,184.41,164.85,185.49z M161.08,187.53c0.51,0,0.91-0.18,1.21-0.54
	c0.31-0.37,0.46-0.87,0.46-1.48c0-0.55-0.15-1-0.44-1.33c-0.29-0.33-0.7-0.49-1.21-0.49c-0.74,0-1.4,0.31-2.01,0.93
	c0.07,1,0.28,1.73,0.63,2.21C160.08,187.3,160.54,187.53,161.08,187.53z"/>
<path class="st13" d="M173.85,186.07c0,0.95-0.37,1.72-1.1,2.31c-0.74,0.58-1.68,0.87-2.84,0.87c-1.16,0-2.09-0.28-2.81-0.83
	c-0.7-0.55-1.05-1.31-1.05-2.26c0-1.25,0.58-2.12,1.75-2.63c-1.05-0.53-1.58-1.35-1.58-2.47c0-1.02,0.35-1.81,1.05-2.38
	c0.71-0.58,1.59-0.87,2.64-0.87c1.09,0,1.98,0.27,2.69,0.82c0.7,0.54,1.05,1.35,1.05,2.43c0,1.08-0.51,1.88-1.53,2.41
	C173.27,183.92,173.85,184.79,173.85,186.07z M168.1,186.09c0,0.42,0.15,0.78,0.46,1.07c0.31,0.28,0.76,0.42,1.36,0.42
	c0.61,0,1.08-0.15,1.39-0.46c0.32-0.31,0.48-0.67,0.48-1.11c0-0.45-0.16-0.83-0.49-1.14c-0.32-0.31-0.78-0.46-1.38-0.46
	c-0.6,0.01-1.05,0.18-1.36,0.51C168.26,185.25,168.1,185.64,168.1,186.09z M168.29,181.02c0,0.51,0.16,0.9,0.48,1.17
	c0.32,0.27,0.71,0.41,1.19,0.41c0.46,0,0.85-0.14,1.16-0.41c0.32-0.27,0.48-0.66,0.48-1.17c0-0.45-0.13-0.82-0.39-1.1
	c-0.26-0.3-0.69-0.44-1.29-0.44c-0.52,0-0.92,0.15-1.21,0.46C168.43,180.23,168.29,180.59,168.29,181.02z"/>
<path class="st13" d="M180.14,189.11h-1.87l6.31-11.76h1.89L180.14,189.11z M181.4,180.17c0,0.83-0.3,1.54-0.9,2.14
	c-0.59,0.59-1.3,0.88-2.12,0.88c-0.84,0-1.55-0.3-2.14-0.88c-0.59-0.59-0.88-1.3-0.88-2.14s0.29-1.55,0.88-2.14
	c0.59-0.59,1.3-0.88,2.14-0.88c0.84,0,1.55,0.29,2.14,0.88C181.1,178.62,181.4,179.33,181.4,180.17z M177.01,180.17
	c0,0.36,0.13,0.68,0.39,0.95c0.27,0.26,0.6,0.39,0.97,0.39c0.36,0,0.67-0.13,0.93-0.39c0.27-0.27,0.41-0.59,0.41-0.95
	c0-0.37-0.14-0.69-0.41-0.95c-0.26-0.27-0.57-0.41-0.93-0.41c-0.37,0-0.7,0.14-0.97,0.41C177.14,179.48,177.01,179.8,177.01,180.17z
	 M188.59,184.07c0.6,0.59,0.9,1.3,0.9,2.14c0,0.84-0.3,1.55-0.9,2.14c-0.59,0.59-1.3,0.88-2.12,0.88c-0.84,0-1.55-0.29-2.14-0.88
	c-0.59-0.59-0.88-1.3-0.88-2.14c0-0.84,0.29-1.55,0.88-2.14c0.59-0.59,1.3-0.88,2.14-0.88C187.29,183.18,188,183.48,188.59,184.07z
	 M185.12,186.21c0,0.36,0.13,0.68,0.39,0.95c0.26,0.26,0.58,0.39,0.95,0.39c0.36,0,0.67-0.13,0.94-0.39
	c0.27-0.27,0.41-0.59,0.41-0.95c0-0.37-0.14-0.69-0.41-0.95c-0.26-0.27-0.57-0.41-0.94-0.41c-0.37,0-0.69,0.14-0.95,0.41
	C185.25,185.52,185.12,185.83,185.12,186.21z"/>
<path class="st7" d="M217.06,245.1v-27h20v27H217.06z"/>
<path class="st16" d="M212.06,261.1c0-2.21,1.79-4,4-4h22c2.21,0,4,1.79,4,4v22c0,2.21-1.79,4-4,4h-22c-2.21,0-4-1.79-4-4V261.1z"/>
<path class="st13" d="M232.87,271.91c0,1.37-0.26,2.51-0.79,3.43c-0.52,0.91-1.28,1.6-2.27,2.07c-0.99,0.46-2.18,0.69-3.58,0.69
	h-3.44v-12.14h3.81c1.27,0,2.38,0.23,3.31,0.68c0.94,0.45,1.66,1.11,2.18,2C232.61,269.52,232.87,270.61,232.87,271.91z
	 M230.19,271.98c0-0.9-0.13-1.63-0.4-2.21c-0.26-0.58-0.65-1.01-1.16-1.29c-0.51-0.28-1.14-0.42-1.89-0.42h-1.37v7.9h1.1
	c1.26,0,2.19-0.33,2.8-1C229.89,274.3,230.19,273.3,230.19,271.98z"/>
<path class="st13" d="M210.88,205.1h-7.26v-1.63c1.33-0.94,2.47-1.94,3.43-3.01c0.96-1.08,1.45-2.05,1.45-2.91
	c0-0.57-0.17-1.01-0.49-1.33c-0.33-0.32-0.81-0.48-1.43-0.48c-0.94,0-1.84,0.35-2.7,1.05v-1.99c0.38-0.28,0.84-0.52,1.4-0.7
	c0.55-0.18,1.11-0.27,1.67-0.27c1.09,0,1.97,0.3,2.65,0.9c0.69,0.59,1.04,1.42,1.04,2.5c0,2.02-1.39,4.05-4.18,6.1h4.44V205.1z"/>
<path class="st13" d="M213.18,207.24h-1.77l1.67-4.2h2.36L213.18,207.24z"/>
<path class="st13" d="M224.65,201.49c0,1.12-0.34,2.05-1.02,2.79c-0.68,0.73-1.6,1.09-2.77,1.09c-1.33,0-2.34-0.48-3.03-1.45
	c-0.69-0.98-1.04-2.27-1.04-3.89c0-1.88,0.49-3.4,1.48-4.56c0.99-1.17,2.27-1.75,3.86-1.75c0.61,0,1.17,0.09,1.67,0.27v1.92
	c-0.44-0.23-0.95-0.34-1.53-0.34c-0.91,0-1.64,0.31-2.21,0.92s-0.93,1.4-1.09,2.36c0.68-0.62,1.49-0.93,2.41-0.93
	c0.99,0,1.77,0.32,2.36,0.97C224.35,199.54,224.65,200.41,224.65,201.49z M220.87,203.53c0.51,0,0.91-0.18,1.21-0.54
	c0.31-0.37,0.46-0.87,0.46-1.48c0-0.55-0.15-1-0.44-1.33c-0.29-0.33-0.7-0.49-1.21-0.49c-0.74,0-1.4,0.31-2.01,0.93
	c0.07,1,0.28,1.73,0.63,2.21C219.88,203.3,220.33,203.53,220.87,203.53z"/>
<path class="st13" d="M233.64,202.07c0,0.95-0.37,1.72-1.1,2.31c-0.74,0.58-1.68,0.87-2.84,0.87s-2.09-0.28-2.81-0.83
	c-0.7-0.55-1.05-1.31-1.05-2.26c0-1.25,0.58-2.12,1.75-2.63c-1.05-0.53-1.58-1.35-1.58-2.46c0-1.02,0.35-1.81,1.05-2.38
	c0.71-0.58,1.59-0.87,2.63-0.87c1.09,0,1.98,0.27,2.69,0.82c0.7,0.54,1.05,1.35,1.05,2.43c0,1.08-0.51,1.88-1.53,2.41
	C233.07,199.92,233.64,200.79,233.64,202.07z M227.9,202.09c0,0.42,0.15,0.78,0.46,1.07c0.31,0.28,0.76,0.42,1.36,0.42
	c0.61,0,1.08-0.15,1.39-0.46c0.32-0.31,0.48-0.67,0.48-1.11c0-0.45-0.16-0.83-0.49-1.14c-0.32-0.31-0.78-0.46-1.38-0.46
	c-0.6,0.01-1.05,0.18-1.36,0.51C228.05,201.25,227.9,201.64,227.9,202.09z M228.09,197.02c0,0.51,0.16,0.9,0.48,1.17
	c0.32,0.27,0.71,0.41,1.19,0.41c0.46,0,0.85-0.14,1.16-0.41c0.32-0.27,0.48-0.66,0.48-1.17c0-0.45-0.13-0.82-0.39-1.1
	c-0.26-0.3-0.69-0.44-1.29-0.44c-0.52,0-0.92,0.15-1.21,0.46C228.22,196.23,228.09,196.59,228.09,197.02z"/>
<path class="st13" d="M239.93,205.11h-1.87l6.31-11.76h1.89L239.93,205.11z M241.19,196.17c0,0.83-0.3,1.54-0.9,2.14
	c-0.59,0.59-1.3,0.88-2.12,0.88c-0.84,0-1.55-0.3-2.14-0.88c-0.59-0.59-0.88-1.3-0.88-2.14c0-0.84,0.29-1.55,0.88-2.14
	c0.59-0.59,1.3-0.88,2.14-0.88c0.84,0,1.55,0.29,2.14,0.88C240.9,194.62,241.19,195.33,241.19,196.17z M236.81,196.17
	c0,0.36,0.13,0.68,0.39,0.95c0.27,0.26,0.6,0.39,0.97,0.39c0.36,0,0.67-0.13,0.93-0.39c0.27-0.27,0.41-0.59,0.41-0.95
	c0-0.37-0.14-0.69-0.41-0.95c-0.26-0.27-0.57-0.41-0.93-0.41c-0.37,0-0.7,0.14-0.97,0.41C236.94,195.48,236.81,195.8,236.81,196.17z
	 M248.38,200.07c0.6,0.59,0.9,1.3,0.9,2.14c0,0.84-0.3,1.55-0.9,2.14c-0.59,0.59-1.3,0.88-2.12,0.88c-0.84,0-1.55-0.29-2.14-0.88
	c-0.59-0.59-0.88-1.3-0.88-2.14c0-0.84,0.29-1.55,0.88-2.14c0.59-0.59,1.3-0.88,2.14-0.88
	C247.09,199.18,247.79,199.48,248.38,200.07z M244.92,202.21c0,0.36,0.13,0.68,0.39,0.95c0.26,0.26,0.58,0.39,0.95,0.39
	c0.36,0,0.67-0.13,0.93-0.39c0.27-0.27,0.41-0.59,0.41-0.95c0-0.37-0.14-0.69-0.41-0.95c-0.26-0.27-0.57-0.41-0.93-0.41
	c-0.37,0-0.69,0.14-0.95,0.41C245.05,201.52,244.92,201.83,244.92,202.21z"/>
<path class="st7" d="M277.06,245.1v-17h20v17H277.06z"/>
<path class="st16" d="M272.06,261.1c0-2.21,1.79-4,4-4h22c2.21,0,4,1.79,4,4v22c0,2.21-1.79,4-4,4h-22c-2.21,0-4-1.79-4-4V261.1z"/>
<path class="st13" d="M291.31,278.1h-6.99v-12.14h6.99v2.11h-4.42v2.66h4.11v2.11h-4.11v3.13h4.42V278.1z"/>
<path class="st13" d="M269.2,215.1h-2.02v-8.91l-2.72,1.65v-2.12l2.94-1.73h1.8V215.1z"/>
<path class="st13" d="M271.97,217.24h-1.77l1.67-4.2h2.36L271.97,217.24z"/>
<path class="st13" d="M279.17,209.49c0.78,0,1.41-0.3,1.89-0.9c-0.04-0.95-0.24-1.67-0.58-2.16c-0.33-0.5-0.78-0.75-1.34-0.75
	c-0.52,0-0.94,0.17-1.26,0.51c-0.31,0.34-0.46,0.8-0.46,1.39c0,0.58,0.16,1.04,0.48,1.39C278.22,209.32,278.64,209.49,279.17,209.49
	z M283.1,209.01c0,2.03-0.45,3.58-1.36,4.64c-0.89,1.05-2.15,1.58-3.76,1.58c-0.74,0-1.4-0.11-1.99-0.32v-1.95
	c0.59,0.27,1.19,0.41,1.8,0.41c1.86,0,2.92-1.01,3.2-3.03c-0.51,0.57-1.29,0.85-2.33,0.85c-0.96,0-1.76-0.32-2.4-0.97
	c-0.63-0.66-0.95-1.52-0.95-2.6c0-1.09,0.34-1.99,1-2.7c0.67-0.72,1.58-1.09,2.72-1.09c1.3,0,2.31,0.48,3.01,1.43
	C282.75,206.2,283.1,207.45,283.1,209.01z"/>
<path class="st13" d="M286.37,210.85h2.92v-5.59L286.37,210.85z M291.34,215.1h-2.04v-2.5h-4.95v-1.75l3.71-6.89h3.28v6.89h1.46
	v1.75h-1.46V215.1z"/>
<path class="st13" d="M298.76,215.11h-1.87l6.31-11.76h1.89L298.76,215.11z M300.02,206.17c0,0.83-0.3,1.54-0.9,2.14
	c-0.59,0.59-1.3,0.88-2.12,0.88c-0.84,0-1.55-0.3-2.14-0.88c-0.59-0.59-0.88-1.3-0.88-2.14c0-0.84,0.3-1.55,0.88-2.14
	c0.59-0.59,1.3-0.88,2.14-0.88s1.55,0.29,2.14,0.88C299.72,204.62,300.02,205.33,300.02,206.17z M295.63,206.17
	c0,0.36,0.13,0.68,0.39,0.95c0.27,0.26,0.6,0.39,0.97,0.39c0.36,0,0.67-0.13,0.93-0.39c0.27-0.27,0.41-0.59,0.41-0.95
	c0-0.37-0.14-0.69-0.41-0.95c-0.26-0.27-0.57-0.41-0.93-0.41c-0.37,0-0.7,0.14-0.97,0.41C295.76,205.48,295.63,205.8,295.63,206.17z
	 M307.21,210.07c0.6,0.59,0.9,1.3,0.9,2.14c0,0.84-0.3,1.55-0.9,2.14c-0.59,0.59-1.3,0.88-2.12,0.88c-0.84,0-1.55-0.29-2.14-0.88
	c-0.59-0.59-0.88-1.3-0.88-2.14c0-0.84,0.29-1.55,0.88-2.14c0.59-0.59,1.3-0.88,2.14-0.88
	C305.91,209.18,306.62,209.48,307.21,210.07z M303.74,212.21c0,0.36,0.13,0.68,0.39,0.95c0.26,0.26,0.58,0.39,0.95,0.39
	c0.36,0,0.67-0.13,0.93-0.39c0.27-0.27,0.41-0.59,0.41-0.95c0-0.37-0.14-0.69-0.41-0.95c-0.26-0.27-0.57-0.41-0.93-0.41
	c-0.37,0-0.69,0.14-0.95,0.41C303.87,211.52,303.74,211.83,303.74,212.21z"/>
<path class="st7" d="M336.06,245.1v-8h20v8H336.06z"/>
<path class="st16" d="M331.06,261.1c0-2.21,1.79-4,4-4h22c2.21,0,4,1.79,4,4v22c0,2.21-1.79,4-4,4h-22c-2.21,0-4-1.79-4-4V261.1z"/>
<path class="st13" d="M345.96,278.1h-2.53v-12.14h6.96v2.11h-4.42v3.13h4.12v2.1h-4.12V278.1z"/>
<path class="st13" d="M329.83,224.1h-2.02v-8.91l-2.72,1.65v-2.12l2.94-1.73h1.8V224.1z"/>
<path class="st13" d="M332.61,226.24h-1.77l1.67-4.2h2.36L332.61,226.24z"/>
<path class="st13" d="M338.77,224.1h-2.18l4.44-9.37h-5.24v-1.77h7.39v1.77L338.77,224.1z"/>
<path class="st13" d="M352.04,220.49c0,1.12-0.34,2.05-1.02,2.79c-0.68,0.73-1.6,1.09-2.77,1.09c-1.33,0-2.33-0.48-3.03-1.45
	c-0.69-0.98-1.04-2.27-1.04-3.89c0-1.88,0.49-3.4,1.48-4.56c0.99-1.17,2.27-1.75,3.86-1.75c0.61,0,1.17,0.09,1.67,0.27v1.92
	c-0.44-0.23-0.95-0.34-1.53-0.34c-0.91,0-1.64,0.31-2.21,0.92c-0.57,0.61-0.93,1.4-1.09,2.36c0.68-0.62,1.48-0.93,2.41-0.93
	c0.99,0,1.77,0.32,2.36,0.97C351.74,218.54,352.04,219.41,352.04,220.49z M348.27,222.53c0.51,0,0.91-0.18,1.21-0.54
	c0.31-0.37,0.46-0.87,0.46-1.48c0-0.55-0.15-1-0.44-1.33c-0.3-0.33-0.7-0.49-1.21-0.49c-0.74,0-1.41,0.31-2.01,0.93
	c0.07,1,0.28,1.73,0.63,2.21C347.27,222.3,347.73,222.53,348.27,222.53z"/>
<path class="st13" d="M358.13,224.11h-1.87l6.31-11.76h1.89L358.13,224.11z M359.39,215.17c0,0.83-0.3,1.54-0.9,2.14
	c-0.59,0.59-1.3,0.88-2.12,0.88c-0.84,0-1.55-0.3-2.14-0.88c-0.59-0.59-0.88-1.3-0.88-2.14c0-0.84,0.3-1.55,0.88-2.14
	c0.59-0.59,1.3-0.88,2.14-0.88c0.84,0,1.55,0.29,2.14,0.88C359.1,213.62,359.39,214.33,359.39,215.17z M355,215.17
	c0,0.36,0.13,0.68,0.39,0.95c0.27,0.26,0.6,0.39,0.97,0.39c0.36,0,0.67-0.13,0.93-0.39c0.27-0.27,0.41-0.59,0.41-0.95
	c0-0.37-0.14-0.69-0.41-0.95c-0.26-0.27-0.57-0.41-0.93-0.41c-0.37,0-0.7,0.14-0.97,0.41C355.14,214.48,355,214.8,355,215.17z
	 M366.58,219.07c0.6,0.59,0.9,1.3,0.9,2.14c0,0.84-0.3,1.55-0.9,2.14c-0.59,0.59-1.3,0.88-2.12,0.88c-0.84,0-1.55-0.29-2.14-0.88
	c-0.59-0.59-0.88-1.3-0.88-2.14c0-0.84,0.29-1.55,0.88-2.14c0.59-0.59,1.3-0.88,2.14-0.88
	C365.28,218.18,365.99,218.48,366.58,219.07z M363.11,221.21c0,0.36,0.13,0.68,0.39,0.95c0.26,0.26,0.58,0.39,0.95,0.39
	c0.36,0,0.67-0.13,0.93-0.39c0.27-0.27,0.41-0.59,0.41-0.95c0-0.37-0.14-0.69-0.41-0.95c-0.26-0.27-0.57-0.41-0.93-0.41
	c-0.37,0-0.69,0.14-0.95,0.41C363.24,220.52,363.11,220.83,363.11,221.21z"/>
<path class="st7" d="M396.06,245.1v-4h20v4H396.06z"/>
<path class="st16" d="M391.06,261.1c0-2.21,1.79-4,4-4h22c2.21,0,4,1.79,4,4v22c0,2.21-1.79,4-4,4h-22c-2.21,0-4-1.79-4-4V261.1z"/>
<path class="st13" d="M406.54,271.28h4.81v6.29c-0.64,0.21-1.3,0.38-1.98,0.51c-0.69,0.12-1.46,0.18-2.33,0.18
	c-1.21,0-2.23-0.24-3.07-0.71c-0.84-0.48-1.48-1.18-1.92-2.11c-0.44-0.93-0.66-2.07-0.66-3.43c0-1.27,0.24-2.37,0.73-3.3
	c0.49-0.93,1.21-1.65,2.15-2.16c0.95-0.51,2.1-0.76,3.46-0.76c0.64,0,1.28,0.07,1.9,0.21c0.62,0.14,1.19,0.32,1.7,0.54l-0.86,2.06
	c-0.37-0.19-0.79-0.35-1.27-0.47c-0.48-0.13-0.97-0.19-1.49-0.19c-0.75,0-1.4,0.17-1.95,0.51c-0.55,0.34-0.97,0.82-1.28,1.44
	c-0.3,0.61-0.45,1.34-0.45,2.17c0,0.79,0.11,1.49,0.32,2.11c0.22,0.61,0.56,1.09,1.02,1.44c0.46,0.34,1.07,0.51,1.82,0.51
	c0.36,0,0.67-0.02,0.92-0.05c0.26-0.04,0.49-0.08,0.71-0.12v-2.53h-2.3V271.28z"/>
<path class="st13" d="M391.66,222.49c0,1.74-0.35,3.14-1.04,4.18c-0.68,1.04-1.67,1.56-2.98,1.56c-1.27,0-2.25-0.52-2.94-1.56
	c-0.69-1.04-1.04-2.44-1.04-4.18c0-1.76,0.35-3.15,1.04-4.17c0.69-1.03,1.67-1.55,2.94-1.55c1.28,0,2.27,0.52,2.96,1.55
	C391.31,219.34,391.66,220.73,391.66,222.49z M386.27,219.63c-0.34,0.66-0.51,1.61-0.51,2.86c0,1.25,0.16,2.21,0.49,2.89
	c0.34,0.67,0.8,1,1.39,1c0.61,0,1.08-0.33,1.41-1c0.34-0.67,0.51-1.63,0.51-2.89c0-1.26-0.17-2.22-0.53-2.87
	c-0.34-0.66-0.8-0.99-1.39-0.99C387.07,218.63,386.61,218.96,386.27,219.63z"/>
<path class="st13" d="M393.95,230.24h-1.77l1.67-4.2h2.36L393.95,230.24z"/>
<path class="st13" d="M404.67,228.1h-7.26v-1.63c1.33-0.94,2.47-1.94,3.43-3.01c0.96-1.08,1.45-2.05,1.45-2.91
	c0-0.57-0.17-1.01-0.49-1.33c-0.33-0.32-0.8-0.48-1.43-0.48c-0.94,0-1.84,0.35-2.7,1.05v-1.99c0.37-0.28,0.84-0.52,1.39-0.7
	c0.55-0.18,1.11-0.27,1.67-0.27c1.09,0,1.97,0.3,2.65,0.9c0.69,0.59,1.04,1.42,1.04,2.5c0,2.02-1.39,4.05-4.18,6.1h4.44V228.1z"/>
<path class="st13" d="M413.89,224.49c0,1.12-0.34,2.05-1.02,2.79c-0.68,0.73-1.6,1.09-2.77,1.09c-1.33,0-2.33-0.48-3.03-1.45
	c-0.69-0.98-1.04-2.27-1.04-3.89c0-1.88,0.49-3.4,1.48-4.56c0.99-1.17,2.27-1.75,3.86-1.75c0.61,0,1.17,0.09,1.67,0.27v1.92
	c-0.44-0.23-0.95-0.34-1.53-0.34c-0.91,0-1.64,0.31-2.21,0.92c-0.57,0.61-0.93,1.4-1.09,2.36c0.68-0.62,1.49-0.93,2.41-0.93
	c0.99,0,1.77,0.32,2.36,0.97C413.59,222.54,413.89,223.41,413.89,224.49z M410.11,226.53c0.51,0,0.91-0.18,1.21-0.54
	c0.31-0.37,0.46-0.87,0.46-1.48c0-0.55-0.15-1-0.44-1.33c-0.29-0.33-0.7-0.49-1.21-0.49c-0.74,0-1.4,0.31-2.01,0.93
	c0.07,1,0.28,1.73,0.63,2.21C409.11,226.3,409.57,226.53,410.11,226.53z"/>
<path class="st13" d="M419.98,228.11h-1.87l6.31-11.76h1.89L419.98,228.11z M421.23,219.17c0,0.83-0.3,1.54-0.9,2.14
	c-0.59,0.59-1.3,0.88-2.12,0.88c-0.84,0-1.55-0.3-2.14-0.88c-0.59-0.59-0.88-1.3-0.88-2.14c0-0.84,0.29-1.55,0.88-2.14
	c0.59-0.59,1.3-0.88,2.14-0.88c0.84,0,1.55,0.29,2.14,0.88C420.94,217.62,421.23,218.33,421.23,219.17z M416.85,219.17
	c0,0.36,0.13,0.68,0.39,0.95c0.27,0.26,0.6,0.39,0.97,0.39c0.36,0,0.67-0.13,0.93-0.39c0.27-0.27,0.41-0.59,0.41-0.95
	c0-0.37-0.14-0.69-0.41-0.95c-0.26-0.27-0.57-0.41-0.93-0.41c-0.37,0-0.7,0.14-0.97,0.41C416.98,218.48,416.85,218.8,416.85,219.17z
	 M428.42,223.07c0.6,0.59,0.9,1.3,0.9,2.14c0,0.84-0.3,1.55-0.9,2.14c-0.59,0.59-1.3,0.88-2.12,0.88c-0.84,0-1.55-0.29-2.14-0.88
	c-0.59-0.59-0.88-1.3-0.88-2.14c0-0.84,0.29-1.55,0.88-2.14c0.59-0.59,1.3-0.88,2.14-0.88
	C427.13,222.18,427.83,222.48,428.42,223.07z M424.96,225.21c0,0.36,0.13,0.68,0.39,0.95c0.26,0.26,0.58,0.39,0.95,0.39
	c0.36,0,0.67-0.13,0.93-0.39c0.27-0.27,0.41-0.59,0.41-0.95c0-0.37-0.14-0.69-0.41-0.95c-0.26-0.27-0.57-0.41-0.93-0.41
	c-0.37,0-0.69,0.14-0.95,0.41C425.09,224.52,424.96,224.83,424.96,225.21z"/>
<line class="st17" x1="5.56" y1="19.1" x2="5.56" y2="245.1"/>
<line class="st17" x1="432.06" y1="245.6" x2="5.06" y2="245.6"/>
</svg>
