<?xml version="1.0" encoding="utf-8"?>
<!-- Generator: Adobe Illustrator 27.1.1, SVG Export Plug-In . SVG Version: 6.00 Build 0)  -->
<svg version="1.1" id="Camada_1" xmlns="http://www.w3.org/2000/svg" xmlns:xlink="http://www.w3.org/1999/xlink" x="0px" y="0px"
	 viewBox="0 0 344.84 213.25" style="enable-background:new 0 0 344.84 213.25;" xml:space="preserve">
<style type="text/css">
	.st0{fill:#4493CD;}
	.st1{fill:#BDA93B;}
	.st2{fill:#C45791;}
	.st3{fill:#FFFFFF;}
	.st4{fill:#CFB632;}
	.st5{fill:#BFDFF7;}
	.st6{fill:#262626;}
	.st7{fill:#E5CF5F;}
	.st8{fill:#F1A5C9;}
	.st9{fill:#C8E6FA;}
	.st10{fill:#3E3E3E;}
	.st11{fill-rule:evenodd;clip-rule:evenodd;fill:#FAFAFA;}
	.st12{fill-rule:evenodd;clip-rule:evenodd;fill:#FFFFFF;}
	.st13{fill:#010202;}
	.st14{fill:#CCC8C9;}
	.st15{fill:#D9D9D9;}
	.st16{fill:none;stroke:#010202;}
	.st17{fill-rule:evenodd;clip-rule:evenodd;fill:#262626;}
</style>
<rect x="172.42" y="166.39" class="st6" width="172.42" height="46.55"/>
<rect y="84.49" class="st9" width="330.18" height="81.9"/>
<rect x="24.14" class="st7" width="260.35" height="84.49"/>
<path class="st6" d="M51.52,111.57H39.33v-3.8h28.78v3.8H55.98v35.85h-4.46V111.57z"/>
<path class="st6" d="M103.19,147.42l-9.84-17.14h-7.48v17.14H81.4v-39.65h12.13c9.09,0,13.64,3.66,13.64,10.98
	c0,3.02-0.82,5.47-2.47,7.36c-1.61,1.89-3.87,3.14-6.76,3.74l10.32,17.56H103.19z M85.87,126.66h6.94c3.22,0,5.67-0.66,7.36-1.99
	c1.69-1.33,2.53-3.3,2.53-5.91c0-2.62-0.82-4.49-2.47-5.61c-1.65-1.17-4.12-1.75-7.42-1.75h-6.94V126.66z"/>
<path class="st6" d="M121.44,107.77h22.51v3.8h-18.04v13.1h15.2v3.74h-15.2v15.21h18.64v3.8h-23.11V107.77z"/>
<path class="st6" d="M159.12,107.77h4.47v39.65h-4.47V107.77z"/>
<path class="st6" d="M180.66,107.77h4.58l14.97,25.71l4.34,8.15h0.25l-0.19-2.66c-0.04-0.64-0.12-1.99-0.24-4.04
	c-0.12-2.09-0.18-3.98-0.18-5.67v-21.48h4.23v39.65h-4.59l-14.97-25.71l-4.34-8.15h-0.24l0.18,2.9c0.28,3.5,0.42,6.58,0.42,9.23
	v21.73h-4.22V107.77z"/>
<path class="st6" d="M243.57,134.93h-14.78l-4.05,12.49h-4.52l13.58-39.65h4.94l13.52,39.65h-4.71L243.57,134.93z M242.42,131.37
	l-2.05-6.4c-1.61-5.03-2.97-9.51-4.1-13.46h-0.24c-1.33,4.87-2.68,9.35-4.05,13.46l-2.05,6.4H242.42z"/>
<path class="st6" d="M285.88,147.42l-9.84-17.14h-7.48v17.14h-4.47v-39.65h12.13c9.1,0,13.64,3.66,13.64,10.98
	c0,3.02-0.82,5.47-2.47,7.36c-1.61,1.89-3.87,3.14-6.76,3.74l10.32,17.56H285.88z M268.56,126.66h6.94c3.22,0,5.67-0.66,7.36-1.99
	c1.69-1.33,2.54-3.3,2.54-5.91c0-2.62-0.83-4.49-2.48-5.61c-1.65-1.17-4.12-1.75-7.42-1.75h-6.94V126.66z"/>
<path class="st3" d="M196.37,180.53h1.35l-6.92,21.75h-1.35L196.37,180.53z"/>
<path class="st3" d="M207.66,180.53h1.35l-6.93,21.75h-1.35L207.66,180.53z"/>
<path class="st3" d="M218.95,180.53h1.35l-6.93,21.75h-1.35L218.95,180.53z"/>
<path class="st3" d="M232.87,181.86h9.32v1.58h-7.47v5.43h6.3v1.55h-6.3v6.3h7.72v1.58h-9.57V181.86z"/>
<path class="st3" d="M251.93,183.43h-5.05v-1.58h11.93v1.58h-5.03v14.85h-1.85V183.43z"/>
<path class="st3" d="M270.78,193.11h-6.12l-1.68,5.18h-1.87l5.62-16.43h2.05l5.6,16.43h-1.95L270.78,193.11z M270.31,191.63
	l-0.85-2.65c-0.67-2.08-1.23-3.94-1.7-5.58h-0.1c-0.55,2.02-1.11,3.88-1.68,5.58l-0.85,2.65H270.31z"/>
<path class="st3" d="M279.29,181.86h4.55c1.95,0,3.45,0.38,4.5,1.12c1.06,0.73,1.6,1.95,1.6,3.65c0,1.65-0.54,2.9-1.6,3.75
	c-1.07,0.83-2.54,1.25-4.4,1.25h-2.8v6.65h-1.85V181.86z M283.66,190.11c1.52,0,2.64-0.27,3.35-0.82c0.72-0.57,1.08-1.45,1.08-2.65
	c0-1.2-0.37-2.04-1.1-2.53c-0.74-0.5-1.88-0.75-3.43-0.75h-2.42v6.75H283.66z"/>
<path class="st3" d="M302.06,193.11h-6.13l-1.67,5.18h-1.88l5.63-16.43h2.05l5.6,16.43h-1.95L302.06,193.11z M301.58,191.63
	l-0.85-2.65c-0.67-2.08-1.23-3.94-1.7-5.58h-0.1c-0.55,2.02-1.11,3.88-1.67,5.58l-0.85,2.65H301.58z"/>
<path class="st3" d="M321.64,198.58c-2.1,0-3.84-0.75-5.2-2.25l0.92-1.2c0.59,0.6,1.2,1.08,1.85,1.42c0.67,0.33,1.44,0.5,2.33,0.5
	c1.01,0,1.84-0.27,2.47-0.83c0.64-0.57,0.95-1.32,0.95-2.25c0-2.2-1.74-3.3-5.22-3.3v-1.42c1.63,0,2.81-0.28,3.55-0.85
	c0.73-0.57,1.1-1.32,1.1-2.25c0-0.8-0.26-1.43-0.78-1.9c-0.51-0.48-1.21-0.73-2.1-0.73c-1.26,0-2.42,0.55-3.47,1.65l-1-1.17
	c1.4-1.32,2.91-1.98,4.52-1.98c1.39,0,2.51,0.36,3.38,1.08c0.86,0.7,1.3,1.67,1.3,2.92c0,0.93-0.27,1.73-0.8,2.38
	c-0.52,0.63-1.24,1.12-2.15,1.45v0.1c1.03,0.23,1.87,0.71,2.52,1.42c0.67,0.72,1,1.6,1,2.65c0,0.92-0.23,1.72-0.7,2.42
	c-0.45,0.68-1.06,1.21-1.85,1.58C323.48,198.4,322.6,198.58,321.64,198.58z"/>
<path class="st6" d="M86.58,71.67c-0.72,0.36-1.69,0.64-2.89,0.84c-1.17,0.24-2.46,0.36-3.87,0.36c-3.94,0-7.34-0.95-10.19-2.84
	c-2.86-1.89-4.99-4.42-6.4-7.6c-4.27-0.84-7.66-3.04-10.2-6.58c-2.49-3.58-3.74-8.13-3.74-13.64c0-4.22,0.74-7.84,2.23-10.86
	c1.49-3.06,3.56-5.39,6.22-7c2.69-1.61,5.79-2.41,9.29-2.41s6.58,0.8,9.23,2.41c2.7,1.61,4.77,3.94,6.22,7
	c1.49,3.06,2.23,6.68,2.23,10.86c0,5.27-1.14,9.66-3.44,13.16c-2.25,3.46-5.35,5.73-9.29,6.82c0.84,1.37,2.05,2.37,3.62,3.02
	c1.57,0.68,3.3,1.03,5.19,1.03c1.49,0,2.94-0.22,4.35-0.66L86.58,71.67z M57.8,42.22c0,4.3,0.82,7.68,2.47,10.14
	c1.65,2.45,3.9,3.68,6.76,3.68c2.82,0,5.05-1.23,6.7-3.68c1.69-2.46,2.53-5.83,2.53-10.14c0-4.06-0.84-7.26-2.53-9.59
	c-1.65-2.33-3.88-3.5-6.7-3.5c-2.86,0-5.11,1.17-6.76,3.5C58.62,34.91,57.8,38.11,57.8,42.22z"/>
<path class="st6" d="M113.6,62.8c-5.03,0-8.87-1.51-11.53-4.53c-2.61-3.02-3.92-7.73-3.92-14.12V22.66h8.27v22.27
	c0,3.82,0.6,6.56,1.81,8.21c1.2,1.65,3,2.47,5.37,2.47c2.41,0,4.24-0.82,5.49-2.47c1.25-1.65,1.87-4.39,1.87-8.21V22.66h7.97v21.48
	c0,6.4-1.31,11.1-3.93,14.12C122.43,61.29,118.63,62.8,113.6,62.8z"/>
<path class="st6" d="M144.32,22.66h24.38v6.94h-16.11v8.63h13.7v6.94h-13.7v9.96h16.72v6.94h-24.99V22.66z"/>
<path class="st6" d="M204.6,62.07l-7.84-14.6h-5.25v14.6h-8.27V22.66h13.88c4.59,0,8.23,0.95,10.92,2.84
	c2.7,1.85,4.05,4.93,4.05,9.23c0,2.82-0.65,5.19-1.93,7.12c-1.29,1.89-3.08,3.3-5.38,4.22l9.12,15.99H204.6z M191.51,40.89h4.89
	c2.49,0,4.38-0.5,5.67-1.51c1.29-1.05,1.93-2.59,1.93-4.65c0-1.97-0.62-3.38-1.87-4.22c-1.25-0.85-3.16-1.27-5.73-1.27h-4.89V40.89z
	"/>
<path class="st6" d="M241.68,62.8c-3.5,0-6.59-0.83-9.29-2.48c-2.65-1.65-4.73-4.02-6.22-7.12c-1.48-3.14-2.23-6.8-2.23-10.98
	c0-4.22,0.75-7.84,2.23-10.86c1.49-3.06,3.57-5.39,6.22-7c2.7-1.61,5.79-2.41,9.29-2.41c3.5,0,6.58,0.8,9.24,2.41
	c2.69,1.61,4.76,3.94,6.21,7c1.49,3.06,2.24,6.68,2.24,10.86c0,4.18-0.75,7.85-2.24,10.98c-1.45,3.1-3.52,5.47-6.21,7.12
	C248.26,61.97,245.18,62.8,241.68,62.8z M241.68,55.61c2.82,0,5.05-1.21,6.7-3.62c1.69-2.41,2.54-5.67,2.54-9.78
	c0-4.06-0.85-7.26-2.54-9.59c-1.65-2.33-3.88-3.5-6.7-3.5c-2.85,0-5.11,1.17-6.76,3.5c-1.64,2.29-2.47,5.49-2.47,9.59
	c0,4.1,0.83,7.36,2.47,9.78C236.61,54.41,238.87,55.61,241.68,55.61z"/>
</svg>
