<?xml version="1.0" encoding="utf-8"?>
<!-- Generator: Adobe Illustrator 27.1.1, SVG Export Plug-In . SVG Version: 6.00 Build 0)  -->
<svg version="1.1" id="Camada_1" xmlns="http://www.w3.org/2000/svg" xmlns:xlink="http://www.w3.org/1999/xlink" x="0px" y="0px"
	 viewBox="0 0 340.49 210.56" style="enable-background:new 0 0 340.49 210.56;" xml:space="preserve">
<style type="text/css">
	.st0{fill:#4493CD;}
	.st1{fill:#BDA93B;}
	.st2{fill:#C45791;}
	.st3{fill:#FFFFFF;}
	.st4{fill:#CFB632;}
	.st5{fill:#BFDFF7;}
	.st6{fill:#262626;}
	.st7{fill:#E5CF5F;}
	.st8{fill:#F1A5C9;}
	.st9{fill:#C8E6FA;}
	.st10{fill:#3E3E3E;}
	.st11{fill-rule:evenodd;clip-rule:evenodd;fill:#FAFAFA;}
	.st12{fill-rule:evenodd;clip-rule:evenodd;fill:#FFFFFF;}
	.st13{fill:#010202;}
	.st14{fill:#CCC8C9;}
	.st15{fill:#D9D9D9;}
	.st16{fill:none;stroke:#010202;}
	.st17{fill-rule:evenodd;clip-rule:evenodd;fill:#262626;}
</style>
<rect x="169.99" y="164.53" class="st6" width="170.5" height="46.03"/>
<rect x="-0.5" y="83.54" class="st9" width="326.5" height="80.99"/>
<rect x="23.37" class="st7" width="257.45" height="83.54"/>
<path class="st6" d="M50.44,110.33H38.38v-3.76h28.46v3.76H54.85v35.45h-4.42V110.33z"/>
<path class="st6" d="M101.53,145.78l-9.73-16.95h-7.4v16.95h-4.41v-39.21h11.99c8.99,0,13.49,3.62,13.49,10.86
	c0,2.98-0.82,5.41-2.45,7.28c-1.59,1.87-3.82,3.1-6.68,3.7l10.2,17.37H101.53z M84.4,125.25h6.86c3.18,0,5.61-0.66,7.28-1.97
	c1.67-1.31,2.51-3.26,2.51-5.85c0-2.59-0.82-4.44-2.45-5.55c-1.63-1.15-4.08-1.73-7.34-1.73H84.4V125.25z"/>
<path class="st6" d="M119.58,106.57h22.26v3.76H124v12.95h15.04v3.7H124v15.04h18.44v3.76h-22.86V106.57z"/>
<path class="st6" d="M156.84,106.57h4.42v39.21h-4.42V106.57z"/>
<path class="st6" d="M178.14,106.57h4.54l14.8,25.42l4.3,8.06H202l-0.18-2.63c-0.04-0.64-0.12-1.97-0.24-4
	c-0.12-2.07-0.18-3.94-0.18-5.61v-21.24h4.18v39.21h-4.53l-14.8-25.42l-4.3-8.06h-0.24l0.18,2.86c0.28,3.46,0.42,6.5,0.42,9.13
	v21.48h-4.18V106.57z"/>
<path class="st6" d="M240.35,133.42h-14.62l-4,12.35h-4.48l13.43-39.21h4.89l13.37,39.21h-4.65L240.35,133.42z M239.21,129.9
	l-2.03-6.33c-1.59-4.97-2.94-9.41-4.06-13.31h-0.24c-1.31,4.81-2.65,9.25-4,13.31l-2.03,6.33H239.21z"/>
<path class="st6" d="M282.19,145.78l-9.73-16.95h-7.4v16.95h-4.42v-39.21h11.99c8.99,0,13.49,3.62,13.49,10.86
	c0,2.98-0.82,5.41-2.45,7.28c-1.59,1.87-3.82,3.1-6.68,3.7l10.2,17.37H282.19z M265.06,125.25h6.86c3.19,0,5.61-0.66,7.28-1.97
	c1.67-1.31,2.51-3.26,2.51-5.85c0-2.59-0.82-4.44-2.45-5.55c-1.63-1.15-4.07-1.73-7.34-1.73h-6.86V125.25z"/>
<path class="st3" d="M194.18,178.52h1.34l-6.85,21.51h-1.33L194.18,178.52z"/>
<path class="st3" d="M205.35,178.52h1.33l-6.85,21.51h-1.34L205.35,178.52z"/>
<path class="st3" d="M216.51,178.52h1.33L211,200.03h-1.34L216.51,178.52z"/>
<path class="st3" d="M230.28,179.83h9.22v1.56h-7.39v5.36h6.23v1.53h-6.23v6.23h7.64v1.56h-9.47V179.83z"/>
<path class="st3" d="M249.12,181.39h-4.99v-1.56h11.79v1.56h-4.97v14.68h-1.83V181.39z"/>
<path class="st3" d="M267.77,190.95h-6.06l-1.66,5.12h-1.85l5.56-16.24h2.03l5.54,16.24h-1.93L267.77,190.95z M267.3,189.49
	l-0.84-2.62c-0.66-2.06-1.22-3.9-1.68-5.51h-0.1c-0.54,1.99-1.1,3.83-1.66,5.51l-0.84,2.62H267.3z"/>
<path class="st3" d="M276.18,179.83h4.5c1.93,0,3.41,0.37,4.45,1.11c1.05,0.72,1.58,1.93,1.58,3.61c0,1.63-0.53,2.87-1.58,3.71
	c-1.06,0.82-2.51,1.24-4.35,1.24h-2.77v6.58h-1.83V179.83z M280.51,187.99c1.5,0,2.6-0.27,3.31-0.82c0.71-0.56,1.06-1.43,1.06-2.62
	c0-1.19-0.36-2.02-1.09-2.5c-0.72-0.49-1.85-0.74-3.38-0.74h-2.4v6.67H280.51z"/>
<path class="st3" d="M298.69,190.95h-6.05l-1.66,5.12h-1.85l5.56-16.24h2.03l5.53,16.24h-1.92L298.69,190.95z M298.22,189.49
	l-0.84-2.62c-0.66-2.06-1.22-3.9-1.68-5.51h-0.1c-0.54,1.99-1.09,3.83-1.65,5.51l-0.84,2.62H298.22z"/>
<path class="st3" d="M313.46,194.56h3.63v-11.99h-2.86v-1.16c1.33-0.23,2.43-0.6,3.28-1.11h1.39v14.26h3.29v1.51h-8.73V194.56z"/>
<path class="st6" d="M85.11,70.87c-0.72,0.36-1.67,0.64-2.86,0.84c-1.15,0.24-2.43,0.36-3.82,0.36c-3.9,0-7.26-0.93-10.08-2.8
	c-2.82-1.87-4.93-4.38-6.33-7.52c-4.22-0.84-7.58-3-10.09-6.51c-2.47-3.54-3.7-8.04-3.7-13.49c0-4.18,0.74-7.76,2.21-10.74
	c1.47-3.02,3.52-5.33,6.15-6.92c2.66-1.59,5.73-2.39,9.19-2.39c3.46,0,6.51,0.8,9.13,2.39c2.66,1.59,4.71,3.9,6.15,6.92
	c1.47,3.02,2.21,6.6,2.21,10.74c0,5.21-1.13,9.55-3.4,13.01c-2.23,3.42-5.29,5.67-9.19,6.74c0.83,1.35,2.03,2.35,3.58,2.98
	c1.55,0.68,3.26,1.01,5.13,1.01c1.47,0,2.9-0.22,4.3-0.66L85.11,70.87z M56.65,41.75c0,4.26,0.82,7.6,2.45,10.03
	s3.86,3.64,6.68,3.64c2.79,0,4.99-1.21,6.62-3.64c1.67-2.43,2.51-5.77,2.51-10.03c0-4.02-0.84-7.18-2.51-9.49
	c-1.63-2.31-3.84-3.46-6.62-3.46c-2.82,0-5.05,1.15-6.68,3.46C57.46,34.53,56.65,37.69,56.65,41.75z"/>
<path class="st6" d="M111.83,62.09c-4.97,0-8.77-1.49-11.4-4.48c-2.59-2.98-3.88-7.64-3.88-13.96V22.41h8.17v22.02
	c0,3.78,0.6,6.48,1.79,8.12c1.19,1.63,2.96,2.45,5.31,2.45c2.39,0,4.2-0.82,5.43-2.45c1.23-1.63,1.85-4.34,1.85-8.12V22.41h7.88
	v21.24c0,6.33-1.29,10.98-3.88,13.96C120.56,60.6,116.8,62.09,111.83,62.09z"/>
<path class="st6" d="M142.21,22.41h24.11v6.86h-15.93v8.53h13.55v6.86h-13.55v9.85h16.53v6.86h-24.71V22.41z"/>
<path class="st6" d="M201.82,61.38l-7.76-14.44h-5.19v14.44h-8.18V22.41h13.73c4.53,0,8.14,0.93,10.8,2.8c2.67,1.83,4,4.87,4,9.13
	c0,2.78-0.64,5.13-1.91,7.04c-1.27,1.87-3.04,3.26-5.31,4.18l9.01,15.81H201.82z M188.87,40.43h4.83c2.47,0,4.34-0.5,5.61-1.49
	c1.27-1.03,1.91-2.57,1.91-4.59c0-1.95-0.62-3.34-1.85-4.18c-1.23-0.84-3.12-1.25-5.67-1.25h-4.83V40.43z"/>
<path class="st6" d="M238.48,62.09c-3.46,0-6.52-0.82-9.19-2.45c-2.62-1.63-4.67-3.98-6.15-7.04c-1.47-3.1-2.21-6.72-2.21-10.86
	c0-4.18,0.74-7.76,2.21-10.74c1.47-3.02,3.52-5.33,6.15-6.92c2.67-1.59,5.73-2.39,9.19-2.39s6.51,0.8,9.13,2.39
	c2.67,1.59,4.71,3.9,6.15,6.92c1.47,3.02,2.21,6.6,2.21,10.74c0,4.14-0.74,7.76-2.21,10.86c-1.43,3.06-3.48,5.41-6.15,7.04
	C244.99,61.28,241.94,62.09,238.48,62.09z M238.48,54.99c2.78,0,4.99-1.19,6.62-3.58c1.67-2.39,2.51-5.61,2.51-9.67
	c0-4.02-0.84-7.18-2.51-9.49c-1.63-2.31-3.84-3.46-6.62-3.46c-2.82,0-5.05,1.15-6.68,3.46c-1.63,2.27-2.45,5.43-2.45,9.49
	c0,4.06,0.82,7.28,2.45,9.67C233.47,53.8,235.7,54.99,238.48,54.99z"/>
</svg>
